G04 #@! TF.GenerationSoftware,KiCad,Pcbnew,(5.1.5)-3*
G04 #@! TF.CreationDate,2021-04-21T21:21:50+09:00*
G04 #@! TF.ProjectId,animacySwarmRobotics,616e696d-6163-4795-9377-61726d526f62,rev?*
G04 #@! TF.SameCoordinates,Original*
G04 #@! TF.FileFunction,Legend,Top*
G04 #@! TF.FilePolarity,Positive*
%FSLAX46Y46*%
G04 Gerber Fmt 4.6, Leading zero omitted, Abs format (unit mm)*
G04 Created by KiCad (PCBNEW (5.1.5)-3) date 2021-04-21 21:21:50*
%MOMM*%
%LPD*%
G04 APERTURE LIST*
%ADD10C,0.200000*%
%ADD11C,0.150000*%
%ADD12C,0.120000*%
G04 APERTURE END LIST*
D10*
X104156190Y-98282380D02*
X104346666Y-98282380D01*
X104441904Y-98330000D01*
X104537142Y-98425238D01*
X104584761Y-98615714D01*
X104584761Y-98949047D01*
X104537142Y-99139523D01*
X104441904Y-99234761D01*
X104346666Y-99282380D01*
X104156190Y-99282380D01*
X104060952Y-99234761D01*
X103965714Y-99139523D01*
X103918095Y-98949047D01*
X103918095Y-98615714D01*
X103965714Y-98425238D01*
X104060952Y-98330000D01*
X104156190Y-98282380D01*
X105346666Y-98758571D02*
X105013333Y-98758571D01*
X105013333Y-99282380D02*
X105013333Y-98282380D01*
X105489523Y-98282380D01*
X106203809Y-98758571D02*
X105870476Y-98758571D01*
X105870476Y-99282380D02*
X105870476Y-98282380D01*
X106346666Y-98282380D01*
X107441904Y-98234761D02*
X106584761Y-99520476D01*
X107965714Y-98282380D02*
X108156190Y-98282380D01*
X108251428Y-98330000D01*
X108346666Y-98425238D01*
X108394285Y-98615714D01*
X108394285Y-98949047D01*
X108346666Y-99139523D01*
X108251428Y-99234761D01*
X108156190Y-99282380D01*
X107965714Y-99282380D01*
X107870476Y-99234761D01*
X107775238Y-99139523D01*
X107727619Y-98949047D01*
X107727619Y-98615714D01*
X107775238Y-98425238D01*
X107870476Y-98330000D01*
X107965714Y-98282380D01*
X108822857Y-99282380D02*
X108822857Y-98282380D01*
X109394285Y-99282380D01*
X109394285Y-98282380D01*
X45761904Y-83282380D02*
X46380952Y-83282380D01*
X46047619Y-83663333D01*
X46190476Y-83663333D01*
X46285714Y-83710952D01*
X46333333Y-83758571D01*
X46380952Y-83853809D01*
X46380952Y-84091904D01*
X46333333Y-84187142D01*
X46285714Y-84234761D01*
X46190476Y-84282380D01*
X45904761Y-84282380D01*
X45809523Y-84234761D01*
X45761904Y-84187142D01*
X46666666Y-83282380D02*
X47000000Y-84282380D01*
X47333333Y-83282380D01*
X47571428Y-83282380D02*
X48190476Y-83282380D01*
X47857142Y-83663333D01*
X48000000Y-83663333D01*
X48095238Y-83710952D01*
X48142857Y-83758571D01*
X48190476Y-83853809D01*
X48190476Y-84091904D01*
X48142857Y-84187142D01*
X48095238Y-84234761D01*
X48000000Y-84282380D01*
X47714285Y-84282380D01*
X47619047Y-84234761D01*
X47571428Y-84187142D01*
X46228095Y-56142000D02*
X46132857Y-56094380D01*
X45990000Y-56094380D01*
X45847142Y-56142000D01*
X45751904Y-56237238D01*
X45704285Y-56332476D01*
X45656666Y-56522952D01*
X45656666Y-56665809D01*
X45704285Y-56856285D01*
X45751904Y-56951523D01*
X45847142Y-57046761D01*
X45990000Y-57094380D01*
X46085238Y-57094380D01*
X46228095Y-57046761D01*
X46275714Y-56999142D01*
X46275714Y-56665809D01*
X46085238Y-56665809D01*
X46704285Y-57094380D02*
X46704285Y-56094380D01*
X47275714Y-57094380D01*
X47275714Y-56094380D01*
X47751904Y-57094380D02*
X47751904Y-56094380D01*
X47990000Y-56094380D01*
X48132857Y-56142000D01*
X48228095Y-56237238D01*
X48275714Y-56332476D01*
X48323333Y-56522952D01*
X48323333Y-56665809D01*
X48275714Y-56856285D01*
X48228095Y-56951523D01*
X48132857Y-57046761D01*
X47990000Y-57094380D01*
X47751904Y-57094380D01*
D11*
X114707142Y-92248571D02*
X113807142Y-92248571D01*
X113807142Y-91905714D01*
X113850000Y-91820000D01*
X113892857Y-91777142D01*
X113978571Y-91734285D01*
X114107142Y-91734285D01*
X114192857Y-91777142D01*
X114235714Y-91820000D01*
X114278571Y-91905714D01*
X114278571Y-92248571D01*
X113807142Y-91177142D02*
X113807142Y-91005714D01*
X113850000Y-90920000D01*
X113935714Y-90834285D01*
X114107142Y-90791428D01*
X114407142Y-90791428D01*
X114578571Y-90834285D01*
X114664285Y-90920000D01*
X114707142Y-91005714D01*
X114707142Y-91177142D01*
X114664285Y-91262857D01*
X114578571Y-91348571D01*
X114407142Y-91391428D01*
X114107142Y-91391428D01*
X113935714Y-91348571D01*
X113850000Y-91262857D01*
X113807142Y-91177142D01*
X113807142Y-90491428D02*
X114707142Y-90277142D01*
X114064285Y-90105714D01*
X114707142Y-89934285D01*
X113807142Y-89720000D01*
X114235714Y-89377142D02*
X114235714Y-89077142D01*
X114707142Y-88948571D02*
X114707142Y-89377142D01*
X113807142Y-89377142D01*
X113807142Y-88948571D01*
X114707142Y-88048571D02*
X114278571Y-88348571D01*
X114707142Y-88562857D02*
X113807142Y-88562857D01*
X113807142Y-88220000D01*
X113850000Y-88134285D01*
X113892857Y-88091428D01*
X113978571Y-88048571D01*
X114107142Y-88048571D01*
X114192857Y-88091428D01*
X114235714Y-88134285D01*
X114278571Y-88220000D01*
X114278571Y-88562857D01*
X87487857Y-83954285D02*
X87487857Y-84040000D01*
X87445000Y-84125714D01*
X87402142Y-84168571D01*
X87316428Y-84211428D01*
X87145000Y-84254285D01*
X86930714Y-84254285D01*
X86759285Y-84211428D01*
X86673571Y-84168571D01*
X86630714Y-84125714D01*
X86587857Y-84040000D01*
X86587857Y-83954285D01*
X86630714Y-83868571D01*
X86673571Y-83825714D01*
X86759285Y-83782857D01*
X86930714Y-83740000D01*
X87145000Y-83740000D01*
X87316428Y-83782857D01*
X87402142Y-83825714D01*
X87445000Y-83868571D01*
X87487857Y-83954285D01*
X86630714Y-84682857D02*
X86587857Y-84682857D01*
X86502142Y-84640000D01*
X86459285Y-84597142D01*
X87059285Y-85068571D02*
X87059285Y-85368571D01*
X86587857Y-85497142D02*
X86587857Y-85068571D01*
X87487857Y-85068571D01*
X87487857Y-85497142D01*
X86587857Y-85882857D02*
X87487857Y-85882857D01*
X86587857Y-86397142D01*
X87487857Y-86397142D01*
X142189285Y-75115000D02*
X142103571Y-75072142D01*
X141975000Y-75072142D01*
X141846428Y-75115000D01*
X141760714Y-75200714D01*
X141717857Y-75286428D01*
X141675000Y-75457857D01*
X141675000Y-75586428D01*
X141717857Y-75757857D01*
X141760714Y-75843571D01*
X141846428Y-75929285D01*
X141975000Y-75972142D01*
X142060714Y-75972142D01*
X142189285Y-75929285D01*
X142232142Y-75886428D01*
X142232142Y-75586428D01*
X142060714Y-75586428D01*
X142617857Y-75972142D02*
X142617857Y-75072142D01*
X143132142Y-75972142D01*
X143132142Y-75072142D01*
X143560714Y-75972142D02*
X143560714Y-75072142D01*
X143775000Y-75072142D01*
X143903571Y-75115000D01*
X143989285Y-75200714D01*
X144032142Y-75286428D01*
X144075000Y-75457857D01*
X144075000Y-75586428D01*
X144032142Y-75757857D01*
X143989285Y-75843571D01*
X143903571Y-75929285D01*
X143775000Y-75972142D01*
X143560714Y-75972142D01*
D10*
X45593047Y-90573428D02*
X46354952Y-90573428D01*
X45974000Y-90954380D02*
X45974000Y-90192476D01*
X45593047Y-93973428D02*
X46354952Y-93973428D01*
X53991190Y-98282380D02*
X54181666Y-98282380D01*
X54276904Y-98330000D01*
X54372142Y-98425238D01*
X54419761Y-98615714D01*
X54419761Y-98949047D01*
X54372142Y-99139523D01*
X54276904Y-99234761D01*
X54181666Y-99282380D01*
X53991190Y-99282380D01*
X53895952Y-99234761D01*
X53800714Y-99139523D01*
X53753095Y-98949047D01*
X53753095Y-98615714D01*
X53800714Y-98425238D01*
X53895952Y-98330000D01*
X53991190Y-98282380D01*
X55181666Y-98758571D02*
X54848333Y-98758571D01*
X54848333Y-99282380D02*
X54848333Y-98282380D01*
X55324523Y-98282380D01*
X56038809Y-98758571D02*
X55705476Y-98758571D01*
X55705476Y-99282380D02*
X55705476Y-98282380D01*
X56181666Y-98282380D01*
X57276904Y-98234761D02*
X56419761Y-99520476D01*
X57800714Y-98282380D02*
X57991190Y-98282380D01*
X58086428Y-98330000D01*
X58181666Y-98425238D01*
X58229285Y-98615714D01*
X58229285Y-98949047D01*
X58181666Y-99139523D01*
X58086428Y-99234761D01*
X57991190Y-99282380D01*
X57800714Y-99282380D01*
X57705476Y-99234761D01*
X57610238Y-99139523D01*
X57562619Y-98949047D01*
X57562619Y-98615714D01*
X57610238Y-98425238D01*
X57705476Y-98330000D01*
X57800714Y-98282380D01*
X58657857Y-99282380D02*
X58657857Y-98282380D01*
X59229285Y-99282380D01*
X59229285Y-98282380D01*
X81024000Y-67436904D02*
X80976380Y-67532142D01*
X80976380Y-67675000D01*
X81024000Y-67817857D01*
X81119238Y-67913095D01*
X81214476Y-67960714D01*
X81404952Y-68008333D01*
X81547809Y-68008333D01*
X81738285Y-67960714D01*
X81833523Y-67913095D01*
X81928761Y-67817857D01*
X81976380Y-67675000D01*
X81976380Y-67579761D01*
X81928761Y-67436904D01*
X81881142Y-67389285D01*
X81547809Y-67389285D01*
X81547809Y-67579761D01*
X81976380Y-66960714D02*
X80976380Y-66960714D01*
X81976380Y-66389285D01*
X80976380Y-66389285D01*
X81976380Y-65913095D02*
X80976380Y-65913095D01*
X80976380Y-65675000D01*
X81024000Y-65532142D01*
X81119238Y-65436904D01*
X81214476Y-65389285D01*
X81404952Y-65341666D01*
X81547809Y-65341666D01*
X81738285Y-65389285D01*
X81833523Y-65436904D01*
X81928761Y-65532142D01*
X81976380Y-65675000D01*
X81976380Y-65913095D01*
X82676380Y-67913095D02*
X82676380Y-67294047D01*
X83057333Y-67627380D01*
X83057333Y-67484523D01*
X83104952Y-67389285D01*
X83152571Y-67341666D01*
X83247809Y-67294047D01*
X83485904Y-67294047D01*
X83581142Y-67341666D01*
X83628761Y-67389285D01*
X83676380Y-67484523D01*
X83676380Y-67770238D01*
X83628761Y-67865476D01*
X83581142Y-67913095D01*
X82676380Y-67008333D02*
X83676380Y-66675000D01*
X82676380Y-66341666D01*
X82676380Y-66103571D02*
X82676380Y-65484523D01*
X83057333Y-65817857D01*
X83057333Y-65675000D01*
X83104952Y-65579761D01*
X83152571Y-65532142D01*
X83247809Y-65484523D01*
X83485904Y-65484523D01*
X83581142Y-65532142D01*
X83628761Y-65579761D01*
X83676380Y-65675000D01*
X83676380Y-65960714D01*
X83628761Y-66055952D01*
X83581142Y-66103571D01*
X85328761Y-67889285D02*
X85376380Y-67746428D01*
X85376380Y-67508333D01*
X85328761Y-67413095D01*
X85281142Y-67365476D01*
X85185904Y-67317857D01*
X85090666Y-67317857D01*
X84995428Y-67365476D01*
X84947809Y-67413095D01*
X84900190Y-67508333D01*
X84852571Y-67698809D01*
X84804952Y-67794047D01*
X84757333Y-67841666D01*
X84662095Y-67889285D01*
X84566857Y-67889285D01*
X84471619Y-67841666D01*
X84424000Y-67794047D01*
X84376380Y-67698809D01*
X84376380Y-67460714D01*
X84424000Y-67317857D01*
X85376380Y-66889285D02*
X84376380Y-66889285D01*
X84376380Y-66651190D01*
X84424000Y-66508333D01*
X84519238Y-66413095D01*
X84614476Y-66365476D01*
X84804952Y-66317857D01*
X84947809Y-66317857D01*
X85138285Y-66365476D01*
X85233523Y-66413095D01*
X85328761Y-66508333D01*
X85376380Y-66651190D01*
X85376380Y-66889285D01*
X85090666Y-65936904D02*
X85090666Y-65460714D01*
X85376380Y-66032142D02*
X84376380Y-65698809D01*
X85376380Y-65365476D01*
X87028761Y-67865476D02*
X87076380Y-67722619D01*
X87076380Y-67484523D01*
X87028761Y-67389285D01*
X86981142Y-67341666D01*
X86885904Y-67294047D01*
X86790666Y-67294047D01*
X86695428Y-67341666D01*
X86647809Y-67389285D01*
X86600190Y-67484523D01*
X86552571Y-67675000D01*
X86504952Y-67770238D01*
X86457333Y-67817857D01*
X86362095Y-67865476D01*
X86266857Y-67865476D01*
X86171619Y-67817857D01*
X86124000Y-67770238D01*
X86076380Y-67675000D01*
X86076380Y-67436904D01*
X86124000Y-67294047D01*
X86981142Y-66294047D02*
X87028761Y-66341666D01*
X87076380Y-66484523D01*
X87076380Y-66579761D01*
X87028761Y-66722619D01*
X86933523Y-66817857D01*
X86838285Y-66865476D01*
X86647809Y-66913095D01*
X86504952Y-66913095D01*
X86314476Y-66865476D01*
X86219238Y-66817857D01*
X86124000Y-66722619D01*
X86076380Y-66579761D01*
X86076380Y-66484523D01*
X86124000Y-66341666D01*
X86171619Y-66294047D01*
X87076380Y-65389285D02*
X87076380Y-65865476D01*
X86076380Y-65865476D01*
X95885000Y-100330000D02*
G75*
G03X95885000Y-100330000I-635000J0D01*
G01*
D11*
X139700000Y-52705000D02*
X139700000Y-60325000D01*
X139180000Y-58015000D02*
X139430000Y-58015000D01*
X139680000Y-58015000D02*
X139430000Y-58015000D01*
X139680000Y-57515000D02*
X139180000Y-57515000D01*
X139680000Y-55515000D02*
X139180000Y-55515000D01*
X139430000Y-55015000D02*
X139180000Y-55015000D01*
X139430000Y-55015000D02*
X139680000Y-55015000D01*
X139680000Y-59265000D02*
X137930000Y-59265000D01*
X139680000Y-53765000D02*
X137930000Y-53765000D01*
X143430000Y-55015000D02*
X143680000Y-55265000D01*
X143680000Y-55265000D02*
X143430000Y-55515000D01*
X140430000Y-57515000D02*
X143430000Y-57515000D01*
X143430000Y-57515000D02*
X143680000Y-57765000D01*
X143680000Y-57765000D02*
X143430000Y-58015000D01*
X143430000Y-58015000D02*
X140430000Y-58015000D01*
X140430000Y-55515000D02*
X143430000Y-55515000D01*
X140430000Y-55015000D02*
X143430000Y-55015000D01*
X140430000Y-58765000D02*
X140430000Y-59265000D01*
X140430000Y-59265000D02*
X145180000Y-59265000D01*
X144430000Y-53765000D02*
X145180000Y-53765000D01*
X140430000Y-53765000D02*
X140430000Y-58765000D01*
X140430000Y-53765000D02*
X144430000Y-53765000D01*
X137930000Y-60265000D02*
X138430000Y-60265000D01*
X138430000Y-52765000D02*
X138230000Y-52765000D01*
X138230000Y-52765000D02*
X137930000Y-52765000D01*
X137930000Y-60265000D02*
X137930000Y-52765000D01*
X138430000Y-52765000D02*
X145130000Y-52765000D01*
X145130000Y-52765000D02*
X145130000Y-53765000D01*
X145130000Y-58865000D02*
X145130000Y-59065000D01*
X145130000Y-59065000D02*
X145130000Y-60265000D01*
X138430000Y-60265000D02*
X139630000Y-60265000D01*
X139630000Y-60265000D02*
X145130000Y-60265000D01*
X145130000Y-53765000D02*
X145130000Y-58965000D01*
X145130000Y-54965000D02*
X145130000Y-55265000D01*
X101710000Y-67580000D02*
X101710000Y-66310000D01*
X101710000Y-66310000D02*
X97900000Y-66310000D01*
X101710000Y-70120000D02*
X101710000Y-69485000D01*
X101710000Y-69485000D02*
X101710000Y-70120000D01*
X101710000Y-70120000D02*
X101710000Y-70755000D01*
X101710000Y-70755000D02*
X97900000Y-70755000D01*
X97900000Y-68215000D02*
X97900000Y-68850000D01*
X99424000Y-68342000D02*
X98916000Y-68342000D01*
X98916000Y-68342000D02*
X98916000Y-68850000D01*
X98916000Y-68850000D02*
X99424000Y-68850000D01*
X99424000Y-68850000D02*
X99424000Y-69358000D01*
X99424000Y-69358000D02*
X99932000Y-69358000D01*
X99932000Y-69358000D02*
X99932000Y-68850000D01*
X99932000Y-68850000D02*
X100440000Y-68850000D01*
X100440000Y-68850000D02*
X100440000Y-68342000D01*
X100440000Y-68342000D02*
X99932000Y-68342000D01*
X99932000Y-68342000D02*
X99932000Y-67834000D01*
X99424000Y-68342000D02*
X99424000Y-67834000D01*
X99932000Y-67834000D02*
X99424000Y-67834000D01*
X100440000Y-68596000D02*
G75*
G03X100440000Y-68596000I-762000J0D01*
G01*
X101710000Y-73295000D02*
X101710000Y-72025000D01*
X101710000Y-72025000D02*
X97900000Y-72025000D01*
X101710000Y-75835000D02*
X101710000Y-75200000D01*
X101710000Y-75200000D02*
X101710000Y-75835000D01*
X101710000Y-75835000D02*
X101710000Y-76470000D01*
X101710000Y-76470000D02*
X97900000Y-76470000D01*
X97900000Y-73930000D02*
X97900000Y-74565000D01*
X99424000Y-74057000D02*
X98916000Y-74057000D01*
X98916000Y-74057000D02*
X98916000Y-74565000D01*
X98916000Y-74565000D02*
X99424000Y-74565000D01*
X99424000Y-74565000D02*
X99424000Y-75073000D01*
X99424000Y-75073000D02*
X99932000Y-75073000D01*
X99932000Y-75073000D02*
X99932000Y-74565000D01*
X99932000Y-74565000D02*
X100440000Y-74565000D01*
X100440000Y-74565000D02*
X100440000Y-74057000D01*
X100440000Y-74057000D02*
X99932000Y-74057000D01*
X99932000Y-74057000D02*
X99932000Y-73549000D01*
X99424000Y-74057000D02*
X99424000Y-73549000D01*
X99932000Y-73549000D02*
X99424000Y-73549000D01*
X100440000Y-74311000D02*
G75*
G03X100440000Y-74311000I-762000J0D01*
G01*
D12*
X45503000Y-71754000D02*
X45503000Y-81154000D01*
X51303000Y-81154000D02*
X49303000Y-81154000D01*
X47403000Y-81154000D02*
X45503000Y-81154000D01*
X51303000Y-71754000D02*
X49303000Y-71754000D01*
X47403000Y-71754000D02*
X45503000Y-71754000D01*
X77132000Y-63776000D02*
X77132000Y-64036000D01*
X77132000Y-63776000D02*
X76872000Y-63776000D01*
X77132000Y-67796000D02*
X77132000Y-67536000D01*
X77132000Y-67796000D02*
X76872000Y-67796000D01*
X71712000Y-63776000D02*
X71972000Y-63776000D01*
X71712000Y-67796000D02*
X71712000Y-67536000D01*
X71712000Y-67796000D02*
X71972000Y-67796000D01*
X58565885Y-67137876D02*
X58230009Y-66802000D01*
X58230009Y-66802000D02*
X58565885Y-66466124D01*
X63862115Y-66466124D02*
X64197991Y-66802000D01*
X64197991Y-66802000D02*
X63862115Y-67137876D01*
X61549876Y-64153885D02*
X61214000Y-63818009D01*
X61214000Y-63818009D02*
X60878124Y-64153885D01*
X60878124Y-69450115D02*
X61214000Y-69785991D01*
X52645000Y-97850000D02*
X52645000Y-96520000D01*
X53975000Y-97850000D02*
X52645000Y-97850000D01*
X55245000Y-97850000D02*
X55245000Y-95190000D01*
X55245000Y-95190000D02*
X60385000Y-95190000D01*
X55245000Y-97850000D02*
X60385000Y-97850000D01*
X60385000Y-97850000D02*
X60385000Y-95190000D01*
D11*
X44500000Y-96379000D02*
X44500000Y-96079000D01*
X44500000Y-97579000D02*
X44500000Y-92379000D01*
X50000000Y-91079000D02*
X44500000Y-91079000D01*
X51200000Y-91079000D02*
X50000000Y-91079000D01*
X44500000Y-92279000D02*
X44500000Y-91079000D01*
X44500000Y-92479000D02*
X44500000Y-92279000D01*
X44500000Y-98579000D02*
X44500000Y-97579000D01*
X51200000Y-98579000D02*
X44500000Y-98579000D01*
X51700000Y-91079000D02*
X51700000Y-98579000D01*
X51400000Y-98579000D02*
X51700000Y-98579000D01*
X51200000Y-98579000D02*
X51400000Y-98579000D01*
X51700000Y-91079000D02*
X51200000Y-91079000D01*
X49200000Y-97579000D02*
X45200000Y-97579000D01*
X49200000Y-97579000D02*
X49200000Y-92579000D01*
X45200000Y-97579000D02*
X44450000Y-97579000D01*
X49200000Y-92079000D02*
X44450000Y-92079000D01*
X49200000Y-92579000D02*
X49200000Y-92079000D01*
X49200000Y-96329000D02*
X46200000Y-96329000D01*
X49200000Y-95829000D02*
X46200000Y-95829000D01*
X46200000Y-93329000D02*
X49200000Y-93329000D01*
X45950000Y-93579000D02*
X46200000Y-93329000D01*
X46200000Y-93829000D02*
X45950000Y-93579000D01*
X49200000Y-93829000D02*
X46200000Y-93829000D01*
X45950000Y-96079000D02*
X46200000Y-95829000D01*
X46200000Y-96329000D02*
X45950000Y-96079000D01*
X49950000Y-97579000D02*
X51700000Y-97579000D01*
X49950000Y-92079000D02*
X51700000Y-92079000D01*
X50200000Y-96329000D02*
X49950000Y-96329000D01*
X50200000Y-96329000D02*
X50450000Y-96329000D01*
X49950000Y-95829000D02*
X50450000Y-95829000D01*
X49950000Y-93829000D02*
X50450000Y-93829000D01*
X49950000Y-93329000D02*
X50200000Y-93329000D01*
X50450000Y-93329000D02*
X50200000Y-93329000D01*
X49930000Y-98639000D02*
X49930000Y-91019000D01*
X94670000Y-70485000D02*
G75*
G03X94670000Y-70485000I-4500000J0D01*
G01*
X63773000Y-71882000D02*
X64789000Y-71882000D01*
X64789000Y-72898000D02*
X63773000Y-72898000D01*
X123825000Y-128905000D02*
X122555000Y-128905000D01*
X123825000Y-135890000D02*
X123825000Y-128905000D01*
X122555000Y-135890000D02*
X123825000Y-135890000D01*
X116205000Y-135890000D02*
X117475000Y-135890000D01*
X116205000Y-128905000D02*
X116205000Y-135890000D01*
X117475000Y-128905000D02*
X116205000Y-128905000D01*
X122174000Y-131572000D02*
X122174000Y-134366000D01*
X121666000Y-131572000D02*
X122174000Y-131572000D01*
X121666000Y-134366000D02*
X121666000Y-131572000D01*
X122174000Y-134366000D02*
X121666000Y-134366000D01*
X120904000Y-131572000D02*
X120904000Y-134366000D01*
X120396000Y-131572000D02*
X120904000Y-131572000D01*
X120396000Y-134366000D02*
X120396000Y-131572000D01*
X120904000Y-134366000D02*
X120396000Y-134366000D01*
X119634000Y-131572000D02*
X119634000Y-134366000D01*
X119126000Y-131572000D02*
X119634000Y-131572000D01*
X119126000Y-134366000D02*
X119126000Y-131572000D01*
X119634000Y-134366000D02*
X119126000Y-134366000D01*
X118364000Y-131572000D02*
X118364000Y-134366000D01*
X117856000Y-131572000D02*
X118364000Y-131572000D01*
X117856000Y-134366000D02*
X117856000Y-131572000D01*
X118364000Y-134366000D02*
X117856000Y-134366000D01*
X136525000Y-142367000D02*
X136271000Y-142621000D01*
X139065000Y-142367000D02*
X136525000Y-142367000D01*
X139319000Y-142621000D02*
X139065000Y-142367000D01*
X139319000Y-143383000D02*
X139319000Y-142621000D01*
X139065000Y-143637000D02*
X139319000Y-143383000D01*
X136525000Y-143637000D02*
X139065000Y-143637000D01*
X136271000Y-143383000D02*
X136525000Y-143637000D01*
X136271000Y-142621000D02*
X136271000Y-143383000D01*
X140335000Y-142367000D02*
X140335000Y-143637000D01*
X139065000Y-141605000D02*
X136525000Y-141605000D01*
X136525000Y-144399000D02*
X139065000Y-144399000D01*
X135255000Y-142367000D02*
X135255000Y-143637000D01*
X101600000Y-142367000D02*
X101346000Y-142621000D01*
X104140000Y-142367000D02*
X101600000Y-142367000D01*
X104394000Y-142621000D02*
X104140000Y-142367000D01*
X104394000Y-143383000D02*
X104394000Y-142621000D01*
X104140000Y-143637000D02*
X104394000Y-143383000D01*
X101600000Y-143637000D02*
X104140000Y-143637000D01*
X101346000Y-143383000D02*
X101600000Y-143637000D01*
X101346000Y-142621000D02*
X101346000Y-143383000D01*
X105410000Y-142367000D02*
X105410000Y-143637000D01*
X104140000Y-141605000D02*
X101600000Y-141605000D01*
X101600000Y-144399000D02*
X104140000Y-144399000D01*
X100330000Y-142367000D02*
X100330000Y-143637000D01*
X55372000Y-92441200D02*
X55372000Y-91679200D01*
X54864000Y-91679200D02*
X54864000Y-92441200D01*
X57150000Y-91679200D02*
X57150000Y-92441200D01*
X55372000Y-91679200D02*
X57150000Y-91679200D01*
X59436000Y-91679200D02*
X59436000Y-92441200D01*
X57658000Y-91679200D02*
X59436000Y-91679200D01*
X57658000Y-92441200D02*
X57658000Y-91679200D01*
X59944000Y-91679200D02*
X60452000Y-91679200D01*
X59944000Y-92441200D02*
X59944000Y-91679200D01*
X54864000Y-91679200D02*
X54356000Y-91679200D01*
X54864000Y-91679200D02*
X59944000Y-91679200D01*
X54356000Y-88377200D02*
X54356000Y-91679200D01*
X60452000Y-88377200D02*
X54356000Y-88377200D01*
X60452000Y-91679200D02*
X60452000Y-88377200D01*
X55880000Y-88377200D02*
X55880000Y-87615200D01*
X58928000Y-87869200D02*
X58928000Y-88377200D01*
X58928000Y-87869200D02*
X58928000Y-87615200D01*
X80391000Y-74670000D02*
X80391000Y-75170000D01*
X77891000Y-74670000D02*
X80391000Y-74670000D01*
X62391000Y-74670000D02*
X62391000Y-75170000D01*
X64391000Y-74670000D02*
X62391000Y-74670000D01*
X80391000Y-94170000D02*
X80391000Y-93670000D01*
X62391000Y-94170000D02*
X80391000Y-94170000D01*
X62391000Y-93670000D02*
X62391000Y-94170000D01*
X62391000Y-100170000D02*
X62391000Y-94170000D01*
X80391000Y-100170000D02*
X62391000Y-100170000D01*
X80391000Y-94170000D02*
X80391000Y-100170000D01*
D12*
X87055000Y-50700000D02*
X87055000Y-52030000D01*
X85725000Y-50700000D02*
X87055000Y-50700000D01*
X84455000Y-50700000D02*
X84455000Y-53360000D01*
X84455000Y-53360000D02*
X53915000Y-53360000D01*
X84455000Y-50700000D02*
X53915000Y-50700000D01*
X53915000Y-50700000D02*
X53915000Y-53360000D01*
X86556000Y-59057000D02*
X83906000Y-59057000D01*
X94956000Y-59057000D02*
X92306000Y-59057000D01*
X83906000Y-59057000D02*
X83906000Y-64907000D01*
X91206000Y-59057000D02*
X87706000Y-59057000D01*
X94956000Y-59057000D02*
X94956000Y-64907000D01*
X94956000Y-64907000D02*
X83906000Y-64907000D01*
X92056000Y-59057000D02*
X91456000Y-59057000D01*
X87456000Y-59057000D02*
X86856000Y-59057000D01*
X95456000Y-62357000D02*
X95456000Y-65357000D01*
X95456000Y-65357000D02*
X92456000Y-65357000D01*
X58995000Y-57845000D02*
X58995000Y-56515000D01*
X60325000Y-57845000D02*
X58995000Y-57845000D01*
X61595000Y-57845000D02*
X61595000Y-55185000D01*
X61595000Y-55185000D02*
X81975000Y-55185000D01*
X61595000Y-57845000D02*
X81975000Y-57845000D01*
X81975000Y-57845000D02*
X81975000Y-55185000D01*
X91232000Y-88815000D02*
X91232000Y-92215000D01*
X91232000Y-87175000D02*
X91232000Y-87715000D01*
X88402000Y-94375000D02*
X87892000Y-94375000D01*
X87892000Y-93855000D02*
X87892000Y-94375000D01*
X88402000Y-93855000D02*
X87892000Y-93855000D01*
X91232000Y-93315000D02*
X91232000Y-93855000D01*
X88402000Y-86655000D02*
X87892000Y-86655000D01*
X88402000Y-87175000D02*
X87892000Y-87175000D01*
X91232000Y-93855000D02*
X91002000Y-93855000D01*
X94902000Y-86655000D02*
X91002000Y-86655000D01*
X87892000Y-86655000D02*
X87892000Y-87175000D01*
X94902000Y-94375000D02*
X91002000Y-94375000D01*
X94902000Y-86655000D02*
X94902000Y-94375000D01*
X91232000Y-87175000D02*
X91002000Y-87175000D01*
X91232000Y-78655000D02*
X91232000Y-82055000D01*
X91232000Y-77015000D02*
X91232000Y-77555000D01*
X88402000Y-84215000D02*
X87892000Y-84215000D01*
X87892000Y-83695000D02*
X87892000Y-84215000D01*
X88402000Y-83695000D02*
X87892000Y-83695000D01*
X91232000Y-83155000D02*
X91232000Y-83695000D01*
X88402000Y-76495000D02*
X87892000Y-76495000D01*
X88402000Y-77015000D02*
X87892000Y-77015000D01*
X91232000Y-83695000D02*
X91002000Y-83695000D01*
X94902000Y-76495000D02*
X91002000Y-76495000D01*
X87892000Y-76495000D02*
X87892000Y-77015000D01*
X94902000Y-84215000D02*
X91002000Y-84215000D01*
X94902000Y-76495000D02*
X94902000Y-84215000D01*
X91232000Y-77015000D02*
X91002000Y-77015000D01*
D11*
X49295000Y-52370000D02*
X49295000Y-51770000D01*
X49595000Y-52670000D02*
X48195000Y-52670000D01*
X48195000Y-51470000D02*
X49595000Y-51470000D01*
X49295000Y-52070000D02*
X48595000Y-52370000D01*
X48595000Y-52370000D02*
X48595000Y-51770000D01*
X48595000Y-51770000D02*
X49295000Y-52070000D01*
D12*
X115802665Y-112838608D02*
G75*
G03X119035000Y-112995516I1672335J1078608D01*
G01*
X115802665Y-110681392D02*
G75*
G02X119035000Y-110524484I1672335J-1078608D01*
G01*
X116433870Y-112839837D02*
G75*
G03X118515961Y-112840000I1041130J1079837D01*
G01*
X116433870Y-110680163D02*
G75*
G02X118515961Y-110680000I1041130J-1079837D01*
G01*
X119035000Y-112996000D02*
X119035000Y-112840000D01*
X119035000Y-110680000D02*
X119035000Y-110524000D01*
X143320000Y-121575000D02*
X143476000Y-121575000D01*
X141004000Y-121575000D02*
X141160000Y-121575000D01*
X143319837Y-118973870D02*
G75*
G02X143320000Y-121055961I-1079837J-1041130D01*
G01*
X141160163Y-118973870D02*
G75*
G03X141160000Y-121055961I1079837J-1041130D01*
G01*
X143318608Y-118342665D02*
G75*
G02X143475516Y-121575000I-1078608J-1672335D01*
G01*
X141161392Y-118342665D02*
G75*
G03X141004484Y-121575000I1078608J-1672335D01*
G01*
X124227335Y-145606392D02*
G75*
G03X120995000Y-145449484I-1672335J-1078608D01*
G01*
X124227335Y-147763608D02*
G75*
G02X120995000Y-147920516I-1672335J1078608D01*
G01*
X123596130Y-145605163D02*
G75*
G03X121514039Y-145605000I-1041130J-1079837D01*
G01*
X123596130Y-147764837D02*
G75*
G02X121514039Y-147765000I-1041130J1079837D01*
G01*
X120995000Y-145449000D02*
X120995000Y-145605000D01*
X120995000Y-147765000D02*
X120995000Y-147921000D01*
X97345000Y-123535000D02*
X97189000Y-123535000D01*
X99661000Y-123535000D02*
X99505000Y-123535000D01*
X97345163Y-126136130D02*
G75*
G02X97345000Y-124054039I1079837J1041130D01*
G01*
X99504837Y-126136130D02*
G75*
G03X99505000Y-124054039I-1079837J1041130D01*
G01*
X97346392Y-126767335D02*
G75*
G02X97189484Y-123535000I1078608J1672335D01*
G01*
X99503608Y-126767335D02*
G75*
G03X99660516Y-123535000I-1078608J1672335D01*
G01*
X103445000Y-101540000D02*
X103445000Y-104200000D01*
X133985000Y-101540000D02*
X103445000Y-101540000D01*
X133985000Y-104200000D02*
X103445000Y-104200000D01*
X133985000Y-101540000D02*
X133985000Y-104200000D01*
X135255000Y-101540000D02*
X136585000Y-101540000D01*
X136585000Y-101540000D02*
X136585000Y-102870000D01*
X81855000Y-98485000D02*
X81855000Y-97155000D01*
X83185000Y-98485000D02*
X81855000Y-98485000D01*
X84455000Y-98485000D02*
X84455000Y-95825000D01*
X84455000Y-95825000D02*
X89595000Y-95825000D01*
X84455000Y-98485000D02*
X89595000Y-98485000D01*
X89595000Y-98485000D02*
X89595000Y-95825000D01*
X131385000Y-146625000D02*
X131385000Y-149285000D01*
X136525000Y-146625000D02*
X131385000Y-146625000D01*
X136525000Y-149285000D02*
X131385000Y-149285000D01*
X136525000Y-146625000D02*
X136525000Y-149285000D01*
X137795000Y-146625000D02*
X139125000Y-146625000D01*
X139125000Y-146625000D02*
X139125000Y-147955000D01*
X108525000Y-105985000D02*
X108525000Y-108645000D01*
X128905000Y-105985000D02*
X108525000Y-105985000D01*
X128905000Y-108645000D02*
X108525000Y-108645000D01*
X128905000Y-105985000D02*
X128905000Y-108645000D01*
X130175000Y-105985000D02*
X131505000Y-105985000D01*
X131505000Y-105985000D02*
X131505000Y-107315000D01*
D11*
X105568000Y-91974000D02*
X105568000Y-91674000D01*
X105568000Y-93174000D02*
X105568000Y-87974000D01*
X111068000Y-86674000D02*
X105568000Y-86674000D01*
X112268000Y-86674000D02*
X111068000Y-86674000D01*
X105568000Y-87874000D02*
X105568000Y-86674000D01*
X105568000Y-88074000D02*
X105568000Y-87874000D01*
X105568000Y-94174000D02*
X105568000Y-93174000D01*
X112268000Y-94174000D02*
X105568000Y-94174000D01*
X112768000Y-86674000D02*
X112768000Y-94174000D01*
X112468000Y-94174000D02*
X112768000Y-94174000D01*
X112268000Y-94174000D02*
X112468000Y-94174000D01*
X112768000Y-86674000D02*
X112268000Y-86674000D01*
X110268000Y-93174000D02*
X106268000Y-93174000D01*
X110268000Y-93174000D02*
X110268000Y-88174000D01*
X106268000Y-93174000D02*
X105518000Y-93174000D01*
X110268000Y-87674000D02*
X105518000Y-87674000D01*
X110268000Y-88174000D02*
X110268000Y-87674000D01*
X110268000Y-91924000D02*
X107268000Y-91924000D01*
X110268000Y-91424000D02*
X107268000Y-91424000D01*
X107268000Y-88924000D02*
X110268000Y-88924000D01*
X107018000Y-89174000D02*
X107268000Y-88924000D01*
X107268000Y-89424000D02*
X107018000Y-89174000D01*
X110268000Y-89424000D02*
X107268000Y-89424000D01*
X107018000Y-91674000D02*
X107268000Y-91424000D01*
X107268000Y-91924000D02*
X107018000Y-91674000D01*
X111018000Y-93174000D02*
X112768000Y-93174000D01*
X111018000Y-87674000D02*
X112768000Y-87674000D01*
X111268000Y-91924000D02*
X111018000Y-91924000D01*
X111268000Y-91924000D02*
X111518000Y-91924000D01*
X111018000Y-91424000D02*
X111518000Y-91424000D01*
X111018000Y-89424000D02*
X111518000Y-89424000D01*
X111018000Y-88924000D02*
X111268000Y-88924000D01*
X111518000Y-88924000D02*
X111268000Y-88924000D01*
X110998000Y-94234000D02*
X110998000Y-86614000D01*
D12*
X139760000Y-95825000D02*
X139760000Y-97155000D01*
X138430000Y-95825000D02*
X139760000Y-95825000D01*
X137160000Y-95825000D02*
X137160000Y-98485000D01*
X137160000Y-98485000D02*
X132020000Y-98485000D01*
X137160000Y-95825000D02*
X132020000Y-95825000D01*
X132020000Y-95825000D02*
X132020000Y-98485000D01*
D11*
X145130000Y-89890000D02*
X145130000Y-90190000D01*
X145130000Y-88690000D02*
X145130000Y-93890000D01*
X139630000Y-95190000D02*
X145130000Y-95190000D01*
X138430000Y-95190000D02*
X139630000Y-95190000D01*
X145130000Y-93990000D02*
X145130000Y-95190000D01*
X145130000Y-93790000D02*
X145130000Y-93990000D01*
X145130000Y-87690000D02*
X145130000Y-88690000D01*
X138430000Y-87690000D02*
X145130000Y-87690000D01*
X137930000Y-95190000D02*
X137930000Y-87690000D01*
X138230000Y-87690000D02*
X137930000Y-87690000D01*
X138430000Y-87690000D02*
X138230000Y-87690000D01*
X137930000Y-95190000D02*
X138430000Y-95190000D01*
X140430000Y-88690000D02*
X144430000Y-88690000D01*
X140430000Y-88690000D02*
X140430000Y-93690000D01*
X144430000Y-88690000D02*
X145180000Y-88690000D01*
X140430000Y-94190000D02*
X145180000Y-94190000D01*
X140430000Y-93690000D02*
X140430000Y-94190000D01*
X140430000Y-89940000D02*
X143430000Y-89940000D01*
X140430000Y-90440000D02*
X143430000Y-90440000D01*
X143430000Y-92940000D02*
X140430000Y-92940000D01*
X143680000Y-92690000D02*
X143430000Y-92940000D01*
X143430000Y-92440000D02*
X143680000Y-92690000D01*
X140430000Y-92440000D02*
X143430000Y-92440000D01*
X143680000Y-90190000D02*
X143430000Y-90440000D01*
X143430000Y-89940000D02*
X143680000Y-90190000D01*
X139680000Y-88690000D02*
X137930000Y-88690000D01*
X139680000Y-94190000D02*
X137930000Y-94190000D01*
X139430000Y-89940000D02*
X139680000Y-89940000D01*
X139430000Y-89940000D02*
X139180000Y-89940000D01*
X139680000Y-90440000D02*
X139180000Y-90440000D01*
X139680000Y-92440000D02*
X139180000Y-92440000D01*
X139680000Y-92940000D02*
X139430000Y-92940000D01*
X139180000Y-92940000D02*
X139430000Y-92940000D01*
X139700000Y-87630000D02*
X139700000Y-95250000D01*
X101600000Y-95250000D02*
X101600000Y-87630000D01*
X102120000Y-89940000D02*
X101870000Y-89940000D01*
X101620000Y-89940000D02*
X101870000Y-89940000D01*
X101620000Y-90440000D02*
X102120000Y-90440000D01*
X101620000Y-92440000D02*
X102120000Y-92440000D01*
X101870000Y-92940000D02*
X102120000Y-92940000D01*
X101870000Y-92940000D02*
X101620000Y-92940000D01*
X101620000Y-88690000D02*
X103370000Y-88690000D01*
X101620000Y-94190000D02*
X103370000Y-94190000D01*
X97870000Y-92940000D02*
X97620000Y-92690000D01*
X97620000Y-92690000D02*
X97870000Y-92440000D01*
X100870000Y-90440000D02*
X97870000Y-90440000D01*
X97870000Y-90440000D02*
X97620000Y-90190000D01*
X97620000Y-90190000D02*
X97870000Y-89940000D01*
X97870000Y-89940000D02*
X100870000Y-89940000D01*
X100870000Y-92440000D02*
X97870000Y-92440000D01*
X100870000Y-92940000D02*
X97870000Y-92940000D01*
X100870000Y-89190000D02*
X100870000Y-88690000D01*
X100870000Y-88690000D02*
X96120000Y-88690000D01*
X96870000Y-94190000D02*
X96120000Y-94190000D01*
X100870000Y-94190000D02*
X100870000Y-89190000D01*
X100870000Y-94190000D02*
X96870000Y-94190000D01*
X103370000Y-87690000D02*
X102870000Y-87690000D01*
X102870000Y-95190000D02*
X103070000Y-95190000D01*
X103070000Y-95190000D02*
X103370000Y-95190000D01*
X103370000Y-87690000D02*
X103370000Y-95190000D01*
X102870000Y-95190000D02*
X96170000Y-95190000D01*
X96170000Y-95190000D02*
X96170000Y-94190000D01*
X96170000Y-89090000D02*
X96170000Y-88890000D01*
X96170000Y-88890000D02*
X96170000Y-87690000D01*
X102870000Y-87690000D02*
X101670000Y-87690000D01*
X101670000Y-87690000D02*
X96170000Y-87690000D01*
X96170000Y-94190000D02*
X96170000Y-88990000D01*
X96170000Y-92990000D02*
X96170000Y-92690000D01*
X101600000Y-60345000D02*
X101600000Y-52725000D01*
X102120000Y-55035000D02*
X101870000Y-55035000D01*
X101620000Y-55035000D02*
X101870000Y-55035000D01*
X101620000Y-55535000D02*
X102120000Y-55535000D01*
X101620000Y-57535000D02*
X102120000Y-57535000D01*
X101870000Y-58035000D02*
X102120000Y-58035000D01*
X101870000Y-58035000D02*
X101620000Y-58035000D01*
X101620000Y-53785000D02*
X103370000Y-53785000D01*
X101620000Y-59285000D02*
X103370000Y-59285000D01*
X97870000Y-58035000D02*
X97620000Y-57785000D01*
X97620000Y-57785000D02*
X97870000Y-57535000D01*
X100870000Y-55535000D02*
X97870000Y-55535000D01*
X97870000Y-55535000D02*
X97620000Y-55285000D01*
X97620000Y-55285000D02*
X97870000Y-55035000D01*
X97870000Y-55035000D02*
X100870000Y-55035000D01*
X100870000Y-57535000D02*
X97870000Y-57535000D01*
X100870000Y-58035000D02*
X97870000Y-58035000D01*
X100870000Y-54285000D02*
X100870000Y-53785000D01*
X100870000Y-53785000D02*
X96120000Y-53785000D01*
X96870000Y-59285000D02*
X96120000Y-59285000D01*
X100870000Y-59285000D02*
X100870000Y-54285000D01*
X100870000Y-59285000D02*
X96870000Y-59285000D01*
X103370000Y-52785000D02*
X102870000Y-52785000D01*
X102870000Y-60285000D02*
X103070000Y-60285000D01*
X103070000Y-60285000D02*
X103370000Y-60285000D01*
X103370000Y-52785000D02*
X103370000Y-60285000D01*
X102870000Y-60285000D02*
X96170000Y-60285000D01*
X96170000Y-60285000D02*
X96170000Y-59285000D01*
X96170000Y-54185000D02*
X96170000Y-53985000D01*
X96170000Y-53985000D02*
X96170000Y-52785000D01*
X102870000Y-52785000D02*
X101670000Y-52785000D01*
X101670000Y-52785000D02*
X96170000Y-52785000D01*
X96170000Y-59285000D02*
X96170000Y-54085000D01*
X96170000Y-58085000D02*
X96170000Y-57785000D01*
D12*
X137220000Y-50740000D02*
X137220000Y-52070000D01*
X135890000Y-50740000D02*
X137220000Y-50740000D01*
X134620000Y-50740000D02*
X134620000Y-53400000D01*
X134620000Y-53400000D02*
X104080000Y-53400000D01*
X134620000Y-50740000D02*
X104080000Y-50740000D01*
X104080000Y-50740000D02*
X104080000Y-53400000D01*
X132140000Y-55185000D02*
X132140000Y-56515000D01*
X130810000Y-55185000D02*
X132140000Y-55185000D01*
X129540000Y-55185000D02*
X129540000Y-57845000D01*
X129540000Y-57845000D02*
X109160000Y-57845000D01*
X129540000Y-55185000D02*
X109160000Y-55185000D01*
X109160000Y-55185000D02*
X109160000Y-57845000D01*
X110823000Y-58310000D02*
X110823000Y-61310000D01*
X107823000Y-58310000D02*
X110823000Y-58310000D01*
X104523000Y-66310000D02*
X104523000Y-66910000D01*
X104523000Y-61710000D02*
X104523000Y-62310000D01*
X110373000Y-58810000D02*
X110373000Y-69860000D01*
X104523000Y-58810000D02*
X110373000Y-58810000D01*
X104523000Y-62560000D02*
X104523000Y-66060000D01*
X104523000Y-69860000D02*
X110373000Y-69860000D01*
X104523000Y-58810000D02*
X104523000Y-61460000D01*
X104523000Y-67210000D02*
X104523000Y-69860000D01*
X99120000Y-105985000D02*
X96460000Y-105985000D01*
X99120000Y-111125000D02*
X99120000Y-105985000D01*
X96460000Y-111125000D02*
X96460000Y-105985000D01*
X99120000Y-111125000D02*
X96460000Y-111125000D01*
X99120000Y-112395000D02*
X99120000Y-113725000D01*
X99120000Y-113725000D02*
X97790000Y-113725000D01*
X143570000Y-113725000D02*
X142240000Y-113725000D01*
X143570000Y-112395000D02*
X143570000Y-113725000D01*
X143570000Y-111125000D02*
X140910000Y-111125000D01*
X140910000Y-111125000D02*
X140910000Y-105985000D01*
X143570000Y-111125000D02*
X143570000Y-105985000D01*
X143570000Y-105985000D02*
X140910000Y-105985000D01*
X119065000Y-114555000D02*
X119065000Y-115605000D01*
X120865000Y-114555000D02*
X119065000Y-114555000D01*
X119065000Y-117855000D02*
X119065000Y-116805000D01*
X121465000Y-117855000D02*
X119065000Y-117855000D01*
X136145000Y-124005000D02*
X136145000Y-121605000D01*
X136145000Y-121605000D02*
X137195000Y-121605000D01*
X139445000Y-123405000D02*
X139445000Y-121605000D01*
X139445000Y-121605000D02*
X138395000Y-121605000D01*
X120965000Y-143890000D02*
X120965000Y-142840000D01*
X119165000Y-143890000D02*
X120965000Y-143890000D01*
X120965000Y-140590000D02*
X120965000Y-141640000D01*
X118565000Y-140590000D02*
X120965000Y-140590000D01*
X104520000Y-121105000D02*
X104520000Y-123505000D01*
X104520000Y-123505000D02*
X103470000Y-123505000D01*
X101220000Y-121705000D02*
X101220000Y-123505000D01*
X101220000Y-123505000D02*
X102270000Y-123505000D01*
X99950000Y-110805000D02*
X101000000Y-110805000D01*
X99950000Y-109005000D02*
X99950000Y-110805000D01*
X103250000Y-110805000D02*
X102200000Y-110805000D01*
X103250000Y-108405000D02*
X103250000Y-110805000D01*
X140080000Y-108405000D02*
X140080000Y-110805000D01*
X140080000Y-110805000D02*
X139030000Y-110805000D01*
X136780000Y-109005000D02*
X136780000Y-110805000D01*
X136780000Y-110805000D02*
X137830000Y-110805000D01*
D11*
X115697000Y-116713000D02*
X115697000Y-115697000D01*
X116713000Y-115697000D02*
X116713000Y-116713000D01*
X138303000Y-119253000D02*
X137287000Y-119253000D01*
X137287000Y-118237000D02*
X138303000Y-118237000D01*
X124333000Y-141732000D02*
X124333000Y-142748000D01*
X123317000Y-142748000D02*
X123317000Y-141732000D01*
X102362000Y-125857000D02*
X103378000Y-125857000D01*
X103378000Y-126873000D02*
X102362000Y-126873000D01*
X123317000Y-116713000D02*
X123317000Y-115697000D01*
X124333000Y-115697000D02*
X124333000Y-116713000D01*
X138303000Y-126873000D02*
X137287000Y-126873000D01*
X137287000Y-125857000D02*
X138303000Y-125857000D01*
X116713000Y-141732000D02*
X116713000Y-142748000D01*
X115697000Y-142748000D02*
X115697000Y-141732000D01*
X102362000Y-118237000D02*
X103378000Y-118237000D01*
X103378000Y-119253000D02*
X102362000Y-119253000D01*
X101092000Y-105537000D02*
X102108000Y-105537000D01*
X102108000Y-106553000D02*
X101092000Y-106553000D01*
X138938000Y-106553000D02*
X137922000Y-106553000D01*
X137922000Y-105537000D02*
X138938000Y-105537000D01*
X102108000Y-114173000D02*
X101092000Y-114173000D01*
X101092000Y-113157000D02*
X102108000Y-113157000D01*
X138938000Y-114173000D02*
X137922000Y-114173000D01*
X137922000Y-113157000D02*
X138938000Y-113157000D01*
X139827000Y-137287000D02*
X140843000Y-137287000D01*
X140843000Y-138303000D02*
X139827000Y-138303000D01*
X61214000Y-58674000D02*
X62230000Y-58674000D01*
X62230000Y-59690000D02*
X61214000Y-59690000D01*
X141113000Y-133367000D02*
G75*
G03X141113000Y-133367000I-762000J0D01*
G01*
X139589000Y-133113000D02*
X139589000Y-133621000D01*
X140097000Y-133621000D02*
X139589000Y-133621000D01*
X140097000Y-133113000D02*
X139589000Y-133113000D01*
X140097000Y-132605000D02*
X140097000Y-133113000D01*
X140605000Y-132605000D02*
X140097000Y-132605000D01*
X140605000Y-133113000D02*
X140605000Y-132605000D01*
X141113000Y-133113000D02*
X140605000Y-133113000D01*
X141113000Y-133621000D02*
X141113000Y-133113000D01*
X140605000Y-133621000D02*
X141113000Y-133621000D01*
X140605000Y-134129000D02*
X140605000Y-133621000D01*
X140097000Y-134129000D02*
X140605000Y-134129000D01*
X140097000Y-133621000D02*
X140097000Y-134129000D01*
X139970000Y-135145000D02*
X140605000Y-135145000D01*
X142510000Y-131335000D02*
X142510000Y-135145000D01*
X141875000Y-131335000D02*
X142510000Y-131335000D01*
X141240000Y-131335000D02*
X141875000Y-131335000D01*
X141875000Y-131335000D02*
X141240000Y-131335000D01*
X138065000Y-131335000D02*
X138065000Y-135145000D01*
X139335000Y-131335000D02*
X138065000Y-131335000D01*
D12*
X110550000Y-97850000D02*
X110550000Y-95190000D01*
X105410000Y-97850000D02*
X110550000Y-97850000D01*
X105410000Y-95190000D02*
X110550000Y-95190000D01*
X105410000Y-97850000D02*
X105410000Y-95190000D01*
X104140000Y-97850000D02*
X102810000Y-97850000D01*
X102810000Y-97850000D02*
X102810000Y-96520000D01*
X124585000Y-110650000D02*
X124585000Y-111760000D01*
X123825000Y-110650000D02*
X124585000Y-110650000D01*
X123065000Y-112323471D02*
X123065000Y-112870000D01*
X123065000Y-110650000D02*
X123065000Y-111196529D01*
X123065000Y-112870000D02*
X120590000Y-112870000D01*
X123065000Y-110650000D02*
X120590000Y-110650000D01*
X120590000Y-112067530D02*
X120590000Y-112870000D01*
X120590000Y-110650000D02*
X120590000Y-111452470D01*
X97315000Y-121980000D02*
X98117470Y-121980000D01*
X98732530Y-121980000D02*
X99535000Y-121980000D01*
X97315000Y-119505000D02*
X97315000Y-121980000D01*
X99535000Y-119505000D02*
X99535000Y-121980000D01*
X97315000Y-119505000D02*
X97861529Y-119505000D01*
X98988471Y-119505000D02*
X99535000Y-119505000D01*
X97315000Y-118745000D02*
X97315000Y-117985000D01*
X97315000Y-117985000D02*
X98425000Y-117985000D01*
X143350000Y-123130000D02*
X142547530Y-123130000D01*
X141932470Y-123130000D02*
X141130000Y-123130000D01*
X143350000Y-125605000D02*
X143350000Y-123130000D01*
X141130000Y-125605000D02*
X141130000Y-123130000D01*
X143350000Y-125605000D02*
X142803471Y-125605000D01*
X141676529Y-125605000D02*
X141130000Y-125605000D01*
X143350000Y-126365000D02*
X143350000Y-127125000D01*
X143350000Y-127125000D02*
X142240000Y-127125000D01*
X115445000Y-147795000D02*
X115445000Y-146685000D01*
X116205000Y-147795000D02*
X115445000Y-147795000D01*
X116965000Y-146121529D02*
X116965000Y-145575000D01*
X116965000Y-147795000D02*
X116965000Y-147248471D01*
X116965000Y-145575000D02*
X119440000Y-145575000D01*
X116965000Y-147795000D02*
X119440000Y-147795000D01*
X119440000Y-146377470D02*
X119440000Y-145575000D01*
X119440000Y-147795000D02*
X119440000Y-146992530D01*
D11*
X104775000Y-130556000D02*
X104775000Y-132715000D01*
X109855000Y-130556000D02*
X109855000Y-132715000D01*
X108734903Y-131445000D02*
G75*
G03X108734903Y-131445000I-1419903J0D01*
G01*
X109855000Y-132080000D02*
X107950000Y-133985000D01*
X109855000Y-129286000D02*
X104775000Y-129286000D01*
X104775000Y-133985000D02*
X109855000Y-133985000D01*
X104775000Y-139700000D02*
X109855000Y-139700000D01*
X109855000Y-135001000D02*
X104775000Y-135001000D01*
X109855000Y-137795000D02*
X107950000Y-139700000D01*
X108734903Y-137160000D02*
G75*
G03X108734903Y-137160000I-1419903J0D01*
G01*
X109855000Y-136271000D02*
X109855000Y-138430000D01*
X104775000Y-136271000D02*
X104775000Y-138430000D01*
X130175000Y-130556000D02*
X130175000Y-132715000D01*
X135255000Y-130556000D02*
X135255000Y-132715000D01*
X134134903Y-131445000D02*
G75*
G03X134134903Y-131445000I-1419903J0D01*
G01*
X135255000Y-132080000D02*
X133350000Y-133985000D01*
X135255000Y-129286000D02*
X130175000Y-129286000D01*
X130175000Y-133985000D02*
X135255000Y-133985000D01*
X130175000Y-139700000D02*
X135255000Y-139700000D01*
X135255000Y-135001000D02*
X130175000Y-135001000D01*
X135255000Y-137795000D02*
X133350000Y-139700000D01*
X134134903Y-137160000D02*
G75*
G03X134134903Y-137160000I-1419903J0D01*
G01*
X135255000Y-136271000D02*
X135255000Y-138430000D01*
X130175000Y-136271000D02*
X130175000Y-138430000D01*
X132588000Y-87757000D02*
X132588000Y-87503000D01*
X132588000Y-87757000D02*
X132588000Y-88265000D01*
X129540000Y-88265000D02*
X129540000Y-87503000D01*
X134112000Y-91567000D02*
X134112000Y-88265000D01*
X134112000Y-88265000D02*
X128016000Y-88265000D01*
X128016000Y-88265000D02*
X128016000Y-91567000D01*
X128524000Y-91567000D02*
X133604000Y-91567000D01*
X128524000Y-91567000D02*
X128016000Y-91567000D01*
X133604000Y-92329000D02*
X133604000Y-91567000D01*
X133604000Y-91567000D02*
X134112000Y-91567000D01*
X131318000Y-92329000D02*
X131318000Y-91567000D01*
X131318000Y-91567000D02*
X133096000Y-91567000D01*
X133096000Y-91567000D02*
X133096000Y-92329000D01*
X129032000Y-91567000D02*
X130810000Y-91567000D01*
X130810000Y-91567000D02*
X130810000Y-92329000D01*
X128524000Y-91567000D02*
X128524000Y-92329000D01*
X129032000Y-92329000D02*
X129032000Y-91567000D01*
X133820000Y-85120000D02*
X137960000Y-85120000D01*
X132890000Y-79980000D02*
X137960000Y-79980000D01*
X108283000Y-84866000D02*
X103213000Y-84866000D01*
X107353000Y-79726000D02*
X103213000Y-79726000D01*
D12*
X123980000Y-72490000D02*
X122315000Y-72490000D01*
X123980000Y-72210000D02*
X123980000Y-72490000D01*
X126365000Y-72210000D02*
X123980000Y-72210000D01*
X128750000Y-72210000D02*
X128750000Y-72490000D01*
X126365000Y-72210000D02*
X128750000Y-72210000D01*
X123980000Y-82730000D02*
X123980000Y-82450000D01*
X126365000Y-82730000D02*
X123980000Y-82730000D01*
X128750000Y-82730000D02*
X128750000Y-82450000D01*
X126365000Y-82730000D02*
X128750000Y-82730000D01*
X114935000Y-72210000D02*
X112550000Y-72210000D01*
X112550000Y-72210000D02*
X112550000Y-72490000D01*
X114935000Y-72210000D02*
X117320000Y-72210000D01*
X117320000Y-72210000D02*
X117320000Y-72490000D01*
X114935000Y-82730000D02*
X112550000Y-82730000D01*
X112550000Y-82730000D02*
X112550000Y-82450000D01*
X114935000Y-82730000D02*
X117320000Y-82730000D01*
X117320000Y-82730000D02*
X117320000Y-82450000D01*
X117320000Y-82450000D02*
X118985000Y-82450000D01*
D11*
X132207000Y-143383000D02*
X132207000Y-142367000D01*
X133223000Y-142367000D02*
X133223000Y-143383000D01*
X108458000Y-142367000D02*
X108458000Y-143383000D01*
X107442000Y-143383000D02*
X107442000Y-142367000D01*
D12*
X53448000Y-84268437D02*
X52383563Y-83204000D01*
X53448000Y-88959563D02*
X52383563Y-90024000D01*
X53448000Y-88959563D02*
X53448000Y-87674000D01*
X53448000Y-84268437D02*
X53448000Y-85554000D01*
X52383563Y-83204000D02*
X46628000Y-83204000D01*
X52383563Y-90024000D02*
X46628000Y-90024000D01*
X46628000Y-90024000D02*
X46628000Y-87674000D01*
X46628000Y-83204000D02*
X46628000Y-85554000D01*
X117240000Y-93580000D02*
X119590000Y-93580000D01*
X124060000Y-93580000D02*
X121710000Y-93580000D01*
X124060000Y-87824437D02*
X124060000Y-93580000D01*
X117240000Y-87824437D02*
X117240000Y-93580000D01*
X118304437Y-86760000D02*
X119590000Y-86760000D01*
X122995563Y-86760000D02*
X121710000Y-86760000D01*
X122995563Y-86760000D02*
X124060000Y-87824437D01*
X118304437Y-86760000D02*
X117240000Y-87824437D01*
D11*
X141732000Y-85090000D02*
X143002000Y-85090000D01*
X143764000Y-83820000D02*
X143764000Y-81280000D01*
X140970000Y-81280000D02*
X140970000Y-83820000D01*
X141732000Y-80010000D02*
X143002000Y-80010000D01*
X141986000Y-84074000D02*
X142748000Y-84074000D01*
X142748000Y-84074000D02*
X143002000Y-83820000D01*
X143002000Y-83820000D02*
X143002000Y-81280000D01*
X143002000Y-81280000D02*
X142748000Y-81026000D01*
X142748000Y-81026000D02*
X141986000Y-81026000D01*
X141986000Y-81026000D02*
X141732000Y-81280000D01*
X141732000Y-81280000D02*
X141732000Y-83820000D01*
X141732000Y-83820000D02*
X141986000Y-84074000D01*
D12*
X120870000Y-60385000D02*
X120870000Y-59690000D01*
X121555000Y-60385000D02*
X120870000Y-60385000D01*
X122240000Y-59081724D02*
X122240000Y-58995000D01*
X122240000Y-60385000D02*
X122240000Y-60298276D01*
X122240000Y-58995000D02*
X125115000Y-58995000D01*
X122240000Y-60385000D02*
X125115000Y-60385000D01*
X125115000Y-59295507D02*
X125115000Y-58995000D01*
X125115000Y-60385000D02*
X125115000Y-60084493D01*
X120035000Y-60385000D02*
X120035000Y-60084493D01*
X120035000Y-59295507D02*
X120035000Y-58995000D01*
X117160000Y-60385000D02*
X120035000Y-60385000D01*
X117160000Y-58995000D02*
X120035000Y-58995000D01*
X117160000Y-60385000D02*
X117160000Y-60298276D01*
X117160000Y-59081724D02*
X117160000Y-58995000D01*
X116475000Y-60385000D02*
X115790000Y-60385000D01*
X115790000Y-60385000D02*
X115790000Y-59690000D01*
D11*
X138255476Y-60412380D02*
X138255476Y-61126666D01*
X138207857Y-61269523D01*
X138112619Y-61364761D01*
X137969761Y-61412380D01*
X137874523Y-61412380D01*
X138684047Y-60507619D02*
X138731666Y-60460000D01*
X138826904Y-60412380D01*
X139065000Y-60412380D01*
X139160238Y-60460000D01*
X139207857Y-60507619D01*
X139255476Y-60602857D01*
X139255476Y-60698095D01*
X139207857Y-60840952D01*
X138636428Y-61412380D01*
X139255476Y-61412380D01*
X140112619Y-60412380D02*
X139922142Y-60412380D01*
X139826904Y-60460000D01*
X139779285Y-60507619D01*
X139684047Y-60650476D01*
X139636428Y-60840952D01*
X139636428Y-61221904D01*
X139684047Y-61317142D01*
X139731666Y-61364761D01*
X139826904Y-61412380D01*
X140017380Y-61412380D01*
X140112619Y-61364761D01*
X140160238Y-61317142D01*
X140207857Y-61221904D01*
X140207857Y-60983809D01*
X140160238Y-60888571D01*
X140112619Y-60840952D01*
X140017380Y-60793333D01*
X139826904Y-60793333D01*
X139731666Y-60840952D01*
X139684047Y-60888571D01*
X139636428Y-60983809D01*
X99988761Y-65984380D02*
X99655428Y-65508190D01*
X99417333Y-65984380D02*
X99417333Y-64984380D01*
X99798285Y-64984380D01*
X99893523Y-65032000D01*
X99941142Y-65079619D01*
X99988761Y-65174857D01*
X99988761Y-65317714D01*
X99941142Y-65412952D01*
X99893523Y-65460571D01*
X99798285Y-65508190D01*
X99417333Y-65508190D01*
X100274476Y-64984380D02*
X100607809Y-65984380D01*
X100941142Y-64984380D01*
X101179238Y-64984380D02*
X101798285Y-64984380D01*
X101464952Y-65365333D01*
X101607809Y-65365333D01*
X101703047Y-65412952D01*
X101750666Y-65460571D01*
X101798285Y-65555809D01*
X101798285Y-65793904D01*
X101750666Y-65889142D01*
X101703047Y-65936761D01*
X101607809Y-65984380D01*
X101322095Y-65984380D01*
X101226857Y-65936761D01*
X101179238Y-65889142D01*
X99988761Y-77795380D02*
X99655428Y-77319190D01*
X99417333Y-77795380D02*
X99417333Y-76795380D01*
X99798285Y-76795380D01*
X99893523Y-76843000D01*
X99941142Y-76890619D01*
X99988761Y-76985857D01*
X99988761Y-77128714D01*
X99941142Y-77223952D01*
X99893523Y-77271571D01*
X99798285Y-77319190D01*
X99417333Y-77319190D01*
X100274476Y-76795380D02*
X100607809Y-77795380D01*
X100941142Y-76795380D01*
X101226857Y-76890619D02*
X101274476Y-76843000D01*
X101369714Y-76795380D01*
X101607809Y-76795380D01*
X101703047Y-76843000D01*
X101750666Y-76890619D01*
X101798285Y-76985857D01*
X101798285Y-77081095D01*
X101750666Y-77223952D01*
X101179238Y-77795380D01*
X101798285Y-77795380D01*
X54570380Y-72770904D02*
X55379904Y-72770904D01*
X55475142Y-72723285D01*
X55522761Y-72675666D01*
X55570380Y-72580428D01*
X55570380Y-72389952D01*
X55522761Y-72294714D01*
X55475142Y-72247095D01*
X55379904Y-72199476D01*
X54570380Y-72199476D01*
X55570380Y-71675666D02*
X55570380Y-71485190D01*
X55522761Y-71389952D01*
X55475142Y-71342333D01*
X55332285Y-71247095D01*
X55141809Y-71199476D01*
X54760857Y-71199476D01*
X54665619Y-71247095D01*
X54618000Y-71294714D01*
X54570380Y-71389952D01*
X54570380Y-71580428D01*
X54618000Y-71675666D01*
X54665619Y-71723285D01*
X54760857Y-71770904D01*
X54998952Y-71770904D01*
X55094190Y-71723285D01*
X55141809Y-71675666D01*
X55189428Y-71580428D01*
X55189428Y-71389952D01*
X55141809Y-71294714D01*
X55094190Y-71247095D01*
X54998952Y-71199476D01*
X73660095Y-61988380D02*
X73660095Y-62797904D01*
X73707714Y-62893142D01*
X73755333Y-62940761D01*
X73850571Y-62988380D01*
X74041047Y-62988380D01*
X74136285Y-62940761D01*
X74183904Y-62893142D01*
X74231523Y-62797904D01*
X74231523Y-61988380D01*
X75183904Y-61988380D02*
X74707714Y-61988380D01*
X74660095Y-62464571D01*
X74707714Y-62416952D01*
X74802952Y-62369333D01*
X75041047Y-62369333D01*
X75136285Y-62416952D01*
X75183904Y-62464571D01*
X75231523Y-62559809D01*
X75231523Y-62797904D01*
X75183904Y-62893142D01*
X75136285Y-62940761D01*
X75041047Y-62988380D01*
X74802952Y-62988380D01*
X74707714Y-62940761D01*
X74660095Y-62893142D01*
X58392307Y-67872761D02*
X57819887Y-68445181D01*
X57786216Y-68546196D01*
X57786216Y-68613539D01*
X57819887Y-68714555D01*
X57954574Y-68849242D01*
X58055590Y-68882913D01*
X58122933Y-68882913D01*
X58223948Y-68849242D01*
X58796368Y-68276822D01*
X58796368Y-69691035D02*
X58392307Y-69286974D01*
X58594338Y-69489005D02*
X59301444Y-68781898D01*
X59133086Y-68815570D01*
X58998399Y-68815570D01*
X58897383Y-68781898D01*
X59941208Y-69421661D02*
X60008551Y-69489005D01*
X60042223Y-69590020D01*
X60042223Y-69657364D01*
X60008551Y-69758379D01*
X59907536Y-69926738D01*
X59739177Y-70095096D01*
X59570818Y-70196112D01*
X59469803Y-70229783D01*
X59402460Y-70229783D01*
X59301444Y-70196112D01*
X59234101Y-70128768D01*
X59200429Y-70027753D01*
X59200429Y-69960409D01*
X59234101Y-69859394D01*
X59335116Y-69691035D01*
X59503475Y-69522677D01*
X59671834Y-69421661D01*
X59772849Y-69387990D01*
X59840192Y-69387990D01*
X59941208Y-69421661D01*
X52474761Y-97853333D02*
X52522380Y-97710476D01*
X52522380Y-97472380D01*
X52474761Y-97377142D01*
X52427142Y-97329523D01*
X52331904Y-97281904D01*
X52236666Y-97281904D01*
X52141428Y-97329523D01*
X52093809Y-97377142D01*
X52046190Y-97472380D01*
X51998571Y-97662857D01*
X51950952Y-97758095D01*
X51903333Y-97805714D01*
X51808095Y-97853333D01*
X51712857Y-97853333D01*
X51617619Y-97805714D01*
X51570000Y-97758095D01*
X51522380Y-97662857D01*
X51522380Y-97424761D01*
X51570000Y-97281904D01*
X51522380Y-96948571D02*
X52522380Y-96710476D01*
X51808095Y-96520000D01*
X52522380Y-96329523D01*
X51522380Y-96091428D01*
X52522380Y-95186666D02*
X52522380Y-95758095D01*
X52522380Y-95472380D02*
X51522380Y-95472380D01*
X51665238Y-95567619D01*
X51760476Y-95662857D01*
X51808095Y-95758095D01*
X47477380Y-95142333D02*
X48191666Y-95142333D01*
X48334523Y-95189952D01*
X48429761Y-95285190D01*
X48477380Y-95428047D01*
X48477380Y-95523285D01*
X47477380Y-94237571D02*
X47477380Y-94428047D01*
X47525000Y-94523285D01*
X47572619Y-94570904D01*
X47715476Y-94666142D01*
X47905952Y-94713761D01*
X48286904Y-94713761D01*
X48382142Y-94666142D01*
X48429761Y-94618523D01*
X48477380Y-94523285D01*
X48477380Y-94332809D01*
X48429761Y-94237571D01*
X48382142Y-94189952D01*
X48286904Y-94142333D01*
X48048809Y-94142333D01*
X47953571Y-94189952D01*
X47905952Y-94237571D01*
X47858333Y-94332809D01*
X47858333Y-94523285D01*
X47905952Y-94618523D01*
X47953571Y-94666142D01*
X48048809Y-94713761D01*
X90582380Y-71127857D02*
X90582380Y-71604047D01*
X89582380Y-71604047D01*
X90534761Y-70842142D02*
X90582380Y-70699285D01*
X90582380Y-70461190D01*
X90534761Y-70365952D01*
X90487142Y-70318333D01*
X90391904Y-70270714D01*
X90296666Y-70270714D01*
X90201428Y-70318333D01*
X90153809Y-70365952D01*
X90106190Y-70461190D01*
X90058571Y-70651666D01*
X90010952Y-70746904D01*
X89963333Y-70794523D01*
X89868095Y-70842142D01*
X89772857Y-70842142D01*
X89677619Y-70794523D01*
X89630000Y-70746904D01*
X89582380Y-70651666D01*
X89582380Y-70413571D01*
X89630000Y-70270714D01*
X90582380Y-69318333D02*
X90582380Y-69889761D01*
X90582380Y-69604047D02*
X89582380Y-69604047D01*
X89725238Y-69699285D01*
X89820476Y-69794523D01*
X89868095Y-69889761D01*
X67289333Y-72842380D02*
X66956000Y-72366190D01*
X66717904Y-72842380D02*
X66717904Y-71842380D01*
X67098857Y-71842380D01*
X67194095Y-71890000D01*
X67241714Y-71937619D01*
X67289333Y-72032857D01*
X67289333Y-72175714D01*
X67241714Y-72270952D01*
X67194095Y-72318571D01*
X67098857Y-72366190D01*
X66717904Y-72366190D01*
X68241714Y-72842380D02*
X67670285Y-72842380D01*
X67956000Y-72842380D02*
X67956000Y-71842380D01*
X67860761Y-71985238D01*
X67765523Y-72080476D01*
X67670285Y-72128095D01*
X123484761Y-134153333D02*
X123532380Y-134010476D01*
X123532380Y-133772380D01*
X123484761Y-133677142D01*
X123437142Y-133629523D01*
X123341904Y-133581904D01*
X123246666Y-133581904D01*
X123151428Y-133629523D01*
X123103809Y-133677142D01*
X123056190Y-133772380D01*
X123008571Y-133962857D01*
X122960952Y-134058095D01*
X122913333Y-134105714D01*
X122818095Y-134153333D01*
X122722857Y-134153333D01*
X122627619Y-134105714D01*
X122580000Y-134058095D01*
X122532380Y-133962857D01*
X122532380Y-133724761D01*
X122580000Y-133581904D01*
X122532380Y-133248571D02*
X123532380Y-133010476D01*
X122818095Y-132820000D01*
X123532380Y-132629523D01*
X122532380Y-132391428D01*
X122627619Y-132058095D02*
X122580000Y-132010476D01*
X122532380Y-131915238D01*
X122532380Y-131677142D01*
X122580000Y-131581904D01*
X122627619Y-131534285D01*
X122722857Y-131486666D01*
X122818095Y-131486666D01*
X122960952Y-131534285D01*
X123532380Y-132105714D01*
X123532380Y-131486666D01*
X136461666Y-141374761D02*
X136604523Y-141422380D01*
X136842619Y-141422380D01*
X136937857Y-141374761D01*
X136985476Y-141327142D01*
X137033095Y-141231904D01*
X137033095Y-141136666D01*
X136985476Y-141041428D01*
X136937857Y-140993809D01*
X136842619Y-140946190D01*
X136652142Y-140898571D01*
X136556904Y-140850952D01*
X136509285Y-140803333D01*
X136461666Y-140708095D01*
X136461666Y-140612857D01*
X136509285Y-140517619D01*
X136556904Y-140470000D01*
X136652142Y-140422380D01*
X136890238Y-140422380D01*
X137033095Y-140470000D01*
X137366428Y-140422380D02*
X137604523Y-141422380D01*
X137795000Y-140708095D01*
X137985476Y-141422380D01*
X138223571Y-140422380D01*
X138509285Y-140422380D02*
X139128333Y-140422380D01*
X138795000Y-140803333D01*
X138937857Y-140803333D01*
X139033095Y-140850952D01*
X139080714Y-140898571D01*
X139128333Y-140993809D01*
X139128333Y-141231904D01*
X139080714Y-141327142D01*
X139033095Y-141374761D01*
X138937857Y-141422380D01*
X138652142Y-141422380D01*
X138556904Y-141374761D01*
X138509285Y-141327142D01*
X101536666Y-141374761D02*
X101679523Y-141422380D01*
X101917619Y-141422380D01*
X102012857Y-141374761D01*
X102060476Y-141327142D01*
X102108095Y-141231904D01*
X102108095Y-141136666D01*
X102060476Y-141041428D01*
X102012857Y-140993809D01*
X101917619Y-140946190D01*
X101727142Y-140898571D01*
X101631904Y-140850952D01*
X101584285Y-140803333D01*
X101536666Y-140708095D01*
X101536666Y-140612857D01*
X101584285Y-140517619D01*
X101631904Y-140470000D01*
X101727142Y-140422380D01*
X101965238Y-140422380D01*
X102108095Y-140470000D01*
X102441428Y-140422380D02*
X102679523Y-141422380D01*
X102870000Y-140708095D01*
X103060476Y-141422380D01*
X103298571Y-140422380D01*
X104108095Y-140755714D02*
X104108095Y-141422380D01*
X103870000Y-140374761D02*
X103631904Y-141089047D01*
X104250952Y-141089047D01*
X56642095Y-90115580D02*
X56642095Y-90925104D01*
X56689714Y-91020342D01*
X56737333Y-91067961D01*
X56832571Y-91115580D01*
X57023047Y-91115580D01*
X57118285Y-91067961D01*
X57165904Y-91020342D01*
X57213523Y-90925104D01*
X57213523Y-90115580D01*
X57594476Y-90115580D02*
X58213523Y-90115580D01*
X57880190Y-90496533D01*
X58023047Y-90496533D01*
X58118285Y-90544152D01*
X58165904Y-90591771D01*
X58213523Y-90687009D01*
X58213523Y-90925104D01*
X58165904Y-91020342D01*
X58118285Y-91067961D01*
X58023047Y-91115580D01*
X57737333Y-91115580D01*
X57642095Y-91067961D01*
X57594476Y-91020342D01*
X70739095Y-94662380D02*
X70739095Y-95471904D01*
X70786714Y-95567142D01*
X70834333Y-95614761D01*
X70929571Y-95662380D01*
X71120047Y-95662380D01*
X71215285Y-95614761D01*
X71262904Y-95567142D01*
X71310523Y-95471904D01*
X71310523Y-94662380D01*
X71739095Y-94757619D02*
X71786714Y-94710000D01*
X71881952Y-94662380D01*
X72120047Y-94662380D01*
X72215285Y-94710000D01*
X72262904Y-94757619D01*
X72310523Y-94852857D01*
X72310523Y-94948095D01*
X72262904Y-95090952D01*
X71691476Y-95662380D01*
X72310523Y-95662380D01*
X87507380Y-52363333D02*
X88221666Y-52363333D01*
X88364523Y-52410952D01*
X88459761Y-52506190D01*
X88507380Y-52649047D01*
X88507380Y-52744285D01*
X88507380Y-51363333D02*
X88507380Y-51934761D01*
X88507380Y-51649047D02*
X87507380Y-51649047D01*
X87650238Y-51744285D01*
X87745476Y-51839523D01*
X87793095Y-51934761D01*
X92122666Y-60309380D02*
X92122666Y-61023666D01*
X92075047Y-61166523D01*
X91979809Y-61261761D01*
X91836952Y-61309380D01*
X91741714Y-61309380D01*
X92551238Y-60404619D02*
X92598857Y-60357000D01*
X92694095Y-60309380D01*
X92932190Y-60309380D01*
X93027428Y-60357000D01*
X93075047Y-60404619D01*
X93122666Y-60499857D01*
X93122666Y-60595095D01*
X93075047Y-60737952D01*
X92503619Y-61309380D01*
X93122666Y-61309380D01*
X57447380Y-56848333D02*
X58161666Y-56848333D01*
X58304523Y-56895952D01*
X58399761Y-56991190D01*
X58447380Y-57134047D01*
X58447380Y-57229285D01*
X57875952Y-56229285D02*
X57828333Y-56324523D01*
X57780714Y-56372142D01*
X57685476Y-56419761D01*
X57637857Y-56419761D01*
X57542619Y-56372142D01*
X57495000Y-56324523D01*
X57447380Y-56229285D01*
X57447380Y-56038809D01*
X57495000Y-55943571D01*
X57542619Y-55895952D01*
X57637857Y-55848333D01*
X57685476Y-55848333D01*
X57780714Y-55895952D01*
X57828333Y-55943571D01*
X57875952Y-56038809D01*
X57875952Y-56229285D01*
X57923571Y-56324523D01*
X57971190Y-56372142D01*
X58066428Y-56419761D01*
X58256904Y-56419761D01*
X58352142Y-56372142D01*
X58399761Y-56324523D01*
X58447380Y-56229285D01*
X58447380Y-56038809D01*
X58399761Y-55943571D01*
X58352142Y-55895952D01*
X58256904Y-55848333D01*
X58066428Y-55848333D01*
X57971190Y-55895952D01*
X57923571Y-55943571D01*
X57875952Y-56038809D01*
X90926761Y-91848333D02*
X90974380Y-91705476D01*
X90974380Y-91467380D01*
X90926761Y-91372142D01*
X90879142Y-91324523D01*
X90783904Y-91276904D01*
X90688666Y-91276904D01*
X90593428Y-91324523D01*
X90545809Y-91372142D01*
X90498190Y-91467380D01*
X90450571Y-91657857D01*
X90402952Y-91753095D01*
X90355333Y-91800714D01*
X90260095Y-91848333D01*
X90164857Y-91848333D01*
X90069619Y-91800714D01*
X90022000Y-91753095D01*
X89974380Y-91657857D01*
X89974380Y-91419761D01*
X90022000Y-91276904D01*
X89974380Y-90943571D02*
X90974380Y-90705476D01*
X90260095Y-90515000D01*
X90974380Y-90324523D01*
X89974380Y-90086428D01*
X89974380Y-89229285D02*
X89974380Y-89705476D01*
X90450571Y-89753095D01*
X90402952Y-89705476D01*
X90355333Y-89610238D01*
X90355333Y-89372142D01*
X90402952Y-89276904D01*
X90450571Y-89229285D01*
X90545809Y-89181666D01*
X90783904Y-89181666D01*
X90879142Y-89229285D01*
X90926761Y-89276904D01*
X90974380Y-89372142D01*
X90974380Y-89610238D01*
X90926761Y-89705476D01*
X90879142Y-89753095D01*
X90926761Y-81688333D02*
X90974380Y-81545476D01*
X90974380Y-81307380D01*
X90926761Y-81212142D01*
X90879142Y-81164523D01*
X90783904Y-81116904D01*
X90688666Y-81116904D01*
X90593428Y-81164523D01*
X90545809Y-81212142D01*
X90498190Y-81307380D01*
X90450571Y-81497857D01*
X90402952Y-81593095D01*
X90355333Y-81640714D01*
X90260095Y-81688333D01*
X90164857Y-81688333D01*
X90069619Y-81640714D01*
X90022000Y-81593095D01*
X89974380Y-81497857D01*
X89974380Y-81259761D01*
X90022000Y-81116904D01*
X89974380Y-80783571D02*
X90974380Y-80545476D01*
X90260095Y-80355000D01*
X90974380Y-80164523D01*
X89974380Y-79926428D01*
X89974380Y-79116904D02*
X89974380Y-79307380D01*
X90022000Y-79402619D01*
X90069619Y-79450238D01*
X90212476Y-79545476D01*
X90402952Y-79593095D01*
X90783904Y-79593095D01*
X90879142Y-79545476D01*
X90926761Y-79497857D01*
X90974380Y-79402619D01*
X90974380Y-79212142D01*
X90926761Y-79116904D01*
X90879142Y-79069285D01*
X90783904Y-79021666D01*
X90545809Y-79021666D01*
X90450571Y-79069285D01*
X90402952Y-79116904D01*
X90355333Y-79212142D01*
X90355333Y-79402619D01*
X90402952Y-79497857D01*
X90450571Y-79545476D01*
X90545809Y-79593095D01*
X48156904Y-54046380D02*
X48156904Y-53046380D01*
X48395000Y-53046380D01*
X48537857Y-53094000D01*
X48633095Y-53189238D01*
X48680714Y-53284476D01*
X48728333Y-53474952D01*
X48728333Y-53617809D01*
X48680714Y-53808285D01*
X48633095Y-53903523D01*
X48537857Y-53998761D01*
X48395000Y-54046380D01*
X48156904Y-54046380D01*
X49680714Y-54046380D02*
X49109285Y-54046380D01*
X49395000Y-54046380D02*
X49395000Y-53046380D01*
X49299761Y-53189238D01*
X49204523Y-53284476D01*
X49109285Y-53332095D01*
X51333095Y-52522380D02*
X51333095Y-51522380D01*
X51904523Y-52522380D02*
X51475952Y-51950952D01*
X51904523Y-51522380D02*
X51333095Y-52093809D01*
X114752380Y-112498095D02*
X113752380Y-112498095D01*
X113752380Y-112260000D01*
X113800000Y-112117142D01*
X113895238Y-112021904D01*
X113990476Y-111974285D01*
X114180952Y-111926666D01*
X114323809Y-111926666D01*
X114514285Y-111974285D01*
X114609523Y-112021904D01*
X114704761Y-112117142D01*
X114752380Y-112260000D01*
X114752380Y-112498095D01*
X113847619Y-111545714D02*
X113800000Y-111498095D01*
X113752380Y-111402857D01*
X113752380Y-111164761D01*
X113800000Y-111069523D01*
X113847619Y-111021904D01*
X113942857Y-110974285D01*
X114038095Y-110974285D01*
X114180952Y-111021904D01*
X114752380Y-111593333D01*
X114752380Y-110974285D01*
X141501904Y-117292380D02*
X141501904Y-116292380D01*
X141740000Y-116292380D01*
X141882857Y-116340000D01*
X141978095Y-116435238D01*
X142025714Y-116530476D01*
X142073333Y-116720952D01*
X142073333Y-116863809D01*
X142025714Y-117054285D01*
X141978095Y-117149523D01*
X141882857Y-117244761D01*
X141740000Y-117292380D01*
X141501904Y-117292380D01*
X142406666Y-116292380D02*
X143025714Y-116292380D01*
X142692380Y-116673333D01*
X142835238Y-116673333D01*
X142930476Y-116720952D01*
X142978095Y-116768571D01*
X143025714Y-116863809D01*
X143025714Y-117101904D01*
X142978095Y-117197142D01*
X142930476Y-117244761D01*
X142835238Y-117292380D01*
X142549523Y-117292380D01*
X142454285Y-117244761D01*
X142406666Y-117197142D01*
X126182380Y-147423095D02*
X125182380Y-147423095D01*
X125182380Y-147185000D01*
X125230000Y-147042142D01*
X125325238Y-146946904D01*
X125420476Y-146899285D01*
X125610952Y-146851666D01*
X125753809Y-146851666D01*
X125944285Y-146899285D01*
X126039523Y-146946904D01*
X126134761Y-147042142D01*
X126182380Y-147185000D01*
X126182380Y-147423095D01*
X125515714Y-145994523D02*
X126182380Y-145994523D01*
X125134761Y-146232619D02*
X125849047Y-146470714D01*
X125849047Y-145851666D01*
X97686904Y-128722380D02*
X97686904Y-127722380D01*
X97925000Y-127722380D01*
X98067857Y-127770000D01*
X98163095Y-127865238D01*
X98210714Y-127960476D01*
X98258333Y-128150952D01*
X98258333Y-128293809D01*
X98210714Y-128484285D01*
X98163095Y-128579523D01*
X98067857Y-128674761D01*
X97925000Y-128722380D01*
X97686904Y-128722380D01*
X99163095Y-127722380D02*
X98686904Y-127722380D01*
X98639285Y-128198571D01*
X98686904Y-128150952D01*
X98782142Y-128103333D01*
X99020238Y-128103333D01*
X99115476Y-128150952D01*
X99163095Y-128198571D01*
X99210714Y-128293809D01*
X99210714Y-128531904D01*
X99163095Y-128627142D01*
X99115476Y-128674761D01*
X99020238Y-128722380D01*
X98782142Y-128722380D01*
X98686904Y-128674761D01*
X98639285Y-128627142D01*
X137037380Y-103203333D02*
X137751666Y-103203333D01*
X137894523Y-103250952D01*
X137989761Y-103346190D01*
X138037380Y-103489047D01*
X138037380Y-103584285D01*
X137370714Y-102298571D02*
X138037380Y-102298571D01*
X136989761Y-102536666D02*
X137704047Y-102774761D01*
X137704047Y-102155714D01*
X90257380Y-97488333D02*
X90971666Y-97488333D01*
X91114523Y-97535952D01*
X91209761Y-97631190D01*
X91257380Y-97774047D01*
X91257380Y-97869285D01*
X90257380Y-97107380D02*
X90257380Y-96440714D01*
X91257380Y-96869285D01*
X139577380Y-148288333D02*
X140291666Y-148288333D01*
X140434523Y-148335952D01*
X140529761Y-148431190D01*
X140577380Y-148574047D01*
X140577380Y-148669285D01*
X140577380Y-147764523D02*
X140577380Y-147574047D01*
X140529761Y-147478809D01*
X140482142Y-147431190D01*
X140339285Y-147335952D01*
X140148809Y-147288333D01*
X139767857Y-147288333D01*
X139672619Y-147335952D01*
X139625000Y-147383571D01*
X139577380Y-147478809D01*
X139577380Y-147669285D01*
X139625000Y-147764523D01*
X139672619Y-147812142D01*
X139767857Y-147859761D01*
X140005952Y-147859761D01*
X140101190Y-147812142D01*
X140148809Y-147764523D01*
X140196428Y-147669285D01*
X140196428Y-147478809D01*
X140148809Y-147383571D01*
X140101190Y-147335952D01*
X140005952Y-147288333D01*
X131957380Y-108124523D02*
X132671666Y-108124523D01*
X132814523Y-108172142D01*
X132909761Y-108267380D01*
X132957380Y-108410238D01*
X132957380Y-108505476D01*
X132957380Y-107124523D02*
X132957380Y-107695952D01*
X132957380Y-107410238D02*
X131957380Y-107410238D01*
X132100238Y-107505476D01*
X132195476Y-107600714D01*
X132243095Y-107695952D01*
X131957380Y-106505476D02*
X131957380Y-106410238D01*
X132005000Y-106315000D01*
X132052619Y-106267380D01*
X132147857Y-106219761D01*
X132338333Y-106172142D01*
X132576428Y-106172142D01*
X132766904Y-106219761D01*
X132862142Y-106267380D01*
X132909761Y-106315000D01*
X132957380Y-106410238D01*
X132957380Y-106505476D01*
X132909761Y-106600714D01*
X132862142Y-106648333D01*
X132766904Y-106695952D01*
X132576428Y-106743571D01*
X132338333Y-106743571D01*
X132147857Y-106695952D01*
X132052619Y-106648333D01*
X132005000Y-106600714D01*
X131957380Y-106505476D01*
X110823476Y-85304380D02*
X110823476Y-86018666D01*
X110775857Y-86161523D01*
X110680619Y-86256761D01*
X110537761Y-86304380D01*
X110442523Y-86304380D01*
X111252047Y-85399619D02*
X111299666Y-85352000D01*
X111394904Y-85304380D01*
X111633000Y-85304380D01*
X111728238Y-85352000D01*
X111775857Y-85399619D01*
X111823476Y-85494857D01*
X111823476Y-85590095D01*
X111775857Y-85732952D01*
X111204428Y-86304380D01*
X111823476Y-86304380D01*
X112156809Y-85304380D02*
X112775857Y-85304380D01*
X112442523Y-85685333D01*
X112585380Y-85685333D01*
X112680619Y-85732952D01*
X112728238Y-85780571D01*
X112775857Y-85875809D01*
X112775857Y-86113904D01*
X112728238Y-86209142D01*
X112680619Y-86256761D01*
X112585380Y-86304380D01*
X112299666Y-86304380D01*
X112204428Y-86256761D01*
X112156809Y-86209142D01*
X130262380Y-97964523D02*
X130976666Y-97964523D01*
X131119523Y-98012142D01*
X131214761Y-98107380D01*
X131262380Y-98250238D01*
X131262380Y-98345476D01*
X130357619Y-97535952D02*
X130310000Y-97488333D01*
X130262380Y-97393095D01*
X130262380Y-97155000D01*
X130310000Y-97059761D01*
X130357619Y-97012142D01*
X130452857Y-96964523D01*
X130548095Y-96964523D01*
X130690952Y-97012142D01*
X131262380Y-97583571D01*
X131262380Y-96964523D01*
X130595714Y-96107380D02*
X131262380Y-96107380D01*
X130214761Y-96345476D02*
X130929047Y-96583571D01*
X130929047Y-95964523D01*
X138255476Y-86447380D02*
X138255476Y-87161666D01*
X138207857Y-87304523D01*
X138112619Y-87399761D01*
X137969761Y-87447380D01*
X137874523Y-87447380D01*
X138684047Y-86542619D02*
X138731666Y-86495000D01*
X138826904Y-86447380D01*
X139065000Y-86447380D01*
X139160238Y-86495000D01*
X139207857Y-86542619D01*
X139255476Y-86637857D01*
X139255476Y-86733095D01*
X139207857Y-86875952D01*
X138636428Y-87447380D01*
X139255476Y-87447380D01*
X139588809Y-86447380D02*
X140255476Y-86447380D01*
X139826904Y-87447380D01*
X101425476Y-86447380D02*
X101425476Y-87161666D01*
X101377857Y-87304523D01*
X101282619Y-87399761D01*
X101139761Y-87447380D01*
X101044523Y-87447380D01*
X101854047Y-86542619D02*
X101901666Y-86495000D01*
X101996904Y-86447380D01*
X102235000Y-86447380D01*
X102330238Y-86495000D01*
X102377857Y-86542619D01*
X102425476Y-86637857D01*
X102425476Y-86733095D01*
X102377857Y-86875952D01*
X101806428Y-87447380D01*
X102425476Y-87447380D01*
X102901666Y-87447380D02*
X103092142Y-87447380D01*
X103187380Y-87399761D01*
X103235000Y-87352142D01*
X103330238Y-87209285D01*
X103377857Y-87018809D01*
X103377857Y-86637857D01*
X103330238Y-86542619D01*
X103282619Y-86495000D01*
X103187380Y-86447380D01*
X102996904Y-86447380D01*
X102901666Y-86495000D01*
X102854047Y-86542619D01*
X102806428Y-86637857D01*
X102806428Y-86875952D01*
X102854047Y-86971190D01*
X102901666Y-87018809D01*
X102996904Y-87066428D01*
X103187380Y-87066428D01*
X103282619Y-87018809D01*
X103330238Y-86971190D01*
X103377857Y-86875952D01*
X101425476Y-60412380D02*
X101425476Y-61126666D01*
X101377857Y-61269523D01*
X101282619Y-61364761D01*
X101139761Y-61412380D01*
X101044523Y-61412380D01*
X101806428Y-60412380D02*
X102425476Y-60412380D01*
X102092142Y-60793333D01*
X102235000Y-60793333D01*
X102330238Y-60840952D01*
X102377857Y-60888571D01*
X102425476Y-60983809D01*
X102425476Y-61221904D01*
X102377857Y-61317142D01*
X102330238Y-61364761D01*
X102235000Y-61412380D01*
X101949285Y-61412380D01*
X101854047Y-61364761D01*
X101806428Y-61317142D01*
X103044523Y-60412380D02*
X103139761Y-60412380D01*
X103235000Y-60460000D01*
X103282619Y-60507619D01*
X103330238Y-60602857D01*
X103377857Y-60793333D01*
X103377857Y-61031428D01*
X103330238Y-61221904D01*
X103282619Y-61317142D01*
X103235000Y-61364761D01*
X103139761Y-61412380D01*
X103044523Y-61412380D01*
X102949285Y-61364761D01*
X102901666Y-61317142D01*
X102854047Y-61221904D01*
X102806428Y-61031428D01*
X102806428Y-60793333D01*
X102854047Y-60602857D01*
X102901666Y-60507619D01*
X102949285Y-60460000D01*
X103044523Y-60412380D01*
X135080476Y-53427380D02*
X135080476Y-54141666D01*
X135032857Y-54284523D01*
X134937619Y-54379761D01*
X134794761Y-54427380D01*
X134699523Y-54427380D01*
X135461428Y-53427380D02*
X136080476Y-53427380D01*
X135747142Y-53808333D01*
X135890000Y-53808333D01*
X135985238Y-53855952D01*
X136032857Y-53903571D01*
X136080476Y-53998809D01*
X136080476Y-54236904D01*
X136032857Y-54332142D01*
X135985238Y-54379761D01*
X135890000Y-54427380D01*
X135604285Y-54427380D01*
X135509047Y-54379761D01*
X135461428Y-54332142D01*
X136461428Y-53522619D02*
X136509047Y-53475000D01*
X136604285Y-53427380D01*
X136842380Y-53427380D01*
X136937619Y-53475000D01*
X136985238Y-53522619D01*
X137032857Y-53617857D01*
X137032857Y-53713095D01*
X136985238Y-53855952D01*
X136413809Y-54427380D01*
X137032857Y-54427380D01*
X132592380Y-57324523D02*
X133306666Y-57324523D01*
X133449523Y-57372142D01*
X133544761Y-57467380D01*
X133592380Y-57610238D01*
X133592380Y-57705476D01*
X132592380Y-56943571D02*
X132592380Y-56324523D01*
X132973333Y-56657857D01*
X132973333Y-56515000D01*
X133020952Y-56419761D01*
X133068571Y-56372142D01*
X133163809Y-56324523D01*
X133401904Y-56324523D01*
X133497142Y-56372142D01*
X133544761Y-56419761D01*
X133592380Y-56515000D01*
X133592380Y-56800714D01*
X133544761Y-56895952D01*
X133497142Y-56943571D01*
X132592380Y-55991190D02*
X132592380Y-55372142D01*
X132973333Y-55705476D01*
X132973333Y-55562619D01*
X133020952Y-55467380D01*
X133068571Y-55419761D01*
X133163809Y-55372142D01*
X133401904Y-55372142D01*
X133497142Y-55419761D01*
X133544761Y-55467380D01*
X133592380Y-55562619D01*
X133592380Y-55848333D01*
X133544761Y-55943571D01*
X133497142Y-55991190D01*
X105235476Y-57237380D02*
X105235476Y-57951666D01*
X105187857Y-58094523D01*
X105092619Y-58189761D01*
X104949761Y-58237380D01*
X104854523Y-58237380D01*
X105616428Y-57237380D02*
X106235476Y-57237380D01*
X105902142Y-57618333D01*
X106045000Y-57618333D01*
X106140238Y-57665952D01*
X106187857Y-57713571D01*
X106235476Y-57808809D01*
X106235476Y-58046904D01*
X106187857Y-58142142D01*
X106140238Y-58189761D01*
X106045000Y-58237380D01*
X105759285Y-58237380D01*
X105664047Y-58189761D01*
X105616428Y-58142142D01*
X107140238Y-57237380D02*
X106664047Y-57237380D01*
X106616428Y-57713571D01*
X106664047Y-57665952D01*
X106759285Y-57618333D01*
X106997380Y-57618333D01*
X107092619Y-57665952D01*
X107140238Y-57713571D01*
X107187857Y-57808809D01*
X107187857Y-58046904D01*
X107140238Y-58142142D01*
X107092619Y-58189761D01*
X106997380Y-58237380D01*
X106759285Y-58237380D01*
X106664047Y-58189761D01*
X106616428Y-58142142D01*
X96980476Y-115177380D02*
X96980476Y-114177380D01*
X97313809Y-114891666D01*
X97647142Y-114177380D01*
X97647142Y-115177380D01*
X98647142Y-115177380D02*
X98075714Y-115177380D01*
X98361428Y-115177380D02*
X98361428Y-114177380D01*
X98266190Y-114320238D01*
X98170952Y-114415476D01*
X98075714Y-114463095D01*
X141430476Y-115177380D02*
X141430476Y-114177380D01*
X141763809Y-114891666D01*
X142097142Y-114177380D01*
X142097142Y-115177380D01*
X142525714Y-114272619D02*
X142573333Y-114225000D01*
X142668571Y-114177380D01*
X142906666Y-114177380D01*
X143001904Y-114225000D01*
X143049523Y-114272619D01*
X143097142Y-114367857D01*
X143097142Y-114463095D01*
X143049523Y-114605952D01*
X142478095Y-115177380D01*
X143097142Y-115177380D01*
X119919761Y-119252619D02*
X119824523Y-119205000D01*
X119729285Y-119109761D01*
X119586428Y-118966904D01*
X119491190Y-118919285D01*
X119395952Y-118919285D01*
X119443571Y-119157380D02*
X119348333Y-119109761D01*
X119253095Y-119014523D01*
X119205476Y-118824047D01*
X119205476Y-118490714D01*
X119253095Y-118300238D01*
X119348333Y-118205000D01*
X119443571Y-118157380D01*
X119634047Y-118157380D01*
X119729285Y-118205000D01*
X119824523Y-118300238D01*
X119872142Y-118490714D01*
X119872142Y-118824047D01*
X119824523Y-119014523D01*
X119729285Y-119109761D01*
X119634047Y-119157380D01*
X119443571Y-119157380D01*
X120824523Y-119157380D02*
X120253095Y-119157380D01*
X120538809Y-119157380D02*
X120538809Y-118157380D01*
X120443571Y-118300238D01*
X120348333Y-118395476D01*
X120253095Y-118443095D01*
X135842619Y-122650238D02*
X135795000Y-122745476D01*
X135699761Y-122840714D01*
X135556904Y-122983571D01*
X135509285Y-123078809D01*
X135509285Y-123174047D01*
X135747380Y-123126428D02*
X135699761Y-123221666D01*
X135604523Y-123316904D01*
X135414047Y-123364523D01*
X135080714Y-123364523D01*
X134890238Y-123316904D01*
X134795000Y-123221666D01*
X134747380Y-123126428D01*
X134747380Y-122935952D01*
X134795000Y-122840714D01*
X134890238Y-122745476D01*
X135080714Y-122697857D01*
X135414047Y-122697857D01*
X135604523Y-122745476D01*
X135699761Y-122840714D01*
X135747380Y-122935952D01*
X135747380Y-123126428D01*
X134842619Y-122316904D02*
X134795000Y-122269285D01*
X134747380Y-122174047D01*
X134747380Y-121935952D01*
X134795000Y-121840714D01*
X134842619Y-121793095D01*
X134937857Y-121745476D01*
X135033095Y-121745476D01*
X135175952Y-121793095D01*
X135747380Y-122364523D01*
X135747380Y-121745476D01*
X119919761Y-140287619D02*
X119824523Y-140240000D01*
X119729285Y-140144761D01*
X119586428Y-140001904D01*
X119491190Y-139954285D01*
X119395952Y-139954285D01*
X119443571Y-140192380D02*
X119348333Y-140144761D01*
X119253095Y-140049523D01*
X119205476Y-139859047D01*
X119205476Y-139525714D01*
X119253095Y-139335238D01*
X119348333Y-139240000D01*
X119443571Y-139192380D01*
X119634047Y-139192380D01*
X119729285Y-139240000D01*
X119824523Y-139335238D01*
X119872142Y-139525714D01*
X119872142Y-139859047D01*
X119824523Y-140049523D01*
X119729285Y-140144761D01*
X119634047Y-140192380D01*
X119443571Y-140192380D01*
X120205476Y-139192380D02*
X120824523Y-139192380D01*
X120491190Y-139573333D01*
X120634047Y-139573333D01*
X120729285Y-139620952D01*
X120776904Y-139668571D01*
X120824523Y-139763809D01*
X120824523Y-140001904D01*
X120776904Y-140097142D01*
X120729285Y-140144761D01*
X120634047Y-140192380D01*
X120348333Y-140192380D01*
X120253095Y-140144761D01*
X120205476Y-140097142D01*
X105917619Y-122650238D02*
X105870000Y-122745476D01*
X105774761Y-122840714D01*
X105631904Y-122983571D01*
X105584285Y-123078809D01*
X105584285Y-123174047D01*
X105822380Y-123126428D02*
X105774761Y-123221666D01*
X105679523Y-123316904D01*
X105489047Y-123364523D01*
X105155714Y-123364523D01*
X104965238Y-123316904D01*
X104870000Y-123221666D01*
X104822380Y-123126428D01*
X104822380Y-122935952D01*
X104870000Y-122840714D01*
X104965238Y-122745476D01*
X105155714Y-122697857D01*
X105489047Y-122697857D01*
X105679523Y-122745476D01*
X105774761Y-122840714D01*
X105822380Y-122935952D01*
X105822380Y-123126428D01*
X105155714Y-121840714D02*
X105822380Y-121840714D01*
X104774761Y-122078809D02*
X105489047Y-122316904D01*
X105489047Y-121697857D01*
X104647619Y-109950238D02*
X104600000Y-110045476D01*
X104504761Y-110140714D01*
X104361904Y-110283571D01*
X104314285Y-110378809D01*
X104314285Y-110474047D01*
X104552380Y-110426428D02*
X104504761Y-110521666D01*
X104409523Y-110616904D01*
X104219047Y-110664523D01*
X103885714Y-110664523D01*
X103695238Y-110616904D01*
X103600000Y-110521666D01*
X103552380Y-110426428D01*
X103552380Y-110235952D01*
X103600000Y-110140714D01*
X103695238Y-110045476D01*
X103885714Y-109997857D01*
X104219047Y-109997857D01*
X104409523Y-110045476D01*
X104504761Y-110140714D01*
X104552380Y-110235952D01*
X104552380Y-110426428D01*
X103552380Y-109093095D02*
X103552380Y-109569285D01*
X104028571Y-109616904D01*
X103980952Y-109569285D01*
X103933333Y-109474047D01*
X103933333Y-109235952D01*
X103980952Y-109140714D01*
X104028571Y-109093095D01*
X104123809Y-109045476D01*
X104361904Y-109045476D01*
X104457142Y-109093095D01*
X104504761Y-109140714D01*
X104552380Y-109235952D01*
X104552380Y-109474047D01*
X104504761Y-109569285D01*
X104457142Y-109616904D01*
X136437619Y-109950238D02*
X136390000Y-110045476D01*
X136294761Y-110140714D01*
X136151904Y-110283571D01*
X136104285Y-110378809D01*
X136104285Y-110474047D01*
X136342380Y-110426428D02*
X136294761Y-110521666D01*
X136199523Y-110616904D01*
X136009047Y-110664523D01*
X135675714Y-110664523D01*
X135485238Y-110616904D01*
X135390000Y-110521666D01*
X135342380Y-110426428D01*
X135342380Y-110235952D01*
X135390000Y-110140714D01*
X135485238Y-110045476D01*
X135675714Y-109997857D01*
X136009047Y-109997857D01*
X136199523Y-110045476D01*
X136294761Y-110140714D01*
X136342380Y-110235952D01*
X136342380Y-110426428D01*
X135342380Y-109140714D02*
X135342380Y-109331190D01*
X135390000Y-109426428D01*
X135437619Y-109474047D01*
X135580476Y-109569285D01*
X135770952Y-109616904D01*
X136151904Y-109616904D01*
X136247142Y-109569285D01*
X136294761Y-109521666D01*
X136342380Y-109426428D01*
X136342380Y-109235952D01*
X136294761Y-109140714D01*
X136247142Y-109093095D01*
X136151904Y-109045476D01*
X135913809Y-109045476D01*
X135818571Y-109093095D01*
X135770952Y-109140714D01*
X135723333Y-109235952D01*
X135723333Y-109426428D01*
X135770952Y-109521666D01*
X135818571Y-109569285D01*
X135913809Y-109616904D01*
X115387380Y-116847857D02*
X114911190Y-117181190D01*
X115387380Y-117419285D02*
X114387380Y-117419285D01*
X114387380Y-117038333D01*
X114435000Y-116943095D01*
X114482619Y-116895476D01*
X114577857Y-116847857D01*
X114720714Y-116847857D01*
X114815952Y-116895476D01*
X114863571Y-116943095D01*
X114911190Y-117038333D01*
X114911190Y-117419285D01*
X115387380Y-115895476D02*
X115387380Y-116466904D01*
X115387380Y-116181190D02*
X114387380Y-116181190D01*
X114530238Y-116276428D01*
X114625476Y-116371666D01*
X114673095Y-116466904D01*
X115387380Y-114943095D02*
X115387380Y-115514523D01*
X115387380Y-115228809D02*
X114387380Y-115228809D01*
X114530238Y-115324047D01*
X114625476Y-115419285D01*
X114673095Y-115514523D01*
X137152142Y-117927380D02*
X136818809Y-117451190D01*
X136580714Y-117927380D02*
X136580714Y-116927380D01*
X136961666Y-116927380D01*
X137056904Y-116975000D01*
X137104523Y-117022619D01*
X137152142Y-117117857D01*
X137152142Y-117260714D01*
X137104523Y-117355952D01*
X137056904Y-117403571D01*
X136961666Y-117451190D01*
X136580714Y-117451190D01*
X138104523Y-117927380D02*
X137533095Y-117927380D01*
X137818809Y-117927380D02*
X137818809Y-116927380D01*
X137723571Y-117070238D01*
X137628333Y-117165476D01*
X137533095Y-117213095D01*
X138485476Y-117022619D02*
X138533095Y-116975000D01*
X138628333Y-116927380D01*
X138866428Y-116927380D01*
X138961666Y-116975000D01*
X139009285Y-117022619D01*
X139056904Y-117117857D01*
X139056904Y-117213095D01*
X139009285Y-117355952D01*
X138437857Y-117927380D01*
X139056904Y-117927380D01*
X125547380Y-142882857D02*
X125071190Y-143216190D01*
X125547380Y-143454285D02*
X124547380Y-143454285D01*
X124547380Y-143073333D01*
X124595000Y-142978095D01*
X124642619Y-142930476D01*
X124737857Y-142882857D01*
X124880714Y-142882857D01*
X124975952Y-142930476D01*
X125023571Y-142978095D01*
X125071190Y-143073333D01*
X125071190Y-143454285D01*
X125547380Y-141930476D02*
X125547380Y-142501904D01*
X125547380Y-142216190D02*
X124547380Y-142216190D01*
X124690238Y-142311428D01*
X124785476Y-142406666D01*
X124833095Y-142501904D01*
X124547380Y-141597142D02*
X124547380Y-140978095D01*
X124928333Y-141311428D01*
X124928333Y-141168571D01*
X124975952Y-141073333D01*
X125023571Y-141025714D01*
X125118809Y-140978095D01*
X125356904Y-140978095D01*
X125452142Y-141025714D01*
X125499761Y-141073333D01*
X125547380Y-141168571D01*
X125547380Y-141454285D01*
X125499761Y-141549523D01*
X125452142Y-141597142D01*
X102227142Y-128087380D02*
X101893809Y-127611190D01*
X101655714Y-128087380D02*
X101655714Y-127087380D01*
X102036666Y-127087380D01*
X102131904Y-127135000D01*
X102179523Y-127182619D01*
X102227142Y-127277857D01*
X102227142Y-127420714D01*
X102179523Y-127515952D01*
X102131904Y-127563571D01*
X102036666Y-127611190D01*
X101655714Y-127611190D01*
X103179523Y-128087380D02*
X102608095Y-128087380D01*
X102893809Y-128087380D02*
X102893809Y-127087380D01*
X102798571Y-127230238D01*
X102703333Y-127325476D01*
X102608095Y-127373095D01*
X104036666Y-127420714D02*
X104036666Y-128087380D01*
X103798571Y-127039761D02*
X103560476Y-127754047D01*
X104179523Y-127754047D01*
X125547380Y-116847857D02*
X125071190Y-117181190D01*
X125547380Y-117419285D02*
X124547380Y-117419285D01*
X124547380Y-117038333D01*
X124595000Y-116943095D01*
X124642619Y-116895476D01*
X124737857Y-116847857D01*
X124880714Y-116847857D01*
X124975952Y-116895476D01*
X125023571Y-116943095D01*
X125071190Y-117038333D01*
X125071190Y-117419285D01*
X125547380Y-115895476D02*
X125547380Y-116466904D01*
X125547380Y-116181190D02*
X124547380Y-116181190D01*
X124690238Y-116276428D01*
X124785476Y-116371666D01*
X124833095Y-116466904D01*
X124975952Y-115324047D02*
X124928333Y-115419285D01*
X124880714Y-115466904D01*
X124785476Y-115514523D01*
X124737857Y-115514523D01*
X124642619Y-115466904D01*
X124595000Y-115419285D01*
X124547380Y-115324047D01*
X124547380Y-115133571D01*
X124595000Y-115038333D01*
X124642619Y-114990714D01*
X124737857Y-114943095D01*
X124785476Y-114943095D01*
X124880714Y-114990714D01*
X124928333Y-115038333D01*
X124975952Y-115133571D01*
X124975952Y-115324047D01*
X125023571Y-115419285D01*
X125071190Y-115466904D01*
X125166428Y-115514523D01*
X125356904Y-115514523D01*
X125452142Y-115466904D01*
X125499761Y-115419285D01*
X125547380Y-115324047D01*
X125547380Y-115133571D01*
X125499761Y-115038333D01*
X125452142Y-114990714D01*
X125356904Y-114943095D01*
X125166428Y-114943095D01*
X125071190Y-114990714D01*
X125023571Y-115038333D01*
X124975952Y-115133571D01*
X137152142Y-128087380D02*
X136818809Y-127611190D01*
X136580714Y-128087380D02*
X136580714Y-127087380D01*
X136961666Y-127087380D01*
X137056904Y-127135000D01*
X137104523Y-127182619D01*
X137152142Y-127277857D01*
X137152142Y-127420714D01*
X137104523Y-127515952D01*
X137056904Y-127563571D01*
X136961666Y-127611190D01*
X136580714Y-127611190D01*
X138104523Y-128087380D02*
X137533095Y-128087380D01*
X137818809Y-128087380D02*
X137818809Y-127087380D01*
X137723571Y-127230238D01*
X137628333Y-127325476D01*
X137533095Y-127373095D01*
X138580714Y-128087380D02*
X138771190Y-128087380D01*
X138866428Y-128039761D01*
X138914047Y-127992142D01*
X139009285Y-127849285D01*
X139056904Y-127658809D01*
X139056904Y-127277857D01*
X139009285Y-127182619D01*
X138961666Y-127135000D01*
X138866428Y-127087380D01*
X138675952Y-127087380D01*
X138580714Y-127135000D01*
X138533095Y-127182619D01*
X138485476Y-127277857D01*
X138485476Y-127515952D01*
X138533095Y-127611190D01*
X138580714Y-127658809D01*
X138675952Y-127706428D01*
X138866428Y-127706428D01*
X138961666Y-127658809D01*
X139009285Y-127611190D01*
X139056904Y-127515952D01*
X115387380Y-142882857D02*
X114911190Y-143216190D01*
X115387380Y-143454285D02*
X114387380Y-143454285D01*
X114387380Y-143073333D01*
X114435000Y-142978095D01*
X114482619Y-142930476D01*
X114577857Y-142882857D01*
X114720714Y-142882857D01*
X114815952Y-142930476D01*
X114863571Y-142978095D01*
X114911190Y-143073333D01*
X114911190Y-143454285D01*
X114482619Y-142501904D02*
X114435000Y-142454285D01*
X114387380Y-142359047D01*
X114387380Y-142120952D01*
X114435000Y-142025714D01*
X114482619Y-141978095D01*
X114577857Y-141930476D01*
X114673095Y-141930476D01*
X114815952Y-141978095D01*
X115387380Y-142549523D01*
X115387380Y-141930476D01*
X114387380Y-141311428D02*
X114387380Y-141216190D01*
X114435000Y-141120952D01*
X114482619Y-141073333D01*
X114577857Y-141025714D01*
X114768333Y-140978095D01*
X115006428Y-140978095D01*
X115196904Y-141025714D01*
X115292142Y-141073333D01*
X115339761Y-141120952D01*
X115387380Y-141216190D01*
X115387380Y-141311428D01*
X115339761Y-141406666D01*
X115292142Y-141454285D01*
X115196904Y-141501904D01*
X115006428Y-141549523D01*
X114768333Y-141549523D01*
X114577857Y-141501904D01*
X114482619Y-141454285D01*
X114435000Y-141406666D01*
X114387380Y-141311428D01*
X102227142Y-117927380D02*
X101893809Y-117451190D01*
X101655714Y-117927380D02*
X101655714Y-116927380D01*
X102036666Y-116927380D01*
X102131904Y-116975000D01*
X102179523Y-117022619D01*
X102227142Y-117117857D01*
X102227142Y-117260714D01*
X102179523Y-117355952D01*
X102131904Y-117403571D01*
X102036666Y-117451190D01*
X101655714Y-117451190D01*
X102608095Y-117022619D02*
X102655714Y-116975000D01*
X102750952Y-116927380D01*
X102989047Y-116927380D01*
X103084285Y-116975000D01*
X103131904Y-117022619D01*
X103179523Y-117117857D01*
X103179523Y-117213095D01*
X103131904Y-117355952D01*
X102560476Y-117927380D01*
X103179523Y-117927380D01*
X104131904Y-117927380D02*
X103560476Y-117927380D01*
X103846190Y-117927380D02*
X103846190Y-116927380D01*
X103750952Y-117070238D01*
X103655714Y-117165476D01*
X103560476Y-117213095D01*
X104132142Y-106497380D02*
X103798809Y-106021190D01*
X103560714Y-106497380D02*
X103560714Y-105497380D01*
X103941666Y-105497380D01*
X104036904Y-105545000D01*
X104084523Y-105592619D01*
X104132142Y-105687857D01*
X104132142Y-105830714D01*
X104084523Y-105925952D01*
X104036904Y-105973571D01*
X103941666Y-106021190D01*
X103560714Y-106021190D01*
X104513095Y-105592619D02*
X104560714Y-105545000D01*
X104655952Y-105497380D01*
X104894047Y-105497380D01*
X104989285Y-105545000D01*
X105036904Y-105592619D01*
X105084523Y-105687857D01*
X105084523Y-105783095D01*
X105036904Y-105925952D01*
X104465476Y-106497380D01*
X105084523Y-106497380D01*
X105465476Y-105592619D02*
X105513095Y-105545000D01*
X105608333Y-105497380D01*
X105846428Y-105497380D01*
X105941666Y-105545000D01*
X105989285Y-105592619D01*
X106036904Y-105687857D01*
X106036904Y-105783095D01*
X105989285Y-105925952D01*
X105417857Y-106497380D01*
X106036904Y-106497380D01*
X134612142Y-106497380D02*
X134278809Y-106021190D01*
X134040714Y-106497380D02*
X134040714Y-105497380D01*
X134421666Y-105497380D01*
X134516904Y-105545000D01*
X134564523Y-105592619D01*
X134612142Y-105687857D01*
X134612142Y-105830714D01*
X134564523Y-105925952D01*
X134516904Y-105973571D01*
X134421666Y-106021190D01*
X134040714Y-106021190D01*
X134993095Y-105592619D02*
X135040714Y-105545000D01*
X135135952Y-105497380D01*
X135374047Y-105497380D01*
X135469285Y-105545000D01*
X135516904Y-105592619D01*
X135564523Y-105687857D01*
X135564523Y-105783095D01*
X135516904Y-105925952D01*
X134945476Y-106497380D01*
X135564523Y-106497380D01*
X135897857Y-105497380D02*
X136516904Y-105497380D01*
X136183571Y-105878333D01*
X136326428Y-105878333D01*
X136421666Y-105925952D01*
X136469285Y-105973571D01*
X136516904Y-106068809D01*
X136516904Y-106306904D01*
X136469285Y-106402142D01*
X136421666Y-106449761D01*
X136326428Y-106497380D01*
X136040714Y-106497380D01*
X135945476Y-106449761D01*
X135897857Y-106402142D01*
X104132142Y-114117380D02*
X103798809Y-113641190D01*
X103560714Y-114117380D02*
X103560714Y-113117380D01*
X103941666Y-113117380D01*
X104036904Y-113165000D01*
X104084523Y-113212619D01*
X104132142Y-113307857D01*
X104132142Y-113450714D01*
X104084523Y-113545952D01*
X104036904Y-113593571D01*
X103941666Y-113641190D01*
X103560714Y-113641190D01*
X104513095Y-113212619D02*
X104560714Y-113165000D01*
X104655952Y-113117380D01*
X104894047Y-113117380D01*
X104989285Y-113165000D01*
X105036904Y-113212619D01*
X105084523Y-113307857D01*
X105084523Y-113403095D01*
X105036904Y-113545952D01*
X104465476Y-114117380D01*
X105084523Y-114117380D01*
X105941666Y-113450714D02*
X105941666Y-114117380D01*
X105703571Y-113069761D02*
X105465476Y-113784047D01*
X106084523Y-113784047D01*
X134612142Y-114117380D02*
X134278809Y-113641190D01*
X134040714Y-114117380D02*
X134040714Y-113117380D01*
X134421666Y-113117380D01*
X134516904Y-113165000D01*
X134564523Y-113212619D01*
X134612142Y-113307857D01*
X134612142Y-113450714D01*
X134564523Y-113545952D01*
X134516904Y-113593571D01*
X134421666Y-113641190D01*
X134040714Y-113641190D01*
X134993095Y-113212619D02*
X135040714Y-113165000D01*
X135135952Y-113117380D01*
X135374047Y-113117380D01*
X135469285Y-113165000D01*
X135516904Y-113212619D01*
X135564523Y-113307857D01*
X135564523Y-113403095D01*
X135516904Y-113545952D01*
X134945476Y-114117380D01*
X135564523Y-114117380D01*
X136469285Y-113117380D02*
X135993095Y-113117380D01*
X135945476Y-113593571D01*
X135993095Y-113545952D01*
X136088333Y-113498333D01*
X136326428Y-113498333D01*
X136421666Y-113545952D01*
X136469285Y-113593571D01*
X136516904Y-113688809D01*
X136516904Y-113926904D01*
X136469285Y-114022142D01*
X136421666Y-114069761D01*
X136326428Y-114117380D01*
X136088333Y-114117380D01*
X135993095Y-114069761D01*
X135945476Y-114022142D01*
X139438142Y-139517380D02*
X139104809Y-139041190D01*
X138866714Y-139517380D02*
X138866714Y-138517380D01*
X139247666Y-138517380D01*
X139342904Y-138565000D01*
X139390523Y-138612619D01*
X139438142Y-138707857D01*
X139438142Y-138850714D01*
X139390523Y-138945952D01*
X139342904Y-138993571D01*
X139247666Y-139041190D01*
X138866714Y-139041190D01*
X139819095Y-138612619D02*
X139866714Y-138565000D01*
X139961952Y-138517380D01*
X140200047Y-138517380D01*
X140295285Y-138565000D01*
X140342904Y-138612619D01*
X140390523Y-138707857D01*
X140390523Y-138803095D01*
X140342904Y-138945952D01*
X139771476Y-139517380D01*
X140390523Y-139517380D01*
X141247666Y-138517380D02*
X141057190Y-138517380D01*
X140961952Y-138565000D01*
X140914333Y-138612619D01*
X140819095Y-138755476D01*
X140771476Y-138945952D01*
X140771476Y-139326904D01*
X140819095Y-139422142D01*
X140866714Y-139469761D01*
X140961952Y-139517380D01*
X141152428Y-139517380D01*
X141247666Y-139469761D01*
X141295285Y-139422142D01*
X141342904Y-139326904D01*
X141342904Y-139088809D01*
X141295285Y-138993571D01*
X141247666Y-138945952D01*
X141152428Y-138898333D01*
X140961952Y-138898333D01*
X140866714Y-138945952D01*
X140819095Y-138993571D01*
X140771476Y-139088809D01*
X64254142Y-59634380D02*
X63920809Y-59158190D01*
X63682714Y-59634380D02*
X63682714Y-58634380D01*
X64063666Y-58634380D01*
X64158904Y-58682000D01*
X64206523Y-58729619D01*
X64254142Y-58824857D01*
X64254142Y-58967714D01*
X64206523Y-59062952D01*
X64158904Y-59110571D01*
X64063666Y-59158190D01*
X63682714Y-59158190D01*
X64587476Y-58634380D02*
X65206523Y-58634380D01*
X64873190Y-59015333D01*
X65016047Y-59015333D01*
X65111285Y-59062952D01*
X65158904Y-59110571D01*
X65206523Y-59205809D01*
X65206523Y-59443904D01*
X65158904Y-59539142D01*
X65111285Y-59586761D01*
X65016047Y-59634380D01*
X64730333Y-59634380D01*
X64635095Y-59586761D01*
X64587476Y-59539142D01*
X65539857Y-58634380D02*
X66158904Y-58634380D01*
X65825571Y-59015333D01*
X65968428Y-59015333D01*
X66063666Y-59062952D01*
X66111285Y-59110571D01*
X66158904Y-59205809D01*
X66158904Y-59443904D01*
X66111285Y-59539142D01*
X66063666Y-59586761D01*
X65968428Y-59634380D01*
X65682714Y-59634380D01*
X65587476Y-59586761D01*
X65539857Y-59539142D01*
X139739761Y-129992380D02*
X139406428Y-129516190D01*
X139168333Y-129992380D02*
X139168333Y-128992380D01*
X139549285Y-128992380D01*
X139644523Y-129040000D01*
X139692142Y-129087619D01*
X139739761Y-129182857D01*
X139739761Y-129325714D01*
X139692142Y-129420952D01*
X139644523Y-129468571D01*
X139549285Y-129516190D01*
X139168333Y-129516190D01*
X140025476Y-128992380D02*
X140358809Y-129992380D01*
X140692142Y-128992380D01*
X141549285Y-129992380D02*
X140977857Y-129992380D01*
X141263571Y-129992380D02*
X141263571Y-128992380D01*
X141168333Y-129135238D01*
X141073095Y-129230476D01*
X140977857Y-129278095D01*
X112164761Y-97853333D02*
X112212380Y-97710476D01*
X112212380Y-97472380D01*
X112164761Y-97377142D01*
X112117142Y-97329523D01*
X112021904Y-97281904D01*
X111926666Y-97281904D01*
X111831428Y-97329523D01*
X111783809Y-97377142D01*
X111736190Y-97472380D01*
X111688571Y-97662857D01*
X111640952Y-97758095D01*
X111593333Y-97805714D01*
X111498095Y-97853333D01*
X111402857Y-97853333D01*
X111307619Y-97805714D01*
X111260000Y-97758095D01*
X111212380Y-97662857D01*
X111212380Y-97424761D01*
X111260000Y-97281904D01*
X111212380Y-96948571D02*
X112212380Y-96710476D01*
X111498095Y-96520000D01*
X112212380Y-96329523D01*
X111212380Y-96091428D01*
X111212380Y-95805714D02*
X111212380Y-95139047D01*
X112212380Y-95567619D01*
X124972380Y-112521904D02*
X125781904Y-112521904D01*
X125877142Y-112474285D01*
X125924761Y-112426666D01*
X125972380Y-112331428D01*
X125972380Y-112140952D01*
X125924761Y-112045714D01*
X125877142Y-111998095D01*
X125781904Y-111950476D01*
X124972380Y-111950476D01*
X125305714Y-111045714D02*
X125972380Y-111045714D01*
X124924761Y-111283809D02*
X125639047Y-111521904D01*
X125639047Y-110902857D01*
X97663095Y-116502380D02*
X97663095Y-117311904D01*
X97710714Y-117407142D01*
X97758333Y-117454761D01*
X97853571Y-117502380D01*
X98044047Y-117502380D01*
X98139285Y-117454761D01*
X98186904Y-117407142D01*
X98234523Y-117311904D01*
X98234523Y-116502380D01*
X99139285Y-116502380D02*
X98948809Y-116502380D01*
X98853571Y-116550000D01*
X98805952Y-116597619D01*
X98710714Y-116740476D01*
X98663095Y-116930952D01*
X98663095Y-117311904D01*
X98710714Y-117407142D01*
X98758333Y-117454761D01*
X98853571Y-117502380D01*
X99044047Y-117502380D01*
X99139285Y-117454761D01*
X99186904Y-117407142D01*
X99234523Y-117311904D01*
X99234523Y-117073809D01*
X99186904Y-116978571D01*
X99139285Y-116930952D01*
X99044047Y-116883333D01*
X98853571Y-116883333D01*
X98758333Y-116930952D01*
X98710714Y-116978571D01*
X98663095Y-117073809D01*
X141478095Y-127722380D02*
X141478095Y-128531904D01*
X141525714Y-128627142D01*
X141573333Y-128674761D01*
X141668571Y-128722380D01*
X141859047Y-128722380D01*
X141954285Y-128674761D01*
X142001904Y-128627142D01*
X142049523Y-128531904D01*
X142049523Y-127722380D01*
X142430476Y-127722380D02*
X143097142Y-127722380D01*
X142668571Y-128722380D01*
X113962380Y-147446904D02*
X114771904Y-147446904D01*
X114867142Y-147399285D01*
X114914761Y-147351666D01*
X114962380Y-147256428D01*
X114962380Y-147065952D01*
X114914761Y-146970714D01*
X114867142Y-146923095D01*
X114771904Y-146875476D01*
X113962380Y-146875476D01*
X114390952Y-146256428D02*
X114343333Y-146351666D01*
X114295714Y-146399285D01*
X114200476Y-146446904D01*
X114152857Y-146446904D01*
X114057619Y-146399285D01*
X114010000Y-146351666D01*
X113962380Y-146256428D01*
X113962380Y-146065952D01*
X114010000Y-145970714D01*
X114057619Y-145923095D01*
X114152857Y-145875476D01*
X114200476Y-145875476D01*
X114295714Y-145923095D01*
X114343333Y-145970714D01*
X114390952Y-146065952D01*
X114390952Y-146256428D01*
X114438571Y-146351666D01*
X114486190Y-146399285D01*
X114581428Y-146446904D01*
X114771904Y-146446904D01*
X114867142Y-146399285D01*
X114914761Y-146351666D01*
X114962380Y-146256428D01*
X114962380Y-146065952D01*
X114914761Y-145970714D01*
X114867142Y-145923095D01*
X114771904Y-145875476D01*
X114581428Y-145875476D01*
X114486190Y-145923095D01*
X114438571Y-145970714D01*
X114390952Y-146065952D01*
X106076904Y-130897380D02*
X106076904Y-131706904D01*
X106124523Y-131802142D01*
X106172142Y-131849761D01*
X106267380Y-131897380D01*
X106457857Y-131897380D01*
X106553095Y-131849761D01*
X106600714Y-131802142D01*
X106648333Y-131706904D01*
X106648333Y-130897380D01*
X107648333Y-131897380D02*
X107076904Y-131897380D01*
X107362619Y-131897380D02*
X107362619Y-130897380D01*
X107267380Y-131040238D01*
X107172142Y-131135476D01*
X107076904Y-131183095D01*
X108600714Y-131897380D02*
X108029285Y-131897380D01*
X108315000Y-131897380D02*
X108315000Y-130897380D01*
X108219761Y-131040238D01*
X108124523Y-131135476D01*
X108029285Y-131183095D01*
X106076904Y-136612380D02*
X106076904Y-137421904D01*
X106124523Y-137517142D01*
X106172142Y-137564761D01*
X106267380Y-137612380D01*
X106457857Y-137612380D01*
X106553095Y-137564761D01*
X106600714Y-137517142D01*
X106648333Y-137421904D01*
X106648333Y-136612380D01*
X107648333Y-137612380D02*
X107076904Y-137612380D01*
X107362619Y-137612380D02*
X107362619Y-136612380D01*
X107267380Y-136755238D01*
X107172142Y-136850476D01*
X107076904Y-136898095D01*
X108029285Y-136707619D02*
X108076904Y-136660000D01*
X108172142Y-136612380D01*
X108410238Y-136612380D01*
X108505476Y-136660000D01*
X108553095Y-136707619D01*
X108600714Y-136802857D01*
X108600714Y-136898095D01*
X108553095Y-137040952D01*
X107981666Y-137612380D01*
X108600714Y-137612380D01*
X131476904Y-130897380D02*
X131476904Y-131706904D01*
X131524523Y-131802142D01*
X131572142Y-131849761D01*
X131667380Y-131897380D01*
X131857857Y-131897380D01*
X131953095Y-131849761D01*
X132000714Y-131802142D01*
X132048333Y-131706904D01*
X132048333Y-130897380D01*
X133048333Y-131897380D02*
X132476904Y-131897380D01*
X132762619Y-131897380D02*
X132762619Y-130897380D01*
X132667380Y-131040238D01*
X132572142Y-131135476D01*
X132476904Y-131183095D01*
X133381666Y-130897380D02*
X134000714Y-130897380D01*
X133667380Y-131278333D01*
X133810238Y-131278333D01*
X133905476Y-131325952D01*
X133953095Y-131373571D01*
X134000714Y-131468809D01*
X134000714Y-131706904D01*
X133953095Y-131802142D01*
X133905476Y-131849761D01*
X133810238Y-131897380D01*
X133524523Y-131897380D01*
X133429285Y-131849761D01*
X133381666Y-131802142D01*
X131476904Y-136612380D02*
X131476904Y-137421904D01*
X131524523Y-137517142D01*
X131572142Y-137564761D01*
X131667380Y-137612380D01*
X131857857Y-137612380D01*
X131953095Y-137564761D01*
X132000714Y-137517142D01*
X132048333Y-137421904D01*
X132048333Y-136612380D01*
X133048333Y-137612380D02*
X132476904Y-137612380D01*
X132762619Y-137612380D02*
X132762619Y-136612380D01*
X132667380Y-136755238D01*
X132572142Y-136850476D01*
X132476904Y-136898095D01*
X133905476Y-136945714D02*
X133905476Y-137612380D01*
X133667380Y-136564761D02*
X133429285Y-137279047D01*
X134048333Y-137279047D01*
X129825904Y-89495380D02*
X129825904Y-90304904D01*
X129873523Y-90400142D01*
X129921142Y-90447761D01*
X130016380Y-90495380D01*
X130206857Y-90495380D01*
X130302095Y-90447761D01*
X130349714Y-90400142D01*
X130397333Y-90304904D01*
X130397333Y-89495380D01*
X131397333Y-90495380D02*
X130825904Y-90495380D01*
X131111619Y-90495380D02*
X131111619Y-89495380D01*
X131016380Y-89638238D01*
X130921142Y-89733476D01*
X130825904Y-89781095D01*
X132254476Y-89495380D02*
X132064000Y-89495380D01*
X131968761Y-89543000D01*
X131921142Y-89590619D01*
X131825904Y-89733476D01*
X131778285Y-89923952D01*
X131778285Y-90304904D01*
X131825904Y-90400142D01*
X131873523Y-90447761D01*
X131968761Y-90495380D01*
X132159238Y-90495380D01*
X132254476Y-90447761D01*
X132302095Y-90400142D01*
X132349714Y-90304904D01*
X132349714Y-90066809D01*
X132302095Y-89971571D01*
X132254476Y-89923952D01*
X132159238Y-89876333D01*
X131968761Y-89876333D01*
X131873523Y-89923952D01*
X131825904Y-89971571D01*
X131778285Y-90066809D01*
X134651904Y-78192380D02*
X134651904Y-79001904D01*
X134699523Y-79097142D01*
X134747142Y-79144761D01*
X134842380Y-79192380D01*
X135032857Y-79192380D01*
X135128095Y-79144761D01*
X135175714Y-79097142D01*
X135223333Y-79001904D01*
X135223333Y-78192380D01*
X136223333Y-79192380D02*
X135651904Y-79192380D01*
X135937619Y-79192380D02*
X135937619Y-78192380D01*
X135842380Y-78335238D01*
X135747142Y-78430476D01*
X135651904Y-78478095D01*
X136556666Y-78192380D02*
X137223333Y-78192380D01*
X136794761Y-79192380D01*
X104171904Y-78192380D02*
X104171904Y-79001904D01*
X104219523Y-79097142D01*
X104267142Y-79144761D01*
X104362380Y-79192380D01*
X104552857Y-79192380D01*
X104648095Y-79144761D01*
X104695714Y-79097142D01*
X104743333Y-79001904D01*
X104743333Y-78192380D01*
X105743333Y-79192380D02*
X105171904Y-79192380D01*
X105457619Y-79192380D02*
X105457619Y-78192380D01*
X105362380Y-78335238D01*
X105267142Y-78430476D01*
X105171904Y-78478095D01*
X106314761Y-78620952D02*
X106219523Y-78573333D01*
X106171904Y-78525714D01*
X106124285Y-78430476D01*
X106124285Y-78382857D01*
X106171904Y-78287619D01*
X106219523Y-78240000D01*
X106314761Y-78192380D01*
X106505238Y-78192380D01*
X106600476Y-78240000D01*
X106648095Y-78287619D01*
X106695714Y-78382857D01*
X106695714Y-78430476D01*
X106648095Y-78525714D01*
X106600476Y-78573333D01*
X106505238Y-78620952D01*
X106314761Y-78620952D01*
X106219523Y-78668571D01*
X106171904Y-78716190D01*
X106124285Y-78811428D01*
X106124285Y-79001904D01*
X106171904Y-79097142D01*
X106219523Y-79144761D01*
X106314761Y-79192380D01*
X106505238Y-79192380D01*
X106600476Y-79144761D01*
X106648095Y-79097142D01*
X106695714Y-79001904D01*
X106695714Y-78811428D01*
X106648095Y-78716190D01*
X106600476Y-78668571D01*
X106505238Y-78620952D01*
X125126904Y-83272380D02*
X125126904Y-84081904D01*
X125174523Y-84177142D01*
X125222142Y-84224761D01*
X125317380Y-84272380D01*
X125507857Y-84272380D01*
X125603095Y-84224761D01*
X125650714Y-84177142D01*
X125698333Y-84081904D01*
X125698333Y-83272380D01*
X126698333Y-84272380D02*
X126126904Y-84272380D01*
X126412619Y-84272380D02*
X126412619Y-83272380D01*
X126317380Y-83415238D01*
X126222142Y-83510476D01*
X126126904Y-83558095D01*
X127174523Y-84272380D02*
X127365000Y-84272380D01*
X127460238Y-84224761D01*
X127507857Y-84177142D01*
X127603095Y-84034285D01*
X127650714Y-83843809D01*
X127650714Y-83462857D01*
X127603095Y-83367619D01*
X127555476Y-83320000D01*
X127460238Y-83272380D01*
X127269761Y-83272380D01*
X127174523Y-83320000D01*
X127126904Y-83367619D01*
X127079285Y-83462857D01*
X127079285Y-83700952D01*
X127126904Y-83796190D01*
X127174523Y-83843809D01*
X127269761Y-83891428D01*
X127460238Y-83891428D01*
X127555476Y-83843809D01*
X127603095Y-83796190D01*
X127650714Y-83700952D01*
X113696904Y-83022380D02*
X113696904Y-83831904D01*
X113744523Y-83927142D01*
X113792142Y-83974761D01*
X113887380Y-84022380D01*
X114077857Y-84022380D01*
X114173095Y-83974761D01*
X114220714Y-83927142D01*
X114268333Y-83831904D01*
X114268333Y-83022380D01*
X114696904Y-83117619D02*
X114744523Y-83070000D01*
X114839761Y-83022380D01*
X115077857Y-83022380D01*
X115173095Y-83070000D01*
X115220714Y-83117619D01*
X115268333Y-83212857D01*
X115268333Y-83308095D01*
X115220714Y-83450952D01*
X114649285Y-84022380D01*
X115268333Y-84022380D01*
X115887380Y-83022380D02*
X115982619Y-83022380D01*
X116077857Y-83070000D01*
X116125476Y-83117619D01*
X116173095Y-83212857D01*
X116220714Y-83403333D01*
X116220714Y-83641428D01*
X116173095Y-83831904D01*
X116125476Y-83927142D01*
X116077857Y-83974761D01*
X115982619Y-84022380D01*
X115887380Y-84022380D01*
X115792142Y-83974761D01*
X115744523Y-83927142D01*
X115696904Y-83831904D01*
X115649285Y-83641428D01*
X115649285Y-83403333D01*
X115696904Y-83212857D01*
X115744523Y-83117619D01*
X115792142Y-83070000D01*
X115887380Y-83022380D01*
X131897380Y-143041666D02*
X131421190Y-143375000D01*
X131897380Y-143613095D02*
X130897380Y-143613095D01*
X130897380Y-143232142D01*
X130945000Y-143136904D01*
X130992619Y-143089285D01*
X131087857Y-143041666D01*
X131230714Y-143041666D01*
X131325952Y-143089285D01*
X131373571Y-143136904D01*
X131421190Y-143232142D01*
X131421190Y-143613095D01*
X131325952Y-142470238D02*
X131278333Y-142565476D01*
X131230714Y-142613095D01*
X131135476Y-142660714D01*
X131087857Y-142660714D01*
X130992619Y-142613095D01*
X130945000Y-142565476D01*
X130897380Y-142470238D01*
X130897380Y-142279761D01*
X130945000Y-142184523D01*
X130992619Y-142136904D01*
X131087857Y-142089285D01*
X131135476Y-142089285D01*
X131230714Y-142136904D01*
X131278333Y-142184523D01*
X131325952Y-142279761D01*
X131325952Y-142470238D01*
X131373571Y-142565476D01*
X131421190Y-142613095D01*
X131516428Y-142660714D01*
X131706904Y-142660714D01*
X131802142Y-142613095D01*
X131849761Y-142565476D01*
X131897380Y-142470238D01*
X131897380Y-142279761D01*
X131849761Y-142184523D01*
X131802142Y-142136904D01*
X131706904Y-142089285D01*
X131516428Y-142089285D01*
X131421190Y-142136904D01*
X131373571Y-142184523D01*
X131325952Y-142279761D01*
X109672380Y-143041666D02*
X109196190Y-143375000D01*
X109672380Y-143613095D02*
X108672380Y-143613095D01*
X108672380Y-143232142D01*
X108720000Y-143136904D01*
X108767619Y-143089285D01*
X108862857Y-143041666D01*
X109005714Y-143041666D01*
X109100952Y-143089285D01*
X109148571Y-143136904D01*
X109196190Y-143232142D01*
X109196190Y-143613095D01*
X109672380Y-142565476D02*
X109672380Y-142375000D01*
X109624761Y-142279761D01*
X109577142Y-142232142D01*
X109434285Y-142136904D01*
X109243809Y-142089285D01*
X108862857Y-142089285D01*
X108767619Y-142136904D01*
X108720000Y-142184523D01*
X108672380Y-142279761D01*
X108672380Y-142470238D01*
X108720000Y-142565476D01*
X108767619Y-142613095D01*
X108862857Y-142660714D01*
X109100952Y-142660714D01*
X109196190Y-142613095D01*
X109243809Y-142565476D01*
X109291428Y-142470238D01*
X109291428Y-142279761D01*
X109243809Y-142184523D01*
X109196190Y-142136904D01*
X109100952Y-142089285D01*
X49871333Y-89511142D02*
X49823714Y-89558761D01*
X49680857Y-89606380D01*
X49585619Y-89606380D01*
X49442761Y-89558761D01*
X49347523Y-89463523D01*
X49299904Y-89368285D01*
X49252285Y-89177809D01*
X49252285Y-89034952D01*
X49299904Y-88844476D01*
X49347523Y-88749238D01*
X49442761Y-88654000D01*
X49585619Y-88606380D01*
X49680857Y-88606380D01*
X49823714Y-88654000D01*
X49871333Y-88701619D01*
X50776095Y-88606380D02*
X50299904Y-88606380D01*
X50252285Y-89082571D01*
X50299904Y-89034952D01*
X50395142Y-88987333D01*
X50633238Y-88987333D01*
X50728476Y-89034952D01*
X50776095Y-89082571D01*
X50823714Y-89177809D01*
X50823714Y-89415904D01*
X50776095Y-89511142D01*
X50728476Y-89558761D01*
X50633238Y-89606380D01*
X50395142Y-89606380D01*
X50299904Y-89558761D01*
X50252285Y-89511142D01*
X122547142Y-85955142D02*
X122499523Y-86002761D01*
X122356666Y-86050380D01*
X122261428Y-86050380D01*
X122118571Y-86002761D01*
X122023333Y-85907523D01*
X121975714Y-85812285D01*
X121928095Y-85621809D01*
X121928095Y-85478952D01*
X121975714Y-85288476D01*
X122023333Y-85193238D01*
X122118571Y-85098000D01*
X122261428Y-85050380D01*
X122356666Y-85050380D01*
X122499523Y-85098000D01*
X122547142Y-85145619D01*
X123499523Y-86050380D02*
X122928095Y-86050380D01*
X123213809Y-86050380D02*
X123213809Y-85050380D01*
X123118571Y-85193238D01*
X123023333Y-85288476D01*
X122928095Y-85336095D01*
X123832857Y-85050380D02*
X124499523Y-85050380D01*
X124070952Y-86050380D01*
X142644761Y-83883333D02*
X142692380Y-83740476D01*
X142692380Y-83502380D01*
X142644761Y-83407142D01*
X142597142Y-83359523D01*
X142501904Y-83311904D01*
X142406666Y-83311904D01*
X142311428Y-83359523D01*
X142263809Y-83407142D01*
X142216190Y-83502380D01*
X142168571Y-83692857D01*
X142120952Y-83788095D01*
X142073333Y-83835714D01*
X141978095Y-83883333D01*
X141882857Y-83883333D01*
X141787619Y-83835714D01*
X141740000Y-83788095D01*
X141692380Y-83692857D01*
X141692380Y-83454761D01*
X141740000Y-83311904D01*
X141692380Y-82978571D02*
X142692380Y-82740476D01*
X141978095Y-82550000D01*
X142692380Y-82359523D01*
X141692380Y-82121428D01*
X142120952Y-81597619D02*
X142073333Y-81692857D01*
X142025714Y-81740476D01*
X141930476Y-81788095D01*
X141882857Y-81788095D01*
X141787619Y-81740476D01*
X141740000Y-81692857D01*
X141692380Y-81597619D01*
X141692380Y-81407142D01*
X141740000Y-81311904D01*
X141787619Y-81264285D01*
X141882857Y-81216666D01*
X141930476Y-81216666D01*
X142025714Y-81264285D01*
X142073333Y-81311904D01*
X142120952Y-81407142D01*
X142120952Y-81597619D01*
X142168571Y-81692857D01*
X142216190Y-81740476D01*
X142311428Y-81788095D01*
X142501904Y-81788095D01*
X142597142Y-81740476D01*
X142644761Y-81692857D01*
X142692380Y-81597619D01*
X142692380Y-81407142D01*
X142644761Y-81311904D01*
X142597142Y-81264285D01*
X142501904Y-81216666D01*
X142311428Y-81216666D01*
X142216190Y-81264285D01*
X142168571Y-81311904D01*
X142120952Y-81407142D01*
X125817380Y-60499523D02*
X126531666Y-60499523D01*
X126674523Y-60547142D01*
X126769761Y-60642380D01*
X126817380Y-60785238D01*
X126817380Y-60880476D01*
X125912619Y-60070952D02*
X125865000Y-60023333D01*
X125817380Y-59928095D01*
X125817380Y-59690000D01*
X125865000Y-59594761D01*
X125912619Y-59547142D01*
X126007857Y-59499523D01*
X126103095Y-59499523D01*
X126245952Y-59547142D01*
X126817380Y-60118571D01*
X126817380Y-59499523D01*
X126245952Y-58928095D02*
X126198333Y-59023333D01*
X126150714Y-59070952D01*
X126055476Y-59118571D01*
X126007857Y-59118571D01*
X125912619Y-59070952D01*
X125865000Y-59023333D01*
X125817380Y-58928095D01*
X125817380Y-58737619D01*
X125865000Y-58642380D01*
X125912619Y-58594761D01*
X126007857Y-58547142D01*
X126055476Y-58547142D01*
X126150714Y-58594761D01*
X126198333Y-58642380D01*
X126245952Y-58737619D01*
X126245952Y-58928095D01*
X126293571Y-59023333D01*
X126341190Y-59070952D01*
X126436428Y-59118571D01*
X126626904Y-59118571D01*
X126722142Y-59070952D01*
X126769761Y-59023333D01*
X126817380Y-58928095D01*
X126817380Y-58737619D01*
X126769761Y-58642380D01*
X126722142Y-58594761D01*
X126626904Y-58547142D01*
X126436428Y-58547142D01*
X126341190Y-58594761D01*
X126293571Y-58642380D01*
X126245952Y-58737619D01*
X114367380Y-60499523D02*
X115081666Y-60499523D01*
X115224523Y-60547142D01*
X115319761Y-60642380D01*
X115367380Y-60785238D01*
X115367380Y-60880476D01*
X114367380Y-60118571D02*
X114367380Y-59499523D01*
X114748333Y-59832857D01*
X114748333Y-59690000D01*
X114795952Y-59594761D01*
X114843571Y-59547142D01*
X114938809Y-59499523D01*
X115176904Y-59499523D01*
X115272142Y-59547142D01*
X115319761Y-59594761D01*
X115367380Y-59690000D01*
X115367380Y-59975714D01*
X115319761Y-60070952D01*
X115272142Y-60118571D01*
X115367380Y-58547142D02*
X115367380Y-59118571D01*
X115367380Y-58832857D02*
X114367380Y-58832857D01*
X114510238Y-58928095D01*
X114605476Y-59023333D01*
X114653095Y-59118571D01*
M02*
