G04 #@! TF.GenerationSoftware,KiCad,Pcbnew,(5.1.5)-3*
G04 #@! TF.CreationDate,2021-04-21T21:21:50+09:00*
G04 #@! TF.ProjectId,animacySwarmRobotics,616e696d-6163-4795-9377-61726d526f62,rev?*
G04 #@! TF.SameCoordinates,Original*
G04 #@! TF.FileFunction,Soldermask,Bot*
G04 #@! TF.FilePolarity,Negative*
%FSLAX46Y46*%
G04 Gerber Fmt 4.6, Leading zero omitted, Abs format (unit mm)*
G04 Created by KiCad (PCBNEW (5.1.5)-3) date 2021-04-21 21:21:50*
%MOMM*%
%LPD*%
G04 APERTURE LIST*
%ADD10C,0.100000*%
G04 APERTURE END LIST*
D10*
G36*
X138696000Y-148856000D02*
G01*
X136894000Y-148856000D01*
X136894000Y-147054000D01*
X138696000Y-147054000D01*
X138696000Y-148856000D01*
G37*
G36*
X135368512Y-147058927D02*
G01*
X135517812Y-147088624D01*
X135681784Y-147156544D01*
X135829354Y-147255147D01*
X135954853Y-147380646D01*
X136053456Y-147528216D01*
X136121376Y-147692188D01*
X136156000Y-147866259D01*
X136156000Y-148043741D01*
X136121376Y-148217812D01*
X136053456Y-148381784D01*
X135954853Y-148529354D01*
X135829354Y-148654853D01*
X135681784Y-148753456D01*
X135517812Y-148821376D01*
X135368512Y-148851073D01*
X135343742Y-148856000D01*
X135166258Y-148856000D01*
X135141488Y-148851073D01*
X134992188Y-148821376D01*
X134828216Y-148753456D01*
X134680646Y-148654853D01*
X134555147Y-148529354D01*
X134456544Y-148381784D01*
X134388624Y-148217812D01*
X134354000Y-148043741D01*
X134354000Y-147866259D01*
X134388624Y-147692188D01*
X134456544Y-147528216D01*
X134555147Y-147380646D01*
X134680646Y-147255147D01*
X134828216Y-147156544D01*
X134992188Y-147088624D01*
X135141488Y-147058927D01*
X135166258Y-147054000D01*
X135343742Y-147054000D01*
X135368512Y-147058927D01*
G37*
G36*
X132828512Y-147058927D02*
G01*
X132977812Y-147088624D01*
X133141784Y-147156544D01*
X133289354Y-147255147D01*
X133414853Y-147380646D01*
X133513456Y-147528216D01*
X133581376Y-147692188D01*
X133616000Y-147866259D01*
X133616000Y-148043741D01*
X133581376Y-148217812D01*
X133513456Y-148381784D01*
X133414853Y-148529354D01*
X133289354Y-148654853D01*
X133141784Y-148753456D01*
X132977812Y-148821376D01*
X132828512Y-148851073D01*
X132803742Y-148856000D01*
X132626258Y-148856000D01*
X132601488Y-148851073D01*
X132452188Y-148821376D01*
X132288216Y-148753456D01*
X132140646Y-148654853D01*
X132015147Y-148529354D01*
X131916544Y-148381784D01*
X131848624Y-148217812D01*
X131814000Y-148043741D01*
X131814000Y-147866259D01*
X131848624Y-147692188D01*
X131916544Y-147528216D01*
X132015147Y-147380646D01*
X132140646Y-147255147D01*
X132288216Y-147156544D01*
X132452188Y-147088624D01*
X132601488Y-147058927D01*
X132626258Y-147054000D01*
X132803742Y-147054000D01*
X132828512Y-147058927D01*
G37*
G36*
X124102395Y-145770546D02*
G01*
X124275466Y-145842234D01*
X124275467Y-145842235D01*
X124431227Y-145946310D01*
X124563690Y-146078773D01*
X124563691Y-146078775D01*
X124667766Y-146234534D01*
X124739454Y-146407605D01*
X124776000Y-146591333D01*
X124776000Y-146778667D01*
X124739454Y-146962395D01*
X124667766Y-147135466D01*
X124667765Y-147135467D01*
X124563690Y-147291227D01*
X124431227Y-147423690D01*
X124352818Y-147476081D01*
X124275466Y-147527766D01*
X124102395Y-147599454D01*
X123918667Y-147636000D01*
X123731333Y-147636000D01*
X123547605Y-147599454D01*
X123374534Y-147527766D01*
X123297182Y-147476081D01*
X123218773Y-147423690D01*
X123086310Y-147291227D01*
X122982235Y-147135467D01*
X122982234Y-147135466D01*
X122910546Y-146962395D01*
X122874000Y-146778667D01*
X122874000Y-146591333D01*
X122910546Y-146407605D01*
X122982234Y-146234534D01*
X123086309Y-146078775D01*
X123086310Y-146078773D01*
X123218773Y-145946310D01*
X123374533Y-145842235D01*
X123374534Y-145842234D01*
X123547605Y-145770546D01*
X123731333Y-145734000D01*
X123918667Y-145734000D01*
X124102395Y-145770546D01*
G37*
G36*
X122236000Y-147636000D02*
G01*
X120334000Y-147636000D01*
X120334000Y-145734000D01*
X122236000Y-145734000D01*
X122236000Y-147636000D01*
G37*
G36*
X116756000Y-146357218D02*
G01*
X116758402Y-146381604D01*
X116765515Y-146405053D01*
X116777066Y-146426664D01*
X116792611Y-146445606D01*
X116811553Y-146461151D01*
X116833164Y-146472702D01*
X116856613Y-146479815D01*
X116880999Y-146482217D01*
X116905385Y-146479815D01*
X116928834Y-146472702D01*
X116950445Y-146461151D01*
X116969387Y-146445606D01*
X116984932Y-146426664D01*
X117047009Y-146333760D01*
X117047010Y-146333758D01*
X117123758Y-146257010D01*
X117214004Y-146196710D01*
X117214005Y-146196709D01*
X117314279Y-146155174D01*
X117420730Y-146134000D01*
X117529270Y-146134000D01*
X117635721Y-146155174D01*
X117735995Y-146196709D01*
X117735996Y-146196710D01*
X117826242Y-146257010D01*
X117902990Y-146333758D01*
X117902991Y-146333760D01*
X117963291Y-146424005D01*
X117994516Y-146499389D01*
X118006067Y-146521000D01*
X118021612Y-146539941D01*
X118040554Y-146555487D01*
X118062165Y-146567038D01*
X118085614Y-146574151D01*
X118110000Y-146576553D01*
X118134386Y-146574151D01*
X118157835Y-146567038D01*
X118179446Y-146555487D01*
X118198387Y-146539942D01*
X118213933Y-146521000D01*
X118225484Y-146499389D01*
X118256709Y-146424005D01*
X118317009Y-146333760D01*
X118317010Y-146333758D01*
X118393758Y-146257010D01*
X118484004Y-146196710D01*
X118484005Y-146196709D01*
X118584279Y-146155174D01*
X118690730Y-146134000D01*
X118799270Y-146134000D01*
X118905721Y-146155174D01*
X119005995Y-146196709D01*
X119005996Y-146196710D01*
X119096242Y-146257010D01*
X119172990Y-146333758D01*
X119172991Y-146333760D01*
X119233291Y-146424005D01*
X119274826Y-146524279D01*
X119296000Y-146630730D01*
X119296000Y-146739270D01*
X119274826Y-146845721D01*
X119233291Y-146945995D01*
X119233290Y-146945996D01*
X119172990Y-147036242D01*
X119096242Y-147112990D01*
X119050812Y-147143345D01*
X119005995Y-147173291D01*
X118905721Y-147214826D01*
X118799270Y-147236000D01*
X118690730Y-147236000D01*
X118584279Y-147214826D01*
X118484005Y-147173291D01*
X118439188Y-147143345D01*
X118393758Y-147112990D01*
X118317010Y-147036242D01*
X118256710Y-146945996D01*
X118256709Y-146945995D01*
X118225484Y-146870611D01*
X118213933Y-146849000D01*
X118198388Y-146830059D01*
X118179446Y-146814513D01*
X118157835Y-146802962D01*
X118134386Y-146795849D01*
X118110000Y-146793447D01*
X118085614Y-146795849D01*
X118062165Y-146802962D01*
X118040554Y-146814513D01*
X118021613Y-146830058D01*
X118006067Y-146849000D01*
X117994516Y-146870611D01*
X117963291Y-146945995D01*
X117963290Y-146945996D01*
X117902990Y-147036242D01*
X117826242Y-147112990D01*
X117780812Y-147143345D01*
X117735995Y-147173291D01*
X117635721Y-147214826D01*
X117529270Y-147236000D01*
X117420730Y-147236000D01*
X117314279Y-147214826D01*
X117214005Y-147173291D01*
X117169188Y-147143345D01*
X117123758Y-147112990D01*
X117047010Y-147036242D01*
X117026012Y-147004816D01*
X116984932Y-146943336D01*
X116969386Y-146924394D01*
X116950444Y-146908849D01*
X116928833Y-146897298D01*
X116905385Y-146890185D01*
X116880998Y-146887783D01*
X116856612Y-146890185D01*
X116833163Y-146897298D01*
X116811553Y-146908849D01*
X116792611Y-146924395D01*
X116777066Y-146943337D01*
X116765515Y-146964948D01*
X116758402Y-146988396D01*
X116756000Y-147012782D01*
X116756000Y-147236000D01*
X115654000Y-147236000D01*
X115654000Y-146134000D01*
X116756000Y-146134000D01*
X116756000Y-146357218D01*
G37*
G36*
X85758210Y-137140054D02*
G01*
X86009850Y-137190109D01*
X86483930Y-137386479D01*
X86910590Y-137671565D01*
X87273435Y-138034410D01*
X87558521Y-138461070D01*
X87754891Y-138935150D01*
X87855000Y-139438430D01*
X87855000Y-139951570D01*
X87754891Y-140454850D01*
X87558521Y-140928930D01*
X87273435Y-141355590D01*
X86910590Y-141718435D01*
X86483930Y-142003521D01*
X86009850Y-142199891D01*
X85758210Y-142249946D01*
X85506571Y-142300000D01*
X84993429Y-142300000D01*
X84741790Y-142249946D01*
X84490150Y-142199891D01*
X84016070Y-142003521D01*
X83589410Y-141718435D01*
X83226565Y-141355590D01*
X82941479Y-140928930D01*
X82745109Y-140454850D01*
X82645000Y-139951570D01*
X82645000Y-139438430D01*
X82745109Y-138935150D01*
X82941479Y-138461070D01*
X83226565Y-138034410D01*
X83589410Y-137671565D01*
X84016070Y-137386479D01*
X84490150Y-137190109D01*
X84741790Y-137140054D01*
X84993429Y-137090000D01*
X85506571Y-137090000D01*
X85758210Y-137140054D01*
G37*
G36*
X70758210Y-137140054D02*
G01*
X71009850Y-137190109D01*
X71483930Y-137386479D01*
X71910590Y-137671565D01*
X72273435Y-138034410D01*
X72558521Y-138461070D01*
X72754891Y-138935150D01*
X72855000Y-139438430D01*
X72855000Y-139951570D01*
X72754891Y-140454850D01*
X72558521Y-140928930D01*
X72273435Y-141355590D01*
X71910590Y-141718435D01*
X71483930Y-142003521D01*
X71009850Y-142199891D01*
X70758210Y-142249946D01*
X70506571Y-142300000D01*
X69993429Y-142300000D01*
X69741790Y-142249946D01*
X69490150Y-142199891D01*
X69016070Y-142003521D01*
X68589410Y-141718435D01*
X68226565Y-141355590D01*
X67941479Y-140928930D01*
X67745109Y-140454850D01*
X67645000Y-139951570D01*
X67645000Y-139438430D01*
X67745109Y-138935150D01*
X67941479Y-138461070D01*
X68226565Y-138034410D01*
X68589410Y-137671565D01*
X69016070Y-137386479D01*
X69490150Y-137190109D01*
X69741790Y-137140054D01*
X69993429Y-137090000D01*
X70506571Y-137090000D01*
X70758210Y-137140054D01*
G37*
G36*
X55758210Y-137140054D02*
G01*
X56009850Y-137190109D01*
X56483930Y-137386479D01*
X56910590Y-137671565D01*
X57273435Y-138034410D01*
X57558521Y-138461070D01*
X57754891Y-138935150D01*
X57855000Y-139438430D01*
X57855000Y-139951570D01*
X57754891Y-140454850D01*
X57558521Y-140928930D01*
X57273435Y-141355590D01*
X56910590Y-141718435D01*
X56483930Y-142003521D01*
X56009850Y-142199891D01*
X55758210Y-142249946D01*
X55506571Y-142300000D01*
X54993429Y-142300000D01*
X54741790Y-142249946D01*
X54490150Y-142199891D01*
X54016070Y-142003521D01*
X53589410Y-141718435D01*
X53226565Y-141355590D01*
X52941479Y-140928930D01*
X52745109Y-140454850D01*
X52645000Y-139951570D01*
X52645000Y-139438430D01*
X52745109Y-138935150D01*
X52941479Y-138461070D01*
X53226565Y-138034410D01*
X53589410Y-137671565D01*
X54016070Y-137386479D01*
X54490150Y-137190109D01*
X54741790Y-137140054D01*
X54993429Y-137090000D01*
X55506571Y-137090000D01*
X55758210Y-137140054D01*
G37*
G36*
X55590577Y-124606710D02*
G01*
X56009850Y-124690109D01*
X56483930Y-124886479D01*
X56910590Y-125171565D01*
X57273435Y-125534410D01*
X57558521Y-125961070D01*
X57754891Y-126435150D01*
X57754891Y-126435151D01*
X57850539Y-126916000D01*
X57855000Y-126938430D01*
X57855000Y-127451570D01*
X57754891Y-127954850D01*
X57558521Y-128428930D01*
X57273435Y-128855590D01*
X56910590Y-129218435D01*
X56483930Y-129503521D01*
X56009850Y-129699891D01*
X55758210Y-129749946D01*
X55506571Y-129800000D01*
X54993429Y-129800000D01*
X54741790Y-129749946D01*
X54490150Y-129699891D01*
X54016070Y-129503521D01*
X53589410Y-129218435D01*
X53226565Y-128855590D01*
X52941479Y-128428930D01*
X52745109Y-127954850D01*
X52645000Y-127451570D01*
X52645000Y-126938430D01*
X52649462Y-126916000D01*
X52745109Y-126435151D01*
X52745109Y-126435150D01*
X52941479Y-125961070D01*
X53226565Y-125534410D01*
X53589410Y-125171565D01*
X54016070Y-124886479D01*
X54490150Y-124690109D01*
X54909423Y-124606710D01*
X54993429Y-124590000D01*
X55506571Y-124590000D01*
X55590577Y-124606710D01*
G37*
G36*
X70590577Y-124606710D02*
G01*
X71009850Y-124690109D01*
X71483930Y-124886479D01*
X71910590Y-125171565D01*
X72273435Y-125534410D01*
X72558521Y-125961070D01*
X72754891Y-126435150D01*
X72754891Y-126435151D01*
X72850539Y-126916000D01*
X72855000Y-126938430D01*
X72855000Y-127451570D01*
X72754891Y-127954850D01*
X72558521Y-128428930D01*
X72273435Y-128855590D01*
X71910590Y-129218435D01*
X71483930Y-129503521D01*
X71009850Y-129699891D01*
X70758210Y-129749946D01*
X70506571Y-129800000D01*
X69993429Y-129800000D01*
X69741790Y-129749946D01*
X69490150Y-129699891D01*
X69016070Y-129503521D01*
X68589410Y-129218435D01*
X68226565Y-128855590D01*
X67941479Y-128428930D01*
X67745109Y-127954850D01*
X67645000Y-127451570D01*
X67645000Y-126938430D01*
X67649462Y-126916000D01*
X67745109Y-126435151D01*
X67745109Y-126435150D01*
X67941479Y-125961070D01*
X68226565Y-125534410D01*
X68589410Y-125171565D01*
X69016070Y-124886479D01*
X69490150Y-124690109D01*
X69909423Y-124606710D01*
X69993429Y-124590000D01*
X70506571Y-124590000D01*
X70590577Y-124606710D01*
G37*
G36*
X85590577Y-124606710D02*
G01*
X86009850Y-124690109D01*
X86483930Y-124886479D01*
X86910590Y-125171565D01*
X87273435Y-125534410D01*
X87558521Y-125961070D01*
X87754891Y-126435150D01*
X87754891Y-126435151D01*
X87850539Y-126916000D01*
X87855000Y-126938430D01*
X87855000Y-127451570D01*
X87754891Y-127954850D01*
X87558521Y-128428930D01*
X87273435Y-128855590D01*
X86910590Y-129218435D01*
X86483930Y-129503521D01*
X86009850Y-129699891D01*
X85758210Y-129749946D01*
X85506571Y-129800000D01*
X84993429Y-129800000D01*
X84741790Y-129749946D01*
X84490150Y-129699891D01*
X84016070Y-129503521D01*
X83589410Y-129218435D01*
X83226565Y-128855590D01*
X82941479Y-128428930D01*
X82745109Y-127954850D01*
X82645000Y-127451570D01*
X82645000Y-126938430D01*
X82649462Y-126916000D01*
X82745109Y-126435151D01*
X82745109Y-126435150D01*
X82941479Y-125961070D01*
X83226565Y-125534410D01*
X83589410Y-125171565D01*
X84016070Y-124886479D01*
X84490150Y-124690109D01*
X84909423Y-124606710D01*
X84993429Y-124590000D01*
X85506571Y-124590000D01*
X85590577Y-124606710D01*
G37*
G36*
X119831000Y-128667000D02*
G01*
X118929000Y-128667000D01*
X118929000Y-127365000D01*
X119831000Y-127365000D01*
X119831000Y-128667000D01*
G37*
G36*
X121101000Y-128667000D02*
G01*
X120199000Y-128667000D01*
X120199000Y-127365000D01*
X121101000Y-127365000D01*
X121101000Y-128667000D01*
G37*
G36*
X122371000Y-128667000D02*
G01*
X121469000Y-128667000D01*
X121469000Y-127365000D01*
X122371000Y-127365000D01*
X122371000Y-128667000D01*
G37*
G36*
X118561000Y-128667000D02*
G01*
X117659000Y-128667000D01*
X117659000Y-127365000D01*
X118561000Y-127365000D01*
X118561000Y-128667000D01*
G37*
G36*
X98702395Y-125450546D02*
G01*
X98875466Y-125522234D01*
X98952818Y-125573919D01*
X99031227Y-125626310D01*
X99163690Y-125758773D01*
X99198986Y-125811598D01*
X99267766Y-125914534D01*
X99339454Y-126087605D01*
X99376000Y-126271333D01*
X99376000Y-126458667D01*
X99339454Y-126642395D01*
X99267766Y-126815466D01*
X99267765Y-126815467D01*
X99163690Y-126971227D01*
X99031227Y-127103690D01*
X98952818Y-127156081D01*
X98875466Y-127207766D01*
X98702395Y-127279454D01*
X98518667Y-127316000D01*
X98331333Y-127316000D01*
X98147605Y-127279454D01*
X97974534Y-127207766D01*
X97897182Y-127156081D01*
X97818773Y-127103690D01*
X97686310Y-126971227D01*
X97582235Y-126815467D01*
X97582234Y-126815466D01*
X97510546Y-126642395D01*
X97474000Y-126458667D01*
X97474000Y-126271333D01*
X97510546Y-126087605D01*
X97582234Y-125914534D01*
X97651014Y-125811598D01*
X97686310Y-125758773D01*
X97818773Y-125626310D01*
X97897182Y-125573919D01*
X97974534Y-125522234D01*
X98147605Y-125450546D01*
X98331333Y-125414000D01*
X98518667Y-125414000D01*
X98702395Y-125450546D01*
G37*
G36*
X142400721Y-123295174D02*
G01*
X142500995Y-123336709D01*
X142500996Y-123336710D01*
X142591242Y-123397010D01*
X142667990Y-123473758D01*
X142667991Y-123473760D01*
X142728291Y-123564005D01*
X142769826Y-123664279D01*
X142791000Y-123770730D01*
X142791000Y-123879270D01*
X142769826Y-123985721D01*
X142728291Y-124085995D01*
X142728290Y-124085996D01*
X142667990Y-124176242D01*
X142591242Y-124252990D01*
X142545812Y-124283345D01*
X142500995Y-124313291D01*
X142425611Y-124344516D01*
X142404000Y-124356067D01*
X142385059Y-124371612D01*
X142369513Y-124390554D01*
X142357962Y-124412165D01*
X142350849Y-124435614D01*
X142348447Y-124460000D01*
X142350849Y-124484386D01*
X142357962Y-124507835D01*
X142369513Y-124529446D01*
X142385058Y-124548387D01*
X142404000Y-124563933D01*
X142425611Y-124575484D01*
X142500995Y-124606709D01*
X142500996Y-124606710D01*
X142591242Y-124667010D01*
X142667990Y-124743758D01*
X142667991Y-124743760D01*
X142728291Y-124834005D01*
X142769826Y-124934279D01*
X142791000Y-125040730D01*
X142791000Y-125149270D01*
X142769826Y-125255721D01*
X142728291Y-125355995D01*
X142728290Y-125355996D01*
X142667990Y-125446242D01*
X142591242Y-125522990D01*
X142559816Y-125543988D01*
X142498336Y-125585068D01*
X142479394Y-125600614D01*
X142463849Y-125619556D01*
X142452298Y-125641167D01*
X142445185Y-125664615D01*
X142442783Y-125689002D01*
X142445185Y-125713388D01*
X142452298Y-125736837D01*
X142463849Y-125758447D01*
X142479395Y-125777389D01*
X142498337Y-125792934D01*
X142519948Y-125804485D01*
X142543396Y-125811598D01*
X142567782Y-125814000D01*
X142791000Y-125814000D01*
X142791000Y-126916000D01*
X141689000Y-126916000D01*
X141689000Y-125814000D01*
X141912218Y-125814000D01*
X141936604Y-125811598D01*
X141960053Y-125804485D01*
X141981664Y-125792934D01*
X142000606Y-125777389D01*
X142016151Y-125758447D01*
X142027702Y-125736836D01*
X142034815Y-125713387D01*
X142037217Y-125689001D01*
X142034815Y-125664615D01*
X142027702Y-125641166D01*
X142016151Y-125619555D01*
X142000606Y-125600613D01*
X141981664Y-125585068D01*
X141920184Y-125543988D01*
X141888758Y-125522990D01*
X141812010Y-125446242D01*
X141751710Y-125355996D01*
X141751709Y-125355995D01*
X141710174Y-125255721D01*
X141689000Y-125149270D01*
X141689000Y-125040730D01*
X141710174Y-124934279D01*
X141751709Y-124834005D01*
X141812009Y-124743760D01*
X141812010Y-124743758D01*
X141888758Y-124667010D01*
X141979004Y-124606710D01*
X141979005Y-124606709D01*
X142054389Y-124575484D01*
X142076000Y-124563933D01*
X142094941Y-124548388D01*
X142110487Y-124529446D01*
X142122038Y-124507835D01*
X142129151Y-124484386D01*
X142131553Y-124460000D01*
X142129151Y-124435614D01*
X142122038Y-124412165D01*
X142110487Y-124390554D01*
X142094942Y-124371613D01*
X142076000Y-124356067D01*
X142054389Y-124344516D01*
X141979005Y-124313291D01*
X141934188Y-124283345D01*
X141888758Y-124252990D01*
X141812010Y-124176242D01*
X141751710Y-124085996D01*
X141751709Y-124085995D01*
X141710174Y-123985721D01*
X141689000Y-123879270D01*
X141689000Y-123770730D01*
X141710174Y-123664279D01*
X141751709Y-123564005D01*
X141812009Y-123473760D01*
X141812010Y-123473758D01*
X141888758Y-123397010D01*
X141979004Y-123336710D01*
X141979005Y-123336709D01*
X142079279Y-123295174D01*
X142185730Y-123274000D01*
X142294270Y-123274000D01*
X142400721Y-123295174D01*
G37*
G36*
X119831000Y-126635000D02*
G01*
X118929000Y-126635000D01*
X118929000Y-125333000D01*
X119831000Y-125333000D01*
X119831000Y-126635000D01*
G37*
G36*
X122371000Y-126635000D02*
G01*
X121469000Y-126635000D01*
X121469000Y-125333000D01*
X122371000Y-125333000D01*
X122371000Y-126635000D01*
G37*
G36*
X118561000Y-126635000D02*
G01*
X117659000Y-126635000D01*
X117659000Y-125333000D01*
X118561000Y-125333000D01*
X118561000Y-126635000D01*
G37*
G36*
X121101000Y-126635000D02*
G01*
X120199000Y-126635000D01*
X120199000Y-125333000D01*
X121101000Y-125333000D01*
X121101000Y-126635000D01*
G37*
G36*
X99376000Y-124776000D02*
G01*
X97474000Y-124776000D01*
X97474000Y-122874000D01*
X99376000Y-122874000D01*
X99376000Y-124776000D01*
G37*
G36*
X143191000Y-122236000D02*
G01*
X141289000Y-122236000D01*
X141289000Y-120334000D01*
X143191000Y-120334000D01*
X143191000Y-122236000D01*
G37*
G36*
X98976000Y-119296000D02*
G01*
X98752782Y-119296000D01*
X98728396Y-119298402D01*
X98704947Y-119305515D01*
X98683336Y-119317066D01*
X98664394Y-119332611D01*
X98648849Y-119351553D01*
X98637298Y-119373164D01*
X98630185Y-119396613D01*
X98627783Y-119420999D01*
X98630185Y-119445385D01*
X98637298Y-119468834D01*
X98648849Y-119490445D01*
X98664394Y-119509387D01*
X98683336Y-119524932D01*
X98744816Y-119566012D01*
X98776242Y-119587010D01*
X98852990Y-119663758D01*
X98852991Y-119663760D01*
X98913291Y-119754005D01*
X98954826Y-119854279D01*
X98976000Y-119960730D01*
X98976000Y-120069270D01*
X98954826Y-120175721D01*
X98913291Y-120275995D01*
X98913290Y-120275996D01*
X98852990Y-120366242D01*
X98776242Y-120442990D01*
X98730812Y-120473345D01*
X98685995Y-120503291D01*
X98610611Y-120534516D01*
X98589000Y-120546067D01*
X98570059Y-120561612D01*
X98554513Y-120580554D01*
X98542962Y-120602165D01*
X98535849Y-120625614D01*
X98533447Y-120650000D01*
X98535849Y-120674386D01*
X98542962Y-120697835D01*
X98554513Y-120719446D01*
X98570058Y-120738387D01*
X98589000Y-120753933D01*
X98610611Y-120765484D01*
X98685995Y-120796709D01*
X98685996Y-120796710D01*
X98776242Y-120857010D01*
X98852990Y-120933758D01*
X98852991Y-120933760D01*
X98913291Y-121024005D01*
X98954826Y-121124279D01*
X98976000Y-121230730D01*
X98976000Y-121339270D01*
X98954826Y-121445721D01*
X98913291Y-121545995D01*
X98913290Y-121545996D01*
X98852990Y-121636242D01*
X98776242Y-121712990D01*
X98730812Y-121743345D01*
X98685995Y-121773291D01*
X98585721Y-121814826D01*
X98479270Y-121836000D01*
X98370730Y-121836000D01*
X98264279Y-121814826D01*
X98164005Y-121773291D01*
X98119188Y-121743345D01*
X98073758Y-121712990D01*
X97997010Y-121636242D01*
X97936710Y-121545996D01*
X97936709Y-121545995D01*
X97895174Y-121445721D01*
X97874000Y-121339270D01*
X97874000Y-121230730D01*
X97895174Y-121124279D01*
X97936709Y-121024005D01*
X97997009Y-120933760D01*
X97997010Y-120933758D01*
X98073758Y-120857010D01*
X98164004Y-120796710D01*
X98164005Y-120796709D01*
X98239389Y-120765484D01*
X98261000Y-120753933D01*
X98279941Y-120738388D01*
X98295487Y-120719446D01*
X98307038Y-120697835D01*
X98314151Y-120674386D01*
X98316553Y-120650000D01*
X98314151Y-120625614D01*
X98307038Y-120602165D01*
X98295487Y-120580554D01*
X98279942Y-120561613D01*
X98261000Y-120546067D01*
X98239389Y-120534516D01*
X98164005Y-120503291D01*
X98119188Y-120473345D01*
X98073758Y-120442990D01*
X97997010Y-120366242D01*
X97936710Y-120275996D01*
X97936709Y-120275995D01*
X97895174Y-120175721D01*
X97874000Y-120069270D01*
X97874000Y-119960730D01*
X97895174Y-119854279D01*
X97936709Y-119754005D01*
X97997009Y-119663760D01*
X97997010Y-119663758D01*
X98073758Y-119587010D01*
X98105184Y-119566012D01*
X98166664Y-119524932D01*
X98185606Y-119509386D01*
X98201151Y-119490444D01*
X98212702Y-119468833D01*
X98219815Y-119445385D01*
X98222217Y-119420998D01*
X98219815Y-119396612D01*
X98212702Y-119373163D01*
X98201151Y-119351553D01*
X98185605Y-119332611D01*
X98166663Y-119317066D01*
X98145052Y-119305515D01*
X98121604Y-119298402D01*
X98097218Y-119296000D01*
X97874000Y-119296000D01*
X97874000Y-118194000D01*
X98976000Y-118194000D01*
X98976000Y-119296000D01*
G37*
G36*
X142517395Y-117830546D02*
G01*
X142690466Y-117902234D01*
X142690467Y-117902235D01*
X142846227Y-118006310D01*
X142978690Y-118138773D01*
X142978691Y-118138775D01*
X143082766Y-118294534D01*
X143154454Y-118467605D01*
X143191000Y-118651333D01*
X143191000Y-118838667D01*
X143154454Y-119022395D01*
X143082766Y-119195466D01*
X143082765Y-119195467D01*
X142978690Y-119351227D01*
X142846227Y-119483690D01*
X142784504Y-119524932D01*
X142690466Y-119587766D01*
X142517395Y-119659454D01*
X142333667Y-119696000D01*
X142146333Y-119696000D01*
X141962605Y-119659454D01*
X141789534Y-119587766D01*
X141695496Y-119524932D01*
X141633773Y-119483690D01*
X141501310Y-119351227D01*
X141397235Y-119195467D01*
X141397234Y-119195466D01*
X141325546Y-119022395D01*
X141289000Y-118838667D01*
X141289000Y-118651333D01*
X141325546Y-118467605D01*
X141397234Y-118294534D01*
X141501309Y-118138775D01*
X141501310Y-118138773D01*
X141633773Y-118006310D01*
X141789533Y-117902235D01*
X141789534Y-117902234D01*
X141962605Y-117830546D01*
X142146333Y-117794000D01*
X142333667Y-117794000D01*
X142517395Y-117830546D01*
G37*
G36*
X55758210Y-112140055D02*
G01*
X56009850Y-112190109D01*
X56483930Y-112386479D01*
X56910590Y-112671565D01*
X57273435Y-113034410D01*
X57558521Y-113461070D01*
X57754891Y-113935150D01*
X57855000Y-114438430D01*
X57855000Y-114951570D01*
X57754891Y-115454850D01*
X57558521Y-115928930D01*
X57273435Y-116355590D01*
X56910590Y-116718435D01*
X56483930Y-117003521D01*
X56009850Y-117199891D01*
X55758210Y-117249945D01*
X55506571Y-117300000D01*
X54993429Y-117300000D01*
X54741790Y-117249945D01*
X54490150Y-117199891D01*
X54016070Y-117003521D01*
X53589410Y-116718435D01*
X53226565Y-116355590D01*
X52941479Y-115928930D01*
X52745109Y-115454850D01*
X52645000Y-114951570D01*
X52645000Y-114438430D01*
X52745109Y-113935150D01*
X52941479Y-113461070D01*
X53226565Y-113034410D01*
X53589410Y-112671565D01*
X54016070Y-112386479D01*
X54490150Y-112190109D01*
X54741790Y-112140055D01*
X54993429Y-112090000D01*
X55506571Y-112090000D01*
X55758210Y-112140055D01*
G37*
G36*
X70758210Y-112140055D02*
G01*
X71009850Y-112190109D01*
X71483930Y-112386479D01*
X71910590Y-112671565D01*
X72273435Y-113034410D01*
X72558521Y-113461070D01*
X72754891Y-113935150D01*
X72855000Y-114438430D01*
X72855000Y-114951570D01*
X72754891Y-115454850D01*
X72558521Y-115928930D01*
X72273435Y-116355590D01*
X71910590Y-116718435D01*
X71483930Y-117003521D01*
X71009850Y-117199891D01*
X70758210Y-117249945D01*
X70506571Y-117300000D01*
X69993429Y-117300000D01*
X69741790Y-117249945D01*
X69490150Y-117199891D01*
X69016070Y-117003521D01*
X68589410Y-116718435D01*
X68226565Y-116355590D01*
X67941479Y-115928930D01*
X67745109Y-115454850D01*
X67645000Y-114951570D01*
X67645000Y-114438430D01*
X67745109Y-113935150D01*
X67941479Y-113461070D01*
X68226565Y-113034410D01*
X68589410Y-112671565D01*
X69016070Y-112386479D01*
X69490150Y-112190109D01*
X69741790Y-112140055D01*
X69993429Y-112090000D01*
X70506571Y-112090000D01*
X70758210Y-112140055D01*
G37*
G36*
X85758210Y-112140055D02*
G01*
X86009850Y-112190109D01*
X86483930Y-112386479D01*
X86910590Y-112671565D01*
X87273435Y-113034410D01*
X87558521Y-113461070D01*
X87754891Y-113935150D01*
X87855000Y-114438430D01*
X87855000Y-114951570D01*
X87754891Y-115454850D01*
X87558521Y-115928930D01*
X87273435Y-116355590D01*
X86910590Y-116718435D01*
X86483930Y-117003521D01*
X86009850Y-117199891D01*
X85758210Y-117249945D01*
X85506571Y-117300000D01*
X84993429Y-117300000D01*
X84741790Y-117249945D01*
X84490150Y-117199891D01*
X84016070Y-117003521D01*
X83589410Y-116718435D01*
X83226565Y-116355590D01*
X82941479Y-115928930D01*
X82745109Y-115454850D01*
X82645000Y-114951570D01*
X82645000Y-114438430D01*
X82745109Y-113935150D01*
X82941479Y-113461070D01*
X83226565Y-113034410D01*
X83589410Y-112671565D01*
X84016070Y-112386479D01*
X84490150Y-112190109D01*
X84741790Y-112140055D01*
X84993429Y-112090000D01*
X85506571Y-112090000D01*
X85758210Y-112140055D01*
G37*
G36*
X143141000Y-113296000D02*
G01*
X141339000Y-113296000D01*
X141339000Y-111494000D01*
X143141000Y-111494000D01*
X143141000Y-113296000D01*
G37*
G36*
X98691000Y-113296000D02*
G01*
X96889000Y-113296000D01*
X96889000Y-111494000D01*
X98691000Y-111494000D01*
X98691000Y-113296000D01*
G37*
G36*
X119696000Y-112711000D02*
G01*
X117794000Y-112711000D01*
X117794000Y-110809000D01*
X119696000Y-110809000D01*
X119696000Y-112711000D01*
G37*
G36*
X116482395Y-110845546D02*
G01*
X116655466Y-110917234D01*
X116655467Y-110917235D01*
X116811227Y-111021310D01*
X116943690Y-111153773D01*
X116943691Y-111153775D01*
X117047766Y-111309534D01*
X117119454Y-111482605D01*
X117156000Y-111666333D01*
X117156000Y-111853667D01*
X117119454Y-112037395D01*
X117047766Y-112210466D01*
X117047765Y-112210467D01*
X116943690Y-112366227D01*
X116811227Y-112498690D01*
X116732818Y-112551081D01*
X116655466Y-112602766D01*
X116482395Y-112674454D01*
X116298667Y-112711000D01*
X116111333Y-112711000D01*
X115927605Y-112674454D01*
X115754534Y-112602766D01*
X115677182Y-112551081D01*
X115598773Y-112498690D01*
X115466310Y-112366227D01*
X115362235Y-112210467D01*
X115362234Y-112210466D01*
X115290546Y-112037395D01*
X115254000Y-111853667D01*
X115254000Y-111666333D01*
X115290546Y-111482605D01*
X115362234Y-111309534D01*
X115466309Y-111153775D01*
X115466310Y-111153773D01*
X115598773Y-111021310D01*
X115754533Y-110917235D01*
X115754534Y-110917234D01*
X115927605Y-110845546D01*
X116111333Y-110809000D01*
X116298667Y-110809000D01*
X116482395Y-110845546D01*
G37*
G36*
X121445721Y-111230174D02*
G01*
X121545995Y-111271709D01*
X121545996Y-111271710D01*
X121636242Y-111332010D01*
X121712990Y-111408758D01*
X121712991Y-111408760D01*
X121773291Y-111499005D01*
X121804516Y-111574389D01*
X121816067Y-111596000D01*
X121831612Y-111614941D01*
X121850554Y-111630487D01*
X121872165Y-111642038D01*
X121895614Y-111649151D01*
X121920000Y-111651553D01*
X121944386Y-111649151D01*
X121967835Y-111642038D01*
X121989446Y-111630487D01*
X122008387Y-111614942D01*
X122023933Y-111596000D01*
X122035484Y-111574389D01*
X122066709Y-111499005D01*
X122127009Y-111408760D01*
X122127010Y-111408758D01*
X122203758Y-111332010D01*
X122294004Y-111271710D01*
X122294005Y-111271709D01*
X122394279Y-111230174D01*
X122500730Y-111209000D01*
X122609270Y-111209000D01*
X122715721Y-111230174D01*
X122815995Y-111271709D01*
X122815996Y-111271710D01*
X122906242Y-111332010D01*
X122982990Y-111408758D01*
X122982991Y-111408760D01*
X123045068Y-111501664D01*
X123060614Y-111520606D01*
X123079556Y-111536151D01*
X123101167Y-111547702D01*
X123124615Y-111554815D01*
X123149002Y-111557217D01*
X123173388Y-111554815D01*
X123196837Y-111547702D01*
X123218447Y-111536151D01*
X123237389Y-111520605D01*
X123252934Y-111501663D01*
X123264485Y-111480052D01*
X123271598Y-111456604D01*
X123274000Y-111432218D01*
X123274000Y-111209000D01*
X124376000Y-111209000D01*
X124376000Y-112311000D01*
X123274000Y-112311000D01*
X123274000Y-112087782D01*
X123271598Y-112063396D01*
X123264485Y-112039947D01*
X123252934Y-112018336D01*
X123237389Y-111999394D01*
X123218447Y-111983849D01*
X123196836Y-111972298D01*
X123173387Y-111965185D01*
X123149001Y-111962783D01*
X123124615Y-111965185D01*
X123101166Y-111972298D01*
X123079555Y-111983849D01*
X123060613Y-111999394D01*
X123045068Y-112018336D01*
X123003988Y-112079816D01*
X122982990Y-112111242D01*
X122906242Y-112187990D01*
X122860812Y-112218345D01*
X122815995Y-112248291D01*
X122715721Y-112289826D01*
X122609270Y-112311000D01*
X122500730Y-112311000D01*
X122394279Y-112289826D01*
X122294005Y-112248291D01*
X122249188Y-112218345D01*
X122203758Y-112187990D01*
X122127010Y-112111242D01*
X122095041Y-112063396D01*
X122066709Y-112020995D01*
X122035484Y-111945611D01*
X122023933Y-111924000D01*
X122008388Y-111905059D01*
X121989446Y-111889513D01*
X121967835Y-111877962D01*
X121944386Y-111870849D01*
X121920000Y-111868447D01*
X121895614Y-111870849D01*
X121872165Y-111877962D01*
X121850554Y-111889513D01*
X121831613Y-111905058D01*
X121816067Y-111924000D01*
X121804516Y-111945611D01*
X121773291Y-112020995D01*
X121744959Y-112063396D01*
X121712990Y-112111242D01*
X121636242Y-112187990D01*
X121590812Y-112218345D01*
X121545995Y-112248291D01*
X121445721Y-112289826D01*
X121339270Y-112311000D01*
X121230730Y-112311000D01*
X121124279Y-112289826D01*
X121024005Y-112248291D01*
X120979188Y-112218345D01*
X120933758Y-112187990D01*
X120857010Y-112111242D01*
X120825041Y-112063396D01*
X120796709Y-112020995D01*
X120755174Y-111920721D01*
X120734000Y-111814270D01*
X120734000Y-111705730D01*
X120755174Y-111599279D01*
X120796709Y-111499005D01*
X120857009Y-111408760D01*
X120857010Y-111408758D01*
X120933758Y-111332010D01*
X121024004Y-111271710D01*
X121024005Y-111271709D01*
X121124279Y-111230174D01*
X121230730Y-111209000D01*
X121339270Y-111209000D01*
X121445721Y-111230174D01*
G37*
G36*
X97903512Y-108958927D02*
G01*
X98052812Y-108988624D01*
X98216784Y-109056544D01*
X98364354Y-109155147D01*
X98489853Y-109280646D01*
X98588456Y-109428216D01*
X98656376Y-109592188D01*
X98691000Y-109766259D01*
X98691000Y-109943741D01*
X98656376Y-110117812D01*
X98588456Y-110281784D01*
X98489853Y-110429354D01*
X98364354Y-110554853D01*
X98216784Y-110653456D01*
X98052812Y-110721376D01*
X97903512Y-110751073D01*
X97878742Y-110756000D01*
X97701258Y-110756000D01*
X97676488Y-110751073D01*
X97527188Y-110721376D01*
X97363216Y-110653456D01*
X97215646Y-110554853D01*
X97090147Y-110429354D01*
X96991544Y-110281784D01*
X96923624Y-110117812D01*
X96889000Y-109943741D01*
X96889000Y-109766259D01*
X96923624Y-109592188D01*
X96991544Y-109428216D01*
X97090147Y-109280646D01*
X97215646Y-109155147D01*
X97363216Y-109056544D01*
X97527188Y-108988624D01*
X97676488Y-108958927D01*
X97701258Y-108954000D01*
X97878742Y-108954000D01*
X97903512Y-108958927D01*
G37*
G36*
X142353512Y-108958927D02*
G01*
X142502812Y-108988624D01*
X142666784Y-109056544D01*
X142814354Y-109155147D01*
X142939853Y-109280646D01*
X143038456Y-109428216D01*
X143106376Y-109592188D01*
X143141000Y-109766259D01*
X143141000Y-109943741D01*
X143106376Y-110117812D01*
X143038456Y-110281784D01*
X142939853Y-110429354D01*
X142814354Y-110554853D01*
X142666784Y-110653456D01*
X142502812Y-110721376D01*
X142353512Y-110751073D01*
X142328742Y-110756000D01*
X142151258Y-110756000D01*
X142126488Y-110751073D01*
X141977188Y-110721376D01*
X141813216Y-110653456D01*
X141665646Y-110554853D01*
X141540147Y-110429354D01*
X141441544Y-110281784D01*
X141373624Y-110117812D01*
X141339000Y-109943741D01*
X141339000Y-109766259D01*
X141373624Y-109592188D01*
X141441544Y-109428216D01*
X141540147Y-109280646D01*
X141665646Y-109155147D01*
X141813216Y-109056544D01*
X141977188Y-108988624D01*
X142126488Y-108958927D01*
X142151258Y-108954000D01*
X142328742Y-108954000D01*
X142353512Y-108958927D01*
G37*
G36*
X97903512Y-106418927D02*
G01*
X98052812Y-106448624D01*
X98216784Y-106516544D01*
X98364354Y-106615147D01*
X98489853Y-106740646D01*
X98588456Y-106888216D01*
X98656376Y-107052188D01*
X98691000Y-107226259D01*
X98691000Y-107403741D01*
X98656376Y-107577812D01*
X98588456Y-107741784D01*
X98489853Y-107889354D01*
X98364354Y-108014853D01*
X98216784Y-108113456D01*
X98052812Y-108181376D01*
X97903512Y-108211073D01*
X97878742Y-108216000D01*
X97701258Y-108216000D01*
X97676488Y-108211073D01*
X97527188Y-108181376D01*
X97363216Y-108113456D01*
X97215646Y-108014853D01*
X97090147Y-107889354D01*
X96991544Y-107741784D01*
X96923624Y-107577812D01*
X96889000Y-107403741D01*
X96889000Y-107226259D01*
X96923624Y-107052188D01*
X96991544Y-106888216D01*
X97090147Y-106740646D01*
X97215646Y-106615147D01*
X97363216Y-106516544D01*
X97527188Y-106448624D01*
X97676488Y-106418927D01*
X97701258Y-106414000D01*
X97878742Y-106414000D01*
X97903512Y-106418927D01*
G37*
G36*
X109968512Y-106418927D02*
G01*
X110117812Y-106448624D01*
X110281784Y-106516544D01*
X110429354Y-106615147D01*
X110554853Y-106740646D01*
X110653456Y-106888216D01*
X110721376Y-107052188D01*
X110756000Y-107226259D01*
X110756000Y-107403741D01*
X110721376Y-107577812D01*
X110653456Y-107741784D01*
X110554853Y-107889354D01*
X110429354Y-108014853D01*
X110281784Y-108113456D01*
X110117812Y-108181376D01*
X109968512Y-108211073D01*
X109943742Y-108216000D01*
X109766258Y-108216000D01*
X109741488Y-108211073D01*
X109592188Y-108181376D01*
X109428216Y-108113456D01*
X109280646Y-108014853D01*
X109155147Y-107889354D01*
X109056544Y-107741784D01*
X108988624Y-107577812D01*
X108954000Y-107403741D01*
X108954000Y-107226259D01*
X108988624Y-107052188D01*
X109056544Y-106888216D01*
X109155147Y-106740646D01*
X109280646Y-106615147D01*
X109428216Y-106516544D01*
X109592188Y-106448624D01*
X109741488Y-106418927D01*
X109766258Y-106414000D01*
X109943742Y-106414000D01*
X109968512Y-106418927D01*
G37*
G36*
X112508512Y-106418927D02*
G01*
X112657812Y-106448624D01*
X112821784Y-106516544D01*
X112969354Y-106615147D01*
X113094853Y-106740646D01*
X113193456Y-106888216D01*
X113261376Y-107052188D01*
X113296000Y-107226259D01*
X113296000Y-107403741D01*
X113261376Y-107577812D01*
X113193456Y-107741784D01*
X113094853Y-107889354D01*
X112969354Y-108014853D01*
X112821784Y-108113456D01*
X112657812Y-108181376D01*
X112508512Y-108211073D01*
X112483742Y-108216000D01*
X112306258Y-108216000D01*
X112281488Y-108211073D01*
X112132188Y-108181376D01*
X111968216Y-108113456D01*
X111820646Y-108014853D01*
X111695147Y-107889354D01*
X111596544Y-107741784D01*
X111528624Y-107577812D01*
X111494000Y-107403741D01*
X111494000Y-107226259D01*
X111528624Y-107052188D01*
X111596544Y-106888216D01*
X111695147Y-106740646D01*
X111820646Y-106615147D01*
X111968216Y-106516544D01*
X112132188Y-106448624D01*
X112281488Y-106418927D01*
X112306258Y-106414000D01*
X112483742Y-106414000D01*
X112508512Y-106418927D01*
G37*
G36*
X125208512Y-106418927D02*
G01*
X125357812Y-106448624D01*
X125521784Y-106516544D01*
X125669354Y-106615147D01*
X125794853Y-106740646D01*
X125893456Y-106888216D01*
X125961376Y-107052188D01*
X125996000Y-107226259D01*
X125996000Y-107403741D01*
X125961376Y-107577812D01*
X125893456Y-107741784D01*
X125794853Y-107889354D01*
X125669354Y-108014853D01*
X125521784Y-108113456D01*
X125357812Y-108181376D01*
X125208512Y-108211073D01*
X125183742Y-108216000D01*
X125006258Y-108216000D01*
X124981488Y-108211073D01*
X124832188Y-108181376D01*
X124668216Y-108113456D01*
X124520646Y-108014853D01*
X124395147Y-107889354D01*
X124296544Y-107741784D01*
X124228624Y-107577812D01*
X124194000Y-107403741D01*
X124194000Y-107226259D01*
X124228624Y-107052188D01*
X124296544Y-106888216D01*
X124395147Y-106740646D01*
X124520646Y-106615147D01*
X124668216Y-106516544D01*
X124832188Y-106448624D01*
X124981488Y-106418927D01*
X125006258Y-106414000D01*
X125183742Y-106414000D01*
X125208512Y-106418927D01*
G37*
G36*
X115048512Y-106418927D02*
G01*
X115197812Y-106448624D01*
X115361784Y-106516544D01*
X115509354Y-106615147D01*
X115634853Y-106740646D01*
X115733456Y-106888216D01*
X115801376Y-107052188D01*
X115836000Y-107226259D01*
X115836000Y-107403741D01*
X115801376Y-107577812D01*
X115733456Y-107741784D01*
X115634853Y-107889354D01*
X115509354Y-108014853D01*
X115361784Y-108113456D01*
X115197812Y-108181376D01*
X115048512Y-108211073D01*
X115023742Y-108216000D01*
X114846258Y-108216000D01*
X114821488Y-108211073D01*
X114672188Y-108181376D01*
X114508216Y-108113456D01*
X114360646Y-108014853D01*
X114235147Y-107889354D01*
X114136544Y-107741784D01*
X114068624Y-107577812D01*
X114034000Y-107403741D01*
X114034000Y-107226259D01*
X114068624Y-107052188D01*
X114136544Y-106888216D01*
X114235147Y-106740646D01*
X114360646Y-106615147D01*
X114508216Y-106516544D01*
X114672188Y-106448624D01*
X114821488Y-106418927D01*
X114846258Y-106414000D01*
X115023742Y-106414000D01*
X115048512Y-106418927D01*
G37*
G36*
X117588512Y-106418927D02*
G01*
X117737812Y-106448624D01*
X117901784Y-106516544D01*
X118049354Y-106615147D01*
X118174853Y-106740646D01*
X118273456Y-106888216D01*
X118341376Y-107052188D01*
X118376000Y-107226259D01*
X118376000Y-107403741D01*
X118341376Y-107577812D01*
X118273456Y-107741784D01*
X118174853Y-107889354D01*
X118049354Y-108014853D01*
X117901784Y-108113456D01*
X117737812Y-108181376D01*
X117588512Y-108211073D01*
X117563742Y-108216000D01*
X117386258Y-108216000D01*
X117361488Y-108211073D01*
X117212188Y-108181376D01*
X117048216Y-108113456D01*
X116900646Y-108014853D01*
X116775147Y-107889354D01*
X116676544Y-107741784D01*
X116608624Y-107577812D01*
X116574000Y-107403741D01*
X116574000Y-107226259D01*
X116608624Y-107052188D01*
X116676544Y-106888216D01*
X116775147Y-106740646D01*
X116900646Y-106615147D01*
X117048216Y-106516544D01*
X117212188Y-106448624D01*
X117361488Y-106418927D01*
X117386258Y-106414000D01*
X117563742Y-106414000D01*
X117588512Y-106418927D01*
G37*
G36*
X122668512Y-106418927D02*
G01*
X122817812Y-106448624D01*
X122981784Y-106516544D01*
X123129354Y-106615147D01*
X123254853Y-106740646D01*
X123353456Y-106888216D01*
X123421376Y-107052188D01*
X123456000Y-107226259D01*
X123456000Y-107403741D01*
X123421376Y-107577812D01*
X123353456Y-107741784D01*
X123254853Y-107889354D01*
X123129354Y-108014853D01*
X122981784Y-108113456D01*
X122817812Y-108181376D01*
X122668512Y-108211073D01*
X122643742Y-108216000D01*
X122466258Y-108216000D01*
X122441488Y-108211073D01*
X122292188Y-108181376D01*
X122128216Y-108113456D01*
X121980646Y-108014853D01*
X121855147Y-107889354D01*
X121756544Y-107741784D01*
X121688624Y-107577812D01*
X121654000Y-107403741D01*
X121654000Y-107226259D01*
X121688624Y-107052188D01*
X121756544Y-106888216D01*
X121855147Y-106740646D01*
X121980646Y-106615147D01*
X122128216Y-106516544D01*
X122292188Y-106448624D01*
X122441488Y-106418927D01*
X122466258Y-106414000D01*
X122643742Y-106414000D01*
X122668512Y-106418927D01*
G37*
G36*
X120128512Y-106418927D02*
G01*
X120277812Y-106448624D01*
X120441784Y-106516544D01*
X120589354Y-106615147D01*
X120714853Y-106740646D01*
X120813456Y-106888216D01*
X120881376Y-107052188D01*
X120916000Y-107226259D01*
X120916000Y-107403741D01*
X120881376Y-107577812D01*
X120813456Y-107741784D01*
X120714853Y-107889354D01*
X120589354Y-108014853D01*
X120441784Y-108113456D01*
X120277812Y-108181376D01*
X120128512Y-108211073D01*
X120103742Y-108216000D01*
X119926258Y-108216000D01*
X119901488Y-108211073D01*
X119752188Y-108181376D01*
X119588216Y-108113456D01*
X119440646Y-108014853D01*
X119315147Y-107889354D01*
X119216544Y-107741784D01*
X119148624Y-107577812D01*
X119114000Y-107403741D01*
X119114000Y-107226259D01*
X119148624Y-107052188D01*
X119216544Y-106888216D01*
X119315147Y-106740646D01*
X119440646Y-106615147D01*
X119588216Y-106516544D01*
X119752188Y-106448624D01*
X119901488Y-106418927D01*
X119926258Y-106414000D01*
X120103742Y-106414000D01*
X120128512Y-106418927D01*
G37*
G36*
X142353512Y-106418927D02*
G01*
X142502812Y-106448624D01*
X142666784Y-106516544D01*
X142814354Y-106615147D01*
X142939853Y-106740646D01*
X143038456Y-106888216D01*
X143106376Y-107052188D01*
X143141000Y-107226259D01*
X143141000Y-107403741D01*
X143106376Y-107577812D01*
X143038456Y-107741784D01*
X142939853Y-107889354D01*
X142814354Y-108014853D01*
X142666784Y-108113456D01*
X142502812Y-108181376D01*
X142353512Y-108211073D01*
X142328742Y-108216000D01*
X142151258Y-108216000D01*
X142126488Y-108211073D01*
X141977188Y-108181376D01*
X141813216Y-108113456D01*
X141665646Y-108014853D01*
X141540147Y-107889354D01*
X141441544Y-107741784D01*
X141373624Y-107577812D01*
X141339000Y-107403741D01*
X141339000Y-107226259D01*
X141373624Y-107052188D01*
X141441544Y-106888216D01*
X141540147Y-106740646D01*
X141665646Y-106615147D01*
X141813216Y-106516544D01*
X141977188Y-106448624D01*
X142126488Y-106418927D01*
X142151258Y-106414000D01*
X142328742Y-106414000D01*
X142353512Y-106418927D01*
G37*
G36*
X131076000Y-108216000D02*
G01*
X129274000Y-108216000D01*
X129274000Y-106414000D01*
X131076000Y-106414000D01*
X131076000Y-108216000D01*
G37*
G36*
X127748512Y-106418927D02*
G01*
X127897812Y-106448624D01*
X128061784Y-106516544D01*
X128209354Y-106615147D01*
X128334853Y-106740646D01*
X128433456Y-106888216D01*
X128501376Y-107052188D01*
X128536000Y-107226259D01*
X128536000Y-107403741D01*
X128501376Y-107577812D01*
X128433456Y-107741784D01*
X128334853Y-107889354D01*
X128209354Y-108014853D01*
X128061784Y-108113456D01*
X127897812Y-108181376D01*
X127748512Y-108211073D01*
X127723742Y-108216000D01*
X127546258Y-108216000D01*
X127521488Y-108211073D01*
X127372188Y-108181376D01*
X127208216Y-108113456D01*
X127060646Y-108014853D01*
X126935147Y-107889354D01*
X126836544Y-107741784D01*
X126768624Y-107577812D01*
X126734000Y-107403741D01*
X126734000Y-107226259D01*
X126768624Y-107052188D01*
X126836544Y-106888216D01*
X126935147Y-106740646D01*
X127060646Y-106615147D01*
X127208216Y-106516544D01*
X127372188Y-106448624D01*
X127521488Y-106418927D01*
X127546258Y-106414000D01*
X127723742Y-106414000D01*
X127748512Y-106418927D01*
G37*
G36*
X120128512Y-101973927D02*
G01*
X120277812Y-102003624D01*
X120441784Y-102071544D01*
X120589354Y-102170147D01*
X120714853Y-102295646D01*
X120813456Y-102443216D01*
X120881376Y-102607188D01*
X120916000Y-102781259D01*
X120916000Y-102958741D01*
X120881376Y-103132812D01*
X120813456Y-103296784D01*
X120714853Y-103444354D01*
X120589354Y-103569853D01*
X120441784Y-103668456D01*
X120277812Y-103736376D01*
X120128512Y-103766073D01*
X120103742Y-103771000D01*
X119926258Y-103771000D01*
X119901488Y-103766073D01*
X119752188Y-103736376D01*
X119588216Y-103668456D01*
X119440646Y-103569853D01*
X119315147Y-103444354D01*
X119216544Y-103296784D01*
X119148624Y-103132812D01*
X119114000Y-102958741D01*
X119114000Y-102781259D01*
X119148624Y-102607188D01*
X119216544Y-102443216D01*
X119315147Y-102295646D01*
X119440646Y-102170147D01*
X119588216Y-102071544D01*
X119752188Y-102003624D01*
X119901488Y-101973927D01*
X119926258Y-101969000D01*
X120103742Y-101969000D01*
X120128512Y-101973927D01*
G37*
G36*
X136156000Y-103771000D02*
G01*
X134354000Y-103771000D01*
X134354000Y-101969000D01*
X136156000Y-101969000D01*
X136156000Y-103771000D01*
G37*
G36*
X130288512Y-101973927D02*
G01*
X130437812Y-102003624D01*
X130601784Y-102071544D01*
X130749354Y-102170147D01*
X130874853Y-102295646D01*
X130973456Y-102443216D01*
X131041376Y-102607188D01*
X131076000Y-102781259D01*
X131076000Y-102958741D01*
X131041376Y-103132812D01*
X130973456Y-103296784D01*
X130874853Y-103444354D01*
X130749354Y-103569853D01*
X130601784Y-103668456D01*
X130437812Y-103736376D01*
X130288512Y-103766073D01*
X130263742Y-103771000D01*
X130086258Y-103771000D01*
X130061488Y-103766073D01*
X129912188Y-103736376D01*
X129748216Y-103668456D01*
X129600646Y-103569853D01*
X129475147Y-103444354D01*
X129376544Y-103296784D01*
X129308624Y-103132812D01*
X129274000Y-102958741D01*
X129274000Y-102781259D01*
X129308624Y-102607188D01*
X129376544Y-102443216D01*
X129475147Y-102295646D01*
X129600646Y-102170147D01*
X129748216Y-102071544D01*
X129912188Y-102003624D01*
X130061488Y-101973927D01*
X130086258Y-101969000D01*
X130263742Y-101969000D01*
X130288512Y-101973927D01*
G37*
G36*
X127748512Y-101973927D02*
G01*
X127897812Y-102003624D01*
X128061784Y-102071544D01*
X128209354Y-102170147D01*
X128334853Y-102295646D01*
X128433456Y-102443216D01*
X128501376Y-102607188D01*
X128536000Y-102781259D01*
X128536000Y-102958741D01*
X128501376Y-103132812D01*
X128433456Y-103296784D01*
X128334853Y-103444354D01*
X128209354Y-103569853D01*
X128061784Y-103668456D01*
X127897812Y-103736376D01*
X127748512Y-103766073D01*
X127723742Y-103771000D01*
X127546258Y-103771000D01*
X127521488Y-103766073D01*
X127372188Y-103736376D01*
X127208216Y-103668456D01*
X127060646Y-103569853D01*
X126935147Y-103444354D01*
X126836544Y-103296784D01*
X126768624Y-103132812D01*
X126734000Y-102958741D01*
X126734000Y-102781259D01*
X126768624Y-102607188D01*
X126836544Y-102443216D01*
X126935147Y-102295646D01*
X127060646Y-102170147D01*
X127208216Y-102071544D01*
X127372188Y-102003624D01*
X127521488Y-101973927D01*
X127546258Y-101969000D01*
X127723742Y-101969000D01*
X127748512Y-101973927D01*
G37*
G36*
X125208512Y-101973927D02*
G01*
X125357812Y-102003624D01*
X125521784Y-102071544D01*
X125669354Y-102170147D01*
X125794853Y-102295646D01*
X125893456Y-102443216D01*
X125961376Y-102607188D01*
X125996000Y-102781259D01*
X125996000Y-102958741D01*
X125961376Y-103132812D01*
X125893456Y-103296784D01*
X125794853Y-103444354D01*
X125669354Y-103569853D01*
X125521784Y-103668456D01*
X125357812Y-103736376D01*
X125208512Y-103766073D01*
X125183742Y-103771000D01*
X125006258Y-103771000D01*
X124981488Y-103766073D01*
X124832188Y-103736376D01*
X124668216Y-103668456D01*
X124520646Y-103569853D01*
X124395147Y-103444354D01*
X124296544Y-103296784D01*
X124228624Y-103132812D01*
X124194000Y-102958741D01*
X124194000Y-102781259D01*
X124228624Y-102607188D01*
X124296544Y-102443216D01*
X124395147Y-102295646D01*
X124520646Y-102170147D01*
X124668216Y-102071544D01*
X124832188Y-102003624D01*
X124981488Y-101973927D01*
X125006258Y-101969000D01*
X125183742Y-101969000D01*
X125208512Y-101973927D01*
G37*
G36*
X122668512Y-101973927D02*
G01*
X122817812Y-102003624D01*
X122981784Y-102071544D01*
X123129354Y-102170147D01*
X123254853Y-102295646D01*
X123353456Y-102443216D01*
X123421376Y-102607188D01*
X123456000Y-102781259D01*
X123456000Y-102958741D01*
X123421376Y-103132812D01*
X123353456Y-103296784D01*
X123254853Y-103444354D01*
X123129354Y-103569853D01*
X122981784Y-103668456D01*
X122817812Y-103736376D01*
X122668512Y-103766073D01*
X122643742Y-103771000D01*
X122466258Y-103771000D01*
X122441488Y-103766073D01*
X122292188Y-103736376D01*
X122128216Y-103668456D01*
X121980646Y-103569853D01*
X121855147Y-103444354D01*
X121756544Y-103296784D01*
X121688624Y-103132812D01*
X121654000Y-102958741D01*
X121654000Y-102781259D01*
X121688624Y-102607188D01*
X121756544Y-102443216D01*
X121855147Y-102295646D01*
X121980646Y-102170147D01*
X122128216Y-102071544D01*
X122292188Y-102003624D01*
X122441488Y-101973927D01*
X122466258Y-101969000D01*
X122643742Y-101969000D01*
X122668512Y-101973927D01*
G37*
G36*
X117588512Y-101973927D02*
G01*
X117737812Y-102003624D01*
X117901784Y-102071544D01*
X118049354Y-102170147D01*
X118174853Y-102295646D01*
X118273456Y-102443216D01*
X118341376Y-102607188D01*
X118376000Y-102781259D01*
X118376000Y-102958741D01*
X118341376Y-103132812D01*
X118273456Y-103296784D01*
X118174853Y-103444354D01*
X118049354Y-103569853D01*
X117901784Y-103668456D01*
X117737812Y-103736376D01*
X117588512Y-103766073D01*
X117563742Y-103771000D01*
X117386258Y-103771000D01*
X117361488Y-103766073D01*
X117212188Y-103736376D01*
X117048216Y-103668456D01*
X116900646Y-103569853D01*
X116775147Y-103444354D01*
X116676544Y-103296784D01*
X116608624Y-103132812D01*
X116574000Y-102958741D01*
X116574000Y-102781259D01*
X116608624Y-102607188D01*
X116676544Y-102443216D01*
X116775147Y-102295646D01*
X116900646Y-102170147D01*
X117048216Y-102071544D01*
X117212188Y-102003624D01*
X117361488Y-101973927D01*
X117386258Y-101969000D01*
X117563742Y-101969000D01*
X117588512Y-101973927D01*
G37*
G36*
X132828512Y-101973927D02*
G01*
X132977812Y-102003624D01*
X133141784Y-102071544D01*
X133289354Y-102170147D01*
X133414853Y-102295646D01*
X133513456Y-102443216D01*
X133581376Y-102607188D01*
X133616000Y-102781259D01*
X133616000Y-102958741D01*
X133581376Y-103132812D01*
X133513456Y-103296784D01*
X133414853Y-103444354D01*
X133289354Y-103569853D01*
X133141784Y-103668456D01*
X132977812Y-103736376D01*
X132828512Y-103766073D01*
X132803742Y-103771000D01*
X132626258Y-103771000D01*
X132601488Y-103766073D01*
X132452188Y-103736376D01*
X132288216Y-103668456D01*
X132140646Y-103569853D01*
X132015147Y-103444354D01*
X131916544Y-103296784D01*
X131848624Y-103132812D01*
X131814000Y-102958741D01*
X131814000Y-102781259D01*
X131848624Y-102607188D01*
X131916544Y-102443216D01*
X132015147Y-102295646D01*
X132140646Y-102170147D01*
X132288216Y-102071544D01*
X132452188Y-102003624D01*
X132601488Y-101973927D01*
X132626258Y-101969000D01*
X132803742Y-101969000D01*
X132828512Y-101973927D01*
G37*
G36*
X107428512Y-101973927D02*
G01*
X107577812Y-102003624D01*
X107741784Y-102071544D01*
X107889354Y-102170147D01*
X108014853Y-102295646D01*
X108113456Y-102443216D01*
X108181376Y-102607188D01*
X108216000Y-102781259D01*
X108216000Y-102958741D01*
X108181376Y-103132812D01*
X108113456Y-103296784D01*
X108014853Y-103444354D01*
X107889354Y-103569853D01*
X107741784Y-103668456D01*
X107577812Y-103736376D01*
X107428512Y-103766073D01*
X107403742Y-103771000D01*
X107226258Y-103771000D01*
X107201488Y-103766073D01*
X107052188Y-103736376D01*
X106888216Y-103668456D01*
X106740646Y-103569853D01*
X106615147Y-103444354D01*
X106516544Y-103296784D01*
X106448624Y-103132812D01*
X106414000Y-102958741D01*
X106414000Y-102781259D01*
X106448624Y-102607188D01*
X106516544Y-102443216D01*
X106615147Y-102295646D01*
X106740646Y-102170147D01*
X106888216Y-102071544D01*
X107052188Y-102003624D01*
X107201488Y-101973927D01*
X107226258Y-101969000D01*
X107403742Y-101969000D01*
X107428512Y-101973927D01*
G37*
G36*
X112508512Y-101973927D02*
G01*
X112657812Y-102003624D01*
X112821784Y-102071544D01*
X112969354Y-102170147D01*
X113094853Y-102295646D01*
X113193456Y-102443216D01*
X113261376Y-102607188D01*
X113296000Y-102781259D01*
X113296000Y-102958741D01*
X113261376Y-103132812D01*
X113193456Y-103296784D01*
X113094853Y-103444354D01*
X112969354Y-103569853D01*
X112821784Y-103668456D01*
X112657812Y-103736376D01*
X112508512Y-103766073D01*
X112483742Y-103771000D01*
X112306258Y-103771000D01*
X112281488Y-103766073D01*
X112132188Y-103736376D01*
X111968216Y-103668456D01*
X111820646Y-103569853D01*
X111695147Y-103444354D01*
X111596544Y-103296784D01*
X111528624Y-103132812D01*
X111494000Y-102958741D01*
X111494000Y-102781259D01*
X111528624Y-102607188D01*
X111596544Y-102443216D01*
X111695147Y-102295646D01*
X111820646Y-102170147D01*
X111968216Y-102071544D01*
X112132188Y-102003624D01*
X112281488Y-101973927D01*
X112306258Y-101969000D01*
X112483742Y-101969000D01*
X112508512Y-101973927D01*
G37*
G36*
X109968512Y-101973927D02*
G01*
X110117812Y-102003624D01*
X110281784Y-102071544D01*
X110429354Y-102170147D01*
X110554853Y-102295646D01*
X110653456Y-102443216D01*
X110721376Y-102607188D01*
X110756000Y-102781259D01*
X110756000Y-102958741D01*
X110721376Y-103132812D01*
X110653456Y-103296784D01*
X110554853Y-103444354D01*
X110429354Y-103569853D01*
X110281784Y-103668456D01*
X110117812Y-103736376D01*
X109968512Y-103766073D01*
X109943742Y-103771000D01*
X109766258Y-103771000D01*
X109741488Y-103766073D01*
X109592188Y-103736376D01*
X109428216Y-103668456D01*
X109280646Y-103569853D01*
X109155147Y-103444354D01*
X109056544Y-103296784D01*
X108988624Y-103132812D01*
X108954000Y-102958741D01*
X108954000Y-102781259D01*
X108988624Y-102607188D01*
X109056544Y-102443216D01*
X109155147Y-102295646D01*
X109280646Y-102170147D01*
X109428216Y-102071544D01*
X109592188Y-102003624D01*
X109741488Y-101973927D01*
X109766258Y-101969000D01*
X109943742Y-101969000D01*
X109968512Y-101973927D01*
G37*
G36*
X115048512Y-101973927D02*
G01*
X115197812Y-102003624D01*
X115361784Y-102071544D01*
X115509354Y-102170147D01*
X115634853Y-102295646D01*
X115733456Y-102443216D01*
X115801376Y-102607188D01*
X115836000Y-102781259D01*
X115836000Y-102958741D01*
X115801376Y-103132812D01*
X115733456Y-103296784D01*
X115634853Y-103444354D01*
X115509354Y-103569853D01*
X115361784Y-103668456D01*
X115197812Y-103736376D01*
X115048512Y-103766073D01*
X115023742Y-103771000D01*
X114846258Y-103771000D01*
X114821488Y-103766073D01*
X114672188Y-103736376D01*
X114508216Y-103668456D01*
X114360646Y-103569853D01*
X114235147Y-103444354D01*
X114136544Y-103296784D01*
X114068624Y-103132812D01*
X114034000Y-102958741D01*
X114034000Y-102781259D01*
X114068624Y-102607188D01*
X114136544Y-102443216D01*
X114235147Y-102295646D01*
X114360646Y-102170147D01*
X114508216Y-102071544D01*
X114672188Y-102003624D01*
X114821488Y-101973927D01*
X114846258Y-101969000D01*
X115023742Y-101969000D01*
X115048512Y-101973927D01*
G37*
G36*
X104888512Y-101973927D02*
G01*
X105037812Y-102003624D01*
X105201784Y-102071544D01*
X105349354Y-102170147D01*
X105474853Y-102295646D01*
X105573456Y-102443216D01*
X105641376Y-102607188D01*
X105676000Y-102781259D01*
X105676000Y-102958741D01*
X105641376Y-103132812D01*
X105573456Y-103296784D01*
X105474853Y-103444354D01*
X105349354Y-103569853D01*
X105201784Y-103668456D01*
X105037812Y-103736376D01*
X104888512Y-103766073D01*
X104863742Y-103771000D01*
X104686258Y-103771000D01*
X104661488Y-103766073D01*
X104512188Y-103736376D01*
X104348216Y-103668456D01*
X104200646Y-103569853D01*
X104075147Y-103444354D01*
X103976544Y-103296784D01*
X103908624Y-103132812D01*
X103874000Y-102958741D01*
X103874000Y-102781259D01*
X103908624Y-102607188D01*
X103976544Y-102443216D01*
X104075147Y-102295646D01*
X104200646Y-102170147D01*
X104348216Y-102071544D01*
X104512188Y-102003624D01*
X104661488Y-101973927D01*
X104686258Y-101969000D01*
X104863742Y-101969000D01*
X104888512Y-101973927D01*
G37*
G36*
X65063000Y-99821000D02*
G01*
X63461000Y-99821000D01*
X63461000Y-98219000D01*
X65063000Y-98219000D01*
X65063000Y-99821000D01*
G37*
G36*
X79287000Y-99636000D02*
G01*
X77685000Y-99636000D01*
X77685000Y-97134000D01*
X79287000Y-97134000D01*
X79287000Y-99636000D01*
G37*
G36*
X62373000Y-98833000D02*
G01*
X61071000Y-98833000D01*
X61071000Y-97831000D01*
X62373000Y-97831000D01*
X62373000Y-98833000D01*
G37*
G36*
X88369769Y-96257188D02*
G01*
X88527812Y-96288624D01*
X88691784Y-96356544D01*
X88839354Y-96455147D01*
X88964853Y-96580646D01*
X89063456Y-96728216D01*
X89131376Y-96892188D01*
X89166000Y-97066259D01*
X89166000Y-97243741D01*
X89131376Y-97417812D01*
X89063456Y-97581784D01*
X88964853Y-97729354D01*
X88839354Y-97854853D01*
X88691784Y-97953456D01*
X88527812Y-98021376D01*
X88378512Y-98051073D01*
X88353742Y-98056000D01*
X88176258Y-98056000D01*
X88151488Y-98051073D01*
X88002188Y-98021376D01*
X87838216Y-97953456D01*
X87690646Y-97854853D01*
X87565147Y-97729354D01*
X87466544Y-97581784D01*
X87398624Y-97417812D01*
X87364000Y-97243741D01*
X87364000Y-97066259D01*
X87398624Y-96892188D01*
X87466544Y-96728216D01*
X87565147Y-96580646D01*
X87690646Y-96455147D01*
X87838216Y-96356544D01*
X88002188Y-96288624D01*
X88160231Y-96257188D01*
X88176258Y-96254000D01*
X88353742Y-96254000D01*
X88369769Y-96257188D01*
G37*
G36*
X139331000Y-98056000D02*
G01*
X137529000Y-98056000D01*
X137529000Y-96254000D01*
X139331000Y-96254000D01*
X139331000Y-98056000D01*
G37*
G36*
X84086000Y-98056000D02*
G01*
X82284000Y-98056000D01*
X82284000Y-96254000D01*
X84086000Y-96254000D01*
X84086000Y-98056000D01*
G37*
G36*
X135994769Y-96257188D02*
G01*
X136152812Y-96288624D01*
X136316784Y-96356544D01*
X136464354Y-96455147D01*
X136589853Y-96580646D01*
X136688456Y-96728216D01*
X136756376Y-96892188D01*
X136791000Y-97066259D01*
X136791000Y-97243741D01*
X136756376Y-97417812D01*
X136688456Y-97581784D01*
X136589853Y-97729354D01*
X136464354Y-97854853D01*
X136316784Y-97953456D01*
X136152812Y-98021376D01*
X136003512Y-98051073D01*
X135978742Y-98056000D01*
X135801258Y-98056000D01*
X135776488Y-98051073D01*
X135627188Y-98021376D01*
X135463216Y-97953456D01*
X135315646Y-97854853D01*
X135190147Y-97729354D01*
X135091544Y-97581784D01*
X135023624Y-97417812D01*
X134989000Y-97243741D01*
X134989000Y-97066259D01*
X135023624Y-96892188D01*
X135091544Y-96728216D01*
X135190147Y-96580646D01*
X135315646Y-96455147D01*
X135463216Y-96356544D01*
X135627188Y-96288624D01*
X135785231Y-96257188D01*
X135801258Y-96254000D01*
X135978742Y-96254000D01*
X135994769Y-96257188D01*
G37*
G36*
X133454769Y-96257188D02*
G01*
X133612812Y-96288624D01*
X133776784Y-96356544D01*
X133924354Y-96455147D01*
X134049853Y-96580646D01*
X134148456Y-96728216D01*
X134216376Y-96892188D01*
X134251000Y-97066259D01*
X134251000Y-97243741D01*
X134216376Y-97417812D01*
X134148456Y-97581784D01*
X134049853Y-97729354D01*
X133924354Y-97854853D01*
X133776784Y-97953456D01*
X133612812Y-98021376D01*
X133463512Y-98051073D01*
X133438742Y-98056000D01*
X133261258Y-98056000D01*
X133236488Y-98051073D01*
X133087188Y-98021376D01*
X132923216Y-97953456D01*
X132775646Y-97854853D01*
X132650147Y-97729354D01*
X132551544Y-97581784D01*
X132483624Y-97417812D01*
X132449000Y-97243741D01*
X132449000Y-97066259D01*
X132483624Y-96892188D01*
X132551544Y-96728216D01*
X132650147Y-96580646D01*
X132775646Y-96455147D01*
X132923216Y-96356544D01*
X133087188Y-96288624D01*
X133245231Y-96257188D01*
X133261258Y-96254000D01*
X133438742Y-96254000D01*
X133454769Y-96257188D01*
G37*
G36*
X85829769Y-96257188D02*
G01*
X85987812Y-96288624D01*
X86151784Y-96356544D01*
X86299354Y-96455147D01*
X86424853Y-96580646D01*
X86523456Y-96728216D01*
X86591376Y-96892188D01*
X86626000Y-97066259D01*
X86626000Y-97243741D01*
X86591376Y-97417812D01*
X86523456Y-97581784D01*
X86424853Y-97729354D01*
X86299354Y-97854853D01*
X86151784Y-97953456D01*
X85987812Y-98021376D01*
X85838512Y-98051073D01*
X85813742Y-98056000D01*
X85636258Y-98056000D01*
X85611488Y-98051073D01*
X85462188Y-98021376D01*
X85298216Y-97953456D01*
X85150646Y-97854853D01*
X85025147Y-97729354D01*
X84926544Y-97581784D01*
X84858624Y-97417812D01*
X84824000Y-97243741D01*
X84824000Y-97066259D01*
X84858624Y-96892188D01*
X84926544Y-96728216D01*
X85025147Y-96580646D01*
X85150646Y-96455147D01*
X85298216Y-96356544D01*
X85462188Y-96288624D01*
X85620231Y-96257188D01*
X85636258Y-96254000D01*
X85813742Y-96254000D01*
X85829769Y-96257188D01*
G37*
G36*
X105041000Y-97421000D02*
G01*
X103239000Y-97421000D01*
X103239000Y-95619000D01*
X105041000Y-95619000D01*
X105041000Y-97421000D01*
G37*
G36*
X106793512Y-95623927D02*
G01*
X106942812Y-95653624D01*
X107106784Y-95721544D01*
X107254354Y-95820147D01*
X107379853Y-95945646D01*
X107478456Y-96093216D01*
X107546376Y-96257188D01*
X107581000Y-96431259D01*
X107581000Y-96608741D01*
X107546376Y-96782812D01*
X107478456Y-96946784D01*
X107379853Y-97094354D01*
X107254354Y-97219853D01*
X107106784Y-97318456D01*
X106942812Y-97386376D01*
X106793512Y-97416073D01*
X106768742Y-97421000D01*
X106591258Y-97421000D01*
X106566488Y-97416073D01*
X106417188Y-97386376D01*
X106253216Y-97318456D01*
X106105646Y-97219853D01*
X105980147Y-97094354D01*
X105881544Y-96946784D01*
X105813624Y-96782812D01*
X105779000Y-96608741D01*
X105779000Y-96431259D01*
X105813624Y-96257188D01*
X105881544Y-96093216D01*
X105980147Y-95945646D01*
X106105646Y-95820147D01*
X106253216Y-95721544D01*
X106417188Y-95653624D01*
X106566488Y-95623927D01*
X106591258Y-95619000D01*
X106768742Y-95619000D01*
X106793512Y-95623927D01*
G37*
G36*
X109333512Y-95623927D02*
G01*
X109482812Y-95653624D01*
X109646784Y-95721544D01*
X109794354Y-95820147D01*
X109919853Y-95945646D01*
X110018456Y-96093216D01*
X110086376Y-96257188D01*
X110121000Y-96431259D01*
X110121000Y-96608741D01*
X110086376Y-96782812D01*
X110018456Y-96946784D01*
X109919853Y-97094354D01*
X109794354Y-97219853D01*
X109646784Y-97318456D01*
X109482812Y-97386376D01*
X109333512Y-97416073D01*
X109308742Y-97421000D01*
X109131258Y-97421000D01*
X109106488Y-97416073D01*
X108957188Y-97386376D01*
X108793216Y-97318456D01*
X108645646Y-97219853D01*
X108520147Y-97094354D01*
X108421544Y-96946784D01*
X108353624Y-96782812D01*
X108319000Y-96608741D01*
X108319000Y-96431259D01*
X108353624Y-96257188D01*
X108421544Y-96093216D01*
X108520147Y-95945646D01*
X108645646Y-95820147D01*
X108793216Y-95721544D01*
X108957188Y-95653624D01*
X109106488Y-95623927D01*
X109131258Y-95619000D01*
X109308742Y-95619000D01*
X109333512Y-95623927D01*
G37*
G36*
X59168512Y-95623927D02*
G01*
X59317812Y-95653624D01*
X59481784Y-95721544D01*
X59629354Y-95820147D01*
X59754853Y-95945646D01*
X59853456Y-96093216D01*
X59921376Y-96257188D01*
X59956000Y-96431259D01*
X59956000Y-96608741D01*
X59921376Y-96782812D01*
X59853456Y-96946784D01*
X59754853Y-97094354D01*
X59629354Y-97219853D01*
X59481784Y-97318456D01*
X59317812Y-97386376D01*
X59168512Y-97416073D01*
X59143742Y-97421000D01*
X58966258Y-97421000D01*
X58941488Y-97416073D01*
X58792188Y-97386376D01*
X58628216Y-97318456D01*
X58480646Y-97219853D01*
X58355147Y-97094354D01*
X58256544Y-96946784D01*
X58188624Y-96782812D01*
X58154000Y-96608741D01*
X58154000Y-96431259D01*
X58188624Y-96257188D01*
X58256544Y-96093216D01*
X58355147Y-95945646D01*
X58480646Y-95820147D01*
X58628216Y-95721544D01*
X58792188Y-95653624D01*
X58941488Y-95623927D01*
X58966258Y-95619000D01*
X59143742Y-95619000D01*
X59168512Y-95623927D01*
G37*
G36*
X54876000Y-97421000D02*
G01*
X53074000Y-97421000D01*
X53074000Y-95619000D01*
X54876000Y-95619000D01*
X54876000Y-97421000D01*
G37*
G36*
X56628512Y-95623927D02*
G01*
X56777812Y-95653624D01*
X56941784Y-95721544D01*
X57089354Y-95820147D01*
X57214853Y-95945646D01*
X57313456Y-96093216D01*
X57381376Y-96257188D01*
X57416000Y-96431259D01*
X57416000Y-96608741D01*
X57381376Y-96782812D01*
X57313456Y-96946784D01*
X57214853Y-97094354D01*
X57089354Y-97219853D01*
X56941784Y-97318456D01*
X56777812Y-97386376D01*
X56628512Y-97416073D01*
X56603742Y-97421000D01*
X56426258Y-97421000D01*
X56401488Y-97416073D01*
X56252188Y-97386376D01*
X56088216Y-97318456D01*
X55940646Y-97219853D01*
X55815147Y-97094354D01*
X55716544Y-96946784D01*
X55648624Y-96782812D01*
X55614000Y-96608741D01*
X55614000Y-96431259D01*
X55648624Y-96257188D01*
X55716544Y-96093216D01*
X55815147Y-95945646D01*
X55940646Y-95820147D01*
X56088216Y-95721544D01*
X56252188Y-95653624D01*
X56401488Y-95623927D01*
X56426258Y-95619000D01*
X56603742Y-95619000D01*
X56628512Y-95623927D01*
G37*
G36*
X51313512Y-95182927D02*
G01*
X51462812Y-95212624D01*
X51626784Y-95280544D01*
X51774354Y-95379147D01*
X51899853Y-95504646D01*
X51998456Y-95652216D01*
X52066376Y-95816188D01*
X52101000Y-95990259D01*
X52101000Y-96167741D01*
X52066376Y-96341812D01*
X51998456Y-96505784D01*
X51899853Y-96653354D01*
X51774354Y-96778853D01*
X51626784Y-96877456D01*
X51462812Y-96945376D01*
X51313512Y-96975073D01*
X51288742Y-96980000D01*
X51111258Y-96980000D01*
X51086488Y-96975073D01*
X50937188Y-96945376D01*
X50773216Y-96877456D01*
X50625646Y-96778853D01*
X50500147Y-96653354D01*
X50401544Y-96505784D01*
X50333624Y-96341812D01*
X50299000Y-96167741D01*
X50299000Y-95990259D01*
X50333624Y-95816188D01*
X50401544Y-95652216D01*
X50500147Y-95504646D01*
X50625646Y-95379147D01*
X50773216Y-95280544D01*
X50937188Y-95212624D01*
X51086488Y-95182927D01*
X51111258Y-95178000D01*
X51288742Y-95178000D01*
X51313512Y-95182927D01*
G37*
G36*
X49576000Y-96750000D02*
G01*
X48574000Y-96750000D01*
X48574000Y-95448000D01*
X49576000Y-95448000D01*
X49576000Y-96750000D01*
G37*
G36*
X47476000Y-96750000D02*
G01*
X46474000Y-96750000D01*
X46474000Y-95448000D01*
X47476000Y-95448000D01*
X47476000Y-96750000D01*
G37*
G36*
X62373000Y-96733000D02*
G01*
X61071000Y-96733000D01*
X61071000Y-95731000D01*
X62373000Y-95731000D01*
X62373000Y-96733000D01*
G37*
G36*
X89900876Y-92940000D02*
G01*
X90033150Y-92966311D01*
X90058955Y-92977000D01*
X90233520Y-93049307D01*
X90413844Y-93169795D01*
X90567205Y-93323156D01*
X90687693Y-93503480D01*
X90770689Y-93703851D01*
X90798132Y-93841812D01*
X90813000Y-93916561D01*
X90813000Y-94133439D01*
X90770689Y-94346150D01*
X90729588Y-94445375D01*
X90687693Y-94546520D01*
X90567205Y-94726844D01*
X90413844Y-94880205D01*
X90233520Y-95000693D01*
X90133334Y-95042191D01*
X90033150Y-95083689D01*
X89926795Y-95104844D01*
X89820440Y-95126000D01*
X89603560Y-95126000D01*
X89497205Y-95104844D01*
X89390850Y-95083689D01*
X89290666Y-95042191D01*
X89190480Y-95000693D01*
X89010156Y-94880205D01*
X88856795Y-94726844D01*
X88736307Y-94546520D01*
X88694412Y-94445375D01*
X88653311Y-94346150D01*
X88611000Y-94133439D01*
X88611000Y-93916561D01*
X88625869Y-93841812D01*
X88653311Y-93703851D01*
X88736307Y-93503480D01*
X88856795Y-93323156D01*
X89010156Y-93169795D01*
X89190480Y-93049307D01*
X89365045Y-92977000D01*
X89390850Y-92966311D01*
X89523124Y-92940000D01*
X89603560Y-92924000D01*
X89820440Y-92924000D01*
X89900876Y-92940000D01*
G37*
G36*
X47476000Y-94845000D02*
G01*
X46474000Y-94845000D01*
X46474000Y-93543000D01*
X47476000Y-93543000D01*
X47476000Y-94845000D01*
G37*
G36*
X49576000Y-94845000D02*
G01*
X48574000Y-94845000D01*
X48574000Y-93543000D01*
X49576000Y-93543000D01*
X49576000Y-94845000D01*
G37*
G36*
X87276000Y-94631000D02*
G01*
X86274000Y-94631000D01*
X86274000Y-93329000D01*
X87276000Y-93329000D01*
X87276000Y-94631000D01*
G37*
G36*
X85176000Y-94631000D02*
G01*
X84174000Y-94631000D01*
X84174000Y-93329000D01*
X85176000Y-93329000D01*
X85176000Y-94631000D01*
G37*
G36*
X51313512Y-92682927D02*
G01*
X51462812Y-92712624D01*
X51626784Y-92780544D01*
X51774354Y-92879147D01*
X51899853Y-93004646D01*
X51998456Y-93152216D01*
X52066376Y-93316188D01*
X52096073Y-93465488D01*
X52100642Y-93488456D01*
X52101000Y-93490259D01*
X52101000Y-93667741D01*
X52066376Y-93841812D01*
X51998456Y-94005784D01*
X51899853Y-94153354D01*
X51774354Y-94278853D01*
X51626784Y-94377456D01*
X51462812Y-94445376D01*
X51313512Y-94475073D01*
X51288742Y-94480000D01*
X51111258Y-94480000D01*
X51086488Y-94475073D01*
X50937188Y-94445376D01*
X50773216Y-94377456D01*
X50625646Y-94278853D01*
X50500147Y-94153354D01*
X50401544Y-94005784D01*
X50333624Y-93841812D01*
X50299000Y-93667741D01*
X50299000Y-93490259D01*
X50299359Y-93488456D01*
X50303927Y-93465488D01*
X50333624Y-93316188D01*
X50401544Y-93152216D01*
X50500147Y-93004646D01*
X50625646Y-92879147D01*
X50773216Y-92780544D01*
X50937188Y-92712624D01*
X51086488Y-92682927D01*
X51111258Y-92678000D01*
X51288742Y-92678000D01*
X51313512Y-92682927D01*
G37*
G36*
X56935000Y-94277000D02*
G01*
X55333000Y-94277000D01*
X55333000Y-91875000D01*
X56935000Y-91875000D01*
X56935000Y-94277000D01*
G37*
G36*
X132869000Y-93996000D02*
G01*
X131867000Y-93996000D01*
X131867000Y-92694000D01*
X132869000Y-92694000D01*
X132869000Y-93996000D01*
G37*
G36*
X130769000Y-93996000D02*
G01*
X129767000Y-93996000D01*
X129767000Y-92694000D01*
X130769000Y-92694000D01*
X130769000Y-93996000D01*
G37*
G36*
X92472104Y-91874585D02*
G01*
X92640626Y-91944389D01*
X92792291Y-92045728D01*
X92921272Y-92174709D01*
X93022611Y-92326374D01*
X93092415Y-92494896D01*
X93128000Y-92673797D01*
X93128000Y-92856203D01*
X93092415Y-93035104D01*
X93022611Y-93203626D01*
X92921272Y-93355291D01*
X92792291Y-93484272D01*
X92640626Y-93585611D01*
X92472104Y-93655415D01*
X92293203Y-93691000D01*
X92110797Y-93691000D01*
X91931896Y-93655415D01*
X91763374Y-93585611D01*
X91611709Y-93484272D01*
X91482728Y-93355291D01*
X91381389Y-93203626D01*
X91311585Y-93035104D01*
X91276000Y-92856203D01*
X91276000Y-92673797D01*
X91311585Y-92494896D01*
X91381389Y-92326374D01*
X91482728Y-92174709D01*
X91611709Y-92045728D01*
X91763374Y-91944389D01*
X91931896Y-91874585D01*
X92110797Y-91839000D01*
X92293203Y-91839000D01*
X92472104Y-91874585D01*
G37*
G36*
X102983512Y-91793927D02*
G01*
X103132812Y-91823624D01*
X103296784Y-91891544D01*
X103444354Y-91990147D01*
X103569853Y-92115646D01*
X103668456Y-92263216D01*
X103736376Y-92427188D01*
X103758890Y-92540376D01*
X103771000Y-92601258D01*
X103771000Y-92778742D01*
X103766073Y-92803512D01*
X103736376Y-92952812D01*
X103668456Y-93116784D01*
X103569853Y-93264354D01*
X103444354Y-93389853D01*
X103296784Y-93488456D01*
X103132812Y-93556376D01*
X102985834Y-93585611D01*
X102958742Y-93591000D01*
X102781258Y-93591000D01*
X102754166Y-93585611D01*
X102607188Y-93556376D01*
X102443216Y-93488456D01*
X102295646Y-93389853D01*
X102170147Y-93264354D01*
X102071544Y-93116784D01*
X102003624Y-92952812D01*
X101973927Y-92803512D01*
X101969000Y-92778742D01*
X101969000Y-92601258D01*
X101981110Y-92540376D01*
X102003624Y-92427188D01*
X102071544Y-92263216D01*
X102170147Y-92115646D01*
X102295646Y-91990147D01*
X102443216Y-91891544D01*
X102607188Y-91823624D01*
X102756488Y-91793927D01*
X102781258Y-91789000D01*
X102958742Y-91789000D01*
X102983512Y-91793927D01*
G37*
G36*
X138543512Y-91793927D02*
G01*
X138692812Y-91823624D01*
X138856784Y-91891544D01*
X139004354Y-91990147D01*
X139129853Y-92115646D01*
X139228456Y-92263216D01*
X139296376Y-92427188D01*
X139318890Y-92540376D01*
X139331000Y-92601258D01*
X139331000Y-92778742D01*
X139326073Y-92803512D01*
X139296376Y-92952812D01*
X139228456Y-93116784D01*
X139129853Y-93264354D01*
X139004354Y-93389853D01*
X138856784Y-93488456D01*
X138692812Y-93556376D01*
X138545834Y-93585611D01*
X138518742Y-93591000D01*
X138341258Y-93591000D01*
X138314166Y-93585611D01*
X138167188Y-93556376D01*
X138003216Y-93488456D01*
X137855646Y-93389853D01*
X137730147Y-93264354D01*
X137631544Y-93116784D01*
X137563624Y-92952812D01*
X137533927Y-92803512D01*
X137529000Y-92778742D01*
X137529000Y-92601258D01*
X137541110Y-92540376D01*
X137563624Y-92427188D01*
X137631544Y-92263216D01*
X137730147Y-92115646D01*
X137855646Y-91990147D01*
X138003216Y-91891544D01*
X138167188Y-91823624D01*
X138316488Y-91793927D01*
X138341258Y-91789000D01*
X138518742Y-91789000D01*
X138543512Y-91793927D01*
G37*
G36*
X47476000Y-92940000D02*
G01*
X46474000Y-92940000D01*
X46474000Y-91638000D01*
X47476000Y-91638000D01*
X47476000Y-92940000D01*
G37*
G36*
X49576000Y-92940000D02*
G01*
X48574000Y-92940000D01*
X48574000Y-91638000D01*
X49576000Y-91638000D01*
X49576000Y-92940000D01*
G37*
G36*
X85541000Y-92771000D02*
G01*
X84639000Y-92771000D01*
X84639000Y-90869000D01*
X85541000Y-90869000D01*
X85541000Y-92771000D01*
G37*
G36*
X112381512Y-90777927D02*
G01*
X112530812Y-90807624D01*
X112694784Y-90875544D01*
X112842354Y-90974147D01*
X112967853Y-91099646D01*
X113066456Y-91247216D01*
X113134376Y-91411188D01*
X113169000Y-91585259D01*
X113169000Y-91762741D01*
X113134376Y-91936812D01*
X113066456Y-92100784D01*
X112967853Y-92248354D01*
X112842354Y-92373853D01*
X112694784Y-92472456D01*
X112530812Y-92540376D01*
X112381512Y-92570073D01*
X112356742Y-92575000D01*
X112179258Y-92575000D01*
X112154488Y-92570073D01*
X112005188Y-92540376D01*
X111841216Y-92472456D01*
X111693646Y-92373853D01*
X111568147Y-92248354D01*
X111469544Y-92100784D01*
X111401624Y-91936812D01*
X111367000Y-91762741D01*
X111367000Y-91585259D01*
X111401624Y-91411188D01*
X111469544Y-91247216D01*
X111568147Y-91099646D01*
X111693646Y-90974147D01*
X111841216Y-90875544D01*
X112005188Y-90807624D01*
X112154488Y-90777927D01*
X112179258Y-90773000D01*
X112356742Y-90773000D01*
X112381512Y-90777927D01*
G37*
G36*
X110379000Y-91975000D02*
G01*
X109077000Y-91975000D01*
X109077000Y-90973000D01*
X110379000Y-90973000D01*
X110379000Y-91975000D01*
G37*
G36*
X88081000Y-91837000D02*
G01*
X87179000Y-91837000D01*
X87179000Y-90535000D01*
X88081000Y-90535000D01*
X88081000Y-91837000D01*
G37*
G36*
X138543512Y-89293927D02*
G01*
X138692812Y-89323624D01*
X138856784Y-89391544D01*
X139004354Y-89490147D01*
X139129853Y-89615646D01*
X139228456Y-89763216D01*
X139296376Y-89927188D01*
X139331000Y-90101259D01*
X139331000Y-90278741D01*
X139296376Y-90452812D01*
X139228456Y-90616784D01*
X139129853Y-90764354D01*
X139004354Y-90889853D01*
X138856784Y-90988456D01*
X138692812Y-91056376D01*
X138543512Y-91086073D01*
X138518742Y-91091000D01*
X138341258Y-91091000D01*
X138316488Y-91086073D01*
X138167188Y-91056376D01*
X138003216Y-90988456D01*
X137855646Y-90889853D01*
X137730147Y-90764354D01*
X137631544Y-90616784D01*
X137563624Y-90452812D01*
X137529000Y-90278741D01*
X137529000Y-90101259D01*
X137563624Y-89927188D01*
X137631544Y-89763216D01*
X137730147Y-89615646D01*
X137855646Y-89490147D01*
X138003216Y-89391544D01*
X138167188Y-89323624D01*
X138316488Y-89293927D01*
X138341258Y-89289000D01*
X138518742Y-89289000D01*
X138543512Y-89293927D01*
G37*
G36*
X102983512Y-89293927D02*
G01*
X103132812Y-89323624D01*
X103296784Y-89391544D01*
X103444354Y-89490147D01*
X103569853Y-89615646D01*
X103668456Y-89763216D01*
X103736376Y-89927188D01*
X103771000Y-90101259D01*
X103771000Y-90278741D01*
X103736376Y-90452812D01*
X103668456Y-90616784D01*
X103569853Y-90764354D01*
X103444354Y-90889853D01*
X103296784Y-90988456D01*
X103132812Y-91056376D01*
X102983512Y-91086073D01*
X102958742Y-91091000D01*
X102781258Y-91091000D01*
X102756488Y-91086073D01*
X102607188Y-91056376D01*
X102443216Y-90988456D01*
X102295646Y-90889853D01*
X102170147Y-90764354D01*
X102071544Y-90616784D01*
X102003624Y-90452812D01*
X101969000Y-90278741D01*
X101969000Y-90101259D01*
X102003624Y-89927188D01*
X102071544Y-89763216D01*
X102170147Y-89615646D01*
X102295646Y-89490147D01*
X102443216Y-89391544D01*
X102607188Y-89323624D01*
X102756488Y-89293927D01*
X102781258Y-89289000D01*
X102958742Y-89289000D01*
X102983512Y-89293927D01*
G37*
G36*
X112381512Y-88277927D02*
G01*
X112530812Y-88307624D01*
X112694784Y-88375544D01*
X112842354Y-88474147D01*
X112967853Y-88599646D01*
X113066456Y-88747216D01*
X113134376Y-88911188D01*
X113169000Y-89085259D01*
X113169000Y-89262741D01*
X113134376Y-89436812D01*
X113066456Y-89600784D01*
X112967853Y-89748354D01*
X112842354Y-89873853D01*
X112694784Y-89972456D01*
X112530812Y-90040376D01*
X112381512Y-90070073D01*
X112356742Y-90075000D01*
X112179258Y-90075000D01*
X112154488Y-90070073D01*
X112005188Y-90040376D01*
X111841216Y-89972456D01*
X111693646Y-89873853D01*
X111568147Y-89748354D01*
X111469544Y-89600784D01*
X111401624Y-89436812D01*
X111367000Y-89262741D01*
X111367000Y-89085259D01*
X111401624Y-88911188D01*
X111469544Y-88747216D01*
X111568147Y-88599646D01*
X111693646Y-88474147D01*
X111841216Y-88375544D01*
X112005188Y-88307624D01*
X112154488Y-88277927D01*
X112179258Y-88273000D01*
X112356742Y-88273000D01*
X112381512Y-88277927D01*
G37*
G36*
X110379000Y-89875000D02*
G01*
X109077000Y-89875000D01*
X109077000Y-88873000D01*
X110379000Y-88873000D01*
X110379000Y-89875000D01*
G37*
G36*
X88081000Y-89805000D02*
G01*
X87179000Y-89805000D01*
X87179000Y-88503000D01*
X88081000Y-88503000D01*
X88081000Y-89805000D01*
G37*
G36*
X84591000Y-89471000D02*
G01*
X83689000Y-89471000D01*
X83689000Y-87569000D01*
X84591000Y-87569000D01*
X84591000Y-89471000D01*
G37*
G36*
X86491000Y-89471000D02*
G01*
X85589000Y-89471000D01*
X85589000Y-87569000D01*
X86491000Y-87569000D01*
X86491000Y-89471000D01*
G37*
G36*
X92472104Y-87374585D02*
G01*
X92640626Y-87444389D01*
X92792291Y-87545728D01*
X92921272Y-87674709D01*
X93022611Y-87826374D01*
X93092415Y-87994896D01*
X93128000Y-88173797D01*
X93128000Y-88356203D01*
X93092415Y-88535104D01*
X93022611Y-88703626D01*
X92921272Y-88855291D01*
X92792291Y-88984272D01*
X92640626Y-89085611D01*
X92472104Y-89155415D01*
X92293203Y-89191000D01*
X92110797Y-89191000D01*
X91931896Y-89155415D01*
X91763374Y-89085611D01*
X91611709Y-88984272D01*
X91482728Y-88855291D01*
X91381389Y-88703626D01*
X91311585Y-88535104D01*
X91276000Y-88356203D01*
X91276000Y-88173797D01*
X91311585Y-87994896D01*
X91381389Y-87826374D01*
X91482728Y-87674709D01*
X91611709Y-87545728D01*
X91763374Y-87444389D01*
X91931896Y-87374585D01*
X92110797Y-87339000D01*
X92293203Y-87339000D01*
X92472104Y-87374585D01*
G37*
G36*
X89926795Y-85935156D02*
G01*
X90033150Y-85956311D01*
X90133334Y-85997809D01*
X90233520Y-86039307D01*
X90413844Y-86159795D01*
X90567205Y-86313156D01*
X90687693Y-86493480D01*
X90687693Y-86493481D01*
X90770689Y-86693850D01*
X90813000Y-86906561D01*
X90813000Y-87123439D01*
X90770689Y-87336150D01*
X90754768Y-87374586D01*
X90687693Y-87536520D01*
X90567205Y-87716844D01*
X90413844Y-87870205D01*
X90233520Y-87990693D01*
X90033150Y-88073689D01*
X89926794Y-88094845D01*
X89820440Y-88116000D01*
X89603560Y-88116000D01*
X89497206Y-88094845D01*
X89390850Y-88073689D01*
X89290666Y-88032191D01*
X89190480Y-87990693D01*
X89010156Y-87870205D01*
X88856795Y-87716844D01*
X88736307Y-87536520D01*
X88669232Y-87374586D01*
X88653311Y-87336150D01*
X88611000Y-87123439D01*
X88611000Y-86906561D01*
X88653311Y-86693850D01*
X88736307Y-86493481D01*
X88736307Y-86493480D01*
X88856795Y-86313156D01*
X89010156Y-86159795D01*
X89190480Y-86039307D01*
X89290666Y-85997809D01*
X89390850Y-85956311D01*
X89497205Y-85935156D01*
X89603560Y-85914000D01*
X89820440Y-85914000D01*
X89926795Y-85935156D01*
G37*
G36*
X86811000Y-86757000D02*
G01*
X85909000Y-86757000D01*
X85909000Y-85455000D01*
X86811000Y-85455000D01*
X86811000Y-86757000D01*
G37*
G36*
X84271000Y-86757000D02*
G01*
X83369000Y-86757000D01*
X83369000Y-85455000D01*
X84271000Y-85455000D01*
X84271000Y-86757000D01*
G37*
G36*
X51521000Y-86249000D02*
G01*
X50519000Y-86249000D01*
X50519000Y-84947000D01*
X51521000Y-84947000D01*
X51521000Y-86249000D01*
G37*
G36*
X53621000Y-86249000D02*
G01*
X52619000Y-86249000D01*
X52619000Y-84947000D01*
X53621000Y-84947000D01*
X53621000Y-86249000D01*
G37*
G36*
X107077000Y-85541000D02*
G01*
X105775000Y-85541000D01*
X105775000Y-84639000D01*
X107077000Y-84639000D01*
X107077000Y-85541000D01*
G37*
G36*
X135525000Y-85541000D02*
G01*
X134223000Y-85541000D01*
X134223000Y-84639000D01*
X135525000Y-84639000D01*
X135525000Y-85541000D01*
G37*
G36*
X105045000Y-85541000D02*
G01*
X103743000Y-85541000D01*
X103743000Y-84639000D01*
X105045000Y-84639000D01*
X105045000Y-85541000D01*
G37*
G36*
X137557000Y-85541000D02*
G01*
X136255000Y-85541000D01*
X136255000Y-84639000D01*
X137557000Y-84639000D01*
X137557000Y-85541000D01*
G37*
G36*
X89926795Y-82785156D02*
G01*
X90033150Y-82806311D01*
X90233520Y-82889307D01*
X90413844Y-83009795D01*
X90567205Y-83163156D01*
X90687693Y-83343480D01*
X90770689Y-83543851D01*
X90813000Y-83756560D01*
X90813000Y-83973440D01*
X90770689Y-84186149D01*
X90687693Y-84386520D01*
X90567205Y-84566844D01*
X90413844Y-84720205D01*
X90233520Y-84840693D01*
X90033150Y-84923689D01*
X89926795Y-84944844D01*
X89820440Y-84966000D01*
X89603560Y-84966000D01*
X89497205Y-84944844D01*
X89390850Y-84923689D01*
X89290666Y-84882191D01*
X89190480Y-84840693D01*
X89010156Y-84720205D01*
X88856795Y-84566844D01*
X88736307Y-84386520D01*
X88653311Y-84186149D01*
X88611000Y-83973440D01*
X88611000Y-83756560D01*
X88653311Y-83543851D01*
X88736307Y-83343480D01*
X88856795Y-83163156D01*
X89010156Y-83009795D01*
X89190480Y-82889307D01*
X89290666Y-82847809D01*
X89390850Y-82806311D01*
X89497205Y-82785156D01*
X89603560Y-82764000D01*
X89820440Y-82764000D01*
X89926795Y-82785156D01*
G37*
G36*
X74655000Y-84731000D02*
G01*
X73853000Y-84731000D01*
X73853000Y-82829000D01*
X74655000Y-82829000D01*
X74655000Y-84731000D01*
G37*
G36*
X71355000Y-84731000D02*
G01*
X70553000Y-84731000D01*
X70553000Y-82829000D01*
X71355000Y-82829000D01*
X71355000Y-84731000D01*
G37*
G36*
X72455000Y-84731000D02*
G01*
X71653000Y-84731000D01*
X71653000Y-82829000D01*
X72455000Y-82829000D01*
X72455000Y-84731000D01*
G37*
G36*
X73555000Y-84731000D02*
G01*
X72753000Y-84731000D01*
X72753000Y-82829000D01*
X73555000Y-82829000D01*
X73555000Y-84731000D01*
G37*
G36*
X76855000Y-84731000D02*
G01*
X76053000Y-84731000D01*
X76053000Y-82829000D01*
X76855000Y-82829000D01*
X76855000Y-84731000D01*
G37*
G36*
X75755000Y-84731000D02*
G01*
X74953000Y-84731000D01*
X74953000Y-82829000D01*
X75755000Y-82829000D01*
X75755000Y-84731000D01*
G37*
G36*
X70255000Y-84731000D02*
G01*
X69453000Y-84731000D01*
X69453000Y-82829000D01*
X70255000Y-82829000D01*
X70255000Y-84731000D01*
G37*
G36*
X69155000Y-84731000D02*
G01*
X68353000Y-84731000D01*
X68353000Y-82829000D01*
X69155000Y-82829000D01*
X69155000Y-84731000D01*
G37*
G36*
X84271000Y-84725000D02*
G01*
X83369000Y-84725000D01*
X83369000Y-83423000D01*
X84271000Y-83423000D01*
X84271000Y-84725000D01*
G37*
G36*
X86811000Y-84725000D02*
G01*
X85909000Y-84725000D01*
X85909000Y-83423000D01*
X86811000Y-83423000D01*
X86811000Y-84725000D01*
G37*
G36*
X135525000Y-83636000D02*
G01*
X134223000Y-83636000D01*
X134223000Y-82734000D01*
X135525000Y-82734000D01*
X135525000Y-83636000D01*
G37*
G36*
X107077000Y-83636000D02*
G01*
X105775000Y-83636000D01*
X105775000Y-82734000D01*
X107077000Y-82734000D01*
X107077000Y-83636000D01*
G37*
G36*
X137557000Y-83636000D02*
G01*
X136255000Y-83636000D01*
X136255000Y-82734000D01*
X137557000Y-82734000D01*
X137557000Y-83636000D01*
G37*
G36*
X105045000Y-83636000D02*
G01*
X103743000Y-83636000D01*
X103743000Y-82734000D01*
X105045000Y-82734000D01*
X105045000Y-83636000D01*
G37*
G36*
X92472104Y-81714585D02*
G01*
X92640626Y-81784389D01*
X92792291Y-81885728D01*
X92921272Y-82014709D01*
X93022611Y-82166374D01*
X93092415Y-82334896D01*
X93128000Y-82513797D01*
X93128000Y-82696203D01*
X93092415Y-82875104D01*
X93022611Y-83043626D01*
X92921272Y-83195291D01*
X92792291Y-83324272D01*
X92640626Y-83425611D01*
X92472104Y-83495415D01*
X92293203Y-83531000D01*
X92110797Y-83531000D01*
X91931896Y-83495415D01*
X91763374Y-83425611D01*
X91611709Y-83324272D01*
X91482728Y-83195291D01*
X91381389Y-83043626D01*
X91311585Y-82875104D01*
X91276000Y-82696203D01*
X91276000Y-82513797D01*
X91311585Y-82334896D01*
X91381389Y-82166374D01*
X91482728Y-82014709D01*
X91611709Y-81885728D01*
X91763374Y-81784389D01*
X91931896Y-81714585D01*
X92110797Y-81679000D01*
X92293203Y-81679000D01*
X92472104Y-81714585D01*
G37*
G36*
X86491000Y-82611000D02*
G01*
X85589000Y-82611000D01*
X85589000Y-80709000D01*
X86491000Y-80709000D01*
X86491000Y-82611000D01*
G37*
G36*
X84591000Y-82611000D02*
G01*
X83689000Y-82611000D01*
X83689000Y-80709000D01*
X84591000Y-80709000D01*
X84591000Y-82611000D01*
G37*
G36*
X115386000Y-82312000D02*
G01*
X114484000Y-82312000D01*
X114484000Y-81010000D01*
X115386000Y-81010000D01*
X115386000Y-82312000D01*
G37*
G36*
X113481000Y-82312000D02*
G01*
X112579000Y-82312000D01*
X112579000Y-81010000D01*
X113481000Y-81010000D01*
X113481000Y-82312000D01*
G37*
G36*
X111576000Y-82312000D02*
G01*
X110674000Y-82312000D01*
X110674000Y-81010000D01*
X111576000Y-81010000D01*
X111576000Y-82312000D01*
G37*
G36*
X128721000Y-82312000D02*
G01*
X127819000Y-82312000D01*
X127819000Y-81010000D01*
X128721000Y-81010000D01*
X128721000Y-82312000D01*
G37*
G36*
X117291000Y-82312000D02*
G01*
X116389000Y-82312000D01*
X116389000Y-81010000D01*
X117291000Y-81010000D01*
X117291000Y-82312000D01*
G37*
G36*
X130626000Y-82312000D02*
G01*
X129724000Y-82312000D01*
X129724000Y-81010000D01*
X130626000Y-81010000D01*
X130626000Y-82312000D01*
G37*
G36*
X124911000Y-82312000D02*
G01*
X124009000Y-82312000D01*
X124009000Y-81010000D01*
X124911000Y-81010000D01*
X124911000Y-82312000D01*
G37*
G36*
X126816000Y-82312000D02*
G01*
X125914000Y-82312000D01*
X125914000Y-81010000D01*
X126816000Y-81010000D01*
X126816000Y-82312000D01*
G37*
G36*
X120031000Y-82069000D02*
G01*
X118729000Y-82069000D01*
X118729000Y-81067000D01*
X120031000Y-81067000D01*
X120031000Y-82069000D01*
G37*
G36*
X107077000Y-81731000D02*
G01*
X105775000Y-81731000D01*
X105775000Y-80829000D01*
X107077000Y-80829000D01*
X107077000Y-81731000D01*
G37*
G36*
X105045000Y-81731000D02*
G01*
X103743000Y-81731000D01*
X103743000Y-80829000D01*
X105045000Y-80829000D01*
X105045000Y-81731000D01*
G37*
G36*
X137557000Y-81731000D02*
G01*
X136255000Y-81731000D01*
X136255000Y-80829000D01*
X137557000Y-80829000D01*
X137557000Y-81731000D01*
G37*
G36*
X135525000Y-81731000D02*
G01*
X134223000Y-81731000D01*
X134223000Y-80829000D01*
X135525000Y-80829000D01*
X135525000Y-81731000D01*
G37*
G36*
X88081000Y-81677000D02*
G01*
X87179000Y-81677000D01*
X87179000Y-80375000D01*
X88081000Y-80375000D01*
X88081000Y-81677000D01*
G37*
G36*
X53191015Y-80230973D02*
G01*
X53294879Y-80262479D01*
X53322055Y-80277005D01*
X53390600Y-80313643D01*
X53474501Y-80382499D01*
X53543357Y-80466400D01*
X53579995Y-80534945D01*
X53594521Y-80562121D01*
X53626027Y-80665985D01*
X53636666Y-80774000D01*
X53626027Y-80882015D01*
X53594521Y-80985879D01*
X53594519Y-80985882D01*
X53543357Y-81081600D01*
X53474501Y-81165501D01*
X53390600Y-81234357D01*
X53322055Y-81270995D01*
X53294879Y-81285521D01*
X53191015Y-81317027D01*
X53110067Y-81325000D01*
X51955933Y-81325000D01*
X51874985Y-81317027D01*
X51771121Y-81285521D01*
X51743945Y-81270995D01*
X51675400Y-81234357D01*
X51591499Y-81165501D01*
X51522643Y-81081600D01*
X51471481Y-80985882D01*
X51471479Y-80985879D01*
X51439973Y-80882015D01*
X51429334Y-80774000D01*
X51439973Y-80665985D01*
X51471479Y-80562121D01*
X51486005Y-80534945D01*
X51522643Y-80466400D01*
X51591499Y-80382499D01*
X51675400Y-80313643D01*
X51743945Y-80277005D01*
X51771121Y-80262479D01*
X51874985Y-80230973D01*
X51955933Y-80223000D01*
X53110067Y-80223000D01*
X53191015Y-80230973D01*
G37*
G36*
X48761015Y-80230973D02*
G01*
X48864879Y-80262479D01*
X48892055Y-80277005D01*
X48960600Y-80313643D01*
X49044501Y-80382499D01*
X49113357Y-80466400D01*
X49149995Y-80534945D01*
X49164521Y-80562121D01*
X49196027Y-80665985D01*
X49206666Y-80774000D01*
X49196027Y-80882015D01*
X49164521Y-80985879D01*
X49164519Y-80985882D01*
X49113357Y-81081600D01*
X49044501Y-81165501D01*
X48960600Y-81234357D01*
X48892055Y-81270995D01*
X48864879Y-81285521D01*
X48761015Y-81317027D01*
X48680067Y-81325000D01*
X48025933Y-81325000D01*
X47944985Y-81317027D01*
X47841121Y-81285521D01*
X47813945Y-81270995D01*
X47745400Y-81234357D01*
X47661499Y-81165501D01*
X47592643Y-81081600D01*
X47541481Y-80985882D01*
X47541479Y-80985879D01*
X47509973Y-80882015D01*
X47499334Y-80774000D01*
X47509973Y-80665985D01*
X47541479Y-80562121D01*
X47556005Y-80534945D01*
X47592643Y-80466400D01*
X47661499Y-80382499D01*
X47745400Y-80313643D01*
X47813945Y-80277005D01*
X47841121Y-80262479D01*
X47944985Y-80230973D01*
X48025933Y-80223000D01*
X48680067Y-80223000D01*
X48761015Y-80230973D01*
G37*
G36*
X59511611Y-78797389D02*
G01*
X59530553Y-78812934D01*
X59552164Y-78824485D01*
X59575613Y-78831598D01*
X59599999Y-78834000D01*
X60625000Y-78834000D01*
X60625000Y-81186000D01*
X59599999Y-81186000D01*
X59575613Y-81188402D01*
X59552164Y-81195515D01*
X59530553Y-81207066D01*
X59511611Y-81222611D01*
X59500623Y-81236000D01*
X57847377Y-81236000D01*
X57836389Y-81222611D01*
X57817447Y-81207066D01*
X57795836Y-81195515D01*
X57772387Y-81188402D01*
X57748001Y-81186000D01*
X56723000Y-81186000D01*
X56723000Y-78834000D01*
X57748001Y-78834000D01*
X57772387Y-78831598D01*
X57795836Y-78824485D01*
X57817447Y-78812934D01*
X57836389Y-78797389D01*
X57847377Y-78784000D01*
X59500623Y-78784000D01*
X59511611Y-78797389D01*
G37*
G36*
X115386000Y-80280000D02*
G01*
X114484000Y-80280000D01*
X114484000Y-78978000D01*
X115386000Y-78978000D01*
X115386000Y-80280000D01*
G37*
G36*
X113481000Y-80280000D02*
G01*
X112579000Y-80280000D01*
X112579000Y-78978000D01*
X113481000Y-78978000D01*
X113481000Y-80280000D01*
G37*
G36*
X117291000Y-80280000D02*
G01*
X116389000Y-80280000D01*
X116389000Y-78978000D01*
X117291000Y-78978000D01*
X117291000Y-80280000D01*
G37*
G36*
X124911000Y-80280000D02*
G01*
X124009000Y-80280000D01*
X124009000Y-78978000D01*
X124911000Y-78978000D01*
X124911000Y-80280000D01*
G37*
G36*
X111576000Y-80280000D02*
G01*
X110674000Y-80280000D01*
X110674000Y-78978000D01*
X111576000Y-78978000D01*
X111576000Y-80280000D01*
G37*
G36*
X128721000Y-80280000D02*
G01*
X127819000Y-80280000D01*
X127819000Y-78978000D01*
X128721000Y-78978000D01*
X128721000Y-80280000D01*
G37*
G36*
X130626000Y-80280000D02*
G01*
X129724000Y-80280000D01*
X129724000Y-78978000D01*
X130626000Y-78978000D01*
X130626000Y-80280000D01*
G37*
G36*
X126816000Y-80280000D02*
G01*
X125914000Y-80280000D01*
X125914000Y-78978000D01*
X126816000Y-78978000D01*
X126816000Y-80280000D01*
G37*
G36*
X73352000Y-80176000D02*
G01*
X69650000Y-80176000D01*
X69650000Y-78574000D01*
X73352000Y-78574000D01*
X73352000Y-80176000D01*
G37*
G36*
X120031000Y-79969000D02*
G01*
X118729000Y-79969000D01*
X118729000Y-78967000D01*
X120031000Y-78967000D01*
X120031000Y-79969000D01*
G37*
G36*
X105045000Y-79826000D02*
G01*
X103743000Y-79826000D01*
X103743000Y-78924000D01*
X105045000Y-78924000D01*
X105045000Y-79826000D01*
G37*
G36*
X135525000Y-79826000D02*
G01*
X134223000Y-79826000D01*
X134223000Y-78924000D01*
X135525000Y-78924000D01*
X135525000Y-79826000D01*
G37*
G36*
X137557000Y-79826000D02*
G01*
X136255000Y-79826000D01*
X136255000Y-78924000D01*
X137557000Y-78924000D01*
X137557000Y-79826000D01*
G37*
G36*
X107077000Y-79826000D02*
G01*
X105775000Y-79826000D01*
X105775000Y-78924000D01*
X107077000Y-78924000D01*
X107077000Y-79826000D01*
G37*
G36*
X52112672Y-78982449D02*
G01*
X52112674Y-78982450D01*
X52112675Y-78982450D01*
X52181103Y-79010793D01*
X52242686Y-79051942D01*
X52295058Y-79104314D01*
X52336207Y-79165897D01*
X52364550Y-79234325D01*
X52379000Y-79306967D01*
X52379000Y-79381033D01*
X52364550Y-79453675D01*
X52336207Y-79522103D01*
X52295058Y-79583686D01*
X52242686Y-79636058D01*
X52181103Y-79677207D01*
X52112675Y-79705550D01*
X52112674Y-79705550D01*
X52112672Y-79705551D01*
X52040034Y-79720000D01*
X51965966Y-79720000D01*
X51893328Y-79705551D01*
X51893326Y-79705550D01*
X51893325Y-79705550D01*
X51824897Y-79677207D01*
X51763314Y-79636058D01*
X51710942Y-79583686D01*
X51669793Y-79522103D01*
X51641450Y-79453675D01*
X51627000Y-79381033D01*
X51627000Y-79306967D01*
X51641450Y-79234325D01*
X51669793Y-79165897D01*
X51710942Y-79104314D01*
X51763314Y-79051942D01*
X51824897Y-79010793D01*
X51893325Y-78982450D01*
X51893326Y-78982450D01*
X51893328Y-78982449D01*
X51965966Y-78968000D01*
X52040034Y-78968000D01*
X52112672Y-78982449D01*
G37*
G36*
X88081000Y-79645000D02*
G01*
X87179000Y-79645000D01*
X87179000Y-78343000D01*
X88081000Y-78343000D01*
X88081000Y-79645000D01*
G37*
G36*
X85541000Y-79311000D02*
G01*
X84639000Y-79311000D01*
X84639000Y-77409000D01*
X85541000Y-77409000D01*
X85541000Y-79311000D01*
G37*
G36*
X92472104Y-77214585D02*
G01*
X92640626Y-77284389D01*
X92792291Y-77385728D01*
X92921272Y-77514709D01*
X93022611Y-77666374D01*
X93092415Y-77834896D01*
X93128000Y-78013797D01*
X93128000Y-78196203D01*
X93092415Y-78375104D01*
X93022611Y-78543626D01*
X92921272Y-78695291D01*
X92792291Y-78824272D01*
X92640626Y-78925611D01*
X92472104Y-78995415D01*
X92293203Y-79031000D01*
X92110797Y-79031000D01*
X91931896Y-78995415D01*
X91763374Y-78925611D01*
X91611709Y-78824272D01*
X91482728Y-78695291D01*
X91381389Y-78543626D01*
X91311585Y-78375104D01*
X91276000Y-78196203D01*
X91276000Y-78013797D01*
X91311585Y-77834896D01*
X91381389Y-77666374D01*
X91482728Y-77514709D01*
X91611709Y-77385728D01*
X91763374Y-77284389D01*
X91931896Y-77214585D01*
X92110797Y-77179000D01*
X92293203Y-77179000D01*
X92472104Y-77214585D01*
G37*
G36*
X50435000Y-78810000D02*
G01*
X49133000Y-78810000D01*
X49133000Y-77908000D01*
X50435000Y-77908000D01*
X50435000Y-78810000D01*
G37*
G36*
X48403000Y-78810000D02*
G01*
X47101000Y-78810000D01*
X47101000Y-77908000D01*
X48403000Y-77908000D01*
X48403000Y-78810000D01*
G37*
G36*
X89926795Y-75775156D02*
G01*
X90033150Y-75796311D01*
X90133334Y-75837809D01*
X90233520Y-75879307D01*
X90413844Y-75999795D01*
X90567205Y-76153156D01*
X90687693Y-76333480D01*
X90687693Y-76333481D01*
X90770689Y-76533850D01*
X90813000Y-76746561D01*
X90813000Y-76963439D01*
X90770689Y-77176150D01*
X90754768Y-77214586D01*
X90687693Y-77376520D01*
X90567205Y-77556844D01*
X90413844Y-77710205D01*
X90233520Y-77830693D01*
X90033150Y-77913689D01*
X89926794Y-77934845D01*
X89820440Y-77956000D01*
X89603560Y-77956000D01*
X89497206Y-77934845D01*
X89390850Y-77913689D01*
X89190480Y-77830693D01*
X89010156Y-77710205D01*
X88856795Y-77556844D01*
X88736307Y-77376520D01*
X88669232Y-77214586D01*
X88653311Y-77176150D01*
X88611000Y-76963439D01*
X88611000Y-76746561D01*
X88653311Y-76533850D01*
X88736307Y-76333481D01*
X88736307Y-76333480D01*
X88856795Y-76153156D01*
X89010156Y-75999795D01*
X89190480Y-75879307D01*
X89290666Y-75837809D01*
X89390850Y-75796311D01*
X89497205Y-75775156D01*
X89603560Y-75754000D01*
X89820440Y-75754000D01*
X89926795Y-75775156D01*
G37*
G36*
X48403000Y-76905000D02*
G01*
X47101000Y-76905000D01*
X47101000Y-76003000D01*
X48403000Y-76003000D01*
X48403000Y-76905000D01*
G37*
G36*
X50435000Y-76905000D02*
G01*
X49133000Y-76905000D01*
X49133000Y-76003000D01*
X50435000Y-76003000D01*
X50435000Y-76905000D01*
G37*
G36*
X85176000Y-76851000D02*
G01*
X84174000Y-76851000D01*
X84174000Y-75549000D01*
X85176000Y-75549000D01*
X85176000Y-76851000D01*
G37*
G36*
X87276000Y-76851000D02*
G01*
X86274000Y-76851000D01*
X86274000Y-75549000D01*
X87276000Y-75549000D01*
X87276000Y-76851000D01*
G37*
G36*
X141363000Y-76339000D02*
G01*
X139561000Y-76339000D01*
X139561000Y-74537000D01*
X141363000Y-74537000D01*
X141363000Y-76339000D01*
G37*
G36*
X50573000Y-75073000D02*
G01*
X49571000Y-75073000D01*
X49571000Y-73771000D01*
X50573000Y-73771000D01*
X50573000Y-75073000D01*
G37*
G36*
X48473000Y-75073000D02*
G01*
X47471000Y-75073000D01*
X47471000Y-73771000D01*
X48473000Y-73771000D01*
X48473000Y-75073000D01*
G37*
G36*
X126467368Y-70611536D02*
G01*
X126006334Y-71072570D01*
X125901682Y-71177221D01*
X125440648Y-71638255D01*
X125335997Y-71742907D01*
X123177907Y-73900997D01*
X123073255Y-74005648D01*
X122612221Y-74466682D01*
X122507570Y-74571334D01*
X122046536Y-75032368D01*
X120843040Y-73828872D01*
X121304074Y-73367838D01*
X121304075Y-73367839D01*
X121320339Y-73351575D01*
X121320348Y-73351564D01*
X121408726Y-73263187D01*
X121408725Y-73263186D01*
X121869759Y-72802152D01*
X121869760Y-72802153D01*
X121958137Y-72713775D01*
X121958148Y-72713766D01*
X121974412Y-72697502D01*
X121974411Y-72697501D01*
X122435445Y-72236467D01*
X122435446Y-72236468D01*
X122523833Y-72148080D01*
X122540097Y-72131817D01*
X122540096Y-72131816D01*
X123001130Y-71670782D01*
X123001131Y-71670783D01*
X123105783Y-71566131D01*
X123105782Y-71566130D01*
X123566816Y-71105096D01*
X123566817Y-71105097D01*
X123655204Y-71016709D01*
X123671468Y-71000446D01*
X123671467Y-71000445D01*
X124132501Y-70539411D01*
X124132502Y-70539412D01*
X124148766Y-70523148D01*
X124148775Y-70523137D01*
X124237153Y-70434760D01*
X124237152Y-70434759D01*
X124698186Y-69973725D01*
X124698187Y-69973726D01*
X124786564Y-69885348D01*
X124786575Y-69885339D01*
X124802839Y-69869075D01*
X124802838Y-69869074D01*
X125263872Y-69408040D01*
X126467368Y-70611536D01*
G37*
G36*
X116497162Y-69869074D02*
G01*
X116497162Y-69869075D01*
X116513426Y-69885339D01*
X116513432Y-69885344D01*
X116601814Y-69973726D01*
X116601814Y-69973725D01*
X117062848Y-70434759D01*
X117062848Y-70434760D01*
X117151230Y-70523142D01*
X117151235Y-70523148D01*
X117167499Y-70539412D01*
X117167499Y-70539411D01*
X117628533Y-71000445D01*
X117628533Y-71000446D01*
X117733184Y-71105097D01*
X117733184Y-71105096D01*
X118194218Y-71566130D01*
X118194218Y-71566131D01*
X118298870Y-71670783D01*
X118298870Y-71670782D01*
X118759904Y-72131816D01*
X118759904Y-72131817D01*
X118864555Y-72236468D01*
X118864555Y-72236467D01*
X119325589Y-72697501D01*
X119325589Y-72697502D01*
X119341853Y-72713766D01*
X119341859Y-72713771D01*
X119430241Y-72802153D01*
X119430241Y-72802152D01*
X119891275Y-73263186D01*
X119891275Y-73263187D01*
X119979657Y-73351569D01*
X119979662Y-73351575D01*
X119995926Y-73367839D01*
X119995926Y-73367838D01*
X120456960Y-73828872D01*
X119253464Y-75032368D01*
X118792430Y-74571334D01*
X118792431Y-74571334D01*
X118704049Y-74482952D01*
X118704044Y-74482946D01*
X118687780Y-74466682D01*
X118687779Y-74466682D01*
X118226745Y-74005648D01*
X118226746Y-74005648D01*
X118210482Y-73989384D01*
X118210476Y-73989379D01*
X118122094Y-73900997D01*
X118122093Y-73900997D01*
X117661059Y-73439963D01*
X117661060Y-73439963D01*
X117556409Y-73335312D01*
X117556408Y-73335312D01*
X117095374Y-72874278D01*
X117095375Y-72874278D01*
X116990723Y-72769626D01*
X116990722Y-72769626D01*
X116529688Y-72308592D01*
X116529689Y-72308592D01*
X116425038Y-72203941D01*
X116425037Y-72203941D01*
X115964003Y-71742907D01*
X115964004Y-71742907D01*
X115875622Y-71654525D01*
X115875617Y-71654519D01*
X115859353Y-71638255D01*
X115859352Y-71638255D01*
X115398318Y-71177221D01*
X115398319Y-71177221D01*
X115382055Y-71160957D01*
X115382049Y-71160952D01*
X115293667Y-71072570D01*
X115293666Y-71072570D01*
X114832632Y-70611536D01*
X116036128Y-69408040D01*
X116497162Y-69869074D01*
G37*
G36*
X103775000Y-74746000D02*
G01*
X102473000Y-74746000D01*
X102473000Y-73844000D01*
X103775000Y-73844000D01*
X103775000Y-74746000D01*
G37*
G36*
X105807000Y-74746000D02*
G01*
X104505000Y-74746000D01*
X104505000Y-73844000D01*
X105807000Y-73844000D01*
X105807000Y-74746000D01*
G37*
G36*
X52112672Y-73202449D02*
G01*
X52112674Y-73202450D01*
X52112675Y-73202450D01*
X52181103Y-73230793D01*
X52242686Y-73271942D01*
X52295058Y-73324314D01*
X52336207Y-73385897D01*
X52346232Y-73410101D01*
X52364551Y-73454328D01*
X52379000Y-73526966D01*
X52379000Y-73601034D01*
X52367967Y-73656501D01*
X52364550Y-73673675D01*
X52336207Y-73742103D01*
X52295058Y-73803686D01*
X52242686Y-73856058D01*
X52181103Y-73897207D01*
X52112675Y-73925550D01*
X52112674Y-73925550D01*
X52112672Y-73925551D01*
X52040034Y-73940000D01*
X51965966Y-73940000D01*
X51893328Y-73925551D01*
X51893326Y-73925550D01*
X51893325Y-73925550D01*
X51824897Y-73897207D01*
X51763314Y-73856058D01*
X51710942Y-73803686D01*
X51669793Y-73742103D01*
X51641450Y-73673675D01*
X51638034Y-73656501D01*
X51627000Y-73601034D01*
X51627000Y-73526966D01*
X51641449Y-73454328D01*
X51659768Y-73410101D01*
X51669793Y-73385897D01*
X51710942Y-73324314D01*
X51763314Y-73271942D01*
X51824897Y-73230793D01*
X51893325Y-73202450D01*
X51893326Y-73202450D01*
X51893328Y-73202449D01*
X51965966Y-73188000D01*
X52040034Y-73188000D01*
X52112672Y-73202449D01*
G37*
G36*
X90367142Y-72243242D02*
G01*
X90515101Y-72304529D01*
X90648255Y-72393499D01*
X90761501Y-72506745D01*
X90850471Y-72639899D01*
X90911758Y-72787858D01*
X90943000Y-72944925D01*
X90943000Y-73105075D01*
X90911758Y-73262142D01*
X90850471Y-73410101D01*
X90761501Y-73543255D01*
X90648255Y-73656501D01*
X90515101Y-73745471D01*
X90367142Y-73806758D01*
X90210075Y-73838000D01*
X90049925Y-73838000D01*
X89892858Y-73806758D01*
X89744899Y-73745471D01*
X89611745Y-73656501D01*
X89498499Y-73543255D01*
X89409529Y-73410101D01*
X89348242Y-73262142D01*
X89317000Y-73105075D01*
X89317000Y-72944925D01*
X89348242Y-72787858D01*
X89409529Y-72639899D01*
X89498499Y-72506745D01*
X89611745Y-72393499D01*
X89744899Y-72304529D01*
X89892858Y-72243242D01*
X90049925Y-72212000D01*
X90210075Y-72212000D01*
X90367142Y-72243242D01*
G37*
G36*
X140575512Y-72001927D02*
G01*
X140724812Y-72031624D01*
X140888784Y-72099544D01*
X141036354Y-72198147D01*
X141161853Y-72323646D01*
X141260456Y-72471216D01*
X141328376Y-72635188D01*
X141355117Y-72769626D01*
X141361587Y-72802152D01*
X141363000Y-72809259D01*
X141363000Y-72986741D01*
X141328376Y-73160812D01*
X141260456Y-73324784D01*
X141161853Y-73472354D01*
X141036354Y-73597853D01*
X140888784Y-73696456D01*
X140724812Y-73764376D01*
X140575512Y-73794073D01*
X140550742Y-73799000D01*
X140373258Y-73799000D01*
X140348488Y-73794073D01*
X140199188Y-73764376D01*
X140035216Y-73696456D01*
X139887646Y-73597853D01*
X139762147Y-73472354D01*
X139663544Y-73324784D01*
X139595624Y-73160812D01*
X139561000Y-72986741D01*
X139561000Y-72809259D01*
X139562414Y-72802152D01*
X139568883Y-72769626D01*
X139595624Y-72635188D01*
X139663544Y-72471216D01*
X139762147Y-72323646D01*
X139887646Y-72198147D01*
X140035216Y-72099544D01*
X140199188Y-72031624D01*
X140348488Y-72001927D01*
X140373258Y-71997000D01*
X140550742Y-71997000D01*
X140575512Y-72001927D01*
G37*
G36*
X138237000Y-73549000D02*
G01*
X137235000Y-73549000D01*
X137235000Y-72247000D01*
X138237000Y-72247000D01*
X138237000Y-73549000D01*
G37*
G36*
X136137000Y-73549000D02*
G01*
X135135000Y-73549000D01*
X135135000Y-72247000D01*
X136137000Y-72247000D01*
X136137000Y-73549000D01*
G37*
G36*
X132223000Y-73349000D02*
G01*
X130921000Y-73349000D01*
X130921000Y-72447000D01*
X132223000Y-72447000D01*
X132223000Y-73349000D01*
G37*
G36*
X134255000Y-73349000D02*
G01*
X132953000Y-73349000D01*
X132953000Y-72447000D01*
X134255000Y-72447000D01*
X134255000Y-73349000D01*
G37*
G36*
X77497000Y-73041000D02*
G01*
X76495000Y-73041000D01*
X76495000Y-71739000D01*
X77497000Y-71739000D01*
X77497000Y-73041000D01*
G37*
G36*
X75397000Y-73041000D02*
G01*
X74395000Y-73041000D01*
X74395000Y-71739000D01*
X75397000Y-71739000D01*
X75397000Y-73041000D01*
G37*
G36*
X48761015Y-71590973D02*
G01*
X48864879Y-71622479D01*
X48892055Y-71637005D01*
X48960600Y-71673643D01*
X49044501Y-71742499D01*
X49113357Y-71826400D01*
X49149995Y-71894945D01*
X49164521Y-71922121D01*
X49196027Y-72025985D01*
X49206666Y-72134000D01*
X49196027Y-72242015D01*
X49164521Y-72345879D01*
X49164519Y-72345882D01*
X49113357Y-72441600D01*
X49044501Y-72525501D01*
X48960600Y-72594357D01*
X48892055Y-72630995D01*
X48864879Y-72645521D01*
X48761015Y-72677027D01*
X48680067Y-72685000D01*
X48025933Y-72685000D01*
X47944985Y-72677027D01*
X47841121Y-72645521D01*
X47813945Y-72630995D01*
X47745400Y-72594357D01*
X47661499Y-72525501D01*
X47592643Y-72441600D01*
X47541481Y-72345882D01*
X47541479Y-72345879D01*
X47509973Y-72242015D01*
X47499334Y-72134000D01*
X47509973Y-72025985D01*
X47541479Y-71922121D01*
X47556005Y-71894945D01*
X47592643Y-71826400D01*
X47661499Y-71742499D01*
X47745400Y-71673643D01*
X47813945Y-71637005D01*
X47841121Y-71622479D01*
X47944985Y-71590973D01*
X48025933Y-71583000D01*
X48680067Y-71583000D01*
X48761015Y-71590973D01*
G37*
G36*
X53191015Y-71590973D02*
G01*
X53294879Y-71622479D01*
X53322055Y-71637005D01*
X53390600Y-71673643D01*
X53474501Y-71742499D01*
X53543357Y-71826400D01*
X53579995Y-71894945D01*
X53594521Y-71922121D01*
X53626027Y-72025985D01*
X53636666Y-72134000D01*
X53626027Y-72242015D01*
X53594521Y-72345879D01*
X53594519Y-72345882D01*
X53543357Y-72441600D01*
X53474501Y-72525501D01*
X53390600Y-72594357D01*
X53322055Y-72630995D01*
X53294879Y-72645521D01*
X53191015Y-72677027D01*
X53110067Y-72685000D01*
X51955933Y-72685000D01*
X51874985Y-72677027D01*
X51771121Y-72645521D01*
X51743945Y-72630995D01*
X51675400Y-72594357D01*
X51591499Y-72525501D01*
X51522643Y-72441600D01*
X51471481Y-72345882D01*
X51471479Y-72345879D01*
X51439973Y-72242015D01*
X51429334Y-72134000D01*
X51439973Y-72025985D01*
X51471479Y-71922121D01*
X51486005Y-71894945D01*
X51522643Y-71826400D01*
X51591499Y-71742499D01*
X51675400Y-71673643D01*
X51743945Y-71637005D01*
X51771121Y-71622479D01*
X51874985Y-71590973D01*
X51955933Y-71583000D01*
X53110067Y-71583000D01*
X53191015Y-71590973D01*
G37*
G36*
X140575512Y-69461927D02*
G01*
X140724812Y-69491624D01*
X140888784Y-69559544D01*
X141036354Y-69658147D01*
X141161853Y-69783646D01*
X141260456Y-69931216D01*
X141328376Y-70095188D01*
X141363000Y-70269259D01*
X141363000Y-70446741D01*
X141328376Y-70620812D01*
X141260456Y-70784784D01*
X141161853Y-70932354D01*
X141036354Y-71057853D01*
X140888784Y-71156456D01*
X140724812Y-71224376D01*
X140575512Y-71254073D01*
X140550742Y-71259000D01*
X140373258Y-71259000D01*
X140348488Y-71254073D01*
X140199188Y-71224376D01*
X140035216Y-71156456D01*
X139887646Y-71057853D01*
X139762147Y-70932354D01*
X139663544Y-70784784D01*
X139595624Y-70620812D01*
X139561000Y-70446741D01*
X139561000Y-70269259D01*
X139595624Y-70095188D01*
X139663544Y-69931216D01*
X139762147Y-69783646D01*
X139887646Y-69658147D01*
X140035216Y-69559544D01*
X140199188Y-69491624D01*
X140348488Y-69461927D01*
X140373258Y-69457000D01*
X140550742Y-69457000D01*
X140575512Y-69461927D01*
G37*
G36*
X55231512Y-68445927D02*
G01*
X55380812Y-68475624D01*
X55544784Y-68543544D01*
X55692354Y-68642147D01*
X55817853Y-68767646D01*
X55916456Y-68915216D01*
X55984376Y-69079188D01*
X56019000Y-69253259D01*
X56019000Y-69430741D01*
X55984376Y-69604812D01*
X55916456Y-69768784D01*
X55817853Y-69916354D01*
X55692354Y-70041853D01*
X55544784Y-70140456D01*
X55380812Y-70208376D01*
X55231512Y-70238073D01*
X55206742Y-70243000D01*
X55029258Y-70243000D01*
X55004488Y-70238073D01*
X54855188Y-70208376D01*
X54691216Y-70140456D01*
X54543646Y-70041853D01*
X54418147Y-69916354D01*
X54319544Y-69768784D01*
X54251624Y-69604812D01*
X54217000Y-69430741D01*
X54217000Y-69253259D01*
X54251624Y-69079188D01*
X54319544Y-68915216D01*
X54418147Y-68767646D01*
X54543646Y-68642147D01*
X54691216Y-68543544D01*
X54855188Y-68475624D01*
X55004488Y-68445927D01*
X55029258Y-68441000D01*
X55206742Y-68441000D01*
X55231512Y-68445927D01*
G37*
G36*
X51197000Y-69793000D02*
G01*
X49895000Y-69793000D01*
X49895000Y-68891000D01*
X51197000Y-68891000D01*
X51197000Y-69793000D01*
G37*
G36*
X49165000Y-69793000D02*
G01*
X47863000Y-69793000D01*
X47863000Y-68891000D01*
X49165000Y-68891000D01*
X49165000Y-69793000D01*
G37*
G36*
X103775000Y-69031000D02*
G01*
X102473000Y-69031000D01*
X102473000Y-68129000D01*
X103775000Y-68129000D01*
X103775000Y-69031000D01*
G37*
G36*
X105807000Y-69031000D02*
G01*
X104505000Y-69031000D01*
X104505000Y-68129000D01*
X105807000Y-68129000D01*
X105807000Y-69031000D01*
G37*
G36*
X122507570Y-63858666D02*
G01*
X122507570Y-63858667D01*
X122595952Y-63947049D01*
X122595957Y-63947055D01*
X122612221Y-63963319D01*
X122612221Y-63963318D01*
X123073255Y-64424352D01*
X123073255Y-64424353D01*
X123089519Y-64440617D01*
X123089525Y-64440622D01*
X123177907Y-64529004D01*
X123177907Y-64529003D01*
X123638941Y-64990037D01*
X123638941Y-64990038D01*
X123743592Y-65094689D01*
X123743592Y-65094688D01*
X124204626Y-65555722D01*
X124204626Y-65555723D01*
X124309278Y-65660375D01*
X124309278Y-65660374D01*
X124770312Y-66121408D01*
X124770312Y-66121409D01*
X124874963Y-66226060D01*
X124874963Y-66226059D01*
X125335997Y-66687093D01*
X125335997Y-66687094D01*
X125424379Y-66775476D01*
X125424384Y-66775482D01*
X125440648Y-66791746D01*
X125440648Y-66791745D01*
X125901682Y-67252779D01*
X125901682Y-67252780D01*
X125917946Y-67269044D01*
X125917952Y-67269049D01*
X126006334Y-67357431D01*
X126006334Y-67357430D01*
X126467368Y-67818464D01*
X125263872Y-69021960D01*
X124802838Y-68560926D01*
X124802839Y-68560926D01*
X124786575Y-68544662D01*
X124786569Y-68544657D01*
X124698187Y-68456275D01*
X124698186Y-68456275D01*
X124237152Y-67995241D01*
X124237153Y-67995241D01*
X124148771Y-67906859D01*
X124148766Y-67906853D01*
X124132502Y-67890589D01*
X124132501Y-67890589D01*
X123671467Y-67429555D01*
X123671468Y-67429555D01*
X123566817Y-67324904D01*
X123566816Y-67324904D01*
X123105782Y-66863870D01*
X123105783Y-66863870D01*
X123001131Y-66759218D01*
X123001130Y-66759218D01*
X122540096Y-66298184D01*
X122540097Y-66298184D01*
X122435446Y-66193533D01*
X122435445Y-66193533D01*
X121974411Y-65732499D01*
X121974412Y-65732499D01*
X121958148Y-65716235D01*
X121958142Y-65716230D01*
X121869760Y-65627848D01*
X121869759Y-65627848D01*
X121408725Y-65166814D01*
X121408726Y-65166814D01*
X121320344Y-65078432D01*
X121320339Y-65078426D01*
X121304075Y-65062162D01*
X121304074Y-65062162D01*
X120843040Y-64601128D01*
X122046536Y-63397632D01*
X122507570Y-63858666D01*
G37*
G36*
X120456960Y-64601128D02*
G01*
X119979662Y-65078426D01*
X119891275Y-65166814D01*
X119430241Y-65627848D01*
X119341853Y-65716235D01*
X118864555Y-66193533D01*
X118776167Y-66281920D01*
X118759904Y-66298184D01*
X117733184Y-67324904D01*
X117644796Y-67413291D01*
X117628533Y-67429555D01*
X117151235Y-67906853D01*
X117062848Y-67995241D01*
X116601814Y-68456275D01*
X116513426Y-68544662D01*
X116036128Y-69021960D01*
X114832632Y-67818464D01*
X115293666Y-67357430D01*
X115293667Y-67357431D01*
X115382044Y-67269053D01*
X115382055Y-67269044D01*
X115398319Y-67252780D01*
X115398318Y-67252779D01*
X115859352Y-66791745D01*
X115859353Y-66791746D01*
X115875617Y-66775482D01*
X115875626Y-66775471D01*
X115964004Y-66687094D01*
X115964003Y-66687093D01*
X116425037Y-66226059D01*
X116425038Y-66226060D01*
X116529689Y-66121409D01*
X116529688Y-66121408D01*
X116990722Y-65660374D01*
X116990723Y-65660375D01*
X117095375Y-65555723D01*
X117095374Y-65555722D01*
X117556408Y-65094688D01*
X117556409Y-65094689D01*
X117661060Y-64990038D01*
X117661059Y-64990037D01*
X118122093Y-64529003D01*
X118122094Y-64529004D01*
X118210471Y-64440626D01*
X118210482Y-64440617D01*
X118226746Y-64424353D01*
X118226745Y-64424352D01*
X118687779Y-63963318D01*
X118687780Y-63963319D01*
X118704044Y-63947055D01*
X118704053Y-63947044D01*
X118792431Y-63858667D01*
X118792430Y-63858666D01*
X119253464Y-63397632D01*
X120456960Y-64601128D01*
G37*
G36*
X90367142Y-67163242D02*
G01*
X90515101Y-67224529D01*
X90648255Y-67313499D01*
X90761501Y-67426745D01*
X90850471Y-67559899D01*
X90911758Y-67707858D01*
X90943000Y-67864925D01*
X90943000Y-68025075D01*
X90911758Y-68182142D01*
X90850471Y-68330101D01*
X90761501Y-68463255D01*
X90648255Y-68576501D01*
X90515101Y-68665471D01*
X90367142Y-68726758D01*
X90210075Y-68758000D01*
X90049925Y-68758000D01*
X89892858Y-68726758D01*
X89744899Y-68665471D01*
X89611745Y-68576501D01*
X89498499Y-68463255D01*
X89409529Y-68330101D01*
X89348242Y-68182142D01*
X89317000Y-68025075D01*
X89317000Y-67864925D01*
X89348242Y-67707858D01*
X89409529Y-67559899D01*
X89498499Y-67426745D01*
X89611745Y-67313499D01*
X89744899Y-67224529D01*
X89892858Y-67163242D01*
X90049925Y-67132000D01*
X90210075Y-67132000D01*
X90367142Y-67163242D01*
G37*
G36*
X140575512Y-66921927D02*
G01*
X140724812Y-66951624D01*
X140888784Y-67019544D01*
X141036354Y-67118147D01*
X141161853Y-67243646D01*
X141260456Y-67391216D01*
X141328376Y-67555188D01*
X141363000Y-67729259D01*
X141363000Y-67906741D01*
X141328376Y-68080812D01*
X141260456Y-68244784D01*
X141161853Y-68392354D01*
X141036354Y-68517853D01*
X140888784Y-68616456D01*
X140724812Y-68684376D01*
X140575512Y-68714073D01*
X140550742Y-68719000D01*
X140373258Y-68719000D01*
X140348488Y-68714073D01*
X140199188Y-68684376D01*
X140035216Y-68616456D01*
X139887646Y-68517853D01*
X139762147Y-68392354D01*
X139663544Y-68244784D01*
X139595624Y-68080812D01*
X139561000Y-67906741D01*
X139561000Y-67729259D01*
X139595624Y-67555188D01*
X139663544Y-67391216D01*
X139762147Y-67243646D01*
X139887646Y-67118147D01*
X140035216Y-67019544D01*
X140199188Y-66951624D01*
X140348488Y-66921927D01*
X140373258Y-66917000D01*
X140550742Y-66917000D01*
X140575512Y-66921927D01*
G37*
G36*
X49165000Y-68269000D02*
G01*
X47863000Y-68269000D01*
X47863000Y-67367000D01*
X49165000Y-67367000D01*
X49165000Y-68269000D01*
G37*
G36*
X51197000Y-68269000D02*
G01*
X49895000Y-68269000D01*
X49895000Y-67367000D01*
X51197000Y-67367000D01*
X51197000Y-68269000D01*
G37*
G36*
X108060142Y-66528242D02*
G01*
X108208101Y-66589529D01*
X108341255Y-66678499D01*
X108454501Y-66791745D01*
X108543471Y-66924899D01*
X108604758Y-67072858D01*
X108636000Y-67229925D01*
X108636000Y-67390075D01*
X108604758Y-67547142D01*
X108543471Y-67695101D01*
X108454501Y-67828255D01*
X108341255Y-67941501D01*
X108208101Y-68030471D01*
X108060142Y-68091758D01*
X107903075Y-68123000D01*
X107742925Y-68123000D01*
X107585858Y-68091758D01*
X107437899Y-68030471D01*
X107304745Y-67941501D01*
X107191499Y-67828255D01*
X107102529Y-67695101D01*
X107041242Y-67547142D01*
X107010000Y-67390075D01*
X107010000Y-67229925D01*
X107041242Y-67072858D01*
X107102529Y-66924899D01*
X107191499Y-66791745D01*
X107304745Y-66678499D01*
X107437899Y-66589529D01*
X107585858Y-66528242D01*
X107742925Y-66497000D01*
X107903075Y-66497000D01*
X108060142Y-66528242D01*
G37*
G36*
X55231512Y-65905927D02*
G01*
X55380812Y-65935624D01*
X55544784Y-66003544D01*
X55692354Y-66102147D01*
X55817853Y-66227646D01*
X55916456Y-66375216D01*
X55984376Y-66539188D01*
X56019000Y-66713259D01*
X56019000Y-66890741D01*
X55984376Y-67064812D01*
X55916456Y-67228784D01*
X55817853Y-67376354D01*
X55692354Y-67501853D01*
X55544784Y-67600456D01*
X55380812Y-67668376D01*
X55231512Y-67698073D01*
X55206742Y-67703000D01*
X55029258Y-67703000D01*
X55004488Y-67698073D01*
X54855188Y-67668376D01*
X54691216Y-67600456D01*
X54543646Y-67501853D01*
X54418147Y-67376354D01*
X54319544Y-67228784D01*
X54251624Y-67064812D01*
X54217000Y-66890741D01*
X54217000Y-66713259D01*
X54251624Y-66539188D01*
X54319544Y-66375216D01*
X54418147Y-66227646D01*
X54543646Y-66102147D01*
X54691216Y-66003544D01*
X54855188Y-65935624D01*
X55004488Y-65905927D01*
X55029258Y-65901000D01*
X55206742Y-65901000D01*
X55231512Y-65905927D01*
G37*
G36*
X87307000Y-67476000D02*
G01*
X84905000Y-67476000D01*
X84905000Y-65874000D01*
X87307000Y-65874000D01*
X87307000Y-67476000D01*
G37*
G36*
X140575512Y-64381927D02*
G01*
X140724812Y-64411624D01*
X140888784Y-64479544D01*
X141036354Y-64578147D01*
X141161853Y-64703646D01*
X141260456Y-64851216D01*
X141328376Y-65015188D01*
X141363000Y-65189259D01*
X141363000Y-65366741D01*
X141328376Y-65540812D01*
X141260456Y-65704784D01*
X141161853Y-65852354D01*
X141036354Y-65977853D01*
X140888784Y-66076456D01*
X140724812Y-66144376D01*
X140575512Y-66174073D01*
X140550742Y-66179000D01*
X140373258Y-66179000D01*
X140348488Y-66174073D01*
X140199188Y-66144376D01*
X140035216Y-66076456D01*
X139887646Y-65977853D01*
X139762147Y-65852354D01*
X139663544Y-65704784D01*
X139595624Y-65540812D01*
X139561000Y-65366741D01*
X139561000Y-65189259D01*
X139595624Y-65015188D01*
X139663544Y-64851216D01*
X139762147Y-64703646D01*
X139887646Y-64578147D01*
X140035216Y-64479544D01*
X140199188Y-64411624D01*
X140348488Y-64381927D01*
X140373258Y-64377000D01*
X140550742Y-64377000D01*
X140575512Y-64381927D01*
G37*
G36*
X108060142Y-64528242D02*
G01*
X108208101Y-64589529D01*
X108341255Y-64678499D01*
X108454501Y-64791745D01*
X108543471Y-64924899D01*
X108604758Y-65072858D01*
X108636000Y-65229925D01*
X108636000Y-65390075D01*
X108604758Y-65547142D01*
X108543471Y-65695101D01*
X108454501Y-65828255D01*
X108341255Y-65941501D01*
X108208101Y-66030471D01*
X108060142Y-66091758D01*
X107903075Y-66123000D01*
X107742925Y-66123000D01*
X107585858Y-66091758D01*
X107437899Y-66030471D01*
X107304745Y-65941501D01*
X107191499Y-65828255D01*
X107102529Y-65695101D01*
X107041242Y-65547142D01*
X107010000Y-65390075D01*
X107010000Y-65229925D01*
X107041242Y-65072858D01*
X107102529Y-64924899D01*
X107191499Y-64791745D01*
X107304745Y-64678499D01*
X107437899Y-64589529D01*
X107585858Y-64528242D01*
X107742925Y-64497000D01*
X107903075Y-64497000D01*
X108060142Y-64528242D01*
G37*
G36*
X106242000Y-65929000D02*
G01*
X105340000Y-65929000D01*
X105340000Y-64627000D01*
X106242000Y-64627000D01*
X106242000Y-65929000D01*
G37*
G36*
X110306000Y-65929000D02*
G01*
X109404000Y-65929000D01*
X109404000Y-64627000D01*
X110306000Y-64627000D01*
X110306000Y-65929000D01*
G37*
G36*
X55231512Y-63365927D02*
G01*
X55380812Y-63395624D01*
X55544784Y-63463544D01*
X55692354Y-63562147D01*
X55817853Y-63687646D01*
X55916456Y-63835216D01*
X55984376Y-63999188D01*
X56019000Y-64173259D01*
X56019000Y-64350741D01*
X55984376Y-64524812D01*
X55916456Y-64688784D01*
X55817853Y-64836354D01*
X55692354Y-64961853D01*
X55544784Y-65060456D01*
X55380812Y-65128376D01*
X55231512Y-65158073D01*
X55206742Y-65163000D01*
X55029258Y-65163000D01*
X55004488Y-65158073D01*
X54855188Y-65128376D01*
X54691216Y-65060456D01*
X54543646Y-64961853D01*
X54418147Y-64836354D01*
X54319544Y-64688784D01*
X54251624Y-64524812D01*
X54217000Y-64350741D01*
X54217000Y-64173259D01*
X54251624Y-63999188D01*
X54319544Y-63835216D01*
X54418147Y-63687646D01*
X54543646Y-63562147D01*
X54691216Y-63463544D01*
X54855188Y-63395624D01*
X55004488Y-63365927D01*
X55029258Y-63361000D01*
X55206742Y-63361000D01*
X55231512Y-63365927D01*
G37*
G36*
X86249000Y-65094000D02*
G01*
X84947000Y-65094000D01*
X84947000Y-64192000D01*
X86249000Y-64192000D01*
X86249000Y-65094000D01*
G37*
G36*
X91329000Y-65094000D02*
G01*
X90027000Y-65094000D01*
X90027000Y-64192000D01*
X91329000Y-64192000D01*
X91329000Y-65094000D01*
G37*
G36*
X89297000Y-65094000D02*
G01*
X87995000Y-65094000D01*
X87995000Y-64192000D01*
X89297000Y-64192000D01*
X89297000Y-65094000D01*
G37*
G36*
X84217000Y-65094000D02*
G01*
X82915000Y-65094000D01*
X82915000Y-64192000D01*
X84217000Y-64192000D01*
X84217000Y-65094000D01*
G37*
G36*
X108060142Y-62528242D02*
G01*
X108208101Y-62589529D01*
X108341255Y-62678499D01*
X108454501Y-62791745D01*
X108543471Y-62924899D01*
X108604758Y-63072858D01*
X108636000Y-63229925D01*
X108636000Y-63390075D01*
X108604758Y-63547142D01*
X108543471Y-63695101D01*
X108454501Y-63828255D01*
X108341255Y-63941501D01*
X108208101Y-64030471D01*
X108060142Y-64091758D01*
X107903075Y-64123000D01*
X107742925Y-64123000D01*
X107585858Y-64091758D01*
X107437899Y-64030471D01*
X107304745Y-63941501D01*
X107191499Y-63828255D01*
X107102529Y-63695101D01*
X107041242Y-63547142D01*
X107010000Y-63390075D01*
X107010000Y-63229925D01*
X107041242Y-63072858D01*
X107102529Y-62924899D01*
X107191499Y-62791745D01*
X107304745Y-62678499D01*
X107437899Y-62589529D01*
X107585858Y-62528242D01*
X107742925Y-62497000D01*
X107903075Y-62497000D01*
X108060142Y-62528242D01*
G37*
G36*
X110306000Y-63897000D02*
G01*
X109404000Y-63897000D01*
X109404000Y-62595000D01*
X110306000Y-62595000D01*
X110306000Y-63897000D01*
G37*
G36*
X106242000Y-63897000D02*
G01*
X105340000Y-63897000D01*
X105340000Y-62595000D01*
X106242000Y-62595000D01*
X106242000Y-63897000D01*
G37*
G36*
X61865000Y-63781000D02*
G01*
X60563000Y-63781000D01*
X60563000Y-62779000D01*
X61865000Y-62779000D01*
X61865000Y-63781000D01*
G37*
G36*
X140575512Y-61841927D02*
G01*
X140724812Y-61871624D01*
X140888784Y-61939544D01*
X141036354Y-62038147D01*
X141161853Y-62163646D01*
X141260456Y-62311216D01*
X141328376Y-62475188D01*
X141363000Y-62649259D01*
X141363000Y-62826741D01*
X141328376Y-63000812D01*
X141260456Y-63164784D01*
X141161853Y-63312354D01*
X141036354Y-63437853D01*
X140888784Y-63536456D01*
X140724812Y-63604376D01*
X140575512Y-63634073D01*
X140550742Y-63639000D01*
X140373258Y-63639000D01*
X140348488Y-63634073D01*
X140199188Y-63604376D01*
X140035216Y-63536456D01*
X139887646Y-63437853D01*
X139762147Y-63312354D01*
X139663544Y-63164784D01*
X139595624Y-63000812D01*
X139561000Y-62826741D01*
X139561000Y-62649259D01*
X139595624Y-62475188D01*
X139663544Y-62311216D01*
X139762147Y-62163646D01*
X139887646Y-62038147D01*
X140035216Y-61939544D01*
X140199188Y-61871624D01*
X140348488Y-61841927D01*
X140373258Y-61837000D01*
X140550742Y-61837000D01*
X140575512Y-61841927D01*
G37*
G36*
X86693142Y-61575242D02*
G01*
X86841101Y-61636529D01*
X86974255Y-61725499D01*
X87087501Y-61838745D01*
X87176471Y-61971899D01*
X87237758Y-62119858D01*
X87269000Y-62276925D01*
X87269000Y-62437075D01*
X87237758Y-62594142D01*
X87176471Y-62742101D01*
X87087501Y-62875255D01*
X86974255Y-62988501D01*
X86841101Y-63077471D01*
X86693142Y-63138758D01*
X86536075Y-63170000D01*
X86375925Y-63170000D01*
X86218858Y-63138758D01*
X86070899Y-63077471D01*
X85937745Y-62988501D01*
X85824499Y-62875255D01*
X85735529Y-62742101D01*
X85674242Y-62594142D01*
X85643000Y-62437075D01*
X85643000Y-62276925D01*
X85674242Y-62119858D01*
X85735529Y-61971899D01*
X85824499Y-61838745D01*
X85937745Y-61725499D01*
X86070899Y-61636529D01*
X86218858Y-61575242D01*
X86375925Y-61544000D01*
X86536075Y-61544000D01*
X86693142Y-61575242D01*
G37*
G36*
X88693142Y-61575242D02*
G01*
X88841101Y-61636529D01*
X88974255Y-61725499D01*
X89087501Y-61838745D01*
X89176471Y-61971899D01*
X89237758Y-62119858D01*
X89269000Y-62276925D01*
X89269000Y-62437075D01*
X89237758Y-62594142D01*
X89176471Y-62742101D01*
X89087501Y-62875255D01*
X88974255Y-62988501D01*
X88841101Y-63077471D01*
X88693142Y-63138758D01*
X88536075Y-63170000D01*
X88375925Y-63170000D01*
X88218858Y-63138758D01*
X88070899Y-63077471D01*
X87937745Y-62988501D01*
X87824499Y-62875255D01*
X87735529Y-62742101D01*
X87674242Y-62594142D01*
X87643000Y-62437075D01*
X87643000Y-62276925D01*
X87674242Y-62119858D01*
X87735529Y-61971899D01*
X87824499Y-61838745D01*
X87937745Y-61725499D01*
X88070899Y-61636529D01*
X88218858Y-61575242D01*
X88375925Y-61544000D01*
X88536075Y-61544000D01*
X88693142Y-61575242D01*
G37*
G36*
X90693142Y-61575242D02*
G01*
X90841101Y-61636529D01*
X90974255Y-61725499D01*
X91087501Y-61838745D01*
X91176471Y-61971899D01*
X91237758Y-62119858D01*
X91269000Y-62276925D01*
X91269000Y-62437075D01*
X91237758Y-62594142D01*
X91176471Y-62742101D01*
X91087501Y-62875255D01*
X90974255Y-62988501D01*
X90841101Y-63077471D01*
X90693142Y-63138758D01*
X90536075Y-63170000D01*
X90375925Y-63170000D01*
X90218858Y-63138758D01*
X90070899Y-63077471D01*
X89937745Y-62988501D01*
X89824499Y-62875255D01*
X89735529Y-62742101D01*
X89674242Y-62594142D01*
X89643000Y-62437075D01*
X89643000Y-62276925D01*
X89674242Y-62119858D01*
X89735529Y-61971899D01*
X89824499Y-61838745D01*
X89937745Y-61725499D01*
X90070899Y-61636529D01*
X90218858Y-61575242D01*
X90375925Y-61544000D01*
X90536075Y-61544000D01*
X90693142Y-61575242D01*
G37*
G36*
X93269000Y-63170000D02*
G01*
X91643000Y-63170000D01*
X91643000Y-61544000D01*
X93269000Y-61544000D01*
X93269000Y-63170000D01*
G37*
G36*
X75257000Y-62673000D02*
G01*
X74155000Y-62673000D01*
X74155000Y-60771000D01*
X75257000Y-60771000D01*
X75257000Y-62673000D01*
G37*
G36*
X72657000Y-62673000D02*
G01*
X71555000Y-62673000D01*
X71555000Y-60771000D01*
X72657000Y-60771000D01*
X72657000Y-62673000D01*
G37*
G36*
X55231512Y-60825927D02*
G01*
X55380812Y-60855624D01*
X55544784Y-60923544D01*
X55692354Y-61022147D01*
X55817853Y-61147646D01*
X55916456Y-61295216D01*
X55984376Y-61459188D01*
X56019000Y-61633259D01*
X56019000Y-61810741D01*
X55984376Y-61984812D01*
X55916456Y-62148784D01*
X55817853Y-62296354D01*
X55692354Y-62421853D01*
X55544784Y-62520456D01*
X55380812Y-62588376D01*
X55231512Y-62618073D01*
X55206742Y-62623000D01*
X55029258Y-62623000D01*
X55004488Y-62618073D01*
X54855188Y-62588376D01*
X54691216Y-62520456D01*
X54543646Y-62421853D01*
X54418147Y-62296354D01*
X54319544Y-62148784D01*
X54251624Y-61984812D01*
X54217000Y-61810741D01*
X54217000Y-61633259D01*
X54251624Y-61459188D01*
X54319544Y-61295216D01*
X54418147Y-61147646D01*
X54543646Y-61022147D01*
X54691216Y-60923544D01*
X54855188Y-60855624D01*
X55004488Y-60825927D01*
X55029258Y-60821000D01*
X55206742Y-60821000D01*
X55231512Y-60825927D01*
G37*
G36*
X134325000Y-62373000D02*
G01*
X133323000Y-62373000D01*
X133323000Y-61071000D01*
X134325000Y-61071000D01*
X134325000Y-62373000D01*
G37*
G36*
X136425000Y-62373000D02*
G01*
X135423000Y-62373000D01*
X135423000Y-61071000D01*
X136425000Y-61071000D01*
X136425000Y-62373000D01*
G37*
G36*
X132523000Y-62303000D02*
G01*
X130621000Y-62303000D01*
X130621000Y-61201000D01*
X132523000Y-61201000D01*
X132523000Y-62303000D01*
G37*
G36*
X108636000Y-62123000D02*
G01*
X107010000Y-62123000D01*
X107010000Y-60497000D01*
X108636000Y-60497000D01*
X108636000Y-62123000D01*
G37*
G36*
X61865000Y-61681000D02*
G01*
X60563000Y-61681000D01*
X60563000Y-60679000D01*
X61865000Y-60679000D01*
X61865000Y-61681000D01*
G37*
G36*
X91329000Y-60522000D02*
G01*
X90027000Y-60522000D01*
X90027000Y-59620000D01*
X91329000Y-59620000D01*
X91329000Y-60522000D01*
G37*
G36*
X89297000Y-60522000D02*
G01*
X87995000Y-60522000D01*
X87995000Y-59620000D01*
X89297000Y-59620000D01*
X89297000Y-60522000D01*
G37*
G36*
X74889000Y-60341000D02*
G01*
X73887000Y-60341000D01*
X73887000Y-59039000D01*
X74889000Y-59039000D01*
X74889000Y-60341000D01*
G37*
G36*
X76989000Y-60341000D02*
G01*
X75987000Y-60341000D01*
X75987000Y-59039000D01*
X76989000Y-59039000D01*
X76989000Y-60341000D01*
G37*
G36*
X70825000Y-60341000D02*
G01*
X69823000Y-60341000D01*
X69823000Y-59039000D01*
X70825000Y-59039000D01*
X70825000Y-60341000D01*
G37*
G36*
X72925000Y-60341000D02*
G01*
X71923000Y-60341000D01*
X71923000Y-59039000D01*
X72925000Y-59039000D01*
X72925000Y-60341000D01*
G37*
G36*
X118553609Y-59219802D02*
G01*
X118629197Y-59242732D01*
X118629200Y-59242733D01*
X118698860Y-59279967D01*
X118759922Y-59330078D01*
X118810033Y-59391140D01*
X118841577Y-59450154D01*
X118855191Y-59470529D01*
X118872518Y-59487856D01*
X118892892Y-59501469D01*
X118915531Y-59510847D01*
X118939564Y-59515627D01*
X118964068Y-59515627D01*
X118988101Y-59510847D01*
X119010740Y-59501469D01*
X119031115Y-59487855D01*
X119055749Y-59460676D01*
X119105266Y-59386569D01*
X119171568Y-59320267D01*
X119175525Y-59317623D01*
X119249530Y-59268174D01*
X119285412Y-59253311D01*
X119336157Y-59232292D01*
X119428117Y-59214000D01*
X119521883Y-59214000D01*
X119613843Y-59232292D01*
X119664588Y-59253311D01*
X119700470Y-59268174D01*
X119778432Y-59320267D01*
X119844733Y-59386568D01*
X119896826Y-59464530D01*
X119903076Y-59479619D01*
X119932708Y-59551157D01*
X119951000Y-59643117D01*
X119951000Y-59736883D01*
X119932708Y-59828843D01*
X119917991Y-59864373D01*
X119896826Y-59915470D01*
X119844733Y-59993432D01*
X119778432Y-60059733D01*
X119700470Y-60111826D01*
X119664588Y-60126689D01*
X119613843Y-60147708D01*
X119521883Y-60166000D01*
X119428117Y-60166000D01*
X119336157Y-60147708D01*
X119285412Y-60126689D01*
X119249530Y-60111826D01*
X119171568Y-60059733D01*
X119105267Y-59993432D01*
X119055746Y-59919320D01*
X119040204Y-59900382D01*
X119021262Y-59884836D01*
X118999651Y-59873285D01*
X118976202Y-59866172D01*
X118951816Y-59863770D01*
X118927430Y-59866172D01*
X118903981Y-59873285D01*
X118882370Y-59884836D01*
X118863429Y-59900381D01*
X118847883Y-59919323D01*
X118841585Y-59929829D01*
X118810032Y-59988861D01*
X118810030Y-59988864D01*
X118759922Y-60049922D01*
X118698862Y-60100032D01*
X118629199Y-60137268D01*
X118604002Y-60144911D01*
X118553610Y-60160198D01*
X118475000Y-60167940D01*
X118396391Y-60160198D01*
X118345999Y-60144911D01*
X118320802Y-60137268D01*
X118251139Y-60100032D01*
X118223616Y-60077445D01*
X118190078Y-60049922D01*
X118139968Y-59988861D01*
X118132019Y-59973990D01*
X118108423Y-59929846D01*
X118094809Y-59909471D01*
X118077482Y-59892144D01*
X118057108Y-59878531D01*
X118034469Y-59869153D01*
X118010436Y-59864373D01*
X117985932Y-59864373D01*
X117961899Y-59869153D01*
X117939260Y-59878531D01*
X117918885Y-59892145D01*
X117894251Y-59919324D01*
X117847786Y-59988864D01*
X117844733Y-59993432D01*
X117778432Y-60059733D01*
X117700470Y-60111826D01*
X117664588Y-60126689D01*
X117613843Y-60147708D01*
X117521883Y-60166000D01*
X117428117Y-60166000D01*
X117336157Y-60147708D01*
X117285412Y-60126689D01*
X117249530Y-60111826D01*
X117171568Y-60059733D01*
X117105263Y-59993428D01*
X117104931Y-59992931D01*
X117089386Y-59973989D01*
X117070444Y-59958444D01*
X117048833Y-59946893D01*
X117025384Y-59939780D01*
X117000998Y-59937378D01*
X116976612Y-59939780D01*
X116953163Y-59946893D01*
X116931553Y-59958445D01*
X116912611Y-59973990D01*
X116897066Y-59992932D01*
X116885515Y-60014543D01*
X116878402Y-60037992D01*
X116876000Y-60062377D01*
X116876000Y-60166000D01*
X116074000Y-60166000D01*
X116074000Y-59214000D01*
X116876000Y-59214000D01*
X116876000Y-59317623D01*
X116878402Y-59342009D01*
X116885515Y-59365458D01*
X116897066Y-59387069D01*
X116912611Y-59406011D01*
X116931553Y-59421556D01*
X116953164Y-59433107D01*
X116976613Y-59440220D01*
X117000999Y-59442622D01*
X117025385Y-59440220D01*
X117048834Y-59433107D01*
X117070445Y-59421556D01*
X117089387Y-59406011D01*
X117104931Y-59387069D01*
X117105263Y-59386572D01*
X117171568Y-59320267D01*
X117175525Y-59317623D01*
X117249530Y-59268174D01*
X117285412Y-59253311D01*
X117336157Y-59232292D01*
X117428117Y-59214000D01*
X117521883Y-59214000D01*
X117613843Y-59232292D01*
X117664588Y-59253311D01*
X117700470Y-59268174D01*
X117778432Y-59320267D01*
X117844733Y-59386568D01*
X117894251Y-59460676D01*
X117894251Y-59460677D01*
X117909796Y-59479618D01*
X117928738Y-59495164D01*
X117950349Y-59506715D01*
X117973798Y-59513828D01*
X117998184Y-59516230D01*
X118022570Y-59513828D01*
X118046019Y-59506715D01*
X118067630Y-59495164D01*
X118086571Y-59479619D01*
X118102117Y-59460677D01*
X118108424Y-59450155D01*
X118108425Y-59450154D01*
X118139968Y-59391140D01*
X118139970Y-59391136D01*
X118190078Y-59330078D01*
X118251138Y-59279968D01*
X118320801Y-59242732D01*
X118355217Y-59232292D01*
X118396390Y-59219802D01*
X118475000Y-59212060D01*
X118553609Y-59219802D01*
G37*
G36*
X123633609Y-59219802D02*
G01*
X123709197Y-59242732D01*
X123709200Y-59242733D01*
X123778860Y-59279967D01*
X123839922Y-59330078D01*
X123890033Y-59391140D01*
X123921577Y-59450154D01*
X123935191Y-59470529D01*
X123952518Y-59487856D01*
X123972892Y-59501469D01*
X123995531Y-59510847D01*
X124019564Y-59515627D01*
X124044068Y-59515627D01*
X124068101Y-59510847D01*
X124090740Y-59501469D01*
X124111115Y-59487855D01*
X124135749Y-59460676D01*
X124185266Y-59386569D01*
X124251568Y-59320267D01*
X124255525Y-59317623D01*
X124329530Y-59268174D01*
X124365412Y-59253311D01*
X124416157Y-59232292D01*
X124508117Y-59214000D01*
X124601883Y-59214000D01*
X124693843Y-59232292D01*
X124744588Y-59253311D01*
X124780470Y-59268174D01*
X124858432Y-59320267D01*
X124924733Y-59386568D01*
X124976826Y-59464530D01*
X124983076Y-59479619D01*
X125012708Y-59551157D01*
X125031000Y-59643117D01*
X125031000Y-59736883D01*
X125012708Y-59828843D01*
X124997991Y-59864373D01*
X124976826Y-59915470D01*
X124924733Y-59993432D01*
X124858432Y-60059733D01*
X124780470Y-60111826D01*
X124744588Y-60126689D01*
X124693843Y-60147708D01*
X124601883Y-60166000D01*
X124508117Y-60166000D01*
X124416157Y-60147708D01*
X124365412Y-60126689D01*
X124329530Y-60111826D01*
X124251568Y-60059733D01*
X124185267Y-59993432D01*
X124135746Y-59919320D01*
X124120204Y-59900382D01*
X124101262Y-59884836D01*
X124079651Y-59873285D01*
X124056202Y-59866172D01*
X124031816Y-59863770D01*
X124007430Y-59866172D01*
X123983981Y-59873285D01*
X123962370Y-59884836D01*
X123943429Y-59900381D01*
X123927883Y-59919323D01*
X123921585Y-59929829D01*
X123890032Y-59988861D01*
X123890030Y-59988864D01*
X123839922Y-60049922D01*
X123778862Y-60100032D01*
X123709199Y-60137268D01*
X123684002Y-60144911D01*
X123633610Y-60160198D01*
X123555000Y-60167940D01*
X123476391Y-60160198D01*
X123425999Y-60144911D01*
X123400802Y-60137268D01*
X123331139Y-60100032D01*
X123303616Y-60077445D01*
X123270078Y-60049922D01*
X123219968Y-59988861D01*
X123212019Y-59973990D01*
X123188423Y-59929846D01*
X123174809Y-59909471D01*
X123157482Y-59892144D01*
X123137108Y-59878531D01*
X123114469Y-59869153D01*
X123090436Y-59864373D01*
X123065932Y-59864373D01*
X123041899Y-59869153D01*
X123019260Y-59878531D01*
X122998885Y-59892145D01*
X122974251Y-59919324D01*
X122927786Y-59988864D01*
X122924733Y-59993432D01*
X122858432Y-60059733D01*
X122780470Y-60111826D01*
X122744588Y-60126689D01*
X122693843Y-60147708D01*
X122601883Y-60166000D01*
X122508117Y-60166000D01*
X122416157Y-60147708D01*
X122365412Y-60126689D01*
X122329530Y-60111826D01*
X122251568Y-60059733D01*
X122185263Y-59993428D01*
X122184931Y-59992931D01*
X122169386Y-59973989D01*
X122150444Y-59958444D01*
X122128833Y-59946893D01*
X122105384Y-59939780D01*
X122080998Y-59937378D01*
X122056612Y-59939780D01*
X122033163Y-59946893D01*
X122011553Y-59958445D01*
X121992611Y-59973990D01*
X121977066Y-59992932D01*
X121965515Y-60014543D01*
X121958402Y-60037992D01*
X121956000Y-60062377D01*
X121956000Y-60166000D01*
X121154000Y-60166000D01*
X121154000Y-59214000D01*
X121956000Y-59214000D01*
X121956000Y-59317623D01*
X121958402Y-59342009D01*
X121965515Y-59365458D01*
X121977066Y-59387069D01*
X121992611Y-59406011D01*
X122011553Y-59421556D01*
X122033164Y-59433107D01*
X122056613Y-59440220D01*
X122080999Y-59442622D01*
X122105385Y-59440220D01*
X122128834Y-59433107D01*
X122150445Y-59421556D01*
X122169387Y-59406011D01*
X122184931Y-59387069D01*
X122185263Y-59386572D01*
X122251568Y-59320267D01*
X122255525Y-59317623D01*
X122329530Y-59268174D01*
X122365412Y-59253311D01*
X122416157Y-59232292D01*
X122508117Y-59214000D01*
X122601883Y-59214000D01*
X122693843Y-59232292D01*
X122744588Y-59253311D01*
X122780470Y-59268174D01*
X122858432Y-59320267D01*
X122924733Y-59386568D01*
X122974251Y-59460676D01*
X122974251Y-59460677D01*
X122989796Y-59479618D01*
X123008738Y-59495164D01*
X123030349Y-59506715D01*
X123053798Y-59513828D01*
X123078184Y-59516230D01*
X123102570Y-59513828D01*
X123126019Y-59506715D01*
X123147630Y-59495164D01*
X123166571Y-59479619D01*
X123182117Y-59460677D01*
X123188424Y-59450155D01*
X123188425Y-59450154D01*
X123219968Y-59391140D01*
X123219970Y-59391136D01*
X123270078Y-59330078D01*
X123331138Y-59279968D01*
X123400801Y-59242732D01*
X123435217Y-59232292D01*
X123476390Y-59219802D01*
X123555000Y-59212060D01*
X123633609Y-59219802D01*
G37*
G36*
X55231512Y-58285927D02*
G01*
X55380812Y-58315624D01*
X55544784Y-58383544D01*
X55692354Y-58482147D01*
X55817853Y-58607646D01*
X55916456Y-58755216D01*
X55984376Y-58919188D01*
X56019000Y-59093259D01*
X56019000Y-59270741D01*
X55984376Y-59444812D01*
X55916456Y-59608784D01*
X55817853Y-59756354D01*
X55692354Y-59881853D01*
X55544784Y-59980456D01*
X55380812Y-60048376D01*
X55231512Y-60078073D01*
X55206742Y-60083000D01*
X55029258Y-60083000D01*
X55004488Y-60078073D01*
X54855188Y-60048376D01*
X54691216Y-59980456D01*
X54543646Y-59881853D01*
X54418147Y-59756354D01*
X54319544Y-59608784D01*
X54251624Y-59444812D01*
X54217000Y-59270741D01*
X54217000Y-59093259D01*
X54251624Y-58919188D01*
X54319544Y-58755216D01*
X54418147Y-58607646D01*
X54543646Y-58482147D01*
X54691216Y-58383544D01*
X54855188Y-58315624D01*
X55004488Y-58285927D01*
X55029258Y-58281000D01*
X55206742Y-58281000D01*
X55231512Y-58285927D01*
G37*
G36*
X136425000Y-59833000D02*
G01*
X135423000Y-59833000D01*
X135423000Y-58531000D01*
X136425000Y-58531000D01*
X136425000Y-59833000D01*
G37*
G36*
X134325000Y-59833000D02*
G01*
X133323000Y-59833000D01*
X133323000Y-58531000D01*
X134325000Y-58531000D01*
X134325000Y-59833000D01*
G37*
G36*
X132523000Y-59703000D02*
G01*
X130621000Y-59703000D01*
X130621000Y-58601000D01*
X132523000Y-58601000D01*
X132523000Y-59703000D01*
G37*
G36*
X102983512Y-56888927D02*
G01*
X103132812Y-56918624D01*
X103296784Y-56986544D01*
X103444354Y-57085147D01*
X103569853Y-57210646D01*
X103668456Y-57358216D01*
X103736376Y-57522188D01*
X103759171Y-57636788D01*
X103771000Y-57696258D01*
X103771000Y-57873742D01*
X103767386Y-57891910D01*
X103736376Y-58047812D01*
X103668456Y-58211784D01*
X103569853Y-58359354D01*
X103444354Y-58484853D01*
X103296784Y-58583456D01*
X103132812Y-58651376D01*
X102983512Y-58681073D01*
X102958742Y-58686000D01*
X102781258Y-58686000D01*
X102756488Y-58681073D01*
X102607188Y-58651376D01*
X102443216Y-58583456D01*
X102295646Y-58484853D01*
X102170147Y-58359354D01*
X102071544Y-58211784D01*
X102003624Y-58047812D01*
X101972614Y-57891910D01*
X101969000Y-57873742D01*
X101969000Y-57696258D01*
X101980829Y-57636788D01*
X102003624Y-57522188D01*
X102071544Y-57358216D01*
X102170147Y-57210646D01*
X102295646Y-57085147D01*
X102443216Y-56986544D01*
X102607188Y-56918624D01*
X102756488Y-56888927D01*
X102781258Y-56884000D01*
X102958742Y-56884000D01*
X102983512Y-56888927D01*
G37*
G36*
X138543512Y-56868927D02*
G01*
X138692812Y-56898624D01*
X138856784Y-56966544D01*
X139004354Y-57065147D01*
X139129853Y-57190646D01*
X139228456Y-57338216D01*
X139296376Y-57502188D01*
X139320661Y-57624279D01*
X139331000Y-57676258D01*
X139331000Y-57853742D01*
X139328814Y-57864730D01*
X139296376Y-58027812D01*
X139228456Y-58191784D01*
X139129853Y-58339354D01*
X139004354Y-58464853D01*
X138856784Y-58563456D01*
X138692812Y-58631376D01*
X138543512Y-58661073D01*
X138518742Y-58666000D01*
X138341258Y-58666000D01*
X138316488Y-58661073D01*
X138167188Y-58631376D01*
X138003216Y-58563456D01*
X137855646Y-58464853D01*
X137730147Y-58339354D01*
X137631544Y-58191784D01*
X137563624Y-58027812D01*
X137531186Y-57864730D01*
X137529000Y-57853742D01*
X137529000Y-57676258D01*
X137539339Y-57624279D01*
X137563624Y-57502188D01*
X137631544Y-57338216D01*
X137730147Y-57190646D01*
X137855646Y-57065147D01*
X138003216Y-56966544D01*
X138167188Y-56898624D01*
X138316488Y-56868927D01*
X138341258Y-56864000D01*
X138518742Y-56864000D01*
X138543512Y-56868927D01*
G37*
G36*
X88744212Y-57241249D02*
G01*
X88838651Y-57269897D01*
X88925687Y-57316418D01*
X89001975Y-57379025D01*
X89064582Y-57455313D01*
X89111103Y-57542348D01*
X89139751Y-57636787D01*
X89147000Y-57710388D01*
X89147000Y-57859611D01*
X89139751Y-57933212D01*
X89111103Y-58027652D01*
X89064582Y-58114687D01*
X89001975Y-58190975D01*
X88925687Y-58253582D01*
X88838652Y-58300103D01*
X88744213Y-58328751D01*
X88646000Y-58338424D01*
X88547788Y-58328751D01*
X88453349Y-58300103D01*
X88366314Y-58253582D01*
X88290025Y-58190975D01*
X88227418Y-58114687D01*
X88180897Y-58027652D01*
X88152249Y-57933213D01*
X88152248Y-57933203D01*
X88149781Y-57925070D01*
X88140404Y-57902431D01*
X88126790Y-57882057D01*
X88109463Y-57864730D01*
X88089089Y-57851116D01*
X88066450Y-57841739D01*
X88042417Y-57836958D01*
X88017913Y-57836958D01*
X87993879Y-57841738D01*
X87971240Y-57851115D01*
X87950866Y-57864729D01*
X87933539Y-57882056D01*
X87919925Y-57902430D01*
X87907567Y-57936967D01*
X87905825Y-57945722D01*
X87864291Y-58045995D01*
X87835959Y-58088396D01*
X87803990Y-58136242D01*
X87727242Y-58212990D01*
X87681812Y-58243345D01*
X87636995Y-58273291D01*
X87536721Y-58314826D01*
X87430270Y-58336000D01*
X87321730Y-58336000D01*
X87215279Y-58314826D01*
X87115005Y-58273291D01*
X87070188Y-58243345D01*
X87024758Y-58212990D01*
X86948010Y-58136242D01*
X86916041Y-58088396D01*
X86887709Y-58045995D01*
X86846174Y-57945721D01*
X86825000Y-57839270D01*
X86825000Y-57730730D01*
X86846174Y-57624279D01*
X86887709Y-57524005D01*
X86948009Y-57433760D01*
X86948010Y-57433758D01*
X87024758Y-57357010D01*
X87085509Y-57316418D01*
X87115005Y-57296709D01*
X87215279Y-57255174D01*
X87321730Y-57234000D01*
X87430270Y-57234000D01*
X87536721Y-57255174D01*
X87636995Y-57296709D01*
X87666491Y-57316418D01*
X87727242Y-57357010D01*
X87803990Y-57433758D01*
X87803991Y-57433760D01*
X87864291Y-57524005D01*
X87905825Y-57624278D01*
X87907567Y-57633033D01*
X87914681Y-57656481D01*
X87926232Y-57678092D01*
X87941777Y-57697034D01*
X87960719Y-57712579D01*
X87982330Y-57724130D01*
X88005779Y-57731242D01*
X88030165Y-57733644D01*
X88054552Y-57731242D01*
X88078000Y-57724128D01*
X88099611Y-57712577D01*
X88118553Y-57697032D01*
X88134098Y-57678090D01*
X88149781Y-57644930D01*
X88152248Y-57636797D01*
X88152249Y-57636788D01*
X88180897Y-57542349D01*
X88227418Y-57455313D01*
X88290025Y-57379025D01*
X88366313Y-57316418D01*
X88453348Y-57269897D01*
X88547787Y-57241249D01*
X88646000Y-57231576D01*
X88744212Y-57241249D01*
G37*
G36*
X90014212Y-57241249D02*
G01*
X90108651Y-57269897D01*
X90195687Y-57316418D01*
X90271975Y-57379025D01*
X90334582Y-57455313D01*
X90381103Y-57542348D01*
X90409751Y-57636787D01*
X90409752Y-57636797D01*
X90412219Y-57644930D01*
X90421596Y-57667569D01*
X90435210Y-57687943D01*
X90452537Y-57705270D01*
X90472911Y-57718884D01*
X90495550Y-57728261D01*
X90519583Y-57733042D01*
X90544087Y-57733042D01*
X90568121Y-57728262D01*
X90590760Y-57718885D01*
X90611134Y-57705271D01*
X90628461Y-57687944D01*
X90642075Y-57667570D01*
X90654433Y-57633033D01*
X90656175Y-57624278D01*
X90697709Y-57524005D01*
X90758009Y-57433760D01*
X90758010Y-57433758D01*
X90834758Y-57357010D01*
X90895509Y-57316418D01*
X90925005Y-57296709D01*
X91025279Y-57255174D01*
X91131730Y-57234000D01*
X91240270Y-57234000D01*
X91346721Y-57255174D01*
X91446995Y-57296709D01*
X91476491Y-57316418D01*
X91537242Y-57357010D01*
X91613990Y-57433758D01*
X91613991Y-57433760D01*
X91674291Y-57524005D01*
X91705516Y-57599389D01*
X91717067Y-57621000D01*
X91732612Y-57639941D01*
X91751554Y-57655487D01*
X91773165Y-57667038D01*
X91796614Y-57674151D01*
X91821000Y-57676553D01*
X91845386Y-57674151D01*
X91868835Y-57667038D01*
X91890446Y-57655487D01*
X91909387Y-57639942D01*
X91924933Y-57621000D01*
X91936484Y-57599389D01*
X91967709Y-57524005D01*
X92028009Y-57433760D01*
X92028010Y-57433758D01*
X92104758Y-57357010D01*
X92165509Y-57316418D01*
X92195005Y-57296709D01*
X92295279Y-57255174D01*
X92401730Y-57234000D01*
X92510270Y-57234000D01*
X92616721Y-57255174D01*
X92716995Y-57296709D01*
X92746491Y-57316418D01*
X92807242Y-57357010D01*
X92883990Y-57433758D01*
X92883991Y-57433760D01*
X92946068Y-57526664D01*
X92961614Y-57545606D01*
X92980556Y-57561151D01*
X93002167Y-57572702D01*
X93025615Y-57579815D01*
X93050002Y-57582217D01*
X93074388Y-57579815D01*
X93097837Y-57572702D01*
X93119447Y-57561151D01*
X93138389Y-57545605D01*
X93153934Y-57526663D01*
X93165485Y-57505052D01*
X93172598Y-57481604D01*
X93175000Y-57457218D01*
X93175000Y-57234000D01*
X94277000Y-57234000D01*
X94277000Y-58336000D01*
X93175000Y-58336000D01*
X93175000Y-58112782D01*
X93172598Y-58088396D01*
X93165485Y-58064947D01*
X93153934Y-58043336D01*
X93138389Y-58024394D01*
X93119447Y-58008849D01*
X93097836Y-57997298D01*
X93074387Y-57990185D01*
X93050001Y-57987783D01*
X93025615Y-57990185D01*
X93002166Y-57997298D01*
X92980555Y-58008849D01*
X92961613Y-58024394D01*
X92946068Y-58043336D01*
X92904988Y-58104816D01*
X92883990Y-58136242D01*
X92807242Y-58212990D01*
X92761812Y-58243345D01*
X92716995Y-58273291D01*
X92616721Y-58314826D01*
X92510270Y-58336000D01*
X92401730Y-58336000D01*
X92295279Y-58314826D01*
X92195005Y-58273291D01*
X92150188Y-58243345D01*
X92104758Y-58212990D01*
X92028010Y-58136242D01*
X91996041Y-58088396D01*
X91967709Y-58045995D01*
X91936484Y-57970611D01*
X91924933Y-57949000D01*
X91909388Y-57930059D01*
X91890446Y-57914513D01*
X91868835Y-57902962D01*
X91845386Y-57895849D01*
X91821000Y-57893447D01*
X91796614Y-57895849D01*
X91773165Y-57902962D01*
X91751554Y-57914513D01*
X91732613Y-57930058D01*
X91717067Y-57949000D01*
X91705516Y-57970611D01*
X91674291Y-58045995D01*
X91645959Y-58088396D01*
X91613990Y-58136242D01*
X91537242Y-58212990D01*
X91491812Y-58243345D01*
X91446995Y-58273291D01*
X91346721Y-58314826D01*
X91240270Y-58336000D01*
X91131730Y-58336000D01*
X91025279Y-58314826D01*
X90925005Y-58273291D01*
X90880188Y-58243345D01*
X90834758Y-58212990D01*
X90758010Y-58136242D01*
X90726041Y-58088396D01*
X90697709Y-58045995D01*
X90656175Y-57945722D01*
X90654433Y-57936967D01*
X90647319Y-57913519D01*
X90635768Y-57891908D01*
X90620223Y-57872966D01*
X90601281Y-57857421D01*
X90579670Y-57845870D01*
X90556221Y-57838758D01*
X90531835Y-57836356D01*
X90507448Y-57838758D01*
X90484000Y-57845872D01*
X90462389Y-57857423D01*
X90443447Y-57872968D01*
X90427902Y-57891910D01*
X90412219Y-57925070D01*
X90409752Y-57933203D01*
X90409751Y-57933212D01*
X90381103Y-58027652D01*
X90334582Y-58114687D01*
X90271975Y-58190975D01*
X90195687Y-58253582D01*
X90108652Y-58300103D01*
X90014213Y-58328751D01*
X89916000Y-58338424D01*
X89817788Y-58328751D01*
X89723349Y-58300103D01*
X89636314Y-58253582D01*
X89560025Y-58190975D01*
X89497418Y-58114687D01*
X89450897Y-58027652D01*
X89422249Y-57933213D01*
X89415000Y-57859612D01*
X89415000Y-57710389D01*
X89422249Y-57636788D01*
X89450897Y-57542349D01*
X89497418Y-57455313D01*
X89560025Y-57379025D01*
X89636313Y-57316418D01*
X89723348Y-57269897D01*
X89817787Y-57241249D01*
X89916000Y-57231576D01*
X90014212Y-57241249D01*
G37*
G36*
X56019000Y-57543000D02*
G01*
X54217000Y-57543000D01*
X54217000Y-55741000D01*
X56019000Y-55741000D01*
X56019000Y-57543000D01*
G37*
G36*
X62978512Y-55618927D02*
G01*
X63127812Y-55648624D01*
X63291784Y-55716544D01*
X63439354Y-55815147D01*
X63564853Y-55940646D01*
X63663456Y-56088216D01*
X63731376Y-56252188D01*
X63766000Y-56426259D01*
X63766000Y-56603741D01*
X63731376Y-56777812D01*
X63663456Y-56941784D01*
X63564853Y-57089354D01*
X63439354Y-57214853D01*
X63291784Y-57313456D01*
X63127812Y-57381376D01*
X62978512Y-57411073D01*
X62953742Y-57416000D01*
X62776258Y-57416000D01*
X62751488Y-57411073D01*
X62602188Y-57381376D01*
X62438216Y-57313456D01*
X62290646Y-57214853D01*
X62165147Y-57089354D01*
X62066544Y-56941784D01*
X61998624Y-56777812D01*
X61964000Y-56603741D01*
X61964000Y-56426259D01*
X61998624Y-56252188D01*
X62066544Y-56088216D01*
X62165147Y-55940646D01*
X62290646Y-55815147D01*
X62438216Y-55716544D01*
X62602188Y-55648624D01*
X62751488Y-55618927D01*
X62776258Y-55614000D01*
X62953742Y-55614000D01*
X62978512Y-55618927D01*
G37*
G36*
X61226000Y-57416000D02*
G01*
X59424000Y-57416000D01*
X59424000Y-55614000D01*
X61226000Y-55614000D01*
X61226000Y-57416000D01*
G37*
G36*
X131711000Y-57416000D02*
G01*
X129909000Y-57416000D01*
X129909000Y-55614000D01*
X131711000Y-55614000D01*
X131711000Y-57416000D01*
G37*
G36*
X128383512Y-55618927D02*
G01*
X128532812Y-55648624D01*
X128696784Y-55716544D01*
X128844354Y-55815147D01*
X128969853Y-55940646D01*
X129068456Y-56088216D01*
X129136376Y-56252188D01*
X129171000Y-56426259D01*
X129171000Y-56603741D01*
X129136376Y-56777812D01*
X129068456Y-56941784D01*
X128969853Y-57089354D01*
X128844354Y-57214853D01*
X128696784Y-57313456D01*
X128532812Y-57381376D01*
X128383512Y-57411073D01*
X128358742Y-57416000D01*
X128181258Y-57416000D01*
X128156488Y-57411073D01*
X128007188Y-57381376D01*
X127843216Y-57313456D01*
X127695646Y-57214853D01*
X127570147Y-57089354D01*
X127471544Y-56941784D01*
X127403624Y-56777812D01*
X127369000Y-56603741D01*
X127369000Y-56426259D01*
X127403624Y-56252188D01*
X127471544Y-56088216D01*
X127570147Y-55940646D01*
X127695646Y-55815147D01*
X127843216Y-55716544D01*
X128007188Y-55648624D01*
X128156488Y-55618927D01*
X128181258Y-55614000D01*
X128358742Y-55614000D01*
X128383512Y-55618927D01*
G37*
G36*
X125843512Y-55618927D02*
G01*
X125992812Y-55648624D01*
X126156784Y-55716544D01*
X126304354Y-55815147D01*
X126429853Y-55940646D01*
X126528456Y-56088216D01*
X126596376Y-56252188D01*
X126631000Y-56426259D01*
X126631000Y-56603741D01*
X126596376Y-56777812D01*
X126528456Y-56941784D01*
X126429853Y-57089354D01*
X126304354Y-57214853D01*
X126156784Y-57313456D01*
X125992812Y-57381376D01*
X125843512Y-57411073D01*
X125818742Y-57416000D01*
X125641258Y-57416000D01*
X125616488Y-57411073D01*
X125467188Y-57381376D01*
X125303216Y-57313456D01*
X125155646Y-57214853D01*
X125030147Y-57089354D01*
X124931544Y-56941784D01*
X124863624Y-56777812D01*
X124829000Y-56603741D01*
X124829000Y-56426259D01*
X124863624Y-56252188D01*
X124931544Y-56088216D01*
X125030147Y-55940646D01*
X125155646Y-55815147D01*
X125303216Y-55716544D01*
X125467188Y-55648624D01*
X125616488Y-55618927D01*
X125641258Y-55614000D01*
X125818742Y-55614000D01*
X125843512Y-55618927D01*
G37*
G36*
X123303512Y-55618927D02*
G01*
X123452812Y-55648624D01*
X123616784Y-55716544D01*
X123764354Y-55815147D01*
X123889853Y-55940646D01*
X123988456Y-56088216D01*
X124056376Y-56252188D01*
X124091000Y-56426259D01*
X124091000Y-56603741D01*
X124056376Y-56777812D01*
X123988456Y-56941784D01*
X123889853Y-57089354D01*
X123764354Y-57214853D01*
X123616784Y-57313456D01*
X123452812Y-57381376D01*
X123303512Y-57411073D01*
X123278742Y-57416000D01*
X123101258Y-57416000D01*
X123076488Y-57411073D01*
X122927188Y-57381376D01*
X122763216Y-57313456D01*
X122615646Y-57214853D01*
X122490147Y-57089354D01*
X122391544Y-56941784D01*
X122323624Y-56777812D01*
X122289000Y-56603741D01*
X122289000Y-56426259D01*
X122323624Y-56252188D01*
X122391544Y-56088216D01*
X122490147Y-55940646D01*
X122615646Y-55815147D01*
X122763216Y-55716544D01*
X122927188Y-55648624D01*
X123076488Y-55618927D01*
X123101258Y-55614000D01*
X123278742Y-55614000D01*
X123303512Y-55618927D01*
G37*
G36*
X78218512Y-55618927D02*
G01*
X78367812Y-55648624D01*
X78531784Y-55716544D01*
X78679354Y-55815147D01*
X78804853Y-55940646D01*
X78903456Y-56088216D01*
X78971376Y-56252188D01*
X79006000Y-56426259D01*
X79006000Y-56603741D01*
X78971376Y-56777812D01*
X78903456Y-56941784D01*
X78804853Y-57089354D01*
X78679354Y-57214853D01*
X78531784Y-57313456D01*
X78367812Y-57381376D01*
X78218512Y-57411073D01*
X78193742Y-57416000D01*
X78016258Y-57416000D01*
X77991488Y-57411073D01*
X77842188Y-57381376D01*
X77678216Y-57313456D01*
X77530646Y-57214853D01*
X77405147Y-57089354D01*
X77306544Y-56941784D01*
X77238624Y-56777812D01*
X77204000Y-56603741D01*
X77204000Y-56426259D01*
X77238624Y-56252188D01*
X77306544Y-56088216D01*
X77405147Y-55940646D01*
X77530646Y-55815147D01*
X77678216Y-55716544D01*
X77842188Y-55648624D01*
X77991488Y-55618927D01*
X78016258Y-55614000D01*
X78193742Y-55614000D01*
X78218512Y-55618927D01*
G37*
G36*
X120763512Y-55618927D02*
G01*
X120912812Y-55648624D01*
X121076784Y-55716544D01*
X121224354Y-55815147D01*
X121349853Y-55940646D01*
X121448456Y-56088216D01*
X121516376Y-56252188D01*
X121551000Y-56426259D01*
X121551000Y-56603741D01*
X121516376Y-56777812D01*
X121448456Y-56941784D01*
X121349853Y-57089354D01*
X121224354Y-57214853D01*
X121076784Y-57313456D01*
X120912812Y-57381376D01*
X120763512Y-57411073D01*
X120738742Y-57416000D01*
X120561258Y-57416000D01*
X120536488Y-57411073D01*
X120387188Y-57381376D01*
X120223216Y-57313456D01*
X120075646Y-57214853D01*
X119950147Y-57089354D01*
X119851544Y-56941784D01*
X119783624Y-56777812D01*
X119749000Y-56603741D01*
X119749000Y-56426259D01*
X119783624Y-56252188D01*
X119851544Y-56088216D01*
X119950147Y-55940646D01*
X120075646Y-55815147D01*
X120223216Y-55716544D01*
X120387188Y-55648624D01*
X120536488Y-55618927D01*
X120561258Y-55614000D01*
X120738742Y-55614000D01*
X120763512Y-55618927D01*
G37*
G36*
X118223512Y-55618927D02*
G01*
X118372812Y-55648624D01*
X118536784Y-55716544D01*
X118684354Y-55815147D01*
X118809853Y-55940646D01*
X118908456Y-56088216D01*
X118976376Y-56252188D01*
X119011000Y-56426259D01*
X119011000Y-56603741D01*
X118976376Y-56777812D01*
X118908456Y-56941784D01*
X118809853Y-57089354D01*
X118684354Y-57214853D01*
X118536784Y-57313456D01*
X118372812Y-57381376D01*
X118223512Y-57411073D01*
X118198742Y-57416000D01*
X118021258Y-57416000D01*
X117996488Y-57411073D01*
X117847188Y-57381376D01*
X117683216Y-57313456D01*
X117535646Y-57214853D01*
X117410147Y-57089354D01*
X117311544Y-56941784D01*
X117243624Y-56777812D01*
X117209000Y-56603741D01*
X117209000Y-56426259D01*
X117243624Y-56252188D01*
X117311544Y-56088216D01*
X117410147Y-55940646D01*
X117535646Y-55815147D01*
X117683216Y-55716544D01*
X117847188Y-55648624D01*
X117996488Y-55618927D01*
X118021258Y-55614000D01*
X118198742Y-55614000D01*
X118223512Y-55618927D01*
G37*
G36*
X113143512Y-55618927D02*
G01*
X113292812Y-55648624D01*
X113456784Y-55716544D01*
X113604354Y-55815147D01*
X113729853Y-55940646D01*
X113828456Y-56088216D01*
X113896376Y-56252188D01*
X113931000Y-56426259D01*
X113931000Y-56603741D01*
X113896376Y-56777812D01*
X113828456Y-56941784D01*
X113729853Y-57089354D01*
X113604354Y-57214853D01*
X113456784Y-57313456D01*
X113292812Y-57381376D01*
X113143512Y-57411073D01*
X113118742Y-57416000D01*
X112941258Y-57416000D01*
X112916488Y-57411073D01*
X112767188Y-57381376D01*
X112603216Y-57313456D01*
X112455646Y-57214853D01*
X112330147Y-57089354D01*
X112231544Y-56941784D01*
X112163624Y-56777812D01*
X112129000Y-56603741D01*
X112129000Y-56426259D01*
X112163624Y-56252188D01*
X112231544Y-56088216D01*
X112330147Y-55940646D01*
X112455646Y-55815147D01*
X112603216Y-55716544D01*
X112767188Y-55648624D01*
X112916488Y-55618927D01*
X112941258Y-55614000D01*
X113118742Y-55614000D01*
X113143512Y-55618927D01*
G37*
G36*
X80758512Y-55618927D02*
G01*
X80907812Y-55648624D01*
X81071784Y-55716544D01*
X81219354Y-55815147D01*
X81344853Y-55940646D01*
X81443456Y-56088216D01*
X81511376Y-56252188D01*
X81546000Y-56426259D01*
X81546000Y-56603741D01*
X81511376Y-56777812D01*
X81443456Y-56941784D01*
X81344853Y-57089354D01*
X81219354Y-57214853D01*
X81071784Y-57313456D01*
X80907812Y-57381376D01*
X80758512Y-57411073D01*
X80733742Y-57416000D01*
X80556258Y-57416000D01*
X80531488Y-57411073D01*
X80382188Y-57381376D01*
X80218216Y-57313456D01*
X80070646Y-57214853D01*
X79945147Y-57089354D01*
X79846544Y-56941784D01*
X79778624Y-56777812D01*
X79744000Y-56603741D01*
X79744000Y-56426259D01*
X79778624Y-56252188D01*
X79846544Y-56088216D01*
X79945147Y-55940646D01*
X80070646Y-55815147D01*
X80218216Y-55716544D01*
X80382188Y-55648624D01*
X80531488Y-55618927D01*
X80556258Y-55614000D01*
X80733742Y-55614000D01*
X80758512Y-55618927D01*
G37*
G36*
X75678512Y-55618927D02*
G01*
X75827812Y-55648624D01*
X75991784Y-55716544D01*
X76139354Y-55815147D01*
X76264853Y-55940646D01*
X76363456Y-56088216D01*
X76431376Y-56252188D01*
X76466000Y-56426259D01*
X76466000Y-56603741D01*
X76431376Y-56777812D01*
X76363456Y-56941784D01*
X76264853Y-57089354D01*
X76139354Y-57214853D01*
X75991784Y-57313456D01*
X75827812Y-57381376D01*
X75678512Y-57411073D01*
X75653742Y-57416000D01*
X75476258Y-57416000D01*
X75451488Y-57411073D01*
X75302188Y-57381376D01*
X75138216Y-57313456D01*
X74990646Y-57214853D01*
X74865147Y-57089354D01*
X74766544Y-56941784D01*
X74698624Y-56777812D01*
X74664000Y-56603741D01*
X74664000Y-56426259D01*
X74698624Y-56252188D01*
X74766544Y-56088216D01*
X74865147Y-55940646D01*
X74990646Y-55815147D01*
X75138216Y-55716544D01*
X75302188Y-55648624D01*
X75451488Y-55618927D01*
X75476258Y-55614000D01*
X75653742Y-55614000D01*
X75678512Y-55618927D01*
G37*
G36*
X73138512Y-55618927D02*
G01*
X73287812Y-55648624D01*
X73451784Y-55716544D01*
X73599354Y-55815147D01*
X73724853Y-55940646D01*
X73823456Y-56088216D01*
X73891376Y-56252188D01*
X73926000Y-56426259D01*
X73926000Y-56603741D01*
X73891376Y-56777812D01*
X73823456Y-56941784D01*
X73724853Y-57089354D01*
X73599354Y-57214853D01*
X73451784Y-57313456D01*
X73287812Y-57381376D01*
X73138512Y-57411073D01*
X73113742Y-57416000D01*
X72936258Y-57416000D01*
X72911488Y-57411073D01*
X72762188Y-57381376D01*
X72598216Y-57313456D01*
X72450646Y-57214853D01*
X72325147Y-57089354D01*
X72226544Y-56941784D01*
X72158624Y-56777812D01*
X72124000Y-56603741D01*
X72124000Y-56426259D01*
X72158624Y-56252188D01*
X72226544Y-56088216D01*
X72325147Y-55940646D01*
X72450646Y-55815147D01*
X72598216Y-55716544D01*
X72762188Y-55648624D01*
X72911488Y-55618927D01*
X72936258Y-55614000D01*
X73113742Y-55614000D01*
X73138512Y-55618927D01*
G37*
G36*
X70598512Y-55618927D02*
G01*
X70747812Y-55648624D01*
X70911784Y-55716544D01*
X71059354Y-55815147D01*
X71184853Y-55940646D01*
X71283456Y-56088216D01*
X71351376Y-56252188D01*
X71386000Y-56426259D01*
X71386000Y-56603741D01*
X71351376Y-56777812D01*
X71283456Y-56941784D01*
X71184853Y-57089354D01*
X71059354Y-57214853D01*
X70911784Y-57313456D01*
X70747812Y-57381376D01*
X70598512Y-57411073D01*
X70573742Y-57416000D01*
X70396258Y-57416000D01*
X70371488Y-57411073D01*
X70222188Y-57381376D01*
X70058216Y-57313456D01*
X69910646Y-57214853D01*
X69785147Y-57089354D01*
X69686544Y-56941784D01*
X69618624Y-56777812D01*
X69584000Y-56603741D01*
X69584000Y-56426259D01*
X69618624Y-56252188D01*
X69686544Y-56088216D01*
X69785147Y-55940646D01*
X69910646Y-55815147D01*
X70058216Y-55716544D01*
X70222188Y-55648624D01*
X70371488Y-55618927D01*
X70396258Y-55614000D01*
X70573742Y-55614000D01*
X70598512Y-55618927D01*
G37*
G36*
X68058512Y-55618927D02*
G01*
X68207812Y-55648624D01*
X68371784Y-55716544D01*
X68519354Y-55815147D01*
X68644853Y-55940646D01*
X68743456Y-56088216D01*
X68811376Y-56252188D01*
X68846000Y-56426259D01*
X68846000Y-56603741D01*
X68811376Y-56777812D01*
X68743456Y-56941784D01*
X68644853Y-57089354D01*
X68519354Y-57214853D01*
X68371784Y-57313456D01*
X68207812Y-57381376D01*
X68058512Y-57411073D01*
X68033742Y-57416000D01*
X67856258Y-57416000D01*
X67831488Y-57411073D01*
X67682188Y-57381376D01*
X67518216Y-57313456D01*
X67370646Y-57214853D01*
X67245147Y-57089354D01*
X67146544Y-56941784D01*
X67078624Y-56777812D01*
X67044000Y-56603741D01*
X67044000Y-56426259D01*
X67078624Y-56252188D01*
X67146544Y-56088216D01*
X67245147Y-55940646D01*
X67370646Y-55815147D01*
X67518216Y-55716544D01*
X67682188Y-55648624D01*
X67831488Y-55618927D01*
X67856258Y-55614000D01*
X68033742Y-55614000D01*
X68058512Y-55618927D01*
G37*
G36*
X110603512Y-55618927D02*
G01*
X110752812Y-55648624D01*
X110916784Y-55716544D01*
X111064354Y-55815147D01*
X111189853Y-55940646D01*
X111288456Y-56088216D01*
X111356376Y-56252188D01*
X111391000Y-56426259D01*
X111391000Y-56603741D01*
X111356376Y-56777812D01*
X111288456Y-56941784D01*
X111189853Y-57089354D01*
X111064354Y-57214853D01*
X110916784Y-57313456D01*
X110752812Y-57381376D01*
X110603512Y-57411073D01*
X110578742Y-57416000D01*
X110401258Y-57416000D01*
X110376488Y-57411073D01*
X110227188Y-57381376D01*
X110063216Y-57313456D01*
X109915646Y-57214853D01*
X109790147Y-57089354D01*
X109691544Y-56941784D01*
X109623624Y-56777812D01*
X109589000Y-56603741D01*
X109589000Y-56426259D01*
X109623624Y-56252188D01*
X109691544Y-56088216D01*
X109790147Y-55940646D01*
X109915646Y-55815147D01*
X110063216Y-55716544D01*
X110227188Y-55648624D01*
X110376488Y-55618927D01*
X110401258Y-55614000D01*
X110578742Y-55614000D01*
X110603512Y-55618927D01*
G37*
G36*
X65518512Y-55618927D02*
G01*
X65667812Y-55648624D01*
X65831784Y-55716544D01*
X65979354Y-55815147D01*
X66104853Y-55940646D01*
X66203456Y-56088216D01*
X66271376Y-56252188D01*
X66306000Y-56426259D01*
X66306000Y-56603741D01*
X66271376Y-56777812D01*
X66203456Y-56941784D01*
X66104853Y-57089354D01*
X65979354Y-57214853D01*
X65831784Y-57313456D01*
X65667812Y-57381376D01*
X65518512Y-57411073D01*
X65493742Y-57416000D01*
X65316258Y-57416000D01*
X65291488Y-57411073D01*
X65142188Y-57381376D01*
X64978216Y-57313456D01*
X64830646Y-57214853D01*
X64705147Y-57089354D01*
X64606544Y-56941784D01*
X64538624Y-56777812D01*
X64504000Y-56603741D01*
X64504000Y-56426259D01*
X64538624Y-56252188D01*
X64606544Y-56088216D01*
X64705147Y-55940646D01*
X64830646Y-55815147D01*
X64978216Y-55716544D01*
X65142188Y-55648624D01*
X65291488Y-55618927D01*
X65316258Y-55614000D01*
X65493742Y-55614000D01*
X65518512Y-55618927D01*
G37*
G36*
X115683512Y-55618927D02*
G01*
X115832812Y-55648624D01*
X115996784Y-55716544D01*
X116144354Y-55815147D01*
X116269853Y-55940646D01*
X116368456Y-56088216D01*
X116436376Y-56252188D01*
X116471000Y-56426259D01*
X116471000Y-56603741D01*
X116436376Y-56777812D01*
X116368456Y-56941784D01*
X116269853Y-57089354D01*
X116144354Y-57214853D01*
X115996784Y-57313456D01*
X115832812Y-57381376D01*
X115683512Y-57411073D01*
X115658742Y-57416000D01*
X115481258Y-57416000D01*
X115456488Y-57411073D01*
X115307188Y-57381376D01*
X115143216Y-57313456D01*
X114995646Y-57214853D01*
X114870147Y-57089354D01*
X114771544Y-56941784D01*
X114703624Y-56777812D01*
X114669000Y-56603741D01*
X114669000Y-56426259D01*
X114703624Y-56252188D01*
X114771544Y-56088216D01*
X114870147Y-55940646D01*
X114995646Y-55815147D01*
X115143216Y-55716544D01*
X115307188Y-55648624D01*
X115456488Y-55618927D01*
X115481258Y-55614000D01*
X115658742Y-55614000D01*
X115683512Y-55618927D01*
G37*
G36*
X102983512Y-54388927D02*
G01*
X103132812Y-54418624D01*
X103296784Y-54486544D01*
X103444354Y-54585147D01*
X103569853Y-54710646D01*
X103668456Y-54858216D01*
X103736376Y-55022188D01*
X103771000Y-55196259D01*
X103771000Y-55373741D01*
X103736376Y-55547812D01*
X103668456Y-55711784D01*
X103569853Y-55859354D01*
X103444354Y-55984853D01*
X103296784Y-56083456D01*
X103132812Y-56151376D01*
X102983512Y-56181073D01*
X102958742Y-56186000D01*
X102781258Y-56186000D01*
X102756488Y-56181073D01*
X102607188Y-56151376D01*
X102443216Y-56083456D01*
X102295646Y-55984853D01*
X102170147Y-55859354D01*
X102071544Y-55711784D01*
X102003624Y-55547812D01*
X101969000Y-55373741D01*
X101969000Y-55196259D01*
X102003624Y-55022188D01*
X102071544Y-54858216D01*
X102170147Y-54710646D01*
X102295646Y-54585147D01*
X102443216Y-54486544D01*
X102607188Y-54418624D01*
X102756488Y-54388927D01*
X102781258Y-54384000D01*
X102958742Y-54384000D01*
X102983512Y-54388927D01*
G37*
G36*
X138543512Y-54368927D02*
G01*
X138692812Y-54398624D01*
X138856784Y-54466544D01*
X139004354Y-54565147D01*
X139129853Y-54690646D01*
X139228456Y-54838216D01*
X139296376Y-55002188D01*
X139331000Y-55176259D01*
X139331000Y-55353741D01*
X139296376Y-55527812D01*
X139228456Y-55691784D01*
X139129853Y-55839354D01*
X139004354Y-55964853D01*
X138856784Y-56063456D01*
X138692812Y-56131376D01*
X138543512Y-56161073D01*
X138518742Y-56166000D01*
X138341258Y-56166000D01*
X138316488Y-56161073D01*
X138167188Y-56131376D01*
X138003216Y-56063456D01*
X137855646Y-55964853D01*
X137730147Y-55839354D01*
X137631544Y-55691784D01*
X137563624Y-55527812D01*
X137529000Y-55353741D01*
X137529000Y-55176259D01*
X137563624Y-55002188D01*
X137631544Y-54838216D01*
X137730147Y-54690646D01*
X137855646Y-54565147D01*
X138003216Y-54466544D01*
X138167188Y-54398624D01*
X138316488Y-54368927D01*
X138341258Y-54364000D01*
X138518742Y-54364000D01*
X138543512Y-54368927D01*
G37*
G36*
X94177000Y-56150000D02*
G01*
X93275000Y-56150000D01*
X93275000Y-54848000D01*
X94177000Y-54848000D01*
X94177000Y-56150000D01*
G37*
G36*
X92653000Y-56150000D02*
G01*
X91751000Y-56150000D01*
X91751000Y-54848000D01*
X92653000Y-54848000D01*
X92653000Y-56150000D01*
G37*
G36*
X94177000Y-54118000D02*
G01*
X93275000Y-54118000D01*
X93275000Y-52816000D01*
X94177000Y-52816000D01*
X94177000Y-54118000D01*
G37*
G36*
X92653000Y-54118000D02*
G01*
X91751000Y-54118000D01*
X91751000Y-52816000D01*
X92653000Y-52816000D01*
X92653000Y-54118000D01*
G37*
G36*
X120763512Y-51173927D02*
G01*
X120912812Y-51203624D01*
X121076784Y-51271544D01*
X121224354Y-51370147D01*
X121349853Y-51495646D01*
X121448456Y-51643216D01*
X121516376Y-51807188D01*
X121551000Y-51981259D01*
X121551000Y-52158741D01*
X121516376Y-52332812D01*
X121448456Y-52496784D01*
X121349853Y-52644354D01*
X121224354Y-52769853D01*
X121076784Y-52868456D01*
X120912812Y-52936376D01*
X120763512Y-52966073D01*
X120738742Y-52971000D01*
X120561258Y-52971000D01*
X120536488Y-52966073D01*
X120387188Y-52936376D01*
X120223216Y-52868456D01*
X120075646Y-52769853D01*
X119950147Y-52644354D01*
X119851544Y-52496784D01*
X119783624Y-52332812D01*
X119749000Y-52158741D01*
X119749000Y-51981259D01*
X119783624Y-51807188D01*
X119851544Y-51643216D01*
X119950147Y-51495646D01*
X120075646Y-51370147D01*
X120223216Y-51271544D01*
X120387188Y-51203624D01*
X120536488Y-51173927D01*
X120561258Y-51169000D01*
X120738742Y-51169000D01*
X120763512Y-51173927D01*
G37*
G36*
X125843512Y-51173927D02*
G01*
X125992812Y-51203624D01*
X126156784Y-51271544D01*
X126304354Y-51370147D01*
X126429853Y-51495646D01*
X126528456Y-51643216D01*
X126596376Y-51807188D01*
X126631000Y-51981259D01*
X126631000Y-52158741D01*
X126596376Y-52332812D01*
X126528456Y-52496784D01*
X126429853Y-52644354D01*
X126304354Y-52769853D01*
X126156784Y-52868456D01*
X125992812Y-52936376D01*
X125843512Y-52966073D01*
X125818742Y-52971000D01*
X125641258Y-52971000D01*
X125616488Y-52966073D01*
X125467188Y-52936376D01*
X125303216Y-52868456D01*
X125155646Y-52769853D01*
X125030147Y-52644354D01*
X124931544Y-52496784D01*
X124863624Y-52332812D01*
X124829000Y-52158741D01*
X124829000Y-51981259D01*
X124863624Y-51807188D01*
X124931544Y-51643216D01*
X125030147Y-51495646D01*
X125155646Y-51370147D01*
X125303216Y-51271544D01*
X125467188Y-51203624D01*
X125616488Y-51173927D01*
X125641258Y-51169000D01*
X125818742Y-51169000D01*
X125843512Y-51173927D01*
G37*
G36*
X128383512Y-51173927D02*
G01*
X128532812Y-51203624D01*
X128696784Y-51271544D01*
X128844354Y-51370147D01*
X128969853Y-51495646D01*
X129068456Y-51643216D01*
X129136376Y-51807188D01*
X129171000Y-51981259D01*
X129171000Y-52158741D01*
X129136376Y-52332812D01*
X129068456Y-52496784D01*
X128969853Y-52644354D01*
X128844354Y-52769853D01*
X128696784Y-52868456D01*
X128532812Y-52936376D01*
X128383512Y-52966073D01*
X128358742Y-52971000D01*
X128181258Y-52971000D01*
X128156488Y-52966073D01*
X128007188Y-52936376D01*
X127843216Y-52868456D01*
X127695646Y-52769853D01*
X127570147Y-52644354D01*
X127471544Y-52496784D01*
X127403624Y-52332812D01*
X127369000Y-52158741D01*
X127369000Y-51981259D01*
X127403624Y-51807188D01*
X127471544Y-51643216D01*
X127570147Y-51495646D01*
X127695646Y-51370147D01*
X127843216Y-51271544D01*
X128007188Y-51203624D01*
X128156488Y-51173927D01*
X128181258Y-51169000D01*
X128358742Y-51169000D01*
X128383512Y-51173927D01*
G37*
G36*
X130923512Y-51173927D02*
G01*
X131072812Y-51203624D01*
X131236784Y-51271544D01*
X131384354Y-51370147D01*
X131509853Y-51495646D01*
X131608456Y-51643216D01*
X131676376Y-51807188D01*
X131711000Y-51981259D01*
X131711000Y-52158741D01*
X131676376Y-52332812D01*
X131608456Y-52496784D01*
X131509853Y-52644354D01*
X131384354Y-52769853D01*
X131236784Y-52868456D01*
X131072812Y-52936376D01*
X130923512Y-52966073D01*
X130898742Y-52971000D01*
X130721258Y-52971000D01*
X130696488Y-52966073D01*
X130547188Y-52936376D01*
X130383216Y-52868456D01*
X130235646Y-52769853D01*
X130110147Y-52644354D01*
X130011544Y-52496784D01*
X129943624Y-52332812D01*
X129909000Y-52158741D01*
X129909000Y-51981259D01*
X129943624Y-51807188D01*
X130011544Y-51643216D01*
X130110147Y-51495646D01*
X130235646Y-51370147D01*
X130383216Y-51271544D01*
X130547188Y-51203624D01*
X130696488Y-51173927D01*
X130721258Y-51169000D01*
X130898742Y-51169000D01*
X130923512Y-51173927D01*
G37*
G36*
X133463512Y-51173927D02*
G01*
X133612812Y-51203624D01*
X133776784Y-51271544D01*
X133924354Y-51370147D01*
X134049853Y-51495646D01*
X134148456Y-51643216D01*
X134216376Y-51807188D01*
X134251000Y-51981259D01*
X134251000Y-52158741D01*
X134216376Y-52332812D01*
X134148456Y-52496784D01*
X134049853Y-52644354D01*
X133924354Y-52769853D01*
X133776784Y-52868456D01*
X133612812Y-52936376D01*
X133463512Y-52966073D01*
X133438742Y-52971000D01*
X133261258Y-52971000D01*
X133236488Y-52966073D01*
X133087188Y-52936376D01*
X132923216Y-52868456D01*
X132775646Y-52769853D01*
X132650147Y-52644354D01*
X132551544Y-52496784D01*
X132483624Y-52332812D01*
X132449000Y-52158741D01*
X132449000Y-51981259D01*
X132483624Y-51807188D01*
X132551544Y-51643216D01*
X132650147Y-51495646D01*
X132775646Y-51370147D01*
X132923216Y-51271544D01*
X133087188Y-51203624D01*
X133236488Y-51173927D01*
X133261258Y-51169000D01*
X133438742Y-51169000D01*
X133463512Y-51173927D01*
G37*
G36*
X108063512Y-51173927D02*
G01*
X108212812Y-51203624D01*
X108376784Y-51271544D01*
X108524354Y-51370147D01*
X108649853Y-51495646D01*
X108748456Y-51643216D01*
X108816376Y-51807188D01*
X108851000Y-51981259D01*
X108851000Y-52158741D01*
X108816376Y-52332812D01*
X108748456Y-52496784D01*
X108649853Y-52644354D01*
X108524354Y-52769853D01*
X108376784Y-52868456D01*
X108212812Y-52936376D01*
X108063512Y-52966073D01*
X108038742Y-52971000D01*
X107861258Y-52971000D01*
X107836488Y-52966073D01*
X107687188Y-52936376D01*
X107523216Y-52868456D01*
X107375646Y-52769853D01*
X107250147Y-52644354D01*
X107151544Y-52496784D01*
X107083624Y-52332812D01*
X107049000Y-52158741D01*
X107049000Y-51981259D01*
X107083624Y-51807188D01*
X107151544Y-51643216D01*
X107250147Y-51495646D01*
X107375646Y-51370147D01*
X107523216Y-51271544D01*
X107687188Y-51203624D01*
X107836488Y-51173927D01*
X107861258Y-51169000D01*
X108038742Y-51169000D01*
X108063512Y-51173927D01*
G37*
G36*
X136791000Y-52971000D02*
G01*
X134989000Y-52971000D01*
X134989000Y-51169000D01*
X136791000Y-51169000D01*
X136791000Y-52971000D01*
G37*
G36*
X110603512Y-51173927D02*
G01*
X110752812Y-51203624D01*
X110916784Y-51271544D01*
X111064354Y-51370147D01*
X111189853Y-51495646D01*
X111288456Y-51643216D01*
X111356376Y-51807188D01*
X111391000Y-51981259D01*
X111391000Y-52158741D01*
X111356376Y-52332812D01*
X111288456Y-52496784D01*
X111189853Y-52644354D01*
X111064354Y-52769853D01*
X110916784Y-52868456D01*
X110752812Y-52936376D01*
X110603512Y-52966073D01*
X110578742Y-52971000D01*
X110401258Y-52971000D01*
X110376488Y-52966073D01*
X110227188Y-52936376D01*
X110063216Y-52868456D01*
X109915646Y-52769853D01*
X109790147Y-52644354D01*
X109691544Y-52496784D01*
X109623624Y-52332812D01*
X109589000Y-52158741D01*
X109589000Y-51981259D01*
X109623624Y-51807188D01*
X109691544Y-51643216D01*
X109790147Y-51495646D01*
X109915646Y-51370147D01*
X110063216Y-51271544D01*
X110227188Y-51203624D01*
X110376488Y-51173927D01*
X110401258Y-51169000D01*
X110578742Y-51169000D01*
X110603512Y-51173927D01*
G37*
G36*
X113143512Y-51173927D02*
G01*
X113292812Y-51203624D01*
X113456784Y-51271544D01*
X113604354Y-51370147D01*
X113729853Y-51495646D01*
X113828456Y-51643216D01*
X113896376Y-51807188D01*
X113931000Y-51981259D01*
X113931000Y-52158741D01*
X113896376Y-52332812D01*
X113828456Y-52496784D01*
X113729853Y-52644354D01*
X113604354Y-52769853D01*
X113456784Y-52868456D01*
X113292812Y-52936376D01*
X113143512Y-52966073D01*
X113118742Y-52971000D01*
X112941258Y-52971000D01*
X112916488Y-52966073D01*
X112767188Y-52936376D01*
X112603216Y-52868456D01*
X112455646Y-52769853D01*
X112330147Y-52644354D01*
X112231544Y-52496784D01*
X112163624Y-52332812D01*
X112129000Y-52158741D01*
X112129000Y-51981259D01*
X112163624Y-51807188D01*
X112231544Y-51643216D01*
X112330147Y-51495646D01*
X112455646Y-51370147D01*
X112603216Y-51271544D01*
X112767188Y-51203624D01*
X112916488Y-51173927D01*
X112941258Y-51169000D01*
X113118742Y-51169000D01*
X113143512Y-51173927D01*
G37*
G36*
X115683512Y-51173927D02*
G01*
X115832812Y-51203624D01*
X115996784Y-51271544D01*
X116144354Y-51370147D01*
X116269853Y-51495646D01*
X116368456Y-51643216D01*
X116436376Y-51807188D01*
X116471000Y-51981259D01*
X116471000Y-52158741D01*
X116436376Y-52332812D01*
X116368456Y-52496784D01*
X116269853Y-52644354D01*
X116144354Y-52769853D01*
X115996784Y-52868456D01*
X115832812Y-52936376D01*
X115683512Y-52966073D01*
X115658742Y-52971000D01*
X115481258Y-52971000D01*
X115456488Y-52966073D01*
X115307188Y-52936376D01*
X115143216Y-52868456D01*
X114995646Y-52769853D01*
X114870147Y-52644354D01*
X114771544Y-52496784D01*
X114703624Y-52332812D01*
X114669000Y-52158741D01*
X114669000Y-51981259D01*
X114703624Y-51807188D01*
X114771544Y-51643216D01*
X114870147Y-51495646D01*
X114995646Y-51370147D01*
X115143216Y-51271544D01*
X115307188Y-51203624D01*
X115456488Y-51173927D01*
X115481258Y-51169000D01*
X115658742Y-51169000D01*
X115683512Y-51173927D01*
G37*
G36*
X123303512Y-51173927D02*
G01*
X123452812Y-51203624D01*
X123616784Y-51271544D01*
X123764354Y-51370147D01*
X123889853Y-51495646D01*
X123988456Y-51643216D01*
X124056376Y-51807188D01*
X124091000Y-51981259D01*
X124091000Y-52158741D01*
X124056376Y-52332812D01*
X123988456Y-52496784D01*
X123889853Y-52644354D01*
X123764354Y-52769853D01*
X123616784Y-52868456D01*
X123452812Y-52936376D01*
X123303512Y-52966073D01*
X123278742Y-52971000D01*
X123101258Y-52971000D01*
X123076488Y-52966073D01*
X122927188Y-52936376D01*
X122763216Y-52868456D01*
X122615646Y-52769853D01*
X122490147Y-52644354D01*
X122391544Y-52496784D01*
X122323624Y-52332812D01*
X122289000Y-52158741D01*
X122289000Y-51981259D01*
X122323624Y-51807188D01*
X122391544Y-51643216D01*
X122490147Y-51495646D01*
X122615646Y-51370147D01*
X122763216Y-51271544D01*
X122927188Y-51203624D01*
X123076488Y-51173927D01*
X123101258Y-51169000D01*
X123278742Y-51169000D01*
X123303512Y-51173927D01*
G37*
G36*
X118223512Y-51173927D02*
G01*
X118372812Y-51203624D01*
X118536784Y-51271544D01*
X118684354Y-51370147D01*
X118809853Y-51495646D01*
X118908456Y-51643216D01*
X118976376Y-51807188D01*
X119011000Y-51981259D01*
X119011000Y-52158741D01*
X118976376Y-52332812D01*
X118908456Y-52496784D01*
X118809853Y-52644354D01*
X118684354Y-52769853D01*
X118536784Y-52868456D01*
X118372812Y-52936376D01*
X118223512Y-52966073D01*
X118198742Y-52971000D01*
X118021258Y-52971000D01*
X117996488Y-52966073D01*
X117847188Y-52936376D01*
X117683216Y-52868456D01*
X117535646Y-52769853D01*
X117410147Y-52644354D01*
X117311544Y-52496784D01*
X117243624Y-52332812D01*
X117209000Y-52158741D01*
X117209000Y-51981259D01*
X117243624Y-51807188D01*
X117311544Y-51643216D01*
X117410147Y-51495646D01*
X117535646Y-51370147D01*
X117683216Y-51271544D01*
X117847188Y-51203624D01*
X117996488Y-51173927D01*
X118021258Y-51169000D01*
X118198742Y-51169000D01*
X118223512Y-51173927D01*
G37*
G36*
X105523512Y-51173927D02*
G01*
X105672812Y-51203624D01*
X105836784Y-51271544D01*
X105984354Y-51370147D01*
X106109853Y-51495646D01*
X106208456Y-51643216D01*
X106276376Y-51807188D01*
X106311000Y-51981259D01*
X106311000Y-52158741D01*
X106276376Y-52332812D01*
X106208456Y-52496784D01*
X106109853Y-52644354D01*
X105984354Y-52769853D01*
X105836784Y-52868456D01*
X105672812Y-52936376D01*
X105523512Y-52966073D01*
X105498742Y-52971000D01*
X105321258Y-52971000D01*
X105296488Y-52966073D01*
X105147188Y-52936376D01*
X104983216Y-52868456D01*
X104835646Y-52769853D01*
X104710147Y-52644354D01*
X104611544Y-52496784D01*
X104543624Y-52332812D01*
X104509000Y-52158741D01*
X104509000Y-51981259D01*
X104543624Y-51807188D01*
X104611544Y-51643216D01*
X104710147Y-51495646D01*
X104835646Y-51370147D01*
X104983216Y-51271544D01*
X105147188Y-51203624D01*
X105296488Y-51173927D01*
X105321258Y-51169000D01*
X105498742Y-51169000D01*
X105523512Y-51173927D01*
G37*
G36*
X73138512Y-51133927D02*
G01*
X73287812Y-51163624D01*
X73451784Y-51231544D01*
X73599354Y-51330147D01*
X73724853Y-51455646D01*
X73823456Y-51603216D01*
X73891376Y-51767188D01*
X73926000Y-51941259D01*
X73926000Y-52118741D01*
X73891376Y-52292812D01*
X73823456Y-52456784D01*
X73724853Y-52604354D01*
X73599354Y-52729853D01*
X73451784Y-52828456D01*
X73287812Y-52896376D01*
X73138512Y-52926073D01*
X73113742Y-52931000D01*
X72936258Y-52931000D01*
X72911488Y-52926073D01*
X72762188Y-52896376D01*
X72598216Y-52828456D01*
X72450646Y-52729853D01*
X72325147Y-52604354D01*
X72226544Y-52456784D01*
X72158624Y-52292812D01*
X72124000Y-52118741D01*
X72124000Y-51941259D01*
X72158624Y-51767188D01*
X72226544Y-51603216D01*
X72325147Y-51455646D01*
X72450646Y-51330147D01*
X72598216Y-51231544D01*
X72762188Y-51163624D01*
X72911488Y-51133927D01*
X72936258Y-51129000D01*
X73113742Y-51129000D01*
X73138512Y-51133927D01*
G37*
G36*
X62978512Y-51133927D02*
G01*
X63127812Y-51163624D01*
X63291784Y-51231544D01*
X63439354Y-51330147D01*
X63564853Y-51455646D01*
X63663456Y-51603216D01*
X63731376Y-51767188D01*
X63766000Y-51941259D01*
X63766000Y-52118741D01*
X63731376Y-52292812D01*
X63663456Y-52456784D01*
X63564853Y-52604354D01*
X63439354Y-52729853D01*
X63291784Y-52828456D01*
X63127812Y-52896376D01*
X62978512Y-52926073D01*
X62953742Y-52931000D01*
X62776258Y-52931000D01*
X62751488Y-52926073D01*
X62602188Y-52896376D01*
X62438216Y-52828456D01*
X62290646Y-52729853D01*
X62165147Y-52604354D01*
X62066544Y-52456784D01*
X61998624Y-52292812D01*
X61964000Y-52118741D01*
X61964000Y-51941259D01*
X61998624Y-51767188D01*
X62066544Y-51603216D01*
X62165147Y-51455646D01*
X62290646Y-51330147D01*
X62438216Y-51231544D01*
X62602188Y-51163624D01*
X62751488Y-51133927D01*
X62776258Y-51129000D01*
X62953742Y-51129000D01*
X62978512Y-51133927D01*
G37*
G36*
X65518512Y-51133927D02*
G01*
X65667812Y-51163624D01*
X65831784Y-51231544D01*
X65979354Y-51330147D01*
X66104853Y-51455646D01*
X66203456Y-51603216D01*
X66271376Y-51767188D01*
X66306000Y-51941259D01*
X66306000Y-52118741D01*
X66271376Y-52292812D01*
X66203456Y-52456784D01*
X66104853Y-52604354D01*
X65979354Y-52729853D01*
X65831784Y-52828456D01*
X65667812Y-52896376D01*
X65518512Y-52926073D01*
X65493742Y-52931000D01*
X65316258Y-52931000D01*
X65291488Y-52926073D01*
X65142188Y-52896376D01*
X64978216Y-52828456D01*
X64830646Y-52729853D01*
X64705147Y-52604354D01*
X64606544Y-52456784D01*
X64538624Y-52292812D01*
X64504000Y-52118741D01*
X64504000Y-51941259D01*
X64538624Y-51767188D01*
X64606544Y-51603216D01*
X64705147Y-51455646D01*
X64830646Y-51330147D01*
X64978216Y-51231544D01*
X65142188Y-51163624D01*
X65291488Y-51133927D01*
X65316258Y-51129000D01*
X65493742Y-51129000D01*
X65518512Y-51133927D01*
G37*
G36*
X68058512Y-51133927D02*
G01*
X68207812Y-51163624D01*
X68371784Y-51231544D01*
X68519354Y-51330147D01*
X68644853Y-51455646D01*
X68743456Y-51603216D01*
X68811376Y-51767188D01*
X68846000Y-51941259D01*
X68846000Y-52118741D01*
X68811376Y-52292812D01*
X68743456Y-52456784D01*
X68644853Y-52604354D01*
X68519354Y-52729853D01*
X68371784Y-52828456D01*
X68207812Y-52896376D01*
X68058512Y-52926073D01*
X68033742Y-52931000D01*
X67856258Y-52931000D01*
X67831488Y-52926073D01*
X67682188Y-52896376D01*
X67518216Y-52828456D01*
X67370646Y-52729853D01*
X67245147Y-52604354D01*
X67146544Y-52456784D01*
X67078624Y-52292812D01*
X67044000Y-52118741D01*
X67044000Y-51941259D01*
X67078624Y-51767188D01*
X67146544Y-51603216D01*
X67245147Y-51455646D01*
X67370646Y-51330147D01*
X67518216Y-51231544D01*
X67682188Y-51163624D01*
X67831488Y-51133927D01*
X67856258Y-51129000D01*
X68033742Y-51129000D01*
X68058512Y-51133927D01*
G37*
G36*
X70598512Y-51133927D02*
G01*
X70747812Y-51163624D01*
X70911784Y-51231544D01*
X71059354Y-51330147D01*
X71184853Y-51455646D01*
X71283456Y-51603216D01*
X71351376Y-51767188D01*
X71386000Y-51941259D01*
X71386000Y-52118741D01*
X71351376Y-52292812D01*
X71283456Y-52456784D01*
X71184853Y-52604354D01*
X71059354Y-52729853D01*
X70911784Y-52828456D01*
X70747812Y-52896376D01*
X70598512Y-52926073D01*
X70573742Y-52931000D01*
X70396258Y-52931000D01*
X70371488Y-52926073D01*
X70222188Y-52896376D01*
X70058216Y-52828456D01*
X69910646Y-52729853D01*
X69785147Y-52604354D01*
X69686544Y-52456784D01*
X69618624Y-52292812D01*
X69584000Y-52118741D01*
X69584000Y-51941259D01*
X69618624Y-51767188D01*
X69686544Y-51603216D01*
X69785147Y-51455646D01*
X69910646Y-51330147D01*
X70058216Y-51231544D01*
X70222188Y-51163624D01*
X70371488Y-51133927D01*
X70396258Y-51129000D01*
X70573742Y-51129000D01*
X70598512Y-51133927D01*
G37*
G36*
X86626000Y-52931000D02*
G01*
X84824000Y-52931000D01*
X84824000Y-51129000D01*
X86626000Y-51129000D01*
X86626000Y-52931000D01*
G37*
G36*
X83298512Y-51133927D02*
G01*
X83447812Y-51163624D01*
X83611784Y-51231544D01*
X83759354Y-51330147D01*
X83884853Y-51455646D01*
X83983456Y-51603216D01*
X84051376Y-51767188D01*
X84086000Y-51941259D01*
X84086000Y-52118741D01*
X84051376Y-52292812D01*
X83983456Y-52456784D01*
X83884853Y-52604354D01*
X83759354Y-52729853D01*
X83611784Y-52828456D01*
X83447812Y-52896376D01*
X83298512Y-52926073D01*
X83273742Y-52931000D01*
X83096258Y-52931000D01*
X83071488Y-52926073D01*
X82922188Y-52896376D01*
X82758216Y-52828456D01*
X82610646Y-52729853D01*
X82485147Y-52604354D01*
X82386544Y-52456784D01*
X82318624Y-52292812D01*
X82284000Y-52118741D01*
X82284000Y-51941259D01*
X82318624Y-51767188D01*
X82386544Y-51603216D01*
X82485147Y-51455646D01*
X82610646Y-51330147D01*
X82758216Y-51231544D01*
X82922188Y-51163624D01*
X83071488Y-51133927D01*
X83096258Y-51129000D01*
X83273742Y-51129000D01*
X83298512Y-51133927D01*
G37*
G36*
X80758512Y-51133927D02*
G01*
X80907812Y-51163624D01*
X81071784Y-51231544D01*
X81219354Y-51330147D01*
X81344853Y-51455646D01*
X81443456Y-51603216D01*
X81511376Y-51767188D01*
X81546000Y-51941259D01*
X81546000Y-52118741D01*
X81511376Y-52292812D01*
X81443456Y-52456784D01*
X81344853Y-52604354D01*
X81219354Y-52729853D01*
X81071784Y-52828456D01*
X80907812Y-52896376D01*
X80758512Y-52926073D01*
X80733742Y-52931000D01*
X80556258Y-52931000D01*
X80531488Y-52926073D01*
X80382188Y-52896376D01*
X80218216Y-52828456D01*
X80070646Y-52729853D01*
X79945147Y-52604354D01*
X79846544Y-52456784D01*
X79778624Y-52292812D01*
X79744000Y-52118741D01*
X79744000Y-51941259D01*
X79778624Y-51767188D01*
X79846544Y-51603216D01*
X79945147Y-51455646D01*
X80070646Y-51330147D01*
X80218216Y-51231544D01*
X80382188Y-51163624D01*
X80531488Y-51133927D01*
X80556258Y-51129000D01*
X80733742Y-51129000D01*
X80758512Y-51133927D01*
G37*
G36*
X78218512Y-51133927D02*
G01*
X78367812Y-51163624D01*
X78531784Y-51231544D01*
X78679354Y-51330147D01*
X78804853Y-51455646D01*
X78903456Y-51603216D01*
X78971376Y-51767188D01*
X79006000Y-51941259D01*
X79006000Y-52118741D01*
X78971376Y-52292812D01*
X78903456Y-52456784D01*
X78804853Y-52604354D01*
X78679354Y-52729853D01*
X78531784Y-52828456D01*
X78367812Y-52896376D01*
X78218512Y-52926073D01*
X78193742Y-52931000D01*
X78016258Y-52931000D01*
X77991488Y-52926073D01*
X77842188Y-52896376D01*
X77678216Y-52828456D01*
X77530646Y-52729853D01*
X77405147Y-52604354D01*
X77306544Y-52456784D01*
X77238624Y-52292812D01*
X77204000Y-52118741D01*
X77204000Y-51941259D01*
X77238624Y-51767188D01*
X77306544Y-51603216D01*
X77405147Y-51455646D01*
X77530646Y-51330147D01*
X77678216Y-51231544D01*
X77842188Y-51163624D01*
X77991488Y-51133927D01*
X78016258Y-51129000D01*
X78193742Y-51129000D01*
X78218512Y-51133927D01*
G37*
G36*
X75678512Y-51133927D02*
G01*
X75827812Y-51163624D01*
X75991784Y-51231544D01*
X76139354Y-51330147D01*
X76264853Y-51455646D01*
X76363456Y-51603216D01*
X76431376Y-51767188D01*
X76466000Y-51941259D01*
X76466000Y-52118741D01*
X76431376Y-52292812D01*
X76363456Y-52456784D01*
X76264853Y-52604354D01*
X76139354Y-52729853D01*
X75991784Y-52828456D01*
X75827812Y-52896376D01*
X75678512Y-52926073D01*
X75653742Y-52931000D01*
X75476258Y-52931000D01*
X75451488Y-52926073D01*
X75302188Y-52896376D01*
X75138216Y-52828456D01*
X74990646Y-52729853D01*
X74865147Y-52604354D01*
X74766544Y-52456784D01*
X74698624Y-52292812D01*
X74664000Y-52118741D01*
X74664000Y-51941259D01*
X74698624Y-51767188D01*
X74766544Y-51603216D01*
X74865147Y-51455646D01*
X74990646Y-51330147D01*
X75138216Y-51231544D01*
X75302188Y-51163624D01*
X75451488Y-51133927D01*
X75476258Y-51129000D01*
X75653742Y-51129000D01*
X75678512Y-51133927D01*
G37*
G36*
X60438512Y-51133927D02*
G01*
X60587812Y-51163624D01*
X60751784Y-51231544D01*
X60899354Y-51330147D01*
X61024853Y-51455646D01*
X61123456Y-51603216D01*
X61191376Y-51767188D01*
X61226000Y-51941259D01*
X61226000Y-52118741D01*
X61191376Y-52292812D01*
X61123456Y-52456784D01*
X61024853Y-52604354D01*
X60899354Y-52729853D01*
X60751784Y-52828456D01*
X60587812Y-52896376D01*
X60438512Y-52926073D01*
X60413742Y-52931000D01*
X60236258Y-52931000D01*
X60211488Y-52926073D01*
X60062188Y-52896376D01*
X59898216Y-52828456D01*
X59750646Y-52729853D01*
X59625147Y-52604354D01*
X59526544Y-52456784D01*
X59458624Y-52292812D01*
X59424000Y-52118741D01*
X59424000Y-51941259D01*
X59458624Y-51767188D01*
X59526544Y-51603216D01*
X59625147Y-51455646D01*
X59750646Y-51330147D01*
X59898216Y-51231544D01*
X60062188Y-51163624D01*
X60211488Y-51133927D01*
X60236258Y-51129000D01*
X60413742Y-51129000D01*
X60438512Y-51133927D01*
G37*
G36*
X55358512Y-51133927D02*
G01*
X55507812Y-51163624D01*
X55671784Y-51231544D01*
X55819354Y-51330147D01*
X55944853Y-51455646D01*
X56043456Y-51603216D01*
X56111376Y-51767188D01*
X56146000Y-51941259D01*
X56146000Y-52118741D01*
X56111376Y-52292812D01*
X56043456Y-52456784D01*
X55944853Y-52604354D01*
X55819354Y-52729853D01*
X55671784Y-52828456D01*
X55507812Y-52896376D01*
X55358512Y-52926073D01*
X55333742Y-52931000D01*
X55156258Y-52931000D01*
X55131488Y-52926073D01*
X54982188Y-52896376D01*
X54818216Y-52828456D01*
X54670646Y-52729853D01*
X54545147Y-52604354D01*
X54446544Y-52456784D01*
X54378624Y-52292812D01*
X54344000Y-52118741D01*
X54344000Y-51941259D01*
X54378624Y-51767188D01*
X54446544Y-51603216D01*
X54545147Y-51455646D01*
X54670646Y-51330147D01*
X54818216Y-51231544D01*
X54982188Y-51163624D01*
X55131488Y-51133927D01*
X55156258Y-51129000D01*
X55333742Y-51129000D01*
X55358512Y-51133927D01*
G37*
G36*
X57898512Y-51133927D02*
G01*
X58047812Y-51163624D01*
X58211784Y-51231544D01*
X58359354Y-51330147D01*
X58484853Y-51455646D01*
X58583456Y-51603216D01*
X58651376Y-51767188D01*
X58686000Y-51941259D01*
X58686000Y-52118741D01*
X58651376Y-52292812D01*
X58583456Y-52456784D01*
X58484853Y-52604354D01*
X58359354Y-52729853D01*
X58211784Y-52828456D01*
X58047812Y-52896376D01*
X57898512Y-52926073D01*
X57873742Y-52931000D01*
X57696258Y-52931000D01*
X57671488Y-52926073D01*
X57522188Y-52896376D01*
X57358216Y-52828456D01*
X57210646Y-52729853D01*
X57085147Y-52604354D01*
X56986544Y-52456784D01*
X56918624Y-52292812D01*
X56884000Y-52118741D01*
X56884000Y-51941259D01*
X56918624Y-51767188D01*
X56986544Y-51603216D01*
X57085147Y-51455646D01*
X57210646Y-51330147D01*
X57358216Y-51231544D01*
X57522188Y-51163624D01*
X57671488Y-51133927D01*
X57696258Y-51129000D01*
X57873742Y-51129000D01*
X57898512Y-51133927D01*
G37*
M02*
