G04 #@! TF.GenerationSoftware,KiCad,Pcbnew,(5.1.5)-3*
G04 #@! TF.CreationDate,2021-04-21T21:21:50+09:00*
G04 #@! TF.ProjectId,animacySwarmRobotics,616e696d-6163-4795-9377-61726d526f62,rev?*
G04 #@! TF.SameCoordinates,Original*
G04 #@! TF.FileFunction,Legend,Bot*
G04 #@! TF.FilePolarity,Positive*
%FSLAX46Y46*%
G04 Gerber Fmt 4.6, Leading zero omitted, Abs format (unit mm)*
G04 Created by KiCad (PCBNEW (5.1.5)-3) date 2021-04-21 21:21:50*
%MOMM*%
%LPD*%
G04 APERTURE LIST*
%ADD10C,0.200000*%
%ADD11C,0.150000*%
%ADD12C,0.120000*%
G04 APERTURE END LIST*
D10*
X83780714Y-54984714D02*
X83818809Y-54946619D01*
X83856904Y-54832333D01*
X83856904Y-54756142D01*
X83818809Y-54641857D01*
X83742619Y-54565666D01*
X83666428Y-54527571D01*
X83514047Y-54489476D01*
X83399761Y-54489476D01*
X83247380Y-54527571D01*
X83171190Y-54565666D01*
X83095000Y-54641857D01*
X83056904Y-54756142D01*
X83056904Y-54832333D01*
X83095000Y-54946619D01*
X83133095Y-54984714D01*
X83818809Y-55289476D02*
X83856904Y-55403761D01*
X83856904Y-55594238D01*
X83818809Y-55670428D01*
X83780714Y-55708523D01*
X83704523Y-55746619D01*
X83628333Y-55746619D01*
X83552142Y-55708523D01*
X83514047Y-55670428D01*
X83475952Y-55594238D01*
X83437857Y-55441857D01*
X83399761Y-55365666D01*
X83361666Y-55327571D01*
X83285476Y-55289476D01*
X83209285Y-55289476D01*
X83133095Y-55327571D01*
X83095000Y-55365666D01*
X83056904Y-55441857D01*
X83056904Y-55632333D01*
X83095000Y-55746619D01*
X83133095Y-56051380D02*
X83095000Y-56089476D01*
X83056904Y-56165666D01*
X83056904Y-56356142D01*
X83095000Y-56432333D01*
X83133095Y-56470428D01*
X83209285Y-56508523D01*
X83285476Y-56508523D01*
X83399761Y-56470428D01*
X83856904Y-56013285D01*
X83856904Y-56508523D01*
X85218809Y-54470428D02*
X85256904Y-54584714D01*
X85256904Y-54775190D01*
X85218809Y-54851380D01*
X85180714Y-54889476D01*
X85104523Y-54927571D01*
X85028333Y-54927571D01*
X84952142Y-54889476D01*
X84914047Y-54851380D01*
X84875952Y-54775190D01*
X84837857Y-54622809D01*
X84799761Y-54546619D01*
X84761666Y-54508523D01*
X84685476Y-54470428D01*
X84609285Y-54470428D01*
X84533095Y-54508523D01*
X84495000Y-54546619D01*
X84456904Y-54622809D01*
X84456904Y-54813285D01*
X84495000Y-54927571D01*
X85180714Y-55727571D02*
X85218809Y-55689476D01*
X85256904Y-55575190D01*
X85256904Y-55499000D01*
X85218809Y-55384714D01*
X85142619Y-55308523D01*
X85066428Y-55270428D01*
X84914047Y-55232333D01*
X84799761Y-55232333D01*
X84647380Y-55270428D01*
X84571190Y-55308523D01*
X84495000Y-55384714D01*
X84456904Y-55499000D01*
X84456904Y-55575190D01*
X84495000Y-55689476D01*
X84533095Y-55727571D01*
X85256904Y-56070428D02*
X84456904Y-56070428D01*
X85256904Y-56527571D02*
X84799761Y-56184714D01*
X84456904Y-56527571D02*
X84914047Y-56070428D01*
X85856904Y-54508523D02*
X85856904Y-55003761D01*
X86161666Y-54737095D01*
X86161666Y-54851380D01*
X86199761Y-54927571D01*
X86237857Y-54965666D01*
X86314047Y-55003761D01*
X86504523Y-55003761D01*
X86580714Y-54965666D01*
X86618809Y-54927571D01*
X86656904Y-54851380D01*
X86656904Y-54622809D01*
X86618809Y-54546619D01*
X86580714Y-54508523D01*
X85856904Y-55232333D02*
X86656904Y-55499000D01*
X85856904Y-55765666D01*
X85856904Y-55956142D02*
X85856904Y-56451380D01*
X86161666Y-56184714D01*
X86161666Y-56299000D01*
X86199761Y-56375190D01*
X86237857Y-56413285D01*
X86314047Y-56451380D01*
X86504523Y-56451380D01*
X86580714Y-56413285D01*
X86618809Y-56375190D01*
X86656904Y-56299000D01*
X86656904Y-56070428D01*
X86618809Y-55994238D01*
X86580714Y-55956142D01*
X87295000Y-54889476D02*
X87256904Y-54813285D01*
X87256904Y-54699000D01*
X87295000Y-54584714D01*
X87371190Y-54508523D01*
X87447380Y-54470428D01*
X87599761Y-54432333D01*
X87714047Y-54432333D01*
X87866428Y-54470428D01*
X87942619Y-54508523D01*
X88018809Y-54584714D01*
X88056904Y-54699000D01*
X88056904Y-54775190D01*
X88018809Y-54889476D01*
X87980714Y-54927571D01*
X87714047Y-54927571D01*
X87714047Y-54775190D01*
X88056904Y-55270428D02*
X87256904Y-55270428D01*
X88056904Y-55727571D01*
X87256904Y-55727571D01*
X88056904Y-56108523D02*
X87256904Y-56108523D01*
X87256904Y-56299000D01*
X87295000Y-56413285D01*
X87371190Y-56489476D01*
X87447380Y-56527571D01*
X87599761Y-56565666D01*
X87714047Y-56565666D01*
X87866428Y-56527571D01*
X87942619Y-56489476D01*
X88018809Y-56413285D01*
X88056904Y-56299000D01*
X88056904Y-56108523D01*
X89456904Y-54241857D02*
X88656904Y-54241857D01*
X89228333Y-54508523D01*
X88656904Y-54775190D01*
X89456904Y-54775190D01*
X88656904Y-55308523D02*
X88656904Y-55460904D01*
X88695000Y-55537095D01*
X88771190Y-55613285D01*
X88923571Y-55651380D01*
X89190238Y-55651380D01*
X89342619Y-55613285D01*
X89418809Y-55537095D01*
X89456904Y-55460904D01*
X89456904Y-55308523D01*
X89418809Y-55232333D01*
X89342619Y-55156142D01*
X89190238Y-55118047D01*
X88923571Y-55118047D01*
X88771190Y-55156142D01*
X88695000Y-55232333D01*
X88656904Y-55308523D01*
X89418809Y-55956142D02*
X89456904Y-56070428D01*
X89456904Y-56260904D01*
X89418809Y-56337095D01*
X89380714Y-56375190D01*
X89304523Y-56413285D01*
X89228333Y-56413285D01*
X89152142Y-56375190D01*
X89114047Y-56337095D01*
X89075952Y-56260904D01*
X89037857Y-56108523D01*
X88999761Y-56032333D01*
X88961666Y-55994238D01*
X88885476Y-55956142D01*
X88809285Y-55956142D01*
X88733095Y-55994238D01*
X88695000Y-56032333D01*
X88656904Y-56108523D01*
X88656904Y-56299000D01*
X88695000Y-56413285D01*
X89456904Y-56756142D02*
X88656904Y-56756142D01*
X90856904Y-54241857D02*
X90056904Y-54241857D01*
X90628333Y-54508523D01*
X90056904Y-54775190D01*
X90856904Y-54775190D01*
X90856904Y-55156142D02*
X90056904Y-55156142D01*
X90818809Y-55499000D02*
X90856904Y-55613285D01*
X90856904Y-55803761D01*
X90818809Y-55879952D01*
X90780714Y-55918047D01*
X90704523Y-55956142D01*
X90628333Y-55956142D01*
X90552142Y-55918047D01*
X90514047Y-55879952D01*
X90475952Y-55803761D01*
X90437857Y-55651380D01*
X90399761Y-55575190D01*
X90361666Y-55537095D01*
X90285476Y-55499000D01*
X90209285Y-55499000D01*
X90133095Y-55537095D01*
X90095000Y-55575190D01*
X90056904Y-55651380D01*
X90056904Y-55841857D01*
X90095000Y-55956142D01*
X90056904Y-56451380D02*
X90056904Y-56603761D01*
X90095000Y-56679952D01*
X90171190Y-56756142D01*
X90323571Y-56794238D01*
X90590238Y-56794238D01*
X90742619Y-56756142D01*
X90818809Y-56679952D01*
X90856904Y-56603761D01*
X90856904Y-56451380D01*
X90818809Y-56375190D01*
X90742619Y-56299000D01*
X90590238Y-56260904D01*
X90323571Y-56260904D01*
X90171190Y-56299000D01*
X90095000Y-56375190D01*
X90056904Y-56451380D01*
D11*
X74822428Y-78469285D02*
X74693857Y-78512142D01*
X74479571Y-78512142D01*
X74393857Y-78469285D01*
X74351000Y-78426428D01*
X74308142Y-78340714D01*
X74308142Y-78255000D01*
X74351000Y-78169285D01*
X74393857Y-78126428D01*
X74479571Y-78083571D01*
X74651000Y-78040714D01*
X74736714Y-77997857D01*
X74779571Y-77955000D01*
X74822428Y-77869285D01*
X74822428Y-77783571D01*
X74779571Y-77697857D01*
X74736714Y-77655000D01*
X74651000Y-77612142D01*
X74436714Y-77612142D01*
X74308142Y-77655000D01*
X73922428Y-78512142D02*
X73922428Y-77612142D01*
X73579571Y-77612142D01*
X73493857Y-77655000D01*
X73451000Y-77697857D01*
X73408142Y-77783571D01*
X73408142Y-77912142D01*
X73451000Y-77997857D01*
X73493857Y-78040714D01*
X73579571Y-78083571D01*
X73922428Y-78083571D01*
X73022428Y-78512142D02*
X73022428Y-77612142D01*
X72508142Y-78512142D02*
X72893857Y-77997857D01*
X72508142Y-77612142D02*
X73022428Y-78126428D01*
X72122428Y-78426428D02*
X72079571Y-78469285D01*
X72122428Y-78512142D01*
X72165285Y-78469285D01*
X72122428Y-78426428D01*
X72122428Y-78512142D01*
X71736714Y-77697857D02*
X71693857Y-77655000D01*
X71608142Y-77612142D01*
X71393857Y-77612142D01*
X71308142Y-77655000D01*
X71265285Y-77697857D01*
X71222428Y-77783571D01*
X71222428Y-77869285D01*
X71265285Y-77997857D01*
X71779571Y-78512142D01*
X71222428Y-78512142D01*
X70408142Y-77612142D02*
X70836714Y-77612142D01*
X70879571Y-78040714D01*
X70836714Y-77997857D01*
X70751000Y-77955000D01*
X70536714Y-77955000D01*
X70451000Y-77997857D01*
X70408142Y-78040714D01*
X70365285Y-78126428D01*
X70365285Y-78340714D01*
X70408142Y-78426428D01*
X70451000Y-78469285D01*
X70536714Y-78512142D01*
X70751000Y-78512142D01*
X70836714Y-78469285D01*
X70879571Y-78426428D01*
X69979571Y-78426428D02*
X69936714Y-78469285D01*
X69979571Y-78512142D01*
X70022428Y-78469285D01*
X69979571Y-78426428D01*
X69979571Y-78512142D01*
X69593857Y-78469285D02*
X69465285Y-78512142D01*
X69251000Y-78512142D01*
X69165285Y-78469285D01*
X69122428Y-78426428D01*
X69079571Y-78340714D01*
X69079571Y-78255000D01*
X69122428Y-78169285D01*
X69165285Y-78126428D01*
X69251000Y-78083571D01*
X69422428Y-78040714D01*
X69508142Y-77997857D01*
X69551000Y-77955000D01*
X69593857Y-77869285D01*
X69593857Y-77783571D01*
X69551000Y-77697857D01*
X69508142Y-77655000D01*
X69422428Y-77612142D01*
X69208142Y-77612142D01*
X69079571Y-77655000D01*
X68693857Y-78512142D02*
X68693857Y-77612142D01*
X68479571Y-77612142D01*
X68351000Y-77655000D01*
X68265285Y-77740714D01*
X68222428Y-77826428D01*
X68179571Y-77997857D01*
X68179571Y-78126428D01*
X68222428Y-78297857D01*
X68265285Y-78383571D01*
X68351000Y-78469285D01*
X68479571Y-78512142D01*
X68693857Y-78512142D01*
X47167714Y-57304000D02*
X47253428Y-57261142D01*
X47382000Y-57261142D01*
X47510571Y-57304000D01*
X47596285Y-57389714D01*
X47639142Y-57475428D01*
X47682000Y-57646857D01*
X47682000Y-57775428D01*
X47639142Y-57946857D01*
X47596285Y-58032571D01*
X47510571Y-58118285D01*
X47382000Y-58161142D01*
X47296285Y-58161142D01*
X47167714Y-58118285D01*
X47124857Y-58075428D01*
X47124857Y-57775428D01*
X47296285Y-57775428D01*
X46739142Y-58161142D02*
X46739142Y-57261142D01*
X46224857Y-58161142D01*
X46224857Y-57261142D01*
X45796285Y-58161142D02*
X45796285Y-57261142D01*
X45582000Y-57261142D01*
X45453428Y-57304000D01*
X45367714Y-57389714D01*
X45324857Y-57475428D01*
X45282000Y-57646857D01*
X45282000Y-57775428D01*
X45324857Y-57946857D01*
X45367714Y-58032571D01*
X45453428Y-58118285D01*
X45582000Y-58161142D01*
X45796285Y-58161142D01*
X47510571Y-61161142D02*
X47510571Y-60261142D01*
X47296285Y-60261142D01*
X47167714Y-60304000D01*
X47082000Y-60389714D01*
X47039142Y-60475428D01*
X46996285Y-60646857D01*
X46996285Y-60775428D01*
X47039142Y-60946857D01*
X47082000Y-61032571D01*
X47167714Y-61118285D01*
X47296285Y-61161142D01*
X47510571Y-61161142D01*
X46739142Y-60261142D02*
X46224857Y-60261142D01*
X46482000Y-61161142D02*
X46482000Y-60261142D01*
X45410571Y-61161142D02*
X45710571Y-60732571D01*
X45924857Y-61161142D02*
X45924857Y-60261142D01*
X45582000Y-60261142D01*
X45496285Y-60304000D01*
X45453428Y-60346857D01*
X45410571Y-60432571D01*
X45410571Y-60561142D01*
X45453428Y-60646857D01*
X45496285Y-60689714D01*
X45582000Y-60732571D01*
X45924857Y-60732571D01*
X46974857Y-62661142D02*
X47274857Y-62232571D01*
X47489142Y-62661142D02*
X47489142Y-61761142D01*
X47146285Y-61761142D01*
X47060571Y-61804000D01*
X47017714Y-61846857D01*
X46974857Y-61932571D01*
X46974857Y-62061142D01*
X47017714Y-62146857D01*
X47060571Y-62189714D01*
X47146285Y-62232571D01*
X47489142Y-62232571D01*
X46717714Y-61761142D02*
X46203428Y-61761142D01*
X46460571Y-62661142D02*
X46460571Y-61761142D01*
X45946285Y-62618285D02*
X45817714Y-62661142D01*
X45603428Y-62661142D01*
X45517714Y-62618285D01*
X45474857Y-62575428D01*
X45432000Y-62489714D01*
X45432000Y-62404000D01*
X45474857Y-62318285D01*
X45517714Y-62275428D01*
X45603428Y-62232571D01*
X45774857Y-62189714D01*
X45860571Y-62146857D01*
X45903428Y-62104000D01*
X45946285Y-62018285D01*
X45946285Y-61932571D01*
X45903428Y-61846857D01*
X45860571Y-61804000D01*
X45774857Y-61761142D01*
X45560571Y-61761142D01*
X45432000Y-61804000D01*
X47617714Y-64761142D02*
X47103428Y-64761142D01*
X47360571Y-65661142D02*
X47360571Y-64761142D01*
X46889142Y-64761142D02*
X46289142Y-65661142D01*
X46289142Y-64761142D02*
X46889142Y-65661142D01*
X45946285Y-65661142D02*
X45946285Y-64761142D01*
X45732000Y-64761142D01*
X45603428Y-64804000D01*
X45517714Y-64889714D01*
X45474857Y-64975428D01*
X45432000Y-65146857D01*
X45432000Y-65275428D01*
X45474857Y-65446857D01*
X45517714Y-65532571D01*
X45603428Y-65618285D01*
X45732000Y-65661142D01*
X45946285Y-65661142D01*
X47082000Y-67161142D02*
X47382000Y-66732571D01*
X47596285Y-67161142D02*
X47596285Y-66261142D01*
X47253428Y-66261142D01*
X47167714Y-66304000D01*
X47124857Y-66346857D01*
X47082000Y-66432571D01*
X47082000Y-66561142D01*
X47124857Y-66646857D01*
X47167714Y-66689714D01*
X47253428Y-66732571D01*
X47596285Y-66732571D01*
X46782000Y-66261142D02*
X46182000Y-67161142D01*
X46182000Y-66261142D02*
X46782000Y-67161142D01*
X45839142Y-67161142D02*
X45839142Y-66261142D01*
X45624857Y-66261142D01*
X45496285Y-66304000D01*
X45410571Y-66389714D01*
X45367714Y-66475428D01*
X45324857Y-66646857D01*
X45324857Y-66775428D01*
X45367714Y-66946857D01*
X45410571Y-67032571D01*
X45496285Y-67118285D01*
X45624857Y-67161142D01*
X45839142Y-67161142D01*
X47596285Y-69261142D02*
X47039142Y-69261142D01*
X47339142Y-69604000D01*
X47210571Y-69604000D01*
X47124857Y-69646857D01*
X47082000Y-69689714D01*
X47039142Y-69775428D01*
X47039142Y-69989714D01*
X47082000Y-70075428D01*
X47124857Y-70118285D01*
X47210571Y-70161142D01*
X47467714Y-70161142D01*
X47553428Y-70118285D01*
X47596285Y-70075428D01*
X46782000Y-69261142D02*
X46482000Y-70161142D01*
X46182000Y-69261142D01*
X45967714Y-69261142D02*
X45410571Y-69261142D01*
X45710571Y-69604000D01*
X45582000Y-69604000D01*
X45496285Y-69646857D01*
X45453428Y-69689714D01*
X45410571Y-69775428D01*
X45410571Y-69989714D01*
X45453428Y-70075428D01*
X45496285Y-70118285D01*
X45582000Y-70161142D01*
X45839142Y-70161142D01*
X45924857Y-70118285D01*
X45967714Y-70075428D01*
D10*
X50511904Y-69830000D02*
X50607142Y-69782380D01*
X50750000Y-69782380D01*
X50892857Y-69830000D01*
X50988095Y-69925238D01*
X51035714Y-70020476D01*
X51083333Y-70210952D01*
X51083333Y-70353809D01*
X51035714Y-70544285D01*
X50988095Y-70639523D01*
X50892857Y-70734761D01*
X50750000Y-70782380D01*
X50654761Y-70782380D01*
X50511904Y-70734761D01*
X50464285Y-70687142D01*
X50464285Y-70353809D01*
X50654761Y-70353809D01*
X50035714Y-70782380D02*
X50035714Y-69782380D01*
X49464285Y-70782380D01*
X49464285Y-69782380D01*
X48988095Y-70782380D02*
X48988095Y-69782380D01*
X48750000Y-69782380D01*
X48607142Y-69830000D01*
X48511904Y-69925238D01*
X48464285Y-70020476D01*
X48416666Y-70210952D01*
X48416666Y-70353809D01*
X48464285Y-70544285D01*
X48511904Y-70639523D01*
X48607142Y-70734761D01*
X48750000Y-70782380D01*
X48988095Y-70782380D01*
D11*
X84074000Y-65151000D02*
X85090000Y-65151000D01*
X85090000Y-64135000D02*
X84074000Y-64135000D01*
X47225000Y-92989000D02*
X47125000Y-92989000D01*
X47125000Y-91589000D02*
X48825000Y-91589000D01*
X48825000Y-92989000D02*
X47125000Y-92989000D01*
X48825000Y-93494000D02*
X48925000Y-93494000D01*
X48925000Y-94894000D02*
X47225000Y-94894000D01*
X47225000Y-93494000D02*
X48925000Y-93494000D01*
X62422000Y-98082000D02*
X62422000Y-98182000D01*
X61022000Y-98182000D02*
X61022000Y-96482000D01*
X62422000Y-96482000D02*
X62422000Y-98182000D01*
X48825000Y-95399000D02*
X48925000Y-95399000D01*
X48925000Y-96799000D02*
X47225000Y-96799000D01*
X47225000Y-95399000D02*
X48925000Y-95399000D01*
X84925000Y-76900000D02*
X84825000Y-76900000D01*
X84825000Y-75500000D02*
X86525000Y-75500000D01*
X86525000Y-76900000D02*
X84825000Y-76900000D01*
X84925000Y-94680000D02*
X84825000Y-94680000D01*
X84825000Y-93280000D02*
X86525000Y-93280000D01*
X86525000Y-94680000D02*
X84825000Y-94680000D01*
X66929000Y-83780000D02*
X67564000Y-83780000D01*
X76454000Y-94575000D02*
X76454000Y-96480000D01*
X77089000Y-93940000D02*
X76454000Y-94575000D01*
X77089000Y-92670000D02*
X77089000Y-93940000D01*
X77724000Y-92670000D02*
X77089000Y-92670000D01*
X77724000Y-96480000D02*
X77724000Y-92670000D01*
X69469000Y-94575000D02*
X69469000Y-96480000D01*
X68834000Y-93940000D02*
X69469000Y-94575000D01*
X68834000Y-92670000D02*
X68834000Y-93940000D01*
X68199000Y-92670000D02*
X68834000Y-92670000D01*
X77089000Y-83780000D02*
X78359000Y-83780000D01*
X64389000Y-83780000D02*
X66929000Y-83780000D01*
X64389000Y-99020000D02*
X64389000Y-83780000D01*
X78359000Y-83780000D02*
X78359000Y-99020000D01*
X66929000Y-92670000D02*
X66929000Y-88860000D01*
X65659000Y-92670000D02*
X66929000Y-92670000D01*
X65659000Y-86320000D02*
X65659000Y-92670000D01*
X66929000Y-86320000D02*
X65659000Y-86320000D01*
X66929000Y-86320000D02*
X68199000Y-88860000D01*
X68199000Y-96480000D02*
X68199000Y-92670000D01*
X68199000Y-97750000D02*
X64389000Y-99020000D01*
X74549000Y-97750000D02*
X68199000Y-97750000D01*
X78359000Y-99020000D02*
X74549000Y-97750000D01*
X94234000Y-54991000D02*
X94234000Y-53975000D01*
X93218000Y-53975000D02*
X93218000Y-54991000D01*
X90170000Y-59563000D02*
X89154000Y-59563000D01*
X89154000Y-60579000D02*
X90170000Y-60579000D01*
X90170000Y-64135000D02*
X89154000Y-64135000D01*
X89154000Y-65151000D02*
X90170000Y-65151000D01*
X88138000Y-80518000D02*
X88138000Y-79502000D01*
X87122000Y-79502000D02*
X87122000Y-80518000D01*
X83312000Y-84582000D02*
X83312000Y-85598000D01*
X84328000Y-85598000D02*
X84328000Y-84582000D01*
X86868000Y-85598000D02*
X86868000Y-84582000D01*
X85852000Y-84582000D02*
X85852000Y-85598000D01*
X88138000Y-90678000D02*
X88138000Y-89662000D01*
X87122000Y-89662000D02*
X87122000Y-90678000D01*
D12*
X56388000Y-55372000D02*
X55118000Y-55372000D01*
X56388000Y-56642000D02*
X56388000Y-55372000D01*
X54075071Y-69722000D02*
X53678000Y-69722000D01*
X54075071Y-68962000D02*
X53678000Y-68962000D01*
X45018000Y-69722000D02*
X51018000Y-69722000D01*
X45018000Y-68962000D02*
X45018000Y-69722000D01*
X51018000Y-68962000D02*
X45018000Y-68962000D01*
X53678000Y-68072000D02*
X51018000Y-68072000D01*
X54075071Y-67182000D02*
X53678000Y-67182000D01*
X54075071Y-66422000D02*
X53678000Y-66422000D01*
X45018000Y-67182000D02*
X51018000Y-67182000D01*
X45018000Y-66422000D02*
X45018000Y-67182000D01*
X51018000Y-66422000D02*
X45018000Y-66422000D01*
X53678000Y-65532000D02*
X51018000Y-65532000D01*
X54075071Y-64642000D02*
X53678000Y-64642000D01*
X54075071Y-63882000D02*
X53678000Y-63882000D01*
X45018000Y-64642000D02*
X51018000Y-64642000D01*
X45018000Y-63882000D02*
X45018000Y-64642000D01*
X51018000Y-63882000D02*
X45018000Y-63882000D01*
X53678000Y-62992000D02*
X51018000Y-62992000D01*
X54075071Y-62102000D02*
X53678000Y-62102000D01*
X54075071Y-61342000D02*
X53678000Y-61342000D01*
X45018000Y-62102000D02*
X51018000Y-62102000D01*
X45018000Y-61342000D02*
X45018000Y-62102000D01*
X51018000Y-61342000D02*
X45018000Y-61342000D01*
X53678000Y-60452000D02*
X51018000Y-60452000D01*
X54075071Y-59562000D02*
X53678000Y-59562000D01*
X54075071Y-58802000D02*
X53678000Y-58802000D01*
X45018000Y-59562000D02*
X51018000Y-59562000D01*
X45018000Y-58802000D02*
X45018000Y-59562000D01*
X51018000Y-58802000D02*
X45018000Y-58802000D01*
X53678000Y-57912000D02*
X51018000Y-57912000D01*
X54008000Y-57022000D02*
X53678000Y-57022000D01*
X54008000Y-56262000D02*
X53678000Y-56262000D01*
X51018000Y-56922000D02*
X45018000Y-56922000D01*
X51018000Y-56802000D02*
X45018000Y-56802000D01*
X51018000Y-56682000D02*
X45018000Y-56682000D01*
X51018000Y-56562000D02*
X45018000Y-56562000D01*
X51018000Y-56442000D02*
X45018000Y-56442000D01*
X51018000Y-56322000D02*
X45018000Y-56322000D01*
X45018000Y-57022000D02*
X51018000Y-57022000D01*
X45018000Y-56262000D02*
X45018000Y-57022000D01*
X51018000Y-56262000D02*
X45018000Y-56262000D01*
X51018000Y-55312000D02*
X53678000Y-55312000D01*
X51018000Y-70672000D02*
X51018000Y-55312000D01*
X53678000Y-70672000D02*
X51018000Y-70672000D01*
X53678000Y-55312000D02*
X53678000Y-70672000D01*
D11*
X92710000Y-54991000D02*
X92710000Y-53975000D01*
X91694000Y-53975000D02*
X91694000Y-54991000D01*
X122428000Y-127508000D02*
X122428000Y-126492000D01*
X121412000Y-126492000D02*
X121412000Y-127508000D01*
X121158000Y-127508000D02*
X121158000Y-126492000D01*
X120142000Y-126492000D02*
X120142000Y-127508000D01*
X50038000Y-68834000D02*
X49022000Y-68834000D01*
X49022000Y-69850000D02*
X50038000Y-69850000D01*
X48260000Y-76962000D02*
X49276000Y-76962000D01*
X49276000Y-75946000D02*
X48260000Y-75946000D01*
X49276000Y-77851000D02*
X48260000Y-77851000D01*
X48260000Y-78867000D02*
X49276000Y-78867000D01*
X51270000Y-84898000D02*
X52970000Y-84898000D01*
X52970000Y-86298000D02*
X51270000Y-86298000D01*
X52870000Y-84898000D02*
X52970000Y-84898000D01*
X75146000Y-73090000D02*
X75046000Y-73090000D01*
X75046000Y-71690000D02*
X76746000Y-71690000D01*
X76746000Y-73090000D02*
X75046000Y-73090000D01*
X74638000Y-60390000D02*
X74538000Y-60390000D01*
X74538000Y-58990000D02*
X76238000Y-58990000D01*
X76238000Y-60390000D02*
X74538000Y-60390000D01*
X70574000Y-58990000D02*
X72274000Y-58990000D01*
X72274000Y-60390000D02*
X70574000Y-60390000D01*
X72174000Y-58990000D02*
X72274000Y-58990000D01*
X49822000Y-75122000D02*
X48122000Y-75122000D01*
X48122000Y-73722000D02*
X49822000Y-73722000D01*
X48222000Y-75122000D02*
X48122000Y-75122000D01*
X60514000Y-61430000D02*
X60514000Y-61330000D01*
X61914000Y-61330000D02*
X61914000Y-63030000D01*
X60514000Y-63030000D02*
X60514000Y-61330000D01*
X118680000Y-79718000D02*
X118680000Y-79618000D01*
X120080000Y-79618000D02*
X120080000Y-81318000D01*
X118680000Y-81318000D02*
X118680000Y-79618000D01*
X132118000Y-94045000D02*
X130418000Y-94045000D01*
X130418000Y-92645000D02*
X132118000Y-92645000D01*
X130518000Y-94045000D02*
X130418000Y-94045000D01*
X110428000Y-91224000D02*
X110428000Y-91324000D01*
X109028000Y-91324000D02*
X109028000Y-89624000D01*
X110428000Y-89624000D02*
X110428000Y-91324000D01*
X134074000Y-62422000D02*
X133974000Y-62422000D01*
X133974000Y-61022000D02*
X135674000Y-61022000D01*
X135674000Y-62422000D02*
X133974000Y-62422000D01*
X135674000Y-59882000D02*
X133974000Y-59882000D01*
X133974000Y-58482000D02*
X135674000Y-58482000D01*
X134074000Y-59882000D02*
X133974000Y-59882000D01*
X137486000Y-72198000D02*
X137586000Y-72198000D01*
X137586000Y-73598000D02*
X135886000Y-73598000D01*
X135886000Y-72198000D02*
X137586000Y-72198000D01*
D12*
X86681000Y-58895000D02*
X86681000Y-58092530D01*
X86681000Y-57477470D02*
X86681000Y-56675000D01*
X92966000Y-58895000D02*
X86681000Y-58895000D01*
X92966000Y-56675000D02*
X86681000Y-56675000D01*
X92966000Y-58895000D02*
X92966000Y-58348471D01*
X92966000Y-57221529D02*
X92966000Y-56675000D01*
X93726000Y-58895000D02*
X94486000Y-58895000D01*
X94486000Y-58895000D02*
X94486000Y-57785000D01*
X72801000Y-80575000D02*
X72501000Y-80875000D01*
X73101000Y-80875000D02*
X72501000Y-80875000D01*
X72801000Y-80575000D02*
X73101000Y-80875000D01*
X73551000Y-80375000D02*
X73551000Y-78375000D01*
X69451000Y-80375000D02*
X73551000Y-80375000D01*
X69451000Y-78375000D02*
X69451000Y-80375000D01*
X73551000Y-78375000D02*
X69451000Y-78375000D01*
X84706000Y-65675000D02*
X84706000Y-67675000D01*
X87506000Y-65675000D02*
X84706000Y-65675000D01*
X87506000Y-67675000D02*
X87506000Y-65675000D01*
X84706000Y-67675000D02*
X87506000Y-67675000D01*
X141902000Y-76768000D02*
X141902000Y-61408000D01*
X141902000Y-61408000D02*
X144562000Y-61408000D01*
X144562000Y-61408000D02*
X144562000Y-76768000D01*
X144562000Y-76768000D02*
X141902000Y-76768000D01*
X144562000Y-75818000D02*
X150562000Y-75818000D01*
X150562000Y-75818000D02*
X150562000Y-75058000D01*
X150562000Y-75058000D02*
X144562000Y-75058000D01*
X144562000Y-75758000D02*
X150562000Y-75758000D01*
X144562000Y-75638000D02*
X150562000Y-75638000D01*
X144562000Y-75518000D02*
X150562000Y-75518000D01*
X144562000Y-75398000D02*
X150562000Y-75398000D01*
X144562000Y-75278000D02*
X150562000Y-75278000D01*
X144562000Y-75158000D02*
X150562000Y-75158000D01*
X141572000Y-75818000D02*
X141902000Y-75818000D01*
X141572000Y-75058000D02*
X141902000Y-75058000D01*
X141902000Y-74168000D02*
X144562000Y-74168000D01*
X144562000Y-73278000D02*
X150562000Y-73278000D01*
X150562000Y-73278000D02*
X150562000Y-72518000D01*
X150562000Y-72518000D02*
X144562000Y-72518000D01*
X141504929Y-73278000D02*
X141902000Y-73278000D01*
X141504929Y-72518000D02*
X141902000Y-72518000D01*
X141902000Y-71628000D02*
X144562000Y-71628000D01*
X144562000Y-70738000D02*
X150562000Y-70738000D01*
X150562000Y-70738000D02*
X150562000Y-69978000D01*
X150562000Y-69978000D02*
X144562000Y-69978000D01*
X141504929Y-70738000D02*
X141902000Y-70738000D01*
X141504929Y-69978000D02*
X141902000Y-69978000D01*
X141902000Y-69088000D02*
X144562000Y-69088000D01*
X144562000Y-68198000D02*
X150562000Y-68198000D01*
X150562000Y-68198000D02*
X150562000Y-67438000D01*
X150562000Y-67438000D02*
X144562000Y-67438000D01*
X141504929Y-68198000D02*
X141902000Y-68198000D01*
X141504929Y-67438000D02*
X141902000Y-67438000D01*
X141902000Y-66548000D02*
X144562000Y-66548000D01*
X144562000Y-65658000D02*
X150562000Y-65658000D01*
X150562000Y-65658000D02*
X150562000Y-64898000D01*
X150562000Y-64898000D02*
X144562000Y-64898000D01*
X141504929Y-65658000D02*
X141902000Y-65658000D01*
X141504929Y-64898000D02*
X141902000Y-64898000D01*
X141902000Y-64008000D02*
X144562000Y-64008000D01*
X144562000Y-63118000D02*
X150562000Y-63118000D01*
X150562000Y-63118000D02*
X150562000Y-62358000D01*
X150562000Y-62358000D02*
X144562000Y-62358000D01*
X141504929Y-63118000D02*
X141902000Y-63118000D01*
X141504929Y-62358000D02*
X141902000Y-62358000D01*
X139192000Y-75438000D02*
X139192000Y-76708000D01*
X139192000Y-76708000D02*
X140462000Y-76708000D01*
X86740000Y-91120000D02*
X85690000Y-91120000D01*
X86740000Y-89320000D02*
X86740000Y-91120000D01*
X83440000Y-91120000D02*
X84490000Y-91120000D01*
X83440000Y-88720000D02*
X83440000Y-91120000D01*
X86740000Y-81460000D02*
X86740000Y-79060000D01*
X86740000Y-79060000D02*
X85690000Y-79060000D01*
X83440000Y-80860000D02*
X83440000Y-79060000D01*
X83440000Y-79060000D02*
X84490000Y-79060000D01*
D11*
X49022000Y-68326000D02*
X50038000Y-68326000D01*
X50038000Y-67310000D02*
X49022000Y-67310000D01*
X119888000Y-127508000D02*
X119888000Y-126492000D01*
X118872000Y-126492000D02*
X118872000Y-127508000D01*
X117602000Y-126492000D02*
X117602000Y-127508000D01*
X118618000Y-127508000D02*
X118618000Y-126492000D01*
X133096000Y-72390000D02*
X132080000Y-72390000D01*
X132080000Y-73406000D02*
X133096000Y-73406000D01*
X106299000Y-64770000D02*
X106299000Y-63754000D01*
X105283000Y-63754000D02*
X105283000Y-64770000D01*
X104648000Y-73787000D02*
X103632000Y-73787000D01*
X103632000Y-74803000D02*
X104648000Y-74803000D01*
X103632000Y-69088000D02*
X104648000Y-69088000D01*
X104648000Y-68072000D02*
X103632000Y-68072000D01*
X109347000Y-63754000D02*
X109347000Y-64770000D01*
X110363000Y-64770000D02*
X110363000Y-63754000D01*
X130683000Y-81153000D02*
X130683000Y-80137000D01*
X129667000Y-80137000D02*
X129667000Y-81153000D01*
X127762000Y-80137000D02*
X127762000Y-81153000D01*
X128778000Y-81153000D02*
X128778000Y-80137000D01*
X125857000Y-80137000D02*
X125857000Y-81153000D01*
X126873000Y-81153000D02*
X126873000Y-80137000D01*
X123952000Y-80137000D02*
X123952000Y-81153000D01*
X124968000Y-81153000D02*
X124968000Y-80137000D01*
X116332000Y-80137000D02*
X116332000Y-81153000D01*
X117348000Y-81153000D02*
X117348000Y-80137000D01*
X115443000Y-81153000D02*
X115443000Y-80137000D01*
X114427000Y-80137000D02*
X114427000Y-81153000D01*
X112522000Y-80137000D02*
X112522000Y-81153000D01*
X113538000Y-81153000D02*
X113538000Y-80137000D01*
X111633000Y-81153000D02*
X111633000Y-80137000D01*
X110617000Y-80137000D02*
X110617000Y-81153000D01*
X136398000Y-78867000D02*
X135382000Y-78867000D01*
X135382000Y-79883000D02*
X136398000Y-79883000D01*
X135382000Y-81788000D02*
X136398000Y-81788000D01*
X136398000Y-80772000D02*
X135382000Y-80772000D01*
X136398000Y-82677000D02*
X135382000Y-82677000D01*
X135382000Y-83693000D02*
X136398000Y-83693000D01*
X135382000Y-85598000D02*
X136398000Y-85598000D01*
X136398000Y-84582000D02*
X135382000Y-84582000D01*
X105918000Y-84582000D02*
X104902000Y-84582000D01*
X104902000Y-85598000D02*
X105918000Y-85598000D01*
X105918000Y-82677000D02*
X104902000Y-82677000D01*
X104902000Y-83693000D02*
X105918000Y-83693000D01*
X105918000Y-80772000D02*
X104902000Y-80772000D01*
X104902000Y-81788000D02*
X105918000Y-81788000D01*
X104902000Y-79883000D02*
X105918000Y-79883000D01*
X105918000Y-78867000D02*
X104902000Y-78867000D01*
D12*
X60174000Y-78810000D02*
X60174000Y-78710000D01*
X60174000Y-78710000D02*
X57174000Y-78710000D01*
X57174000Y-78710000D02*
X57174000Y-78810000D01*
X57174000Y-81210000D02*
X57174000Y-81310000D01*
X57174000Y-81310000D02*
X60174000Y-81310000D01*
X60174000Y-81310000D02*
X60174000Y-81210000D01*
X60374000Y-78210000D02*
G75*
G03X60374000Y-78210000I-200000J0D01*
G01*
D11*
X120650000Y-64088476D02*
X120809099Y-64247575D01*
X115523476Y-69215000D02*
X115753286Y-69444810D01*
X120650000Y-74341524D02*
X120420190Y-74111714D01*
X125776524Y-69215000D02*
X125546714Y-68985190D01*
X120650000Y-64088476D02*
X120420190Y-64318286D01*
X125776524Y-69215000D02*
X125546714Y-69444810D01*
X120650000Y-74341524D02*
X120879810Y-74111714D01*
X115523476Y-69215000D02*
X115753286Y-68985190D01*
X120809099Y-64247575D02*
X121816726Y-63239948D01*
D12*
X74706000Y-60722000D02*
X72106000Y-60722000D01*
X72106000Y-62722000D02*
X74706000Y-62722000D01*
X130572000Y-59152000D02*
X130572000Y-61752000D01*
X132572000Y-61752000D02*
X132572000Y-59152000D01*
X57134000Y-91676000D02*
X55134000Y-91676000D01*
X57134000Y-94476000D02*
X57134000Y-91676000D01*
X55134000Y-94476000D02*
X57134000Y-94476000D01*
X55134000Y-91676000D02*
X55134000Y-94476000D01*
D11*
X81668857Y-65095380D02*
X82002190Y-64619190D01*
X82240285Y-65095380D02*
X82240285Y-64095380D01*
X81859333Y-64095380D01*
X81764095Y-64143000D01*
X81716476Y-64190619D01*
X81668857Y-64285857D01*
X81668857Y-64428714D01*
X81716476Y-64523952D01*
X81764095Y-64571571D01*
X81859333Y-64619190D01*
X82240285Y-64619190D01*
X80716476Y-65095380D02*
X81287904Y-65095380D01*
X81002190Y-65095380D02*
X81002190Y-64095380D01*
X81097428Y-64238238D01*
X81192666Y-64333476D01*
X81287904Y-64381095D01*
X80383142Y-64095380D02*
X79716476Y-64095380D01*
X80145047Y-65095380D01*
X50731666Y-98361142D02*
X50779285Y-98408761D01*
X50922142Y-98456380D01*
X51017380Y-98456380D01*
X51160238Y-98408761D01*
X51255476Y-98313523D01*
X51303095Y-98218285D01*
X51350714Y-98027809D01*
X51350714Y-97884952D01*
X51303095Y-97694476D01*
X51255476Y-97599238D01*
X51160238Y-97504000D01*
X51017380Y-97456380D01*
X50922142Y-97456380D01*
X50779285Y-97504000D01*
X50731666Y-97551619D01*
X49779285Y-98456380D02*
X50350714Y-98456380D01*
X50065000Y-98456380D02*
X50065000Y-97456380D01*
X50160238Y-97599238D01*
X50255476Y-97694476D01*
X50350714Y-97742095D01*
X48826666Y-98361142D02*
X48874285Y-98408761D01*
X49017142Y-98456380D01*
X49112380Y-98456380D01*
X49255238Y-98408761D01*
X49350476Y-98313523D01*
X49398095Y-98218285D01*
X49445714Y-98027809D01*
X49445714Y-97884952D01*
X49398095Y-97694476D01*
X49350476Y-97599238D01*
X49255238Y-97504000D01*
X49112380Y-97456380D01*
X49017142Y-97456380D01*
X48874285Y-97504000D01*
X48826666Y-97551619D01*
X47969523Y-97456380D02*
X48160000Y-97456380D01*
X48255238Y-97504000D01*
X48302857Y-97551619D01*
X48398095Y-97694476D01*
X48445714Y-97884952D01*
X48445714Y-98265904D01*
X48398095Y-98361142D01*
X48350476Y-98408761D01*
X48255238Y-98456380D01*
X48064761Y-98456380D01*
X47969523Y-98408761D01*
X47921904Y-98361142D01*
X47874285Y-98265904D01*
X47874285Y-98027809D01*
X47921904Y-97932571D01*
X47969523Y-97884952D01*
X48064761Y-97837333D01*
X48255238Y-97837333D01*
X48350476Y-97884952D01*
X48398095Y-97932571D01*
X48445714Y-98027809D01*
X63349142Y-97115333D02*
X63396761Y-97067714D01*
X63444380Y-96924857D01*
X63444380Y-96829619D01*
X63396761Y-96686761D01*
X63301523Y-96591523D01*
X63206285Y-96543904D01*
X63015809Y-96496285D01*
X62872952Y-96496285D01*
X62682476Y-96543904D01*
X62587238Y-96591523D01*
X62492000Y-96686761D01*
X62444380Y-96829619D01*
X62444380Y-96924857D01*
X62492000Y-97067714D01*
X62539619Y-97115333D01*
X62539619Y-97496285D02*
X62492000Y-97543904D01*
X62444380Y-97639142D01*
X62444380Y-97877238D01*
X62492000Y-97972476D01*
X62539619Y-98020095D01*
X62634857Y-98067714D01*
X62730095Y-98067714D01*
X62872952Y-98020095D01*
X63444380Y-97448666D01*
X63444380Y-98067714D01*
X46921666Y-98361142D02*
X46969285Y-98408761D01*
X47112142Y-98456380D01*
X47207380Y-98456380D01*
X47350238Y-98408761D01*
X47445476Y-98313523D01*
X47493095Y-98218285D01*
X47540714Y-98027809D01*
X47540714Y-97884952D01*
X47493095Y-97694476D01*
X47445476Y-97599238D01*
X47350238Y-97504000D01*
X47207380Y-97456380D01*
X47112142Y-97456380D01*
X46969285Y-97504000D01*
X46921666Y-97551619D01*
X46588333Y-97456380D02*
X45969285Y-97456380D01*
X46302619Y-97837333D01*
X46159761Y-97837333D01*
X46064523Y-97884952D01*
X46016904Y-97932571D01*
X45969285Y-98027809D01*
X45969285Y-98265904D01*
X46016904Y-98361142D01*
X46064523Y-98408761D01*
X46159761Y-98456380D01*
X46445476Y-98456380D01*
X46540714Y-98408761D01*
X46588333Y-98361142D01*
X83542142Y-75557142D02*
X83589761Y-75509523D01*
X83637380Y-75366666D01*
X83637380Y-75271428D01*
X83589761Y-75128571D01*
X83494523Y-75033333D01*
X83399285Y-74985714D01*
X83208809Y-74938095D01*
X83065952Y-74938095D01*
X82875476Y-74985714D01*
X82780238Y-75033333D01*
X82685000Y-75128571D01*
X82637380Y-75271428D01*
X82637380Y-75366666D01*
X82685000Y-75509523D01*
X82732619Y-75557142D01*
X83637380Y-76509523D02*
X83637380Y-75938095D01*
X83637380Y-76223809D02*
X82637380Y-76223809D01*
X82780238Y-76128571D01*
X82875476Y-76033333D01*
X82923095Y-75938095D01*
X83637380Y-77461904D02*
X83637380Y-76890476D01*
X83637380Y-77176190D02*
X82637380Y-77176190D01*
X82780238Y-77080952D01*
X82875476Y-76985714D01*
X82923095Y-76890476D01*
X83542142Y-93337142D02*
X83589761Y-93289523D01*
X83637380Y-93146666D01*
X83637380Y-93051428D01*
X83589761Y-92908571D01*
X83494523Y-92813333D01*
X83399285Y-92765714D01*
X83208809Y-92718095D01*
X83065952Y-92718095D01*
X82875476Y-92765714D01*
X82780238Y-92813333D01*
X82685000Y-92908571D01*
X82637380Y-93051428D01*
X82637380Y-93146666D01*
X82685000Y-93289523D01*
X82732619Y-93337142D01*
X83637380Y-94289523D02*
X83637380Y-93718095D01*
X83637380Y-94003809D02*
X82637380Y-94003809D01*
X82780238Y-93908571D01*
X82875476Y-93813333D01*
X82923095Y-93718095D01*
X82637380Y-94908571D02*
X82637380Y-95003809D01*
X82685000Y-95099047D01*
X82732619Y-95146666D01*
X82827857Y-95194285D01*
X83018333Y-95241904D01*
X83256428Y-95241904D01*
X83446904Y-95194285D01*
X83542142Y-95146666D01*
X83589761Y-95099047D01*
X83637380Y-95003809D01*
X83637380Y-94908571D01*
X83589761Y-94813333D01*
X83542142Y-94765714D01*
X83446904Y-94718095D01*
X83256428Y-94670476D01*
X83018333Y-94670476D01*
X82827857Y-94718095D01*
X82732619Y-94765714D01*
X82685000Y-94813333D01*
X82637380Y-94908571D01*
X65833523Y-82597380D02*
X65833523Y-83311666D01*
X65881142Y-83454523D01*
X65976380Y-83549761D01*
X66119238Y-83597380D01*
X66214476Y-83597380D01*
X64833523Y-83597380D02*
X65404952Y-83597380D01*
X65119238Y-83597380D02*
X65119238Y-82597380D01*
X65214476Y-82740238D01*
X65309714Y-82835476D01*
X65404952Y-82883095D01*
X64452571Y-82692619D02*
X64404952Y-82645000D01*
X64309714Y-82597380D01*
X64071619Y-82597380D01*
X63976380Y-82645000D01*
X63928761Y-82692619D01*
X63881142Y-82787857D01*
X63881142Y-82883095D01*
X63928761Y-83025952D01*
X64500190Y-83597380D01*
X63881142Y-83597380D01*
X91257380Y-52062142D02*
X90781190Y-51728809D01*
X91257380Y-51490714D02*
X90257380Y-51490714D01*
X90257380Y-51871666D01*
X90305000Y-51966904D01*
X90352619Y-52014523D01*
X90447857Y-52062142D01*
X90590714Y-52062142D01*
X90685952Y-52014523D01*
X90733571Y-51966904D01*
X90781190Y-51871666D01*
X90781190Y-51490714D01*
X91257380Y-53014523D02*
X91257380Y-52443095D01*
X91257380Y-52728809D02*
X90257380Y-52728809D01*
X90400238Y-52633571D01*
X90495476Y-52538333D01*
X90543095Y-52443095D01*
X90257380Y-53871666D02*
X90257380Y-53681190D01*
X90305000Y-53585952D01*
X90352619Y-53538333D01*
X90495476Y-53443095D01*
X90685952Y-53395476D01*
X91066904Y-53395476D01*
X91162142Y-53443095D01*
X91209761Y-53490714D01*
X91257380Y-53585952D01*
X91257380Y-53776428D01*
X91209761Y-53871666D01*
X91162142Y-53919285D01*
X91066904Y-53966904D01*
X90828809Y-53966904D01*
X90733571Y-53919285D01*
X90685952Y-53871666D01*
X90638333Y-53776428D01*
X90638333Y-53585952D01*
X90685952Y-53490714D01*
X90733571Y-53443095D01*
X90828809Y-53395476D01*
X92876666Y-60523380D02*
X93210000Y-60047190D01*
X93448095Y-60523380D02*
X93448095Y-59523380D01*
X93067142Y-59523380D01*
X92971904Y-59571000D01*
X92924285Y-59618619D01*
X92876666Y-59713857D01*
X92876666Y-59856714D01*
X92924285Y-59951952D01*
X92971904Y-59999571D01*
X93067142Y-60047190D01*
X93448095Y-60047190D01*
X92543333Y-59523380D02*
X91876666Y-59523380D01*
X92305238Y-60523380D01*
X93352857Y-65095380D02*
X93686190Y-64619190D01*
X93924285Y-65095380D02*
X93924285Y-64095380D01*
X93543333Y-64095380D01*
X93448095Y-64143000D01*
X93400476Y-64190619D01*
X93352857Y-64285857D01*
X93352857Y-64428714D01*
X93400476Y-64523952D01*
X93448095Y-64571571D01*
X93543333Y-64619190D01*
X93924285Y-64619190D01*
X92400476Y-65095380D02*
X92971904Y-65095380D01*
X92686190Y-65095380D02*
X92686190Y-64095380D01*
X92781428Y-64238238D01*
X92876666Y-64333476D01*
X92971904Y-64381095D01*
X91781428Y-64095380D02*
X91686190Y-64095380D01*
X91590952Y-64143000D01*
X91543333Y-64190619D01*
X91495714Y-64285857D01*
X91448095Y-64476333D01*
X91448095Y-64714428D01*
X91495714Y-64904904D01*
X91543333Y-65000142D01*
X91590952Y-65047761D01*
X91686190Y-65095380D01*
X91781428Y-65095380D01*
X91876666Y-65047761D01*
X91924285Y-65000142D01*
X91971904Y-64904904D01*
X92019523Y-64714428D01*
X92019523Y-64476333D01*
X91971904Y-64285857D01*
X91924285Y-64190619D01*
X91876666Y-64143000D01*
X91781428Y-64095380D01*
X89352380Y-79367142D02*
X88876190Y-79033809D01*
X89352380Y-78795714D02*
X88352380Y-78795714D01*
X88352380Y-79176666D01*
X88400000Y-79271904D01*
X88447619Y-79319523D01*
X88542857Y-79367142D01*
X88685714Y-79367142D01*
X88780952Y-79319523D01*
X88828571Y-79271904D01*
X88876190Y-79176666D01*
X88876190Y-78795714D01*
X88447619Y-79748095D02*
X88400000Y-79795714D01*
X88352380Y-79890952D01*
X88352380Y-80129047D01*
X88400000Y-80224285D01*
X88447619Y-80271904D01*
X88542857Y-80319523D01*
X88638095Y-80319523D01*
X88780952Y-80271904D01*
X89352380Y-79700476D01*
X89352380Y-80319523D01*
X88780952Y-80890952D02*
X88733333Y-80795714D01*
X88685714Y-80748095D01*
X88590476Y-80700476D01*
X88542857Y-80700476D01*
X88447619Y-80748095D01*
X88400000Y-80795714D01*
X88352380Y-80890952D01*
X88352380Y-81081428D01*
X88400000Y-81176666D01*
X88447619Y-81224285D01*
X88542857Y-81271904D01*
X88590476Y-81271904D01*
X88685714Y-81224285D01*
X88733333Y-81176666D01*
X88780952Y-81081428D01*
X88780952Y-80890952D01*
X88828571Y-80795714D01*
X88876190Y-80748095D01*
X88971428Y-80700476D01*
X89161904Y-80700476D01*
X89257142Y-80748095D01*
X89304761Y-80795714D01*
X89352380Y-80890952D01*
X89352380Y-81081428D01*
X89304761Y-81176666D01*
X89257142Y-81224285D01*
X89161904Y-81271904D01*
X88971428Y-81271904D01*
X88876190Y-81224285D01*
X88828571Y-81176666D01*
X88780952Y-81081428D01*
X85542380Y-84447142D02*
X85066190Y-84113809D01*
X85542380Y-83875714D02*
X84542380Y-83875714D01*
X84542380Y-84256666D01*
X84590000Y-84351904D01*
X84637619Y-84399523D01*
X84732857Y-84447142D01*
X84875714Y-84447142D01*
X84970952Y-84399523D01*
X85018571Y-84351904D01*
X85066190Y-84256666D01*
X85066190Y-83875714D01*
X84637619Y-84828095D02*
X84590000Y-84875714D01*
X84542380Y-84970952D01*
X84542380Y-85209047D01*
X84590000Y-85304285D01*
X84637619Y-85351904D01*
X84732857Y-85399523D01*
X84828095Y-85399523D01*
X84970952Y-85351904D01*
X85542380Y-84780476D01*
X85542380Y-85399523D01*
X85542380Y-85875714D02*
X85542380Y-86066190D01*
X85494761Y-86161428D01*
X85447142Y-86209047D01*
X85304285Y-86304285D01*
X85113809Y-86351904D01*
X84732857Y-86351904D01*
X84637619Y-86304285D01*
X84590000Y-86256666D01*
X84542380Y-86161428D01*
X84542380Y-85970952D01*
X84590000Y-85875714D01*
X84637619Y-85828095D01*
X84732857Y-85780476D01*
X84970952Y-85780476D01*
X85066190Y-85828095D01*
X85113809Y-85875714D01*
X85161428Y-85970952D01*
X85161428Y-86161428D01*
X85113809Y-86256666D01*
X85066190Y-86304285D01*
X84970952Y-86351904D01*
X88082380Y-84447142D02*
X87606190Y-84113809D01*
X88082380Y-83875714D02*
X87082380Y-83875714D01*
X87082380Y-84256666D01*
X87130000Y-84351904D01*
X87177619Y-84399523D01*
X87272857Y-84447142D01*
X87415714Y-84447142D01*
X87510952Y-84399523D01*
X87558571Y-84351904D01*
X87606190Y-84256666D01*
X87606190Y-83875714D01*
X87082380Y-84780476D02*
X87082380Y-85399523D01*
X87463333Y-85066190D01*
X87463333Y-85209047D01*
X87510952Y-85304285D01*
X87558571Y-85351904D01*
X87653809Y-85399523D01*
X87891904Y-85399523D01*
X87987142Y-85351904D01*
X88034761Y-85304285D01*
X88082380Y-85209047D01*
X88082380Y-84923333D01*
X88034761Y-84828095D01*
X87987142Y-84780476D01*
X87082380Y-86018571D02*
X87082380Y-86113809D01*
X87130000Y-86209047D01*
X87177619Y-86256666D01*
X87272857Y-86304285D01*
X87463333Y-86351904D01*
X87701428Y-86351904D01*
X87891904Y-86304285D01*
X87987142Y-86256666D01*
X88034761Y-86209047D01*
X88082380Y-86113809D01*
X88082380Y-86018571D01*
X88034761Y-85923333D01*
X87987142Y-85875714D01*
X87891904Y-85828095D01*
X87701428Y-85780476D01*
X87463333Y-85780476D01*
X87272857Y-85828095D01*
X87177619Y-85875714D01*
X87130000Y-85923333D01*
X87082380Y-86018571D01*
X89352380Y-89527142D02*
X88876190Y-89193809D01*
X89352380Y-88955714D02*
X88352380Y-88955714D01*
X88352380Y-89336666D01*
X88400000Y-89431904D01*
X88447619Y-89479523D01*
X88542857Y-89527142D01*
X88685714Y-89527142D01*
X88780952Y-89479523D01*
X88828571Y-89431904D01*
X88876190Y-89336666D01*
X88876190Y-88955714D01*
X88447619Y-89908095D02*
X88400000Y-89955714D01*
X88352380Y-90050952D01*
X88352380Y-90289047D01*
X88400000Y-90384285D01*
X88447619Y-90431904D01*
X88542857Y-90479523D01*
X88638095Y-90479523D01*
X88780952Y-90431904D01*
X89352380Y-89860476D01*
X89352380Y-90479523D01*
X88352380Y-90812857D02*
X88352380Y-91479523D01*
X89352380Y-91050952D01*
X52879523Y-53824380D02*
X52879523Y-54538666D01*
X52927142Y-54681523D01*
X53022380Y-54776761D01*
X53165238Y-54824380D01*
X53260476Y-54824380D01*
X51879523Y-54824380D02*
X52450952Y-54824380D01*
X52165238Y-54824380D02*
X52165238Y-53824380D01*
X52260476Y-53967238D01*
X52355714Y-54062476D01*
X52450952Y-54110095D01*
X51546190Y-53824380D02*
X50927142Y-53824380D01*
X51260476Y-54205333D01*
X51117619Y-54205333D01*
X51022380Y-54252952D01*
X50974761Y-54300571D01*
X50927142Y-54395809D01*
X50927142Y-54633904D01*
X50974761Y-54729142D01*
X51022380Y-54776761D01*
X51117619Y-54824380D01*
X51403333Y-54824380D01*
X51498571Y-54776761D01*
X51546190Y-54729142D01*
X89987380Y-52062142D02*
X89511190Y-51728809D01*
X89987380Y-51490714D02*
X88987380Y-51490714D01*
X88987380Y-51871666D01*
X89035000Y-51966904D01*
X89082619Y-52014523D01*
X89177857Y-52062142D01*
X89320714Y-52062142D01*
X89415952Y-52014523D01*
X89463571Y-51966904D01*
X89511190Y-51871666D01*
X89511190Y-51490714D01*
X89987380Y-53014523D02*
X89987380Y-52443095D01*
X89987380Y-52728809D02*
X88987380Y-52728809D01*
X89130238Y-52633571D01*
X89225476Y-52538333D01*
X89273095Y-52443095D01*
X88987380Y-53919285D02*
X88987380Y-53443095D01*
X89463571Y-53395476D01*
X89415952Y-53443095D01*
X89368333Y-53538333D01*
X89368333Y-53776428D01*
X89415952Y-53871666D01*
X89463571Y-53919285D01*
X89558809Y-53966904D01*
X89796904Y-53966904D01*
X89892142Y-53919285D01*
X89939761Y-53871666D01*
X89987380Y-53776428D01*
X89987380Y-53538333D01*
X89939761Y-53443095D01*
X89892142Y-53395476D01*
X122372380Y-130008333D02*
X121896190Y-129675000D01*
X122372380Y-129436904D02*
X121372380Y-129436904D01*
X121372380Y-129817857D01*
X121420000Y-129913095D01*
X121467619Y-129960714D01*
X121562857Y-130008333D01*
X121705714Y-130008333D01*
X121800952Y-129960714D01*
X121848571Y-129913095D01*
X121896190Y-129817857D01*
X121896190Y-129436904D01*
X121372380Y-130341666D02*
X121372380Y-130960714D01*
X121753333Y-130627380D01*
X121753333Y-130770238D01*
X121800952Y-130865476D01*
X121848571Y-130913095D01*
X121943809Y-130960714D01*
X122181904Y-130960714D01*
X122277142Y-130913095D01*
X122324761Y-130865476D01*
X122372380Y-130770238D01*
X122372380Y-130484523D01*
X122324761Y-130389285D01*
X122277142Y-130341666D01*
X121102380Y-130008333D02*
X120626190Y-129675000D01*
X121102380Y-129436904D02*
X120102380Y-129436904D01*
X120102380Y-129817857D01*
X120150000Y-129913095D01*
X120197619Y-129960714D01*
X120292857Y-130008333D01*
X120435714Y-130008333D01*
X120530952Y-129960714D01*
X120578571Y-129913095D01*
X120626190Y-129817857D01*
X120626190Y-129436904D01*
X120102380Y-130913095D02*
X120102380Y-130436904D01*
X120578571Y-130389285D01*
X120530952Y-130436904D01*
X120483333Y-130532142D01*
X120483333Y-130770238D01*
X120530952Y-130865476D01*
X120578571Y-130913095D01*
X120673809Y-130960714D01*
X120911904Y-130960714D01*
X121007142Y-130913095D01*
X121054761Y-130865476D01*
X121102380Y-130770238D01*
X121102380Y-130532142D01*
X121054761Y-130436904D01*
X121007142Y-130389285D01*
X49863333Y-68000571D02*
X50196666Y-68000571D01*
X50196666Y-68524380D02*
X50196666Y-67524380D01*
X49720476Y-67524380D01*
X48815714Y-68524380D02*
X49387142Y-68524380D01*
X49101428Y-68524380D02*
X49101428Y-67524380D01*
X49196666Y-67667238D01*
X49291904Y-67762476D01*
X49387142Y-67810095D01*
X52585857Y-76906380D02*
X52919190Y-76430190D01*
X53157285Y-76906380D02*
X53157285Y-75906380D01*
X52776333Y-75906380D01*
X52681095Y-75954000D01*
X52633476Y-76001619D01*
X52585857Y-76096857D01*
X52585857Y-76239714D01*
X52633476Y-76334952D01*
X52681095Y-76382571D01*
X52776333Y-76430190D01*
X53157285Y-76430190D01*
X52252523Y-75906380D02*
X51633476Y-75906380D01*
X51966809Y-76287333D01*
X51823952Y-76287333D01*
X51728714Y-76334952D01*
X51681095Y-76382571D01*
X51633476Y-76477809D01*
X51633476Y-76715904D01*
X51681095Y-76811142D01*
X51728714Y-76858761D01*
X51823952Y-76906380D01*
X52109666Y-76906380D01*
X52204904Y-76858761D01*
X52252523Y-76811142D01*
X50681095Y-76906380D02*
X51252523Y-76906380D01*
X50966809Y-76906380D02*
X50966809Y-75906380D01*
X51062047Y-76049238D01*
X51157285Y-76144476D01*
X51252523Y-76192095D01*
X52585857Y-78811380D02*
X52919190Y-78335190D01*
X53157285Y-78811380D02*
X53157285Y-77811380D01*
X52776333Y-77811380D01*
X52681095Y-77859000D01*
X52633476Y-77906619D01*
X52585857Y-78001857D01*
X52585857Y-78144714D01*
X52633476Y-78239952D01*
X52681095Y-78287571D01*
X52776333Y-78335190D01*
X53157285Y-78335190D01*
X52252523Y-77811380D02*
X51633476Y-77811380D01*
X51966809Y-78192333D01*
X51823952Y-78192333D01*
X51728714Y-78239952D01*
X51681095Y-78287571D01*
X51633476Y-78382809D01*
X51633476Y-78620904D01*
X51681095Y-78716142D01*
X51728714Y-78763761D01*
X51823952Y-78811380D01*
X52109666Y-78811380D01*
X52204904Y-78763761D01*
X52252523Y-78716142D01*
X51252523Y-77906619D02*
X51204904Y-77859000D01*
X51109666Y-77811380D01*
X50871571Y-77811380D01*
X50776333Y-77859000D01*
X50728714Y-77906619D01*
X50681095Y-78001857D01*
X50681095Y-78097095D01*
X50728714Y-78239952D01*
X51300142Y-78811380D01*
X50681095Y-78811380D01*
X52236666Y-84050142D02*
X52284285Y-84097761D01*
X52427142Y-84145380D01*
X52522380Y-84145380D01*
X52665238Y-84097761D01*
X52760476Y-84002523D01*
X52808095Y-83907285D01*
X52855714Y-83716809D01*
X52855714Y-83573952D01*
X52808095Y-83383476D01*
X52760476Y-83288238D01*
X52665238Y-83193000D01*
X52522380Y-83145380D01*
X52427142Y-83145380D01*
X52284285Y-83193000D01*
X52236666Y-83240619D01*
X51379523Y-83478714D02*
X51379523Y-84145380D01*
X51617619Y-83097761D02*
X51855714Y-83812047D01*
X51236666Y-83812047D01*
X76112666Y-74652142D02*
X76160285Y-74699761D01*
X76303142Y-74747380D01*
X76398380Y-74747380D01*
X76541238Y-74699761D01*
X76636476Y-74604523D01*
X76684095Y-74509285D01*
X76731714Y-74318809D01*
X76731714Y-74175952D01*
X76684095Y-73985476D01*
X76636476Y-73890238D01*
X76541238Y-73795000D01*
X76398380Y-73747380D01*
X76303142Y-73747380D01*
X76160285Y-73795000D01*
X76112666Y-73842619D01*
X75779333Y-73747380D02*
X75112666Y-73747380D01*
X75541238Y-74747380D01*
X78271666Y-60047142D02*
X78319285Y-60094761D01*
X78462142Y-60142380D01*
X78557380Y-60142380D01*
X78700238Y-60094761D01*
X78795476Y-59999523D01*
X78843095Y-59904285D01*
X78890714Y-59713809D01*
X78890714Y-59570952D01*
X78843095Y-59380476D01*
X78795476Y-59285238D01*
X78700238Y-59190000D01*
X78557380Y-59142380D01*
X78462142Y-59142380D01*
X78319285Y-59190000D01*
X78271666Y-59237619D01*
X77700238Y-59570952D02*
X77795476Y-59523333D01*
X77843095Y-59475714D01*
X77890714Y-59380476D01*
X77890714Y-59332857D01*
X77843095Y-59237619D01*
X77795476Y-59190000D01*
X77700238Y-59142380D01*
X77509761Y-59142380D01*
X77414523Y-59190000D01*
X77366904Y-59237619D01*
X77319285Y-59332857D01*
X77319285Y-59380476D01*
X77366904Y-59475714D01*
X77414523Y-59523333D01*
X77509761Y-59570952D01*
X77700238Y-59570952D01*
X77795476Y-59618571D01*
X77843095Y-59666190D01*
X77890714Y-59761428D01*
X77890714Y-59951904D01*
X77843095Y-60047142D01*
X77795476Y-60094761D01*
X77700238Y-60142380D01*
X77509761Y-60142380D01*
X77414523Y-60094761D01*
X77366904Y-60047142D01*
X77319285Y-59951904D01*
X77319285Y-59761428D01*
X77366904Y-59666190D01*
X77414523Y-59618571D01*
X77509761Y-59570952D01*
X68746666Y-60047142D02*
X68794285Y-60094761D01*
X68937142Y-60142380D01*
X69032380Y-60142380D01*
X69175238Y-60094761D01*
X69270476Y-59999523D01*
X69318095Y-59904285D01*
X69365714Y-59713809D01*
X69365714Y-59570952D01*
X69318095Y-59380476D01*
X69270476Y-59285238D01*
X69175238Y-59190000D01*
X69032380Y-59142380D01*
X68937142Y-59142380D01*
X68794285Y-59190000D01*
X68746666Y-59237619D01*
X68270476Y-60142380D02*
X68080000Y-60142380D01*
X67984761Y-60094761D01*
X67937142Y-60047142D01*
X67841904Y-59904285D01*
X67794285Y-59713809D01*
X67794285Y-59332857D01*
X67841904Y-59237619D01*
X67889523Y-59190000D01*
X67984761Y-59142380D01*
X68175238Y-59142380D01*
X68270476Y-59190000D01*
X68318095Y-59237619D01*
X68365714Y-59332857D01*
X68365714Y-59570952D01*
X68318095Y-59666190D01*
X68270476Y-59713809D01*
X68175238Y-59761428D01*
X67984761Y-59761428D01*
X67889523Y-59713809D01*
X67841904Y-59666190D01*
X67794285Y-59570952D01*
X52712857Y-75287142D02*
X52760476Y-75334761D01*
X52903333Y-75382380D01*
X52998571Y-75382380D01*
X53141428Y-75334761D01*
X53236666Y-75239523D01*
X53284285Y-75144285D01*
X53331904Y-74953809D01*
X53331904Y-74810952D01*
X53284285Y-74620476D01*
X53236666Y-74525238D01*
X53141428Y-74430000D01*
X52998571Y-74382380D01*
X52903333Y-74382380D01*
X52760476Y-74430000D01*
X52712857Y-74477619D01*
X51760476Y-75382380D02*
X52331904Y-75382380D01*
X52046190Y-75382380D02*
X52046190Y-74382380D01*
X52141428Y-74525238D01*
X52236666Y-74620476D01*
X52331904Y-74668095D01*
X51379523Y-74477619D02*
X51331904Y-74430000D01*
X51236666Y-74382380D01*
X50998571Y-74382380D01*
X50903333Y-74430000D01*
X50855714Y-74477619D01*
X50808095Y-74572857D01*
X50808095Y-74668095D01*
X50855714Y-74810952D01*
X51427142Y-75382380D01*
X50808095Y-75382380D01*
X59666142Y-61587142D02*
X59713761Y-61539523D01*
X59761380Y-61396666D01*
X59761380Y-61301428D01*
X59713761Y-61158571D01*
X59618523Y-61063333D01*
X59523285Y-61015714D01*
X59332809Y-60968095D01*
X59189952Y-60968095D01*
X58999476Y-61015714D01*
X58904238Y-61063333D01*
X58809000Y-61158571D01*
X58761380Y-61301428D01*
X58761380Y-61396666D01*
X58809000Y-61539523D01*
X58856619Y-61587142D01*
X59761380Y-62539523D02*
X59761380Y-61968095D01*
X59761380Y-62253809D02*
X58761380Y-62253809D01*
X58904238Y-62158571D01*
X58999476Y-62063333D01*
X59047095Y-61968095D01*
X58761380Y-62872857D02*
X58761380Y-63491904D01*
X59142333Y-63158571D01*
X59142333Y-63301428D01*
X59189952Y-63396666D01*
X59237571Y-63444285D01*
X59332809Y-63491904D01*
X59570904Y-63491904D01*
X59666142Y-63444285D01*
X59713761Y-63396666D01*
X59761380Y-63301428D01*
X59761380Y-63015714D01*
X59713761Y-62920476D01*
X59666142Y-62872857D01*
X119737142Y-76573142D02*
X119784761Y-76525523D01*
X119832380Y-76382666D01*
X119832380Y-76287428D01*
X119784761Y-76144571D01*
X119689523Y-76049333D01*
X119594285Y-76001714D01*
X119403809Y-75954095D01*
X119260952Y-75954095D01*
X119070476Y-76001714D01*
X118975238Y-76049333D01*
X118880000Y-76144571D01*
X118832380Y-76287428D01*
X118832380Y-76382666D01*
X118880000Y-76525523D01*
X118927619Y-76573142D01*
X119832380Y-77525523D02*
X119832380Y-76954095D01*
X119832380Y-77239809D02*
X118832380Y-77239809D01*
X118975238Y-77144571D01*
X119070476Y-77049333D01*
X119118095Y-76954095D01*
X119165714Y-78382666D02*
X119832380Y-78382666D01*
X118784761Y-78144571D02*
X119499047Y-77906476D01*
X119499047Y-78525523D01*
X131960857Y-95607142D02*
X132008476Y-95654761D01*
X132151333Y-95702380D01*
X132246571Y-95702380D01*
X132389428Y-95654761D01*
X132484666Y-95559523D01*
X132532285Y-95464285D01*
X132579904Y-95273809D01*
X132579904Y-95130952D01*
X132532285Y-94940476D01*
X132484666Y-94845238D01*
X132389428Y-94750000D01*
X132246571Y-94702380D01*
X132151333Y-94702380D01*
X132008476Y-94750000D01*
X131960857Y-94797619D01*
X131008476Y-95702380D02*
X131579904Y-95702380D01*
X131294190Y-95702380D02*
X131294190Y-94702380D01*
X131389428Y-94845238D01*
X131484666Y-94940476D01*
X131579904Y-94988095D01*
X130103714Y-94702380D02*
X130579904Y-94702380D01*
X130627523Y-95178571D01*
X130579904Y-95130952D01*
X130484666Y-95083333D01*
X130246571Y-95083333D01*
X130151333Y-95130952D01*
X130103714Y-95178571D01*
X130056095Y-95273809D01*
X130056095Y-95511904D01*
X130103714Y-95607142D01*
X130151333Y-95654761D01*
X130246571Y-95702380D01*
X130484666Y-95702380D01*
X130579904Y-95654761D01*
X130627523Y-95607142D01*
X110085142Y-92829142D02*
X110132761Y-92781523D01*
X110180380Y-92638666D01*
X110180380Y-92543428D01*
X110132761Y-92400571D01*
X110037523Y-92305333D01*
X109942285Y-92257714D01*
X109751809Y-92210095D01*
X109608952Y-92210095D01*
X109418476Y-92257714D01*
X109323238Y-92305333D01*
X109228000Y-92400571D01*
X109180380Y-92543428D01*
X109180380Y-92638666D01*
X109228000Y-92781523D01*
X109275619Y-92829142D01*
X110180380Y-93781523D02*
X110180380Y-93210095D01*
X110180380Y-93495809D02*
X109180380Y-93495809D01*
X109323238Y-93400571D01*
X109418476Y-93305333D01*
X109466095Y-93210095D01*
X109180380Y-94638666D02*
X109180380Y-94448190D01*
X109228000Y-94352952D01*
X109275619Y-94305333D01*
X109418476Y-94210095D01*
X109608952Y-94162476D01*
X109989904Y-94162476D01*
X110085142Y-94210095D01*
X110132761Y-94257714D01*
X110180380Y-94352952D01*
X110180380Y-94543428D01*
X110132761Y-94638666D01*
X110085142Y-94686285D01*
X109989904Y-94733904D01*
X109751809Y-94733904D01*
X109656571Y-94686285D01*
X109608952Y-94638666D01*
X109561333Y-94543428D01*
X109561333Y-94352952D01*
X109608952Y-94257714D01*
X109656571Y-94210095D01*
X109751809Y-94162476D01*
X135262857Y-63857142D02*
X135310476Y-63904761D01*
X135453333Y-63952380D01*
X135548571Y-63952380D01*
X135691428Y-63904761D01*
X135786666Y-63809523D01*
X135834285Y-63714285D01*
X135881904Y-63523809D01*
X135881904Y-63380952D01*
X135834285Y-63190476D01*
X135786666Y-63095238D01*
X135691428Y-63000000D01*
X135548571Y-62952380D01*
X135453333Y-62952380D01*
X135310476Y-63000000D01*
X135262857Y-63047619D01*
X134310476Y-63952380D02*
X134881904Y-63952380D01*
X134596190Y-63952380D02*
X134596190Y-62952380D01*
X134691428Y-63095238D01*
X134786666Y-63190476D01*
X134881904Y-63238095D01*
X133739047Y-63380952D02*
X133834285Y-63333333D01*
X133881904Y-63285714D01*
X133929523Y-63190476D01*
X133929523Y-63142857D01*
X133881904Y-63047619D01*
X133834285Y-63000000D01*
X133739047Y-62952380D01*
X133548571Y-62952380D01*
X133453333Y-63000000D01*
X133405714Y-63047619D01*
X133358095Y-63142857D01*
X133358095Y-63190476D01*
X133405714Y-63285714D01*
X133453333Y-63333333D01*
X133548571Y-63380952D01*
X133739047Y-63380952D01*
X133834285Y-63428571D01*
X133881904Y-63476190D01*
X133929523Y-63571428D01*
X133929523Y-63761904D01*
X133881904Y-63857142D01*
X133834285Y-63904761D01*
X133739047Y-63952380D01*
X133548571Y-63952380D01*
X133453333Y-63904761D01*
X133405714Y-63857142D01*
X133358095Y-63761904D01*
X133358095Y-63571428D01*
X133405714Y-63476190D01*
X133453333Y-63428571D01*
X133548571Y-63380952D01*
X135262857Y-58142142D02*
X135310476Y-58189761D01*
X135453333Y-58237380D01*
X135548571Y-58237380D01*
X135691428Y-58189761D01*
X135786666Y-58094523D01*
X135834285Y-57999285D01*
X135881904Y-57808809D01*
X135881904Y-57665952D01*
X135834285Y-57475476D01*
X135786666Y-57380238D01*
X135691428Y-57285000D01*
X135548571Y-57237380D01*
X135453333Y-57237380D01*
X135310476Y-57285000D01*
X135262857Y-57332619D01*
X134310476Y-58237380D02*
X134881904Y-58237380D01*
X134596190Y-58237380D02*
X134596190Y-57237380D01*
X134691428Y-57380238D01*
X134786666Y-57475476D01*
X134881904Y-57523095D01*
X133834285Y-58237380D02*
X133643809Y-58237380D01*
X133548571Y-58189761D01*
X133500952Y-58142142D01*
X133405714Y-57999285D01*
X133358095Y-57808809D01*
X133358095Y-57427857D01*
X133405714Y-57332619D01*
X133453333Y-57285000D01*
X133548571Y-57237380D01*
X133739047Y-57237380D01*
X133834285Y-57285000D01*
X133881904Y-57332619D01*
X133929523Y-57427857D01*
X133929523Y-57665952D01*
X133881904Y-57761190D01*
X133834285Y-57808809D01*
X133739047Y-57856428D01*
X133548571Y-57856428D01*
X133453333Y-57808809D01*
X133405714Y-57761190D01*
X133358095Y-57665952D01*
X137328857Y-71731142D02*
X137376476Y-71778761D01*
X137519333Y-71826380D01*
X137614571Y-71826380D01*
X137757428Y-71778761D01*
X137852666Y-71683523D01*
X137900285Y-71588285D01*
X137947904Y-71397809D01*
X137947904Y-71254952D01*
X137900285Y-71064476D01*
X137852666Y-70969238D01*
X137757428Y-70874000D01*
X137614571Y-70826380D01*
X137519333Y-70826380D01*
X137376476Y-70874000D01*
X137328857Y-70921619D01*
X136947904Y-70921619D02*
X136900285Y-70874000D01*
X136805047Y-70826380D01*
X136566952Y-70826380D01*
X136471714Y-70874000D01*
X136424095Y-70921619D01*
X136376476Y-71016857D01*
X136376476Y-71112095D01*
X136424095Y-71254952D01*
X136995523Y-71826380D01*
X136376476Y-71826380D01*
X135757428Y-70826380D02*
X135662190Y-70826380D01*
X135566952Y-70874000D01*
X135519333Y-70921619D01*
X135471714Y-71016857D01*
X135424095Y-71207333D01*
X135424095Y-71445428D01*
X135471714Y-71635904D01*
X135519333Y-71731142D01*
X135566952Y-71778761D01*
X135662190Y-71826380D01*
X135757428Y-71826380D01*
X135852666Y-71778761D01*
X135900285Y-71731142D01*
X135947904Y-71635904D01*
X135995523Y-71445428D01*
X135995523Y-71207333D01*
X135947904Y-71016857D01*
X135900285Y-70921619D01*
X135852666Y-70874000D01*
X135757428Y-70826380D01*
X85050380Y-57451666D02*
X85764666Y-57451666D01*
X85907523Y-57404047D01*
X86002761Y-57308809D01*
X86050380Y-57165952D01*
X86050380Y-57070714D01*
X85050380Y-57832619D02*
X85050380Y-58451666D01*
X85431333Y-58118333D01*
X85431333Y-58261190D01*
X85478952Y-58356428D01*
X85526571Y-58404047D01*
X85621809Y-58451666D01*
X85859904Y-58451666D01*
X85955142Y-58404047D01*
X86002761Y-58356428D01*
X86050380Y-58261190D01*
X86050380Y-57975476D01*
X86002761Y-57880238D01*
X85955142Y-57832619D01*
X71834333Y-77027380D02*
X71834333Y-77741666D01*
X71881952Y-77884523D01*
X71977190Y-77979761D01*
X72120047Y-78027380D01*
X72215285Y-78027380D01*
X70881952Y-77027380D02*
X71358142Y-77027380D01*
X71405761Y-77503571D01*
X71358142Y-77455952D01*
X71262904Y-77408333D01*
X71024809Y-77408333D01*
X70929571Y-77455952D01*
X70881952Y-77503571D01*
X70834333Y-77598809D01*
X70834333Y-77836904D01*
X70881952Y-77932142D01*
X70929571Y-77979761D01*
X71024809Y-78027380D01*
X71262904Y-78027380D01*
X71358142Y-77979761D01*
X71405761Y-77932142D01*
X86915523Y-67927380D02*
X86915523Y-68641666D01*
X86963142Y-68784523D01*
X87058380Y-68879761D01*
X87201238Y-68927380D01*
X87296476Y-68927380D01*
X85915523Y-68927380D02*
X86486952Y-68927380D01*
X86201238Y-68927380D02*
X86201238Y-67927380D01*
X86296476Y-68070238D01*
X86391714Y-68165476D01*
X86486952Y-68213095D01*
X84963142Y-68927380D02*
X85534571Y-68927380D01*
X85248857Y-68927380D02*
X85248857Y-67927380D01*
X85344095Y-68070238D01*
X85439333Y-68165476D01*
X85534571Y-68213095D01*
X144319523Y-76922380D02*
X144319523Y-77636666D01*
X144367142Y-77779523D01*
X144462380Y-77874761D01*
X144605238Y-77922380D01*
X144700476Y-77922380D01*
X143938571Y-76922380D02*
X143319523Y-76922380D01*
X143652857Y-77303333D01*
X143510000Y-77303333D01*
X143414761Y-77350952D01*
X143367142Y-77398571D01*
X143319523Y-77493809D01*
X143319523Y-77731904D01*
X143367142Y-77827142D01*
X143414761Y-77874761D01*
X143510000Y-77922380D01*
X143795714Y-77922380D01*
X143890952Y-77874761D01*
X143938571Y-77827142D01*
X142462380Y-77255714D02*
X142462380Y-77922380D01*
X142700476Y-76874761D02*
X142938571Y-77589047D01*
X142319523Y-77589047D01*
X83137619Y-90074761D02*
X83090000Y-89979523D01*
X82994761Y-89884285D01*
X82851904Y-89741428D01*
X82804285Y-89646190D01*
X82804285Y-89550952D01*
X83042380Y-89598571D02*
X82994761Y-89503333D01*
X82899523Y-89408095D01*
X82709047Y-89360476D01*
X82375714Y-89360476D01*
X82185238Y-89408095D01*
X82090000Y-89503333D01*
X82042380Y-89598571D01*
X82042380Y-89789047D01*
X82090000Y-89884285D01*
X82185238Y-89979523D01*
X82375714Y-90027142D01*
X82709047Y-90027142D01*
X82899523Y-89979523D01*
X82994761Y-89884285D01*
X83042380Y-89789047D01*
X83042380Y-89598571D01*
X82042380Y-90360476D02*
X82042380Y-91027142D01*
X83042380Y-90598571D01*
X83097619Y-79914761D02*
X83050000Y-79819523D01*
X82954761Y-79724285D01*
X82811904Y-79581428D01*
X82764285Y-79486190D01*
X82764285Y-79390952D01*
X83002380Y-79438571D02*
X82954761Y-79343333D01*
X82859523Y-79248095D01*
X82669047Y-79200476D01*
X82335714Y-79200476D01*
X82145238Y-79248095D01*
X82050000Y-79343333D01*
X82002380Y-79438571D01*
X82002380Y-79629047D01*
X82050000Y-79724285D01*
X82145238Y-79819523D01*
X82335714Y-79867142D01*
X82669047Y-79867142D01*
X82859523Y-79819523D01*
X82954761Y-79724285D01*
X83002380Y-79629047D01*
X83002380Y-79438571D01*
X82430952Y-80438571D02*
X82383333Y-80343333D01*
X82335714Y-80295714D01*
X82240476Y-80248095D01*
X82192857Y-80248095D01*
X82097619Y-80295714D01*
X82050000Y-80343333D01*
X82002380Y-80438571D01*
X82002380Y-80629047D01*
X82050000Y-80724285D01*
X82097619Y-80771904D01*
X82192857Y-80819523D01*
X82240476Y-80819523D01*
X82335714Y-80771904D01*
X82383333Y-80724285D01*
X82430952Y-80629047D01*
X82430952Y-80438571D01*
X82478571Y-80343333D01*
X82526190Y-80295714D01*
X82621428Y-80248095D01*
X82811904Y-80248095D01*
X82907142Y-80295714D01*
X82954761Y-80343333D01*
X83002380Y-80438571D01*
X83002380Y-80629047D01*
X82954761Y-80724285D01*
X82907142Y-80771904D01*
X82811904Y-80819523D01*
X82621428Y-80819523D01*
X82526190Y-80771904D01*
X82478571Y-80724285D01*
X82430952Y-80629047D01*
X46521666Y-68270380D02*
X46855000Y-67794190D01*
X47093095Y-68270380D02*
X47093095Y-67270380D01*
X46712142Y-67270380D01*
X46616904Y-67318000D01*
X46569285Y-67365619D01*
X46521666Y-67460857D01*
X46521666Y-67603714D01*
X46569285Y-67698952D01*
X46616904Y-67746571D01*
X46712142Y-67794190D01*
X47093095Y-67794190D01*
X46140714Y-67365619D02*
X46093095Y-67318000D01*
X45997857Y-67270380D01*
X45759761Y-67270380D01*
X45664523Y-67318000D01*
X45616904Y-67365619D01*
X45569285Y-67460857D01*
X45569285Y-67556095D01*
X45616904Y-67698952D01*
X46188333Y-68270380D01*
X45569285Y-68270380D01*
X119832380Y-130008333D02*
X119356190Y-129675000D01*
X119832380Y-129436904D02*
X118832380Y-129436904D01*
X118832380Y-129817857D01*
X118880000Y-129913095D01*
X118927619Y-129960714D01*
X119022857Y-130008333D01*
X119165714Y-130008333D01*
X119260952Y-129960714D01*
X119308571Y-129913095D01*
X119356190Y-129817857D01*
X119356190Y-129436904D01*
X119165714Y-130865476D02*
X119832380Y-130865476D01*
X118784761Y-130627380D02*
X119499047Y-130389285D01*
X119499047Y-131008333D01*
X118562380Y-130008333D02*
X118086190Y-129675000D01*
X118562380Y-129436904D02*
X117562380Y-129436904D01*
X117562380Y-129817857D01*
X117610000Y-129913095D01*
X117657619Y-129960714D01*
X117752857Y-130008333D01*
X117895714Y-130008333D01*
X117990952Y-129960714D01*
X118038571Y-129913095D01*
X118086190Y-129817857D01*
X118086190Y-129436904D01*
X117562380Y-130865476D02*
X117562380Y-130675000D01*
X117610000Y-130579761D01*
X117657619Y-130532142D01*
X117800476Y-130436904D01*
X117990952Y-130389285D01*
X118371904Y-130389285D01*
X118467142Y-130436904D01*
X118514761Y-130484523D01*
X118562380Y-130579761D01*
X118562380Y-130770238D01*
X118514761Y-130865476D01*
X118467142Y-130913095D01*
X118371904Y-130960714D01*
X118133809Y-130960714D01*
X118038571Y-130913095D01*
X117990952Y-130865476D01*
X117943333Y-130770238D01*
X117943333Y-130579761D01*
X117990952Y-130484523D01*
X118038571Y-130436904D01*
X118133809Y-130389285D01*
X133230857Y-71826380D02*
X133564190Y-71350190D01*
X133802285Y-71826380D02*
X133802285Y-70826380D01*
X133421333Y-70826380D01*
X133326095Y-70874000D01*
X133278476Y-70921619D01*
X133230857Y-71016857D01*
X133230857Y-71159714D01*
X133278476Y-71254952D01*
X133326095Y-71302571D01*
X133421333Y-71350190D01*
X133802285Y-71350190D01*
X132897523Y-70826380D02*
X132278476Y-70826380D01*
X132611809Y-71207333D01*
X132468952Y-71207333D01*
X132373714Y-71254952D01*
X132326095Y-71302571D01*
X132278476Y-71397809D01*
X132278476Y-71635904D01*
X132326095Y-71731142D01*
X132373714Y-71778761D01*
X132468952Y-71826380D01*
X132754666Y-71826380D01*
X132849904Y-71778761D01*
X132897523Y-71731142D01*
X131421333Y-71159714D02*
X131421333Y-71826380D01*
X131659428Y-70778761D02*
X131897523Y-71493047D01*
X131278476Y-71493047D01*
X106243380Y-66794142D02*
X105767190Y-66460809D01*
X106243380Y-66222714D02*
X105243380Y-66222714D01*
X105243380Y-66603666D01*
X105291000Y-66698904D01*
X105338619Y-66746523D01*
X105433857Y-66794142D01*
X105576714Y-66794142D01*
X105671952Y-66746523D01*
X105719571Y-66698904D01*
X105767190Y-66603666D01*
X105767190Y-66222714D01*
X105243380Y-67127476D02*
X105243380Y-67746523D01*
X105624333Y-67413190D01*
X105624333Y-67556047D01*
X105671952Y-67651285D01*
X105719571Y-67698904D01*
X105814809Y-67746523D01*
X106052904Y-67746523D01*
X106148142Y-67698904D01*
X106195761Y-67651285D01*
X106243380Y-67556047D01*
X106243380Y-67270333D01*
X106195761Y-67175095D01*
X106148142Y-67127476D01*
X105243380Y-68651285D02*
X105243380Y-68175095D01*
X105719571Y-68127476D01*
X105671952Y-68175095D01*
X105624333Y-68270333D01*
X105624333Y-68508428D01*
X105671952Y-68603666D01*
X105719571Y-68651285D01*
X105814809Y-68698904D01*
X106052904Y-68698904D01*
X106148142Y-68651285D01*
X106195761Y-68603666D01*
X106243380Y-68508428D01*
X106243380Y-68270333D01*
X106195761Y-68175095D01*
X106148142Y-68127476D01*
X107957857Y-74747380D02*
X108291190Y-74271190D01*
X108529285Y-74747380D02*
X108529285Y-73747380D01*
X108148333Y-73747380D01*
X108053095Y-73795000D01*
X108005476Y-73842619D01*
X107957857Y-73937857D01*
X107957857Y-74080714D01*
X108005476Y-74175952D01*
X108053095Y-74223571D01*
X108148333Y-74271190D01*
X108529285Y-74271190D01*
X107624523Y-73747380D02*
X107005476Y-73747380D01*
X107338809Y-74128333D01*
X107195952Y-74128333D01*
X107100714Y-74175952D01*
X107053095Y-74223571D01*
X107005476Y-74318809D01*
X107005476Y-74556904D01*
X107053095Y-74652142D01*
X107100714Y-74699761D01*
X107195952Y-74747380D01*
X107481666Y-74747380D01*
X107576904Y-74699761D01*
X107624523Y-74652142D01*
X106148333Y-73747380D02*
X106338809Y-73747380D01*
X106434047Y-73795000D01*
X106481666Y-73842619D01*
X106576904Y-73985476D01*
X106624523Y-74175952D01*
X106624523Y-74556904D01*
X106576904Y-74652142D01*
X106529285Y-74699761D01*
X106434047Y-74747380D01*
X106243571Y-74747380D01*
X106148333Y-74699761D01*
X106100714Y-74652142D01*
X106053095Y-74556904D01*
X106053095Y-74318809D01*
X106100714Y-74223571D01*
X106148333Y-74175952D01*
X106243571Y-74128333D01*
X106434047Y-74128333D01*
X106529285Y-74175952D01*
X106576904Y-74223571D01*
X106624523Y-74318809D01*
X107957857Y-69032380D02*
X108291190Y-68556190D01*
X108529285Y-69032380D02*
X108529285Y-68032380D01*
X108148333Y-68032380D01*
X108053095Y-68080000D01*
X108005476Y-68127619D01*
X107957857Y-68222857D01*
X107957857Y-68365714D01*
X108005476Y-68460952D01*
X108053095Y-68508571D01*
X108148333Y-68556190D01*
X108529285Y-68556190D01*
X107624523Y-68032380D02*
X107005476Y-68032380D01*
X107338809Y-68413333D01*
X107195952Y-68413333D01*
X107100714Y-68460952D01*
X107053095Y-68508571D01*
X107005476Y-68603809D01*
X107005476Y-68841904D01*
X107053095Y-68937142D01*
X107100714Y-68984761D01*
X107195952Y-69032380D01*
X107481666Y-69032380D01*
X107576904Y-68984761D01*
X107624523Y-68937142D01*
X106672142Y-68032380D02*
X106005476Y-68032380D01*
X106434047Y-69032380D01*
X110307380Y-66794142D02*
X109831190Y-66460809D01*
X110307380Y-66222714D02*
X109307380Y-66222714D01*
X109307380Y-66603666D01*
X109355000Y-66698904D01*
X109402619Y-66746523D01*
X109497857Y-66794142D01*
X109640714Y-66794142D01*
X109735952Y-66746523D01*
X109783571Y-66698904D01*
X109831190Y-66603666D01*
X109831190Y-66222714D01*
X109307380Y-67127476D02*
X109307380Y-67746523D01*
X109688333Y-67413190D01*
X109688333Y-67556047D01*
X109735952Y-67651285D01*
X109783571Y-67698904D01*
X109878809Y-67746523D01*
X110116904Y-67746523D01*
X110212142Y-67698904D01*
X110259761Y-67651285D01*
X110307380Y-67556047D01*
X110307380Y-67270333D01*
X110259761Y-67175095D01*
X110212142Y-67127476D01*
X109735952Y-68317952D02*
X109688333Y-68222714D01*
X109640714Y-68175095D01*
X109545476Y-68127476D01*
X109497857Y-68127476D01*
X109402619Y-68175095D01*
X109355000Y-68222714D01*
X109307380Y-68317952D01*
X109307380Y-68508428D01*
X109355000Y-68603666D01*
X109402619Y-68651285D01*
X109497857Y-68698904D01*
X109545476Y-68698904D01*
X109640714Y-68651285D01*
X109688333Y-68603666D01*
X109735952Y-68508428D01*
X109735952Y-68317952D01*
X109783571Y-68222714D01*
X109831190Y-68175095D01*
X109926428Y-68127476D01*
X110116904Y-68127476D01*
X110212142Y-68175095D01*
X110259761Y-68222714D01*
X110307380Y-68317952D01*
X110307380Y-68508428D01*
X110259761Y-68603666D01*
X110212142Y-68651285D01*
X110116904Y-68698904D01*
X109926428Y-68698904D01*
X109831190Y-68651285D01*
X109783571Y-68603666D01*
X109735952Y-68508428D01*
X130627380Y-76827142D02*
X130151190Y-76493809D01*
X130627380Y-76255714D02*
X129627380Y-76255714D01*
X129627380Y-76636666D01*
X129675000Y-76731904D01*
X129722619Y-76779523D01*
X129817857Y-76827142D01*
X129960714Y-76827142D01*
X130055952Y-76779523D01*
X130103571Y-76731904D01*
X130151190Y-76636666D01*
X130151190Y-76255714D01*
X129627380Y-77160476D02*
X129627380Y-77779523D01*
X130008333Y-77446190D01*
X130008333Y-77589047D01*
X130055952Y-77684285D01*
X130103571Y-77731904D01*
X130198809Y-77779523D01*
X130436904Y-77779523D01*
X130532142Y-77731904D01*
X130579761Y-77684285D01*
X130627380Y-77589047D01*
X130627380Y-77303333D01*
X130579761Y-77208095D01*
X130532142Y-77160476D01*
X130627380Y-78255714D02*
X130627380Y-78446190D01*
X130579761Y-78541428D01*
X130532142Y-78589047D01*
X130389285Y-78684285D01*
X130198809Y-78731904D01*
X129817857Y-78731904D01*
X129722619Y-78684285D01*
X129675000Y-78636666D01*
X129627380Y-78541428D01*
X129627380Y-78350952D01*
X129675000Y-78255714D01*
X129722619Y-78208095D01*
X129817857Y-78160476D01*
X130055952Y-78160476D01*
X130151190Y-78208095D01*
X130198809Y-78255714D01*
X130246428Y-78350952D01*
X130246428Y-78541428D01*
X130198809Y-78636666D01*
X130151190Y-78684285D01*
X130055952Y-78731904D01*
X128722380Y-76827142D02*
X128246190Y-76493809D01*
X128722380Y-76255714D02*
X127722380Y-76255714D01*
X127722380Y-76636666D01*
X127770000Y-76731904D01*
X127817619Y-76779523D01*
X127912857Y-76827142D01*
X128055714Y-76827142D01*
X128150952Y-76779523D01*
X128198571Y-76731904D01*
X128246190Y-76636666D01*
X128246190Y-76255714D01*
X128055714Y-77684285D02*
X128722380Y-77684285D01*
X127674761Y-77446190D02*
X128389047Y-77208095D01*
X128389047Y-77827142D01*
X127722380Y-78398571D02*
X127722380Y-78493809D01*
X127770000Y-78589047D01*
X127817619Y-78636666D01*
X127912857Y-78684285D01*
X128103333Y-78731904D01*
X128341428Y-78731904D01*
X128531904Y-78684285D01*
X128627142Y-78636666D01*
X128674761Y-78589047D01*
X128722380Y-78493809D01*
X128722380Y-78398571D01*
X128674761Y-78303333D01*
X128627142Y-78255714D01*
X128531904Y-78208095D01*
X128341428Y-78160476D01*
X128103333Y-78160476D01*
X127912857Y-78208095D01*
X127817619Y-78255714D01*
X127770000Y-78303333D01*
X127722380Y-78398571D01*
X126817380Y-76827142D02*
X126341190Y-76493809D01*
X126817380Y-76255714D02*
X125817380Y-76255714D01*
X125817380Y-76636666D01*
X125865000Y-76731904D01*
X125912619Y-76779523D01*
X126007857Y-76827142D01*
X126150714Y-76827142D01*
X126245952Y-76779523D01*
X126293571Y-76731904D01*
X126341190Y-76636666D01*
X126341190Y-76255714D01*
X126150714Y-77684285D02*
X126817380Y-77684285D01*
X125769761Y-77446190D02*
X126484047Y-77208095D01*
X126484047Y-77827142D01*
X126817380Y-78731904D02*
X126817380Y-78160476D01*
X126817380Y-78446190D02*
X125817380Y-78446190D01*
X125960238Y-78350952D01*
X126055476Y-78255714D01*
X126103095Y-78160476D01*
X124912380Y-76827142D02*
X124436190Y-76493809D01*
X124912380Y-76255714D02*
X123912380Y-76255714D01*
X123912380Y-76636666D01*
X123960000Y-76731904D01*
X124007619Y-76779523D01*
X124102857Y-76827142D01*
X124245714Y-76827142D01*
X124340952Y-76779523D01*
X124388571Y-76731904D01*
X124436190Y-76636666D01*
X124436190Y-76255714D01*
X124245714Y-77684285D02*
X124912380Y-77684285D01*
X123864761Y-77446190D02*
X124579047Y-77208095D01*
X124579047Y-77827142D01*
X124007619Y-78160476D02*
X123960000Y-78208095D01*
X123912380Y-78303333D01*
X123912380Y-78541428D01*
X123960000Y-78636666D01*
X124007619Y-78684285D01*
X124102857Y-78731904D01*
X124198095Y-78731904D01*
X124340952Y-78684285D01*
X124912380Y-78112857D01*
X124912380Y-78731904D01*
X117292380Y-76827142D02*
X116816190Y-76493809D01*
X117292380Y-76255714D02*
X116292380Y-76255714D01*
X116292380Y-76636666D01*
X116340000Y-76731904D01*
X116387619Y-76779523D01*
X116482857Y-76827142D01*
X116625714Y-76827142D01*
X116720952Y-76779523D01*
X116768571Y-76731904D01*
X116816190Y-76636666D01*
X116816190Y-76255714D01*
X116625714Y-77684285D02*
X117292380Y-77684285D01*
X116244761Y-77446190D02*
X116959047Y-77208095D01*
X116959047Y-77827142D01*
X116292380Y-78112857D02*
X116292380Y-78731904D01*
X116673333Y-78398571D01*
X116673333Y-78541428D01*
X116720952Y-78636666D01*
X116768571Y-78684285D01*
X116863809Y-78731904D01*
X117101904Y-78731904D01*
X117197142Y-78684285D01*
X117244761Y-78636666D01*
X117292380Y-78541428D01*
X117292380Y-78255714D01*
X117244761Y-78160476D01*
X117197142Y-78112857D01*
X115387380Y-76827142D02*
X114911190Y-76493809D01*
X115387380Y-76255714D02*
X114387380Y-76255714D01*
X114387380Y-76636666D01*
X114435000Y-76731904D01*
X114482619Y-76779523D01*
X114577857Y-76827142D01*
X114720714Y-76827142D01*
X114815952Y-76779523D01*
X114863571Y-76731904D01*
X114911190Y-76636666D01*
X114911190Y-76255714D01*
X114720714Y-77684285D02*
X115387380Y-77684285D01*
X114339761Y-77446190D02*
X115054047Y-77208095D01*
X115054047Y-77827142D01*
X114720714Y-78636666D02*
X115387380Y-78636666D01*
X114339761Y-78398571D02*
X115054047Y-78160476D01*
X115054047Y-78779523D01*
X113482380Y-76827142D02*
X113006190Y-76493809D01*
X113482380Y-76255714D02*
X112482380Y-76255714D01*
X112482380Y-76636666D01*
X112530000Y-76731904D01*
X112577619Y-76779523D01*
X112672857Y-76827142D01*
X112815714Y-76827142D01*
X112910952Y-76779523D01*
X112958571Y-76731904D01*
X113006190Y-76636666D01*
X113006190Y-76255714D01*
X112815714Y-77684285D02*
X113482380Y-77684285D01*
X112434761Y-77446190D02*
X113149047Y-77208095D01*
X113149047Y-77827142D01*
X112482380Y-78684285D02*
X112482380Y-78208095D01*
X112958571Y-78160476D01*
X112910952Y-78208095D01*
X112863333Y-78303333D01*
X112863333Y-78541428D01*
X112910952Y-78636666D01*
X112958571Y-78684285D01*
X113053809Y-78731904D01*
X113291904Y-78731904D01*
X113387142Y-78684285D01*
X113434761Y-78636666D01*
X113482380Y-78541428D01*
X113482380Y-78303333D01*
X113434761Y-78208095D01*
X113387142Y-78160476D01*
X111577380Y-76827142D02*
X111101190Y-76493809D01*
X111577380Y-76255714D02*
X110577380Y-76255714D01*
X110577380Y-76636666D01*
X110625000Y-76731904D01*
X110672619Y-76779523D01*
X110767857Y-76827142D01*
X110910714Y-76827142D01*
X111005952Y-76779523D01*
X111053571Y-76731904D01*
X111101190Y-76636666D01*
X111101190Y-76255714D01*
X110910714Y-77684285D02*
X111577380Y-77684285D01*
X110529761Y-77446190D02*
X111244047Y-77208095D01*
X111244047Y-77827142D01*
X110577380Y-78636666D02*
X110577380Y-78446190D01*
X110625000Y-78350952D01*
X110672619Y-78303333D01*
X110815476Y-78208095D01*
X111005952Y-78160476D01*
X111386904Y-78160476D01*
X111482142Y-78208095D01*
X111529761Y-78255714D01*
X111577380Y-78350952D01*
X111577380Y-78541428D01*
X111529761Y-78636666D01*
X111482142Y-78684285D01*
X111386904Y-78731904D01*
X111148809Y-78731904D01*
X111053571Y-78684285D01*
X111005952Y-78636666D01*
X110958333Y-78541428D01*
X110958333Y-78350952D01*
X111005952Y-78255714D01*
X111053571Y-78208095D01*
X111148809Y-78160476D01*
X133357857Y-79827380D02*
X133691190Y-79351190D01*
X133929285Y-79827380D02*
X133929285Y-78827380D01*
X133548333Y-78827380D01*
X133453095Y-78875000D01*
X133405476Y-78922619D01*
X133357857Y-79017857D01*
X133357857Y-79160714D01*
X133405476Y-79255952D01*
X133453095Y-79303571D01*
X133548333Y-79351190D01*
X133929285Y-79351190D01*
X132500714Y-79160714D02*
X132500714Y-79827380D01*
X132738809Y-78779761D02*
X132976904Y-79494047D01*
X132357857Y-79494047D01*
X132072142Y-78827380D02*
X131405476Y-78827380D01*
X131834047Y-79827380D01*
X133357857Y-81732380D02*
X133691190Y-81256190D01*
X133929285Y-81732380D02*
X133929285Y-80732380D01*
X133548333Y-80732380D01*
X133453095Y-80780000D01*
X133405476Y-80827619D01*
X133357857Y-80922857D01*
X133357857Y-81065714D01*
X133405476Y-81160952D01*
X133453095Y-81208571D01*
X133548333Y-81256190D01*
X133929285Y-81256190D01*
X132500714Y-81065714D02*
X132500714Y-81732380D01*
X132738809Y-80684761D02*
X132976904Y-81399047D01*
X132357857Y-81399047D01*
X131834047Y-81160952D02*
X131929285Y-81113333D01*
X131976904Y-81065714D01*
X132024523Y-80970476D01*
X132024523Y-80922857D01*
X131976904Y-80827619D01*
X131929285Y-80780000D01*
X131834047Y-80732380D01*
X131643571Y-80732380D01*
X131548333Y-80780000D01*
X131500714Y-80827619D01*
X131453095Y-80922857D01*
X131453095Y-80970476D01*
X131500714Y-81065714D01*
X131548333Y-81113333D01*
X131643571Y-81160952D01*
X131834047Y-81160952D01*
X131929285Y-81208571D01*
X131976904Y-81256190D01*
X132024523Y-81351428D01*
X132024523Y-81541904D01*
X131976904Y-81637142D01*
X131929285Y-81684761D01*
X131834047Y-81732380D01*
X131643571Y-81732380D01*
X131548333Y-81684761D01*
X131500714Y-81637142D01*
X131453095Y-81541904D01*
X131453095Y-81351428D01*
X131500714Y-81256190D01*
X131548333Y-81208571D01*
X131643571Y-81160952D01*
X133357857Y-83637380D02*
X133691190Y-83161190D01*
X133929285Y-83637380D02*
X133929285Y-82637380D01*
X133548333Y-82637380D01*
X133453095Y-82685000D01*
X133405476Y-82732619D01*
X133357857Y-82827857D01*
X133357857Y-82970714D01*
X133405476Y-83065952D01*
X133453095Y-83113571D01*
X133548333Y-83161190D01*
X133929285Y-83161190D01*
X132500714Y-82970714D02*
X132500714Y-83637380D01*
X132738809Y-82589761D02*
X132976904Y-83304047D01*
X132357857Y-83304047D01*
X131929285Y-83637380D02*
X131738809Y-83637380D01*
X131643571Y-83589761D01*
X131595952Y-83542142D01*
X131500714Y-83399285D01*
X131453095Y-83208809D01*
X131453095Y-82827857D01*
X131500714Y-82732619D01*
X131548333Y-82685000D01*
X131643571Y-82637380D01*
X131834047Y-82637380D01*
X131929285Y-82685000D01*
X131976904Y-82732619D01*
X132024523Y-82827857D01*
X132024523Y-83065952D01*
X131976904Y-83161190D01*
X131929285Y-83208809D01*
X131834047Y-83256428D01*
X131643571Y-83256428D01*
X131548333Y-83208809D01*
X131500714Y-83161190D01*
X131453095Y-83065952D01*
X133357857Y-85542380D02*
X133691190Y-85066190D01*
X133929285Y-85542380D02*
X133929285Y-84542380D01*
X133548333Y-84542380D01*
X133453095Y-84590000D01*
X133405476Y-84637619D01*
X133357857Y-84732857D01*
X133357857Y-84875714D01*
X133405476Y-84970952D01*
X133453095Y-85018571D01*
X133548333Y-85066190D01*
X133929285Y-85066190D01*
X132453095Y-84542380D02*
X132929285Y-84542380D01*
X132976904Y-85018571D01*
X132929285Y-84970952D01*
X132834047Y-84923333D01*
X132595952Y-84923333D01*
X132500714Y-84970952D01*
X132453095Y-85018571D01*
X132405476Y-85113809D01*
X132405476Y-85351904D01*
X132453095Y-85447142D01*
X132500714Y-85494761D01*
X132595952Y-85542380D01*
X132834047Y-85542380D01*
X132929285Y-85494761D01*
X132976904Y-85447142D01*
X131786428Y-84542380D02*
X131691190Y-84542380D01*
X131595952Y-84590000D01*
X131548333Y-84637619D01*
X131500714Y-84732857D01*
X131453095Y-84923333D01*
X131453095Y-85161428D01*
X131500714Y-85351904D01*
X131548333Y-85447142D01*
X131595952Y-85494761D01*
X131691190Y-85542380D01*
X131786428Y-85542380D01*
X131881666Y-85494761D01*
X131929285Y-85447142D01*
X131976904Y-85351904D01*
X132024523Y-85161428D01*
X132024523Y-84923333D01*
X131976904Y-84732857D01*
X131929285Y-84637619D01*
X131881666Y-84590000D01*
X131786428Y-84542380D01*
X109227857Y-85542380D02*
X109561190Y-85066190D01*
X109799285Y-85542380D02*
X109799285Y-84542380D01*
X109418333Y-84542380D01*
X109323095Y-84590000D01*
X109275476Y-84637619D01*
X109227857Y-84732857D01*
X109227857Y-84875714D01*
X109275476Y-84970952D01*
X109323095Y-85018571D01*
X109418333Y-85066190D01*
X109799285Y-85066190D01*
X108323095Y-84542380D02*
X108799285Y-84542380D01*
X108846904Y-85018571D01*
X108799285Y-84970952D01*
X108704047Y-84923333D01*
X108465952Y-84923333D01*
X108370714Y-84970952D01*
X108323095Y-85018571D01*
X108275476Y-85113809D01*
X108275476Y-85351904D01*
X108323095Y-85447142D01*
X108370714Y-85494761D01*
X108465952Y-85542380D01*
X108704047Y-85542380D01*
X108799285Y-85494761D01*
X108846904Y-85447142D01*
X107323095Y-85542380D02*
X107894523Y-85542380D01*
X107608809Y-85542380D02*
X107608809Y-84542380D01*
X107704047Y-84685238D01*
X107799285Y-84780476D01*
X107894523Y-84828095D01*
X109227857Y-83637380D02*
X109561190Y-83161190D01*
X109799285Y-83637380D02*
X109799285Y-82637380D01*
X109418333Y-82637380D01*
X109323095Y-82685000D01*
X109275476Y-82732619D01*
X109227857Y-82827857D01*
X109227857Y-82970714D01*
X109275476Y-83065952D01*
X109323095Y-83113571D01*
X109418333Y-83161190D01*
X109799285Y-83161190D01*
X108323095Y-82637380D02*
X108799285Y-82637380D01*
X108846904Y-83113571D01*
X108799285Y-83065952D01*
X108704047Y-83018333D01*
X108465952Y-83018333D01*
X108370714Y-83065952D01*
X108323095Y-83113571D01*
X108275476Y-83208809D01*
X108275476Y-83446904D01*
X108323095Y-83542142D01*
X108370714Y-83589761D01*
X108465952Y-83637380D01*
X108704047Y-83637380D01*
X108799285Y-83589761D01*
X108846904Y-83542142D01*
X107894523Y-82732619D02*
X107846904Y-82685000D01*
X107751666Y-82637380D01*
X107513571Y-82637380D01*
X107418333Y-82685000D01*
X107370714Y-82732619D01*
X107323095Y-82827857D01*
X107323095Y-82923095D01*
X107370714Y-83065952D01*
X107942142Y-83637380D01*
X107323095Y-83637380D01*
X109227857Y-81732380D02*
X109561190Y-81256190D01*
X109799285Y-81732380D02*
X109799285Y-80732380D01*
X109418333Y-80732380D01*
X109323095Y-80780000D01*
X109275476Y-80827619D01*
X109227857Y-80922857D01*
X109227857Y-81065714D01*
X109275476Y-81160952D01*
X109323095Y-81208571D01*
X109418333Y-81256190D01*
X109799285Y-81256190D01*
X108323095Y-80732380D02*
X108799285Y-80732380D01*
X108846904Y-81208571D01*
X108799285Y-81160952D01*
X108704047Y-81113333D01*
X108465952Y-81113333D01*
X108370714Y-81160952D01*
X108323095Y-81208571D01*
X108275476Y-81303809D01*
X108275476Y-81541904D01*
X108323095Y-81637142D01*
X108370714Y-81684761D01*
X108465952Y-81732380D01*
X108704047Y-81732380D01*
X108799285Y-81684761D01*
X108846904Y-81637142D01*
X107942142Y-80732380D02*
X107323095Y-80732380D01*
X107656428Y-81113333D01*
X107513571Y-81113333D01*
X107418333Y-81160952D01*
X107370714Y-81208571D01*
X107323095Y-81303809D01*
X107323095Y-81541904D01*
X107370714Y-81637142D01*
X107418333Y-81684761D01*
X107513571Y-81732380D01*
X107799285Y-81732380D01*
X107894523Y-81684761D01*
X107942142Y-81637142D01*
X109227857Y-79827380D02*
X109561190Y-79351190D01*
X109799285Y-79827380D02*
X109799285Y-78827380D01*
X109418333Y-78827380D01*
X109323095Y-78875000D01*
X109275476Y-78922619D01*
X109227857Y-79017857D01*
X109227857Y-79160714D01*
X109275476Y-79255952D01*
X109323095Y-79303571D01*
X109418333Y-79351190D01*
X109799285Y-79351190D01*
X108323095Y-78827380D02*
X108799285Y-78827380D01*
X108846904Y-79303571D01*
X108799285Y-79255952D01*
X108704047Y-79208333D01*
X108465952Y-79208333D01*
X108370714Y-79255952D01*
X108323095Y-79303571D01*
X108275476Y-79398809D01*
X108275476Y-79636904D01*
X108323095Y-79732142D01*
X108370714Y-79779761D01*
X108465952Y-79827380D01*
X108704047Y-79827380D01*
X108799285Y-79779761D01*
X108846904Y-79732142D01*
X107418333Y-79160714D02*
X107418333Y-79827380D01*
X107656428Y-78779761D02*
X107894523Y-79494047D01*
X107275476Y-79494047D01*
X59435904Y-82062380D02*
X59435904Y-82871904D01*
X59388285Y-82967142D01*
X59340666Y-83014761D01*
X59245428Y-83062380D01*
X59054952Y-83062380D01*
X58959714Y-83014761D01*
X58912095Y-82967142D01*
X58864476Y-82871904D01*
X58864476Y-82062380D01*
X57864476Y-83062380D02*
X58435904Y-83062380D01*
X58150190Y-83062380D02*
X58150190Y-82062380D01*
X58245428Y-82205238D01*
X58340666Y-82300476D01*
X58435904Y-82348095D01*
X116860244Y-63674313D02*
X117432664Y-64246733D01*
X117466335Y-64347748D01*
X117466335Y-64415091D01*
X117432664Y-64516107D01*
X117297977Y-64650794D01*
X117196961Y-64684465D01*
X117129618Y-64684465D01*
X117028603Y-64650794D01*
X116456183Y-64078374D01*
X116456183Y-65492587D02*
X116860244Y-65088526D01*
X116658213Y-65290557D02*
X115951107Y-64583450D01*
X116119465Y-64617122D01*
X116254152Y-64617122D01*
X116355168Y-64583450D01*
X115109313Y-65425244D02*
X115446030Y-65088526D01*
X115816420Y-65391572D01*
X115749076Y-65391572D01*
X115648061Y-65425244D01*
X115479702Y-65593603D01*
X115446030Y-65694618D01*
X115446030Y-65761961D01*
X115479702Y-65862977D01*
X115648061Y-66031335D01*
X115749076Y-66065007D01*
X115816420Y-66065007D01*
X115917435Y-66031335D01*
X116085794Y-65862977D01*
X116119465Y-65761961D01*
X116119465Y-65694618D01*
X76676190Y-61571190D02*
X76676190Y-62047380D01*
X77009523Y-61047380D02*
X76676190Y-61571190D01*
X76342857Y-61047380D01*
X75485714Y-62047380D02*
X76057142Y-62047380D01*
X75771428Y-62047380D02*
X75771428Y-61047380D01*
X75866666Y-61190238D01*
X75961904Y-61285476D01*
X76057142Y-61333095D01*
X129648190Y-59975809D02*
X130124380Y-59975809D01*
X129124380Y-59642476D02*
X129648190Y-59975809D01*
X129124380Y-60309142D01*
X129219619Y-60594857D02*
X129172000Y-60642476D01*
X129124380Y-60737714D01*
X129124380Y-60975809D01*
X129172000Y-61071047D01*
X129219619Y-61118666D01*
X129314857Y-61166285D01*
X129410095Y-61166285D01*
X129552952Y-61118666D01*
X130124380Y-60547238D01*
X130124380Y-61166285D01*
X53786380Y-92266476D02*
X54500666Y-92266476D01*
X54643523Y-92218857D01*
X54738761Y-92123619D01*
X54786380Y-91980761D01*
X54786380Y-91885523D01*
X53881619Y-92695047D02*
X53834000Y-92742666D01*
X53786380Y-92837904D01*
X53786380Y-93076000D01*
X53834000Y-93171238D01*
X53881619Y-93218857D01*
X53976857Y-93266476D01*
X54072095Y-93266476D01*
X54214952Y-93218857D01*
X54786380Y-92647428D01*
X54786380Y-93266476D01*
X53786380Y-94171238D02*
X53786380Y-93695047D01*
X54262571Y-93647428D01*
X54214952Y-93695047D01*
X54167333Y-93790285D01*
X54167333Y-94028380D01*
X54214952Y-94123619D01*
X54262571Y-94171238D01*
X54357809Y-94218857D01*
X54595904Y-94218857D01*
X54691142Y-94171238D01*
X54738761Y-94123619D01*
X54786380Y-94028380D01*
X54786380Y-93790285D01*
X54738761Y-93695047D01*
X54691142Y-93647428D01*
M02*
