M48
; DRILL file {KiCad (5.1.5)-3} date 2021/04/21 21:21:56
; FORMAT={-:-/ absolute / inch / decimal}
; #@! TF.CreationDate,2021-04-21T21:21:56+09:00
; #@! TF.GenerationSoftware,Kicad,Pcbnew,(5.1.5)-3
FMAT,2
INCH
T1C0.0157
T2C0.0197
T3C0.0236
T4C0.0256
T5C0.0300
T6C0.0354
T7C0.0390
T8C0.0394
T9C0.0512
T10C0.1260
T11C0.0256
%
G90
G05
T1
X1.875Y-2.6018
X1.925Y-3.5
X1.9587Y-2.624
X2.0221Y-2.4782
X2.025Y-3.0474
X2.0517Y-2.7928
X2.0524Y-2.9398
X2.0545Y-2.9878
X2.1679Y-3.0929
X2.1697Y-3.1697
X2.175Y-2.975
X2.175Y-3.025
X2.2Y-3.625
X2.2044Y-3.1392
X2.25Y-3.35
X2.275Y-3.25
X2.3Y-2.925
X2.3196Y-2.6956
X2.3422Y-2.8182
X2.3648Y-2.788
X2.3662Y-3.4857
X2.3899Y-2.8434
X2.4234Y-2.7878
X2.534Y-3.1861
X2.5352Y-3.5714
X2.5352Y-2.3909
X2.5458Y-3.125
X2.55Y-2.7287
X2.5698Y-2.5545
X2.5707Y-2.8085
X2.575Y-3.0666
X2.5895Y-2.707
X2.6054Y-2.4751
X2.6375Y-2.75
X2.6685Y-2.6371
X2.6731Y-2.5369
X2.677Y-2.4476
X2.7Y-2.775
X2.7839Y-3.2102
X2.7859Y-2.4476
X2.8566Y-3.2012
X2.8771Y-2.4521
X2.9005Y-2.43
X2.9005Y-2.7146
X2.9876Y-2.4726
X3.0Y-2.75
X3.0091Y-3.1693
X3.0127Y-2.4367
X3.0637Y-3.0318
X3.0683Y-2.9857
X3.0708Y-2.7845
X3.075Y-2.675
X3.0762Y-2.8223
X3.0791Y-2.5826
X3.1094Y-3.4172
X3.1123Y-2.7315
X3.1376Y-2.6963
X3.1387Y-2.1042
X3.1487Y-2.7736
X3.195Y-2.6224
X3.2197Y-2.9342
X3.2493Y-3.3868
X3.3364Y-2.4946
X3.3614Y-3.3486
X3.3659Y-2.2505
X3.4094Y-2.7965
X3.4173Y-3.4316
X3.4323Y-2.1266
X3.5861Y-2.1141
X3.6987Y-2.3891
X3.7211Y-2.7229
X3.9Y-3.175
X3.9521Y-3.238
X3.9674Y-2.9802
X4.0Y-2.7561
X4.0406Y-4.5582
X4.0446Y-3.1192
X4.1364Y-3.0787
X4.1954Y-5.4825
X4.2315Y-4.8746
X4.2325Y-3.3911
X4.247Y-3.46
X4.2637Y-3.1202
X4.314Y-5.1704
X4.3367Y-3.4594
X4.502Y-3.2644
X4.5172Y-3.0798
X4.5843Y-3.0736
X4.6084Y-5.0471
X4.653Y-3.2624
X4.6924Y-4.1156
X4.7Y-5.128
X4.703Y-2.7322
X4.7081Y-3.0809
X4.7488Y-2.8602
X4.75Y-4.9093
X4.7663Y-2.288
X4.7864Y-2.9763
X4.8029Y-2.8298
X4.8101Y-2.6559
X4.8133Y-2.6998
X4.8154Y-2.7748
X4.825Y-4.2906
X4.8731Y-3.2645
X4.8884Y-4.9208
X4.9045Y-3.0834
X4.9488Y-3.0414
X4.9488Y-3.2653
X4.9796Y-2.732
X5.015Y-4.3226
X5.0379Y-5.3924
X5.0791Y-3.3269
X5.125Y-2.575
X5.1832Y-5.5786
X5.1854Y-3.3211
X5.1984Y-3.2719
X5.2058Y-3.6209
X5.2198Y-2.7427
X5.2679Y-3.4008
X5.2709Y-5.2026
X5.2929Y-3.0797
X5.2996Y-2.9044
X5.41Y-4.0102
X5.4504Y-3.0504
X5.4504Y-3.3687
X5.5185Y-3.225
X5.5261Y-2.1989
X5.5277Y-3.0577
T2
X4.7856Y-2.35
X4.825Y-2.35
X4.8644Y-2.35
X4.9037Y-2.35
X4.5856Y-2.35
X4.625Y-2.35
X4.6644Y-2.35
X4.7037Y-2.35
T4
X4.775Y-4.4
X4.825Y-4.4
X4.875Y-4.4
X5.6Y-4.875
X5.6Y-4.925
X5.6Y-4.975
X3.44Y-2.275
X3.49Y-2.275
X3.54Y-2.275
X3.59Y-2.275
X3.64Y-2.275
X3.69Y-2.275
X3.875Y-4.675
X3.875Y-4.725
X3.875Y-4.775
X4.575Y-5.775
X4.625Y-5.775
X4.675Y-5.775
T5
X3.4038Y-2.455
X3.4825Y-2.455
X3.5613Y-2.455
X3.64Y-2.455
X4.245Y-2.4138
X4.245Y-2.4925
X4.245Y-2.5713
X4.245Y-2.65
X3.5484Y-2.675
X3.5484Y-2.875
T6
X4.575Y-4.4
X4.675Y-4.4
X3.875Y-4.875
X3.875Y-4.975
X5.6Y-4.675
X5.6Y-4.775
X4.775Y-5.775
X4.875Y-5.775
T7
X3.63Y-3.475
X3.63Y-3.6522
X3.63Y-3.075
X3.63Y-3.2522
T8
X2.375Y-2.225
X2.475Y-2.225
X2.575Y-2.225
X2.675Y-2.225
X2.775Y-2.225
X2.875Y-2.225
X2.975Y-2.225
X3.075Y-2.225
X3.175Y-2.225
X4.05Y-2.1766
X4.05Y-2.275
X4.15Y-2.05
X4.25Y-2.05
X4.35Y-2.05
X4.45Y-2.05
X4.55Y-2.05
X4.65Y-2.05
X4.75Y-2.05
X4.85Y-2.05
X4.95Y-2.05
X5.05Y-2.05
X5.15Y-2.05
X5.25Y-2.05
X5.35Y-2.05
X2.0157Y-3.6842
X2.0157Y-3.7826
X5.53Y-2.47
X5.53Y-2.57
X5.53Y-2.67
X5.53Y-2.77
X5.53Y-2.87
X5.53Y-2.97
X5.45Y-3.5508
X5.45Y-3.6492
X2.125Y-3.8
X2.225Y-3.8
X2.325Y-3.8
X3.85Y-4.225
X3.85Y-4.325
X3.85Y-4.425
X4.42Y-3.5108
X4.42Y-3.6092
X4.325Y-4.225
X4.425Y-4.225
X4.525Y-4.225
X4.625Y-4.225
X4.725Y-4.225
X4.825Y-4.225
X4.925Y-4.225
X5.025Y-4.225
X5.125Y-4.225
X2.17Y-2.23
X2.17Y-2.33
X2.17Y-2.43
X2.17Y-2.53
X2.17Y-2.63
X2.17Y-2.73
X4.05Y-3.5508
X4.05Y-3.6492
X2.175Y-2.0484
X2.275Y-2.0484
X2.375Y-2.0484
X2.475Y-2.0484
X2.575Y-2.0484
X2.675Y-2.0484
X2.775Y-2.0484
X2.875Y-2.0484
X2.975Y-2.0484
X3.075Y-2.0484
X3.175Y-2.0484
X3.275Y-2.0484
X3.375Y-2.0484
X5.25Y-3.825
X5.35Y-3.825
X5.45Y-3.825
X4.125Y-4.05
X4.225Y-4.05
X4.325Y-4.05
X4.425Y-4.05
X4.525Y-4.05
X4.625Y-4.05
X4.725Y-4.05
X4.825Y-4.05
X4.925Y-4.05
X5.025Y-4.05
X5.125Y-4.05
X5.225Y-4.05
X5.325Y-4.05
X5.225Y-5.825
X5.325Y-5.825
X5.425Y-5.825
X5.6Y-4.225
X5.6Y-4.325
X5.6Y-4.425
X5.45Y-2.1758
X5.45Y-2.2742
X4.35Y-2.225
X4.45Y-2.225
X4.55Y-2.225
X4.65Y-2.225
X4.75Y-2.225
X4.85Y-2.225
X4.95Y-2.225
X5.05Y-2.225
X5.15Y-2.225
X4.1Y-3.8
X4.2Y-3.8
X4.3Y-3.8
X3.275Y-3.825
X3.375Y-3.825
X3.475Y-3.825
T9
X3.532Y-3.4258
X3.532Y-3.7018
X3.532Y-3.0258
X3.532Y-3.3018
T10
X3.3563Y-5.0077
X2.1752Y-5.0077
X2.7657Y-5.4998
X3.3563Y-5.4998
X3.3563Y-4.5156
X2.1752Y-4.5156
X2.7657Y-5.0077
X2.1752Y-5.4998
X2.7657Y-4.5156
T11
X2.0474Y-2.8962
X2.0474Y-3.1238
T3
G00X1.9155Y-2.8399
M15
G01X1.8919Y-2.8399
M16
G05
G00X1.9155Y-3.1801
M15
G01X1.8919Y-3.1801
M16
G05
G00X2.0899Y-2.8399
M15
G01X2.0466Y-2.8399
M16
G05
G00X2.0899Y-3.1801
M15
G01X2.0466Y-3.1801
M16
G05
T0
M30
